<?xml version="1.0" encoding="utf-8"?>
<!-- Generator: Adobe Illustrator 24.3.0, SVG Export Plug-In . SVG Version: 6.00 Build 0)  -->
<svg version="1.1" id="Capa_1" xmlns="http://www.w3.org/2000/svg" xmlns:xlink="http://www.w3.org/1999/xlink" x="0px" y="0px"
	 viewBox="0 0 46 100" style="enable-background:new 0 0 46 100;" xml:space="preserve">
<style type="text/css">
	.st0{fill:#FFFFFF;}
</style>
<g>
	<path class="st0" d="M23,3.3c10.7,0,19.3,8.7,19.3,19.3v27.3c0,10.7-8.7,19.3-19.3,19.3c-10.7,0-19.3-8.7-19.3-19.3V22.7
		C3.7,12,12.3,3.3,23,3.3 M23,0L23,0C10.5,0,0.3,10.1,0.3,22.7v27.3c0,12.5,10.1,22.7,22.7,22.7h0c12.5,0,22.7-10.1,22.7-22.7V22.7
		C45.7,10.1,35.5,0,23,0L23,0z"/>
	<g>
		<path class="st0" d="M23,27.9L23,27.9c-1.8,0-3.3-1.5-3.3-3.3V17c0-1.8,1.5-3.3,3.3-3.3h0c1.8,0,3.3,1.5,3.3,3.3v7.5
			C26.3,26.4,24.8,27.9,23,27.9z"/>
	</g>
	<path class="st0" d="M39,85.4c-0.6-0.7-1.6-0.8-2.3-0.2L23,96.2L9.3,85.1c-0.7-0.6-1.8-0.5-2.3,0.2c-0.6,0.7-0.5,1.8,0.2,2.3
		l14.7,11.9c0.1,0.1,0.2,0.2,0.3,0.2c0,0,0,0,0,0c0.1,0,0.2,0.1,0.3,0.1c0,0,0,0,0.1,0c0.1,0,0.2,0,0.3,0c0,0,0,0,0,0s0,0,0,0
		c0.1,0,0.2,0,0.3,0c0,0,0,0,0,0c0.1,0,0.2-0.1,0.3-0.1c0,0,0,0,0,0c0.1-0.1,0.2-0.1,0.3-0.2l14.7-11.9C39.5,87.1,39.6,86.1,39,85.4
		z"/>
</g>
</svg>
