<?xml version="1.0" encoding="utf-8"?>
<!-- Generator: Adobe Illustrator 24.3.0, SVG Export Plug-In . SVG Version: 6.00 Build 0)  -->
<svg version="1.1" id="Capa_1" xmlns="http://www.w3.org/2000/svg" xmlns:xlink="http://www.w3.org/1999/xlink" x="0px" y="0px"
	 viewBox="0 0 225 110" style="enable-background:new 0 0 225 110;" xml:space="preserve">
<style type="text/css">
	.st0{fill:#F42534;}
	.st1{fill:#77BC1F;}
</style>
<g>
	<path class="st0" d="M66.4,66c3.9-2.7,9.3-6.4,9.3-13.3c0-7.4-4.3-11.5-12.2-11.5c-6.8,0-11.2,3.2-12.2,8.9c0,0.1,0,0.3-0.1,0.5
		c-0.1,0.6,0.3,1.2,0.9,1.3l7.9,1.4c0.7,0.1,1.2-0.4,1.3-1.1c0.3-1.6,1-2.2,2.1-2.2c1.5,0,2,0.9,2,2.6c0,2.5-2.3,4.2-5.2,6.1
		c-3.9,2.7-8.8,5.9-8.8,13.2v4c0,0.6,0.5,1.1,1.1,1.1h21.8c0.6,0,1.1-0.5,1.1-1.1v-6.4c0-0.6-0.5-1.1-1.1-1.1H63.2
		C64,67.7,65.1,66.9,66.4,66"/>
	<path class="st1" d="M98.5,61.9c0-4-1.3-6.3-3.5-6.3c-2.6,0-4.2,1.9-4.2,5.2v6.8c0.8,0.5,2.1,1,3.3,1
		C96.9,68.5,98.5,66.1,98.5,61.9 M110,61.6c0,10.4-6,16.2-16.7,16.2c-4.5,0-9.1-1-13-2.8c-0.5-0.2-0.8-0.7-0.8-1.3V36.3
		c0-0.6,0.3-1.1,1-1.4c0.7-0.2,1.6-0.2,3.7-1c2.9-1.1,4.8-1.8,4.8-1.8c0.9-0.3,1.9,0.4,1.9,1.4v14.8c1.8-1.4,4-2.1,6.7-2.1
		C105.4,46.3,110,51.8,110,61.6"/>
	<path class="st1" d="M124.2,62.1c0,3.8,1,6.4,3.9,6.4c2.9,0,3.9-2.6,3.9-6.4c0-3.8-1-6.5-3.9-6.5C125.2,55.6,124.2,58.3,124.2,62.1
		 M112.7,62.1c0-10.2,6.2-15.9,15.4-15.9c9.2,0,15.4,5.8,15.4,15.9c0,10.1-6.2,15.7-15.4,15.7C118.9,77.9,112.7,72.2,112.7,62.1"/>
	<path class="st1" d="M173.2,47.3H163c-0.2,0-0.5,0.1-0.6,0.3l-3.5,6.4c-0.3,0.5-0.9,0.5-1.2,0l-3.5-6.4c-0.1-0.2-0.3-0.3-0.6-0.3
		h-10.2c-0.5,0-0.8,0.6-0.6,1l9.2,14l-9,13.8c-0.3,0.4,0,1,0.6,1h10.1c0.2,0,0.5-0.1,0.6-0.4l3.3-6.5c0.2-0.5,0.9-0.5,1.2,0l3.3,6.5
		c0.1,0.2,0.3,0.4,0.6,0.4H173c0.5,0,0.8-0.6,0.6-1l-9-13.8l9.2-14C174,47.9,173.7,47.3,173.2,47.3"/>
</g>
</svg>
