<?xml version="1.0" encoding="utf-8"?>
<!-- Generator: Adobe Illustrator 24.0.1, SVG Export Plug-In . SVG Version: 6.00 Build 0)  -->
<svg version="1.1" id="Capa_1" xmlns="http://www.w3.org/2000/svg" xmlns:xlink="http://www.w3.org/1999/xlink" x="0px" y="0px"
	 viewBox="0 0 225 110" style="enable-background:new 0 0 225 110;" xml:space="preserve">
<style type="text/css">
	.st0{fill:#006337;}
	.st1{fill:#F8B133;}
	.st2{fill:#9C9B9B;}
	.st3{fill:#808080;}
</style>
<g>
	<g>
		<g>
			<path class="st0" d="M107.2,41.1v-9.6c0.2,0,0.5-0.1,0.9-0.1c0.4,0,0.7,0,1,0.1v9.6c-0.3,0-0.6,0.1-1,0.1
				C107.8,41.2,107.5,41.1,107.2,41.1z"/>
		</g>
		<g>
			<path class="st0" d="M111.2,41.1l0.7-9.5c0.4-0.1,0.8-0.1,1.2-0.1c0.4,0,0.8,0,1.2,0.1l1.1,3.9c0.3,1.2,0.5,2,0.5,2.4h0.1
				c0.1-0.4,0.2-1.2,0.5-2.4l1.1-3.9c0.4-0.1,0.8-0.1,1.2-0.1c0.4,0,0.8,0,1.2,0.1l0.7,9.5c-0.3,0.1-0.6,0.1-0.9,0.1
				c-0.3,0-0.6,0-0.9-0.1l-0.3-4.5c-0.1-1.2-0.1-2.2-0.1-3h-0.1l-1.6,6.1c-0.3,0-0.6,0.1-1,0.1c-0.3,0-0.6,0-1-0.1l-1.6-6.1h-0.1
				c0,1.1-0.1,2.2-0.1,3l-0.3,4.5c-0.2,0-0.5,0.1-0.9,0.1C111.8,41.2,111.5,41.1,111.2,41.1z"/>
		</g>
		<g>
			<path class="st0" d="M126.1,37.9h-1.3v3.2c-0.3,0-0.6,0.1-0.9,0.1c-0.4,0-0.7,0-0.9-0.1v-9.5l0.1-0.1c0.8,0,1.4,0,1.9,0
				c0.5,0,0.9,0,1.2,0c1,0,1.8,0.3,2.4,0.8c0.6,0.6,0.9,1.3,0.9,2.4c0,0.5-0.1,1-0.2,1.4c-0.2,0.4-0.4,0.7-0.7,1
				c-0.3,0.3-0.6,0.5-1,0.6C127.1,37.8,126.6,37.9,126.1,37.9z M124.8,32.9v3.6c0.4,0,0.7,0,0.9,0c0.3,0,0.5,0,0.7,0
				c0.2,0,0.3-0.1,0.5-0.2c0.1-0.1,0.2-0.2,0.3-0.4c0.1-0.2,0.2-0.3,0.2-0.5c0-0.2,0.1-0.4,0.1-0.6c0-0.2,0-0.4-0.1-0.6
				c0-0.2-0.1-0.4-0.2-0.6c-0.1-0.2-0.3-0.3-0.4-0.4c-0.2-0.1-0.4-0.2-0.7-0.2c-0.3,0-0.5,0-0.7,0C125.2,32.9,125,32.9,124.8,32.9z"
				/>
		</g>
		<g>
			<path class="st0" d="M132,40.4c-1-0.9-1.5-2.2-1.5-4.1c0-0.8,0.1-1.5,0.3-2.1c0.2-0.6,0.4-1.1,0.8-1.6c0.3-0.4,0.8-0.7,1.3-1
				c0.5-0.2,1.1-0.3,1.7-0.3c0.6,0,1.2,0.1,1.7,0.3c0.5,0.2,0.9,0.5,1.3,1c0.3,0.4,0.6,0.9,0.8,1.6c0.2,0.6,0.3,1.3,0.3,2.1
				c0,0.8-0.1,1.5-0.3,2.1c-0.2,0.6-0.4,1.1-0.8,1.6c-0.3,0.4-0.8,0.7-1.3,1c-0.5,0.2-1.1,0.3-1.7,0.3C133.5,41.3,132.7,41,132,40.4
				z M136.6,36.3c0-2.3-0.7-3.5-2.1-3.5c-1.4,0-2.1,1.2-2.1,3.5c0,2.3,0.7,3.5,2.1,3.5C135.9,39.8,136.6,38.7,136.6,36.3z"/>
		</g>
		<g>
			<path class="st0" d="M146.9,34.4c0,0.3,0,0.6-0.1,0.9c-0.1,0.3-0.2,0.5-0.4,0.7c-0.2,0.2-0.3,0.4-0.6,0.6
				c-0.2,0.2-0.4,0.3-0.7,0.4c0.2,0.1,0.4,0.2,0.6,0.4c0.2,0.2,0.3,0.5,0.4,0.8l0.5,1.4c0.1,0.2,0.2,0.4,0.3,0.6
				c0.1,0.2,0.2,0.3,0.4,0.4c-0.1,0.2-0.3,0.3-0.5,0.4c-0.2,0.1-0.5,0.2-0.8,0.2c-0.3,0-0.5-0.1-0.7-0.3c-0.2-0.2-0.3-0.5-0.5-0.9
				l-0.6-1.7c-0.1-0.3-0.3-0.6-0.5-0.7c-0.2-0.2-0.5-0.3-0.8-0.3h-0.9v3.7c-0.1,0-0.3,0-0.4,0c-0.2,0-0.3,0-0.5,0
				c-0.3,0-0.6,0-0.9-0.1v-9.5l0.1-0.1c0.8,0,1.4,0,1.9,0c0.5,0,0.9,0,1.3,0c1,0,1.8,0.3,2.4,0.8C146.6,32.7,146.9,33.5,146.9,34.4z
				 M142.2,32.9V36c0.5,0,0.9,0,1.3,0c1,0,1.5-0.5,1.5-1.5c0-1-0.5-1.5-1.5-1.5c-0.3,0-0.5,0-0.7,0
				C142.5,32.9,142.3,32.9,142.2,32.9z"/>
		</g>
		<g>
			<path class="st0" d="M152,34.1v7c-0.3,0-0.6,0.1-0.9,0.1c-0.4,0-0.7,0-0.9-0.1v-7l0-1l-0.9,0h-1.6c0-0.2-0.1-0.5-0.1-0.8
				c0-0.3,0-0.6,0.1-0.8h6.7c0.1,0.2,0.1,0.5,0.1,0.8c0,0.3-0.1,0.5-0.2,0.6c-0.2,0.1-0.4,0.2-0.8,0.2h-0.7l-0.9,0L152,34.1z"/>
		</g>
		<g>
			<path class="st0" d="M159.6,38.9l-0.7,0h-2l-0.7,0l-0.7,2.2c-0.2,0-0.5,0.1-0.8,0.1c-0.4,0-0.7,0-0.9-0.1l-0.1-0.1l3.1-9.4
				c0.3,0,0.7-0.1,1.1-0.1c0.4,0,0.8,0,1,0.1l3.1,9.4c-0.3,0.2-0.6,0.2-1,0.2c-0.4,0-0.6-0.1-0.8-0.2c-0.2-0.1-0.3-0.4-0.4-0.8
				L159.6,38.9z M156.8,37.4l0.6,0h1.2l0.6,0l-0.4-1.4c-0.3-1.1-0.6-2-0.8-2.7h-0.1c-0.1,0.4-0.3,1.2-0.6,2.4L156.8,37.4z"/>
		</g>
		<g>
			<path class="st0" d="M169.5,40.5c-0.3,0.2-0.7,0.4-1.1,0.5c-0.5,0.1-1,0.2-1.5,0.2c-0.3,0-0.6,0-1.2,0c-0.5,0-1.2,0-2,0l-0.1-0.1
				v-9.4l0.1-0.1c0.5,0,1.1,0,1.6,0c0.5,0,1.1,0,1.7,0c0.8,0,1.4,0.1,2,0.4c0.5,0.3,0.9,0.6,1.2,1c0.3,0.4,0.5,1,0.7,1.5
				c0.1,0.6,0.2,1.2,0.2,1.9c0,0.9-0.1,1.7-0.3,2.4C170.5,39.4,170.1,40,169.5,40.5z M168.7,34.1c-0.3-0.7-0.9-1.1-1.7-1.1
				c-0.3,0-0.6,0-0.9,0c-0.3,0-0.5,0-0.7,0v6.8c0.2,0,0.4,0,0.6,0s0.5,0,0.7,0c0.2,0,0.4,0,0.6-0.1c0.2,0,0.4-0.1,0.5-0.1
				c0.2-0.1,0.4-0.3,0.6-0.5c0.2-0.2,0.3-0.5,0.4-0.8c0.1-0.3,0.1-0.6,0.2-0.9c0-0.3,0-0.7,0-1c0-0.4,0-0.8-0.1-1.1
				C168.9,34.8,168.8,34.4,168.7,34.1z"/>
		</g>
		<g>
			<path class="st0" d="M173.7,40.4c-1-0.9-1.5-2.2-1.5-4.1c0-0.8,0.1-1.5,0.3-2.1c0.2-0.6,0.4-1.1,0.8-1.6c0.3-0.4,0.8-0.7,1.3-1
				c0.5-0.2,1.1-0.3,1.7-0.3c0.6,0,1.2,0.1,1.7,0.3c0.5,0.2,0.9,0.5,1.3,1c0.3,0.4,0.6,0.9,0.8,1.6c0.2,0.6,0.3,1.3,0.3,2.1
				c0,0.8-0.1,1.5-0.3,2.1c-0.2,0.6-0.4,1.1-0.8,1.6c-0.3,0.4-0.8,0.7-1.3,1c-0.5,0.2-1.1,0.3-1.7,0.3
				C175.2,41.3,174.4,41,173.7,40.4z M178.3,36.3c0-2.3-0.7-3.5-2.1-3.5c-1.4,0-2.1,1.2-2.1,3.5c0,2.3,0.7,3.5,2.1,3.5
				C177.6,39.8,178.3,38.7,178.3,36.3z"/>
		</g>
		<g>
			<path class="st0" d="M188.6,34.4c0,0.3,0,0.6-0.1,0.9c-0.1,0.3-0.2,0.5-0.4,0.7c-0.2,0.2-0.3,0.4-0.6,0.6
				c-0.2,0.2-0.4,0.3-0.7,0.4c0.2,0.1,0.4,0.2,0.6,0.4c0.2,0.2,0.3,0.5,0.4,0.8l0.5,1.4c0.1,0.2,0.2,0.4,0.3,0.6
				c0.1,0.2,0.2,0.3,0.4,0.4c-0.1,0.2-0.3,0.3-0.5,0.4c-0.2,0.1-0.5,0.2-0.8,0.2c-0.3,0-0.5-0.1-0.7-0.3c-0.2-0.2-0.3-0.5-0.5-0.9
				l-0.6-1.7c-0.1-0.3-0.3-0.6-0.5-0.7c-0.2-0.2-0.5-0.3-0.8-0.3h-0.9v3.7c-0.1,0-0.3,0-0.4,0c-0.2,0-0.3,0-0.5,0
				c-0.3,0-0.6,0-0.9-0.1v-9.5l0.1-0.1c0.8,0,1.4,0,1.9,0c0.5,0,0.9,0,1.3,0c1,0,1.8,0.3,2.4,0.8C188.3,32.7,188.6,33.5,188.6,34.4z
				 M183.9,32.9V36c0.5,0,0.9,0,1.3,0c1,0,1.5-0.5,1.5-1.5c0-1-0.5-1.5-1.5-1.5c-0.3,0-0.5,0-0.7,0C184.2,32.9,184,32.9,183.9,32.9z
				"/>
		</g>
		<g>
			<path class="st0" d="M195.3,38.9l-0.7,0h-2l-0.7,0l-0.7,2.2c-0.2,0-0.5,0.1-0.8,0.1c-0.4,0-0.6,0-0.9-0.1l-0.1-0.1l3.1-9.4
				c0.3,0,0.7-0.1,1.1-0.1c0.4,0,0.8,0,1,0.1l3.1,9.4c-0.3,0.2-0.6,0.2-1,0.2c-0.4,0-0.6-0.1-0.8-0.2c-0.2-0.1-0.3-0.4-0.4-0.8
				L195.3,38.9z M192.5,37.4l0.6,0h1.2l0.6,0l-0.4-1.4c-0.3-1.1-0.6-2-0.8-2.7h-0.1c-0.1,0.4-0.3,1.2-0.6,2.4L192.5,37.4z"/>
		</g>
		<g>
			<path class="st0" d="M112.6,51.5c-0.3,0.2-0.6,0.4-1.1,0.5c-0.4,0.1-0.9,0.2-1.4,0.2c-0.2,0-0.6,0-1.1,0c-0.5,0-1.1,0-1.9,0
				l-0.1-0.1v-8.8l0.1-0.1c0.5,0,1,0,1.5,0c0.5,0,1,0,1.6,0c0.7,0,1.3,0.1,1.8,0.4c0.5,0.2,0.9,0.6,1.2,1c0.3,0.4,0.5,0.9,0.6,1.4
				c0.1,0.5,0.2,1.1,0.2,1.8c0,0.9-0.1,1.6-0.3,2.3C113.6,50.6,113.2,51.1,112.6,51.5z M111.9,45.6c-0.3-0.7-0.8-1-1.6-1
				c-0.3,0-0.6,0-0.8,0c-0.2,0-0.4,0-0.6,0v6.3c0.2,0,0.4,0,0.6,0c0.2,0,0.4,0,0.6,0c0.2,0,0.4,0,0.6-0.1c0.2,0,0.3-0.1,0.5-0.1
				c0.2-0.1,0.4-0.3,0.6-0.5c0.1-0.2,0.3-0.4,0.3-0.7c0.1-0.3,0.1-0.6,0.2-0.9c0-0.3,0-0.6,0-1c0-0.4,0-0.7-0.1-1
				C112.1,46.2,112,45.9,111.9,45.6z"/>
		</g>
		<g>
			<path class="st0" d="M115.7,52.1v-8.9c0.2,0,0.5-0.1,0.9-0.1c0.4,0,0.7,0,0.9,0.1v8.9c-0.2,0-0.5,0.1-0.9,0.1
				C116.2,52.2,116,52.2,115.7,52.1z"/>
		</g>
		<g>
			<path class="st0" d="M118.9,51.3c0-0.2,0.1-0.5,0.2-0.7c0.1-0.2,0.3-0.4,0.5-0.6c0.9,0.6,1.8,0.9,2.6,0.9c0.4,0,0.7-0.1,1-0.3
				c0.2-0.2,0.4-0.4,0.4-0.7c0-0.5-0.4-0.9-1-1.2l-1.5-0.7c-0.6-0.3-1.1-0.6-1.4-1s-0.5-0.9-0.5-1.4c0-0.4,0.1-0.7,0.2-1.1
				c0.2-0.3,0.4-0.6,0.7-0.8c0.3-0.2,0.6-0.4,1-0.5c0.4-0.1,0.8-0.2,1.3-0.2c1,0,1.9,0.2,2.8,0.7c0,0.5-0.2,1-0.6,1.3
				c-0.9-0.4-1.6-0.6-2.3-0.6c-0.4,0-0.7,0.1-1,0.3c-0.2,0.2-0.3,0.4-0.3,0.7c0,0.4,0.3,0.7,0.9,1l1.5,0.7c0.6,0.3,1.1,0.6,1.4,1
				c0.3,0.4,0.5,0.9,0.5,1.5c0,0.4-0.1,0.8-0.2,1.1c-0.1,0.3-0.3,0.6-0.6,0.9c-0.3,0.2-0.6,0.4-1.1,0.6c-0.4,0.1-0.9,0.2-1.5,0.2
				C120.9,52.3,119.9,52,118.9,51.3z"/>
		</g>
		<g>
			<path class="st0" d="M130,45.6v6.5c-0.3,0-0.5,0.1-0.9,0.1c-0.3,0-0.6,0-0.9-0.1v-6.5l0-1l-0.8,0H126c0-0.2-0.1-0.5-0.1-0.7
				c0-0.3,0-0.5,0.1-0.7h6.2c0.1,0.2,0.1,0.5,0.1,0.7c0,0.3-0.1,0.4-0.2,0.6c-0.1,0.1-0.4,0.2-0.7,0.2h-0.6l-0.8,0L130,45.6z"/>
		</g>
		<g>
			<path class="st0" d="M139.6,45.9c0,0.3,0,0.6-0.1,0.8c-0.1,0.3-0.2,0.5-0.3,0.7c-0.1,0.2-0.3,0.4-0.5,0.5
				c-0.2,0.2-0.4,0.3-0.6,0.3c0.2,0.1,0.4,0.2,0.6,0.4c0.2,0.2,0.3,0.4,0.4,0.7l0.5,1.3c0.1,0.2,0.2,0.4,0.3,0.6
				c0.1,0.2,0.2,0.3,0.4,0.4c-0.1,0.2-0.3,0.3-0.5,0.4c-0.2,0.1-0.5,0.1-0.7,0.1c-0.3,0-0.5-0.1-0.6-0.2c-0.2-0.2-0.3-0.4-0.4-0.8
				l-0.6-1.6c-0.1-0.3-0.3-0.5-0.4-0.7c-0.2-0.2-0.4-0.2-0.8-0.2h-0.8v3.4c-0.1,0-0.3,0-0.4,0c-0.1,0-0.3,0-0.5,0
				c-0.3,0-0.6,0-0.8-0.1v-8.8l0.1-0.1c0.7,0,1.3,0,1.8,0c0.5,0,0.9,0,1.2,0c0.9,0,1.7,0.2,2.2,0.7C139.3,44.3,139.6,45,139.6,45.9z
				 M135.2,44.5v2.9c0.5,0,0.9,0,1.2,0c0.9,0,1.4-0.5,1.4-1.4c0-0.9-0.5-1.4-1.4-1.4c-0.3,0-0.5,0-0.7,0
				C135.5,44.5,135.4,44.5,135.2,44.5z"/>
		</g>
		<g>
			<path class="st0" d="M141.5,52.1v-8.9c0.2,0,0.5-0.1,0.9-0.1c0.4,0,0.7,0,0.9,0.1v8.9c-0.2,0-0.5,0.1-0.9,0.1
				C142,52.2,141.7,52.2,141.5,52.1z"/>
		</g>
		<g>
			<path class="st0" d="M145.5,43.2c0.7,0,1.3,0,1.7,0c0.5,0,0.8,0,1.1,0c0.9,0,1.7,0.2,2.2,0.6c0.5,0.4,0.8,1,0.8,1.8
				c0,0.4-0.1,0.8-0.3,1.1c-0.2,0.3-0.5,0.6-0.9,0.7c0.2,0.1,0.4,0.2,0.6,0.3c0.2,0.1,0.4,0.3,0.5,0.5c0.1,0.2,0.3,0.4,0.3,0.7
				c0.1,0.2,0.1,0.5,0.1,0.8c0,0.8-0.3,1.5-0.8,1.9c-0.5,0.4-1.3,0.7-2.4,0.7c-0.3,0-0.7,0-1.2,0c-0.5,0-1.1,0-1.8,0l-0.1-0.1
				L145.5,43.2L145.5,43.2z M147.1,44.4v2.4h1.1c0.9,0,1.3-0.4,1.3-1.2c0-0.3-0.1-0.6-0.2-0.7c-0.1-0.2-0.3-0.3-0.5-0.3
				c-0.2-0.1-0.5-0.1-0.8-0.1C147.8,44.4,147.5,44.4,147.1,44.4z M148.4,48.1h-1.3v2.8c0.2,0,0.4,0,0.6,0c0.2,0,0.4,0,0.6,0
				c0.2,0,0.4,0,0.6-0.1c0.2,0,0.4-0.1,0.5-0.2c0.2-0.1,0.3-0.3,0.4-0.4c0.1-0.2,0.1-0.4,0.1-0.7c0-0.2,0-0.4-0.1-0.5
				c-0.1-0.2-0.2-0.3-0.3-0.5c-0.1-0.1-0.3-0.2-0.5-0.3C148.9,48.1,148.7,48.1,148.4,48.1z"/>
		</g>
		<g>
			<path class="st0" d="M160.1,43.2v5.7c0,1.1-0.3,1.9-0.9,2.5c-0.6,0.6-1.4,0.9-2.5,0.9c-1.1,0-1.9-0.3-2.5-0.9
				c-0.6-0.6-0.9-1.4-0.9-2.5v-5.7l0.1-0.1h0.7c0.4,0,0.6,0.1,0.8,0.3c0.2,0.2,0.3,0.5,0.3,0.9v4.7c0,1.3,0.5,2,1.6,2
				c1.1,0,1.7-0.7,1.7-2v-5.7c0.2,0,0.5-0.1,0.9-0.1C159.5,43.2,159.8,43.2,160.1,43.2z"/>
		</g>
		<g>
			<path class="st0" d="M162.2,52.1v-8.9c0.2,0,0.5-0.1,0.9-0.1c0.4,0,0.7,0,0.9,0.1v8.9c-0.2,0-0.5,0.1-0.9,0.1
				C162.7,52.2,162.4,52.2,162.2,52.1z"/>
		</g>
		<g>
			<path class="st0" d="M171.6,51.5c-0.3,0.2-0.6,0.4-1.1,0.5c-0.4,0.1-0.9,0.2-1.4,0.2c-0.2,0-0.6,0-1.1,0c-0.5,0-1.1,0-1.9,0
				l-0.1-0.1v-8.8l0.1-0.1c0.5,0,1,0,1.5,0c0.5,0,1,0,1.6,0c0.7,0,1.3,0.1,1.8,0.4c0.5,0.2,0.9,0.6,1.2,1c0.3,0.4,0.5,0.9,0.6,1.4
				c0.1,0.5,0.2,1.1,0.2,1.8c0,0.9-0.1,1.6-0.3,2.3C172.6,50.6,172.2,51.1,171.6,51.5z M170.9,45.6c-0.3-0.7-0.8-1-1.6-1
				c-0.3,0-0.6,0-0.8,0c-0.2,0-0.4,0-0.6,0v6.3c0.2,0,0.4,0,0.6,0c0.2,0,0.4,0,0.6,0c0.2,0,0.4,0,0.6-0.1c0.2,0,0.3-0.1,0.5-0.1
				c0.2-0.1,0.4-0.3,0.6-0.5c0.1-0.2,0.3-0.4,0.3-0.7c0.1-0.3,0.1-0.6,0.2-0.9c0-0.3,0-0.6,0-1c0-0.4,0-0.7-0.1-1
				C171.1,46.2,171,45.9,170.9,45.6z"/>
		</g>
		<g>
			<path class="st0" d="M175.6,51.5c-0.9-0.8-1.4-2.1-1.4-3.8c0-0.7,0.1-1.4,0.3-2c0.2-0.6,0.4-1.1,0.7-1.5c0.3-0.4,0.7-0.7,1.2-0.9
				c0.5-0.2,1-0.3,1.6-0.3c0.6,0,1.1,0.1,1.6,0.3c0.5,0.2,0.9,0.5,1.2,0.9c0.3,0.4,0.6,0.9,0.7,1.5c0.2,0.6,0.3,1.2,0.3,2
				c0,0.7-0.1,1.4-0.3,2c-0.2,0.6-0.4,1.1-0.7,1.5c-0.3,0.4-0.7,0.7-1.2,0.9c-0.5,0.2-1,0.3-1.6,0.3C177,52.3,176.2,52,175.6,51.5z
				 M179.9,47.7c0-2.2-0.6-3.3-1.9-3.3c-1.3,0-1.9,1.1-1.9,3.3c0,2.2,0.6,3.3,1.9,3.3C179.2,50.9,179.9,49.9,179.9,47.7z"/>
		</g>
		<g>
			<path class="st0" d="M189.5,45.9c0,0.3,0,0.6-0.1,0.8c-0.1,0.3-0.2,0.5-0.3,0.7c-0.1,0.2-0.3,0.4-0.5,0.5
				c-0.2,0.2-0.4,0.3-0.6,0.3c0.2,0.1,0.4,0.2,0.6,0.4c0.2,0.2,0.3,0.4,0.4,0.7l0.5,1.3c0.1,0.2,0.2,0.4,0.3,0.6
				c0.1,0.2,0.2,0.3,0.4,0.4c-0.1,0.2-0.3,0.3-0.5,0.4c-0.2,0.1-0.5,0.1-0.7,0.1c-0.3,0-0.5-0.1-0.6-0.2c-0.2-0.2-0.3-0.4-0.4-0.8
				l-0.6-1.6c-0.1-0.3-0.3-0.5-0.4-0.7c-0.2-0.2-0.4-0.2-0.8-0.2h-0.8v3.4c-0.1,0-0.3,0-0.4,0c-0.1,0-0.3,0-0.5,0
				c-0.3,0-0.6,0-0.8-0.1v-8.8l0.1-0.1c0.7,0,1.3,0,1.8,0c0.5,0,0.9,0,1.2,0c0.9,0,1.7,0.2,2.2,0.7C189.2,44.3,189.5,45,189.5,45.9z
				 M185.1,44.5v2.9c0.5,0,0.9,0,1.2,0c0.9,0,1.4-0.5,1.4-1.4c0-0.9-0.5-1.4-1.4-1.4c-0.3,0-0.5,0-0.7,0
				C185.4,44.5,185.2,44.5,185.1,44.5z"/>
		</g>
		<g>
			<path class="st0" d="M195.7,50.1l-0.6,0h-1.8l-0.6,0l-0.6,2c-0.2,0-0.4,0.1-0.8,0.1c-0.3,0-0.6,0-0.8-0.1l-0.1-0.1l2.9-8.8
				c0.3,0,0.7-0.1,1-0.1c0.4,0,0.7,0,1,0.1l2.9,8.8c-0.3,0.1-0.6,0.2-0.9,0.2c-0.4,0-0.6-0.1-0.8-0.2c-0.2-0.1-0.3-0.4-0.4-0.7
				L195.7,50.1z M193.1,48.7l0.6,0h1.1l0.5,0l-0.4-1.3c-0.3-1-0.5-1.8-0.7-2.5h-0.1c-0.1,0.4-0.3,1.1-0.6,2.2L193.1,48.7z"/>
		</g>
		<g>
			<path class="st1" d="M114.7,59.5v-0.2c0-0.4,0-0.8-0.1-1.2c-0.1-0.4-0.2-0.7-0.4-0.9c-0.2-0.3-0.4-0.5-0.7-0.6
				c-0.3-0.1-0.7-0.2-1.1-0.2c-0.9,0-1.6,0.4-2.1,1.3c-0.4,0.8-0.6,2.1-0.6,3.8c0,1.4,0.3,2.4,0.8,3.2c0.5,0.8,1.2,1.1,2.1,1.1
				c0.5,0,1-0.1,1.6-0.3c0.6-0.2,1.2-0.6,1.8-1.1c0.3,0.2,0.5,0.4,0.8,0.8c0.2,0.3,0.4,0.6,0.5,0.9c-0.3,0.3-0.6,0.5-1,0.8
				c-0.4,0.2-0.8,0.4-1.2,0.6c-0.4,0.2-0.9,0.3-1.4,0.4c-0.5,0.1-1,0.2-1.4,0.2c-1,0-1.8-0.2-2.4-0.6c-0.7-0.4-1.2-0.9-1.6-1.5
				c-0.4-0.6-0.7-1.4-0.9-2.2c-0.2-0.8-0.3-1.7-0.3-2.6c0-1.2,0.1-2.2,0.4-3.1c0.3-0.9,0.7-1.6,1.2-2.2c0.5-0.6,1.1-1,1.7-1.3
				c0.7-0.3,1.3-0.4,2.1-0.4c0.8,0,1.4,0.1,2.1,0.3c0.6,0.2,1.1,0.5,1.6,0.8c0.4,0.4,0.8,0.8,1,1.2c0.2,0.5,0.3,1,0.3,1.5
				c0,1-0.5,1.5-1.5,1.5c-0.1,0-0.3,0-0.5,0C115.1,59.6,114.9,59.6,114.7,59.5z"/>
		</g>
		<g>
			<path class="st1" d="M126,64.8l-0.9,0h-2.7l-0.9,0l-0.9,3c-0.3,0.1-0.7,0.1-1.2,0.1c-0.5,0-0.9-0.1-1.2-0.2l-0.1-0.1l4.3-13
				c0.5-0.1,1-0.1,1.5-0.1c0.6,0,1,0,1.5,0.1l4.2,13c-0.4,0.2-0.8,0.3-1.3,0.3c-0.5,0-0.9-0.1-1.1-0.3c-0.2-0.2-0.4-0.6-0.6-1.1
				L126,64.8z M122.1,62.8l0.9,0h1.7l0.8,0l-0.6-2c-0.4-1.5-0.8-2.7-1-3.8h-0.1c-0.1,0.6-0.4,1.6-0.9,3.3L122.1,62.8z"/>
		</g>
		<g>
			<path class="st1" d="M131.1,67.8l1-13.2c0.5-0.1,1.1-0.1,1.7-0.1c0.6,0,1.2,0,1.7,0.1L137,60c0.4,1.6,0.6,2.7,0.7,3.3h0.1
				c0.1-0.6,0.3-1.7,0.7-3.3l1.5-5.4c0.5-0.1,1.1-0.1,1.7-0.1c0.6,0,1.2,0,1.7,0.1l1,13.2c-0.3,0.1-0.8,0.1-1.3,0.1
				c-0.5,0-0.9,0-1.2-0.1l-0.4-6.2c-0.1-1.6-0.2-3-0.2-4.2h-0.1l-2.3,8.4c-0.4,0.1-0.9,0.1-1.3,0.1c-0.5,0-0.9,0-1.3-0.1l-2.3-8.4
				h-0.1c0,1.6-0.1,3-0.2,4.2l-0.4,6.2c-0.3,0.1-0.7,0.1-1.2,0.1S131.5,67.9,131.1,67.8z"/>
		</g>
		<g>
			<path class="st1" d="M151.8,63.4H150v4.4c-0.4,0.1-0.8,0.1-1.3,0.1c-0.5,0-0.9,0-1.3-0.1V54.7l0.1-0.1c1,0,1.9,0,2.6-0.1
				c0.7,0,1.2,0,1.6,0c1.4,0,2.5,0.4,3.3,1.1c0.8,0.8,1.2,1.9,1.2,3.3c0,0.7-0.1,1.4-0.3,1.9c-0.2,0.6-0.5,1-0.9,1.4
				c-0.4,0.4-0.9,0.7-1.4,0.9C153.1,63.3,152.5,63.4,151.8,63.4z M150,56.5v4.9c0.5,0,0.9,0,1.3,0c0.4,0,0.7,0,0.9-0.1
				c0.2,0,0.5-0.1,0.6-0.3c0.2-0.1,0.3-0.3,0.5-0.6c0.1-0.2,0.2-0.5,0.3-0.7c0.1-0.3,0.1-0.6,0.1-0.8c0-0.3,0-0.6-0.1-0.9
				c-0.1-0.3-0.2-0.6-0.3-0.8c-0.2-0.2-0.4-0.4-0.6-0.6c-0.3-0.1-0.6-0.2-1-0.2c-0.4,0-0.7,0-1,0C150.4,56.5,150.2,56.5,150,56.5z"
				/>
		</g>
		<g>
			<path class="st1" d="M164.1,64.8l-0.9,0h-2.7l-0.9,0l-0.9,3c-0.3,0.1-0.7,0.1-1.2,0.1c-0.5,0-0.9-0.1-1.2-0.2l-0.1-0.1l4.3-13
				c0.5-0.1,1-0.1,1.5-0.1c0.6,0,1,0,1.5,0.1l4.2,13c-0.4,0.2-0.8,0.3-1.3,0.3c-0.5,0-0.9-0.1-1.1-0.3c-0.2-0.2-0.4-0.6-0.6-1.1
				L164.1,64.8z M160.1,62.8l0.9,0h1.7l0.8,0l-0.6-2c-0.4-1.5-0.8-2.7-1-3.8h-0.1c-0.1,0.6-0.4,1.6-0.9,3.3L160.1,62.8z"/>
		</g>
		<g>
			<path class="st1" d="M179.5,54.5l0.1,0.1v13.2c-0.4,0.1-0.9,0.1-1.5,0.1c-0.6,0-1.1,0-1.6-0.1l-3.6-7.5c-0.5-1.1-0.9-2-1.2-2.7
				l-0.1,0c0.1,1.8,0.2,3.6,0.2,5.3v4.9c-0.4,0.1-0.8,0.1-1.2,0.1c-0.5,0-0.9,0-1.2-0.1V54.6c0.4-0.1,0.9-0.1,1.5-0.1
				c0.6,0,1.1,0,1.6,0.1l3.5,7.5l1.3,2.9l0.1,0c-0.1-1.9-0.2-3.6-0.2-5.3v-3.5c0-0.6,0.1-1,0.3-1.2c0.2-0.2,0.6-0.4,1.1-0.4H179.5z"
				/>
		</g>
		<g>
			<path class="st1" d="M182.9,67.8V54.6c0.3-0.1,0.8-0.1,1.3-0.1c0.5,0,1,0,1.3,0.1v13.2c-0.4,0.1-0.8,0.1-1.3,0.1
				C183.7,67.9,183.2,67.9,182.9,67.8z"/>
		</g>
		<g>
			<path class="st1" d="M195.4,64.8l-0.9,0h-2.7l-0.9,0l-0.9,3c-0.3,0.1-0.7,0.1-1.2,0.1c-0.5,0-0.9-0.1-1.2-0.2l-0.1-0.1l4.3-13
				c0.5-0.1,1-0.1,1.5-0.1c0.6,0,1,0,1.5,0.1l4.2,13c-0.4,0.2-0.8,0.3-1.3,0.3c-0.5,0-0.9-0.1-1.1-0.3c-0.2-0.2-0.4-0.6-0.6-1.1
				L195.4,64.8z M191.4,62.8l0.9,0h1.7l0.8,0l-0.6-2c-0.4-1.5-0.8-2.7-1-3.8h-0.1c-0.1,0.6-0.4,1.6-0.9,3.3L191.4,62.8z"/>
		</g>
	</g>
	<g>
		<path class="st2" d="M99.2,83c-0.5,0-0.9-0.4-0.9-0.9V25.7c0-0.5,0.4-0.9,0.9-0.9c0.5,0,0.9,0.4,0.9,0.9v56.5
			C100.1,82.6,99.7,83,99.2,83z"/>
	</g>
	<g>
		<g>
			<path class="st0" d="M37.9,69.1c0,0.2,0.1,0.2,0.2,0c0.1-0.1,0.1-0.3,0.2-0.4c0.2-0.2-0.1-0.3-0.1-0.5c0-0.1-0.3-0.1-0.4,0.1
				c-0.1,0.1-0.1,0.1-0.1,0c0-0.2-0.2-0.1-0.2-0.2c0-0.2-0.1-0.4,0.1-0.6c0.1-0.1,0-0.1,0-0.2c-0.1-0.1-0.1-0.2,0.1-0.2
				c0.1,0,0.1,0,0.2,0c0.2,0,0.3-0.2,0.2-0.4c-0.1-0.4-0.1-0.4,0-0.8c0-0.1,0-0.1,0-0.2c0-0.2,0-0.3-0.2-0.3c-0.1,0-0.2-0.1-0.2-0.1
				c0-0.1-0.1-0.2,0-0.3c0.2-0.3,0-0.5-0.1-0.7c0-0.1-0.1-0.2-0.1-0.3c0-0.1-0.4-0.2-0.5-0.2c0,0-0.1-0.1-0.1-0.1
				c0-0.1-0.1-0.1-0.1,0c0,0.1,0,0.2-0.1,0c-0.1-0.1-0.1-0.2,0-0.4c0,0,0.1-0.1,0.1-0.1c-0.2-0.1-0.4-0.2-0.6-0.3
				c-1.5-0.7-2.8-1.6-3.8-2.4c-1-0.9-1.8-1.8-2.3-2.6c-0.5-0.8-0.7-1.6-0.7-2.1c0,0,0-0.1,0-0.1c0,0.1,0,0.2,0,0.3
				c0,0.2,0,0.3,0,0.5c0,0.2,0,0.4,0.1,0.6c0,0.2,0.1,0.4,0.1,0.7c0,0.1,0,0.3,0.1,0.4c0,0.1,0,0.1,0,0.2c0,0.1,0,0.1,0.1,0.2
				c0.1,0.3,0.1,0.6,0.2,0.9c0.1,0.3,0.2,0.6,0.3,0.9c0,0.2,0.1,0.3,0.2,0.5c0.1,0.2,0.1,0.3,0.2,0.5c0.1,0.2,0.1,0.3,0.2,0.5
				c0.1,0.2,0.2,0.3,0.3,0.5c0.1,0.2,0.2,0.3,0.3,0.5c0.1,0.2,0.2,0.4,0.3,0.5c0.2,0.4,0.5,0.7,0.7,1.1c0.1,0.2,0.3,0.4,0.4,0.5
				c0.1,0.2,0.3,0.4,0.4,0.5c0.3,0.4,0.6,0.7,0.9,1.1c0.2,0.2,0.3,0.4,0.5,0.5c0.2,0.2,0.3,0.3,0.5,0.5c0.1,0.1,0.2,0.2,0.3,0.3
				c0.1,0.1,0.2,0.2,0.3,0.3c0.2,0.2,0.4,0.3,0.6,0.5c0.5,0.4,1.1,0.9,1.7,1.3c0,0,0-0.1,0-0.1c-0.1-0.2,0-0.5,0-0.8
				C37.8,69.1,37.9,69.1,37.9,69.1z"/>
			<path class="st0" d="M29.2,55.4c0,0.1,0,0.2,0,0.3c0.1,0.5,0.3,1.2,0.8,2c0.5,0.8,1.3,1.7,2.3,2.5c1,0.8,2.3,1.6,3.8,2.3
				c0.1,0.1,0.3,0.1,0.4,0.2c0,0-0.1-0.1-0.1-0.1c0,0-0.1-0.1,0-0.1c0.1-0.1,0.1-0.2,0.2-0.2c-0.1-0.1-0.1-0.1,0-0.2
				c0.2-0.2,0.3-0.4,0.1-0.8c-0.1-0.2,0.1-0.5,0.2-0.7c0-0.1,0.1-0.1,0.2-0.2c0-0.1,0.2-0.1,0.1-0.2c-0.1-0.1,0.1,0,0.1-0.1
				c0.2-0.2,0.2,0.1,0.3,0.1c0.2,0.1,0,0.1,0,0.2c0,0.1-0.1,0.1-0.2,0.1c-0.2-0.2-0.2,0-0.2,0.1c0,0.1,0,0.3-0.1,0.4
				c-0.1,0.4,0.2,0.8,0.7,0.9c0.1,0,0.1,0,0.2,0c0,0,0,0,0.1,0c-0.2-1-0.3-2.1-0.4-3.1c0-0.3-0.1-0.6-0.1-1l-0.1-1c0-0.3,0-0.6,0-1
				l0-0.7c-0.3,0-0.6,0-0.8,0c-0.6,0-1.3,0-1.8-0.1c-1.2,0-2.2-0.1-3-0.1C30.2,55,29.2,55,29.2,55s0,0.1,0,0.2
				C29.2,55.3,29.2,55.3,29.2,55.4z"/>
			<path class="st0" d="M45.8,78.4c0.2,0.2,0.3,0.4,0.5,0.6c0.1,0.1,0.2,0.2,0.3,0.3c0.1,0.1,0.2,0.2,0.3,0.3
				c0.2,0.2,0.4,0.4,0.5,0.5c0.2,0.2,0.4,0.3,0.5,0.5c1.4,1.3,2.9,2.3,4.3,3c0.2,0.1,0.3,0.2,0.5,0.3c0.2,0.1,0.3,0.2,0.5,0.2
				c0.2,0.1,0.3,0.1,0.5,0.2c0.2,0.1,0.3,0.1,0.5,0.2c0.3,0.1,0.6,0.2,0.9,0.3c0.3,0.1,0.6,0.2,0.9,0.2c0.1,0,0.1,0,0.2,0.1
				c0.1,0,0.1,0,0.2,0c0.1,0,0.3,0,0.4,0.1c0.2,0,0.5,0.1,0.7,0.1c0.2,0,0.4,0,0.6,0.1c0.2,0,0.4,0,0.5,0c0.1,0,0.2,0,0.3,0
				c0,0-0.1,0-0.1,0c-0.5-0.1-1.3-0.2-2.1-0.7c-0.8-0.5-1.8-1.2-2.6-2.3c-0.9-1-1.7-2.3-2.4-3.8c-0.4-0.8-0.7-1.6-1.1-2.4l-0.1,0
				L50,75.9c-0.3-0.1-0.6-0.2-0.9-0.2c-0.3-0.1-0.6-0.2-0.9-0.3l-0.5-0.1c-0.1,0-0.3-0.1-0.4-0.1c-0.3-0.1-0.6-0.2-0.9-0.3
				c-0.3-0.1-0.6-0.2-0.9-0.3c-0.3-0.1-0.6-0.2-0.9-0.3c-0.3-0.1-0.6-0.2-0.8-0.3c-0.3-0.1-0.5-0.2-0.7-0.3c0,0,0,0,0,0c0,0,0,0,0,0
				c0,0,0,0,0,0c0,0-0.1,0-0.1-0.1c-0.1,0-0.1,0.1-0.2,0c-0.1-0.1-0.2-0.2-0.3-0.2c-0.1,0-0.1-0.1-0.2-0.1c0.5,0.9,1,1.8,1.6,2.7
				C44.5,76.7,45.2,77.6,45.8,78.4z"/>
			<path class="st0" d="M29.3,53c0-0.2,0.1-0.5,0.1-0.7c0-0.1,0-0.3,0.1-0.4c0-0.1,0-0.1,0-0.2c0-0.1,0-0.1,0-0.2
				c0.1-0.3,0.1-0.6,0.2-0.9c0.1-0.3,0.2-0.6,0.3-0.9c0-0.2,0.1-0.3,0.2-0.5c0.1-0.2,0.1-0.3,0.2-0.5c0.1-0.2,0.1-0.3,0.2-0.5
				c0.1-0.2,0.2-0.3,0.2-0.5c0.1-0.2,0.2-0.4,0.3-0.5c0.1-0.2,0.2-0.4,0.3-0.5c0.2-0.4,0.4-0.7,0.7-1.1c0.5-0.7,1.1-1.5,1.7-2.2
				c0.2-0.2,0.3-0.4,0.5-0.6c0.1-0.2,0.3-0.3,0.4-0.5c-0.1-0.1-0.2-0.2-0.2-0.3c-0.1-0.1,0-0.3,0-0.4c0.1-0.2,0.3-0.4,0.5-0.6
				c0.2-0.1,0.3-0.2,0.3-0.4c0,0,0.2-0.1,0.2-0.1c0-0.2-0.3-0.3-0.2-0.5c-0.1,0-0.2,0-0.2,0c-0.3,0.1-0.6,0.2-0.9,0.2
				c-0.1,0-0.2,0-0.4-0.1c-0.1-0.1-0.3-0.2-0.4-0.3c-2.5,4.2-4,9.1-4.1,14.3c0-0.1,0-0.3,0-0.5C29.3,53.4,29.3,53.2,29.3,53z"/>
			<path class="st0" d="M29.2,54.1C29.2,54.1,29.2,54.1,29.2,54.1C29.2,54.1,29.2,54.1,29.2,54.1C29.2,54,29.2,54.1,29.2,54.1z"/>
			<path class="st0" d="M29.2,54.6c0-0.1,0-0.3,0-0.5C29.2,54.3,29.2,54.5,29.2,54.6C29.2,54.7,29.2,54.6,29.2,54.6z"/>
			<path class="st0" d="M79.9,70c0.2,0,0.5,0.1,0.5,0.3c0,0.1,0.1,0.2,0.2,0.2c0.8-0.6,1.6-1.2,2.3-1.8c0.2-0.2,0.4-0.3,0.6-0.5
				c0.1-0.1,0.2-0.2,0.3-0.3c0.1-0.1,0.2-0.2,0.3-0.3c0.2-0.2,0.4-0.4,0.5-0.5c0.2-0.2,0.3-0.4,0.5-0.5c0.2-0.2,0.4-0.5,0.6-0.7
				c0,0,0-0.1,0-0.1c-0.1-0.2-0.2-0.4-0.5-0.4c-0.1,0-0.1,0-0.2,0c-0.2-0.1-0.5-0.1-0.7,0c-0.2,0.1-0.5,0-0.7,0
				c-0.4-0.2-0.9-0.3-1.3-0.5c0,0-0.1,0-0.1,0c0-0.1-0.3-0.2,0-0.2c0,0,0.1-0.1,0.1-0.2c0,0-0.1-0.1-0.1-0.1
				c-0.1,0.1-0.2,0.1-0.3-0.1c-0.1-0.1-0.4-0.2-0.6-0.1c-0.3,0.2-0.6,0.4-0.8,0.8c0,0.2-0.1,0.4-0.1,0.6c-0.1,0.3-0.2,0.6-0.3,0.9
				l-0.1,0.4c0,0.1-0.1,0.3-0.1,0.4c-0.1,0.3-0.2,0.6-0.3,0.9c-0.1,0.3-0.2,0.6-0.3,0.9c-0.1,0.2-0.2,0.4-0.2,0.6c0,0,0,0.1,0,0.1
				c0,0.2,0.3,0.2,0.5,0.3C79.5,70,79.7,70,79.9,70z"/>
			<path class="st0" d="M71.5,79.4C71.5,79.4,71.5,79.3,71.5,79.4c0.1-0.1,0.3,0,0.2,0.1c0,0.1-0.1,0.2,0,0.2c0.1,0,0.2,0,0.2,0
				c0,0,0.1,0,0.1,0c0.1-0.1,0.1-0.1,0.2-0.2c0.1-0.1,0.2-0.2,0.3-0.3c0.1-0.1,0.2-0.2,0.3-0.3c0.2-0.2,0.3-0.4,0.5-0.6
				c0.7-0.8,1.3-1.6,1.9-2.5c0.5-0.7,1-1.5,1.4-2.3c0-0.1,0-0.1,0-0.2c-0.2,0.1-0.3,0.2-0.5,0.2c-0.3,0.1-0.5,0.3-0.8,0.4
				c-0.3,0.1-0.6,0.2-0.8,0.3c-0.3,0.1-0.6,0.2-0.9,0.3c-0.3,0.1-0.6,0.2-0.9,0.3c-0.3,0.1-0.6,0.2-0.9,0.3c-0.1,0-0.3,0.1-0.4,0.1
				l-0.4,0.1c-0.3,0.1-0.6,0.2-0.9,0.3c-0.3,0.1-0.6,0.1-0.9,0.2L68.6,76l-0.1,0c-0.3,0.9-0.7,1.7-1.1,2.4C67,79.4,66.5,80.2,66,81
				c0.1,0,0.2,0,0.4,0.1c0.3,0.1,0.6,0,0.9-0.1c0.2-0.1,0.4,0,0.5-0.1c0.2-0.1,0.3-0.2,0.5-0.2c0.2,0,0.4-0.2,0.5-0.4
				c0.1-0.2,0.3-0.3,0.5-0.2c0.2,0,0.4-0.1,0.6-0.2c0.1,0,0.1-0.1,0.2,0c0.1,0.2,0.3,0.3,0.5,0.2c0,0,0.1,0,0.1,0
				c0.1,0.3,0.2,0.2,0.4,0.1c0.2-0.1,0.3-0.3,0.4-0.4C71.6,79.6,71.6,79.5,71.5,79.4z"/>
			<path class="st0" d="M57.5,32.7c0,0,0-0.1,0.1-0.1C57.5,32.7,57.5,32.7,57.5,32.7z"/>
			<path class="st0" d="M57.4,32.8L57.4,32.8c0,0,0-0.1,0-0.1C57.5,32.8,57.4,32.8,57.4,32.8z"/>
			<path class="st0" d="M57.6,33c0.5,0,1.1,0,1.6,0c0-0.3,0-0.6,0-0.8c0-0.1,0-0.2,0-0.3c0,0,0,0-0.1,0c-0.2,0.1-0.5,0.2-0.8,0.3
				c-0.1,0-0.2,0-0.3,0.1c-0.1,0.1-0.2,0-0.3,0.1c-0.1,0-0.1,0.2-0.2,0.2c0,0-0.1,0-0.3,0.3c0,0,0,0,0,0.1
				C57.6,32.8,57.6,32.9,57.6,33z"/>
			<path class="st0" d="M34.8,54.8c0.6,0,1.2,0,1.8-0.1c0.3,0,0.6,0,0.8,0c0-2.5,0.3-5,0.7-7.4c0.1-0.3,0.1-0.5,0.2-0.8
				c-0.8,0.3-1.5,0.6-2.2,0.9c-1.5,0.7-2.8,1.5-3.8,2.3c-1,0.8-1.8,1.7-2.3,2.5c-0.5,0.8-0.7,1.5-0.8,2c0,0.1,0,0.2,0,0.3
				c0,0.1,0,0.2,0,0.2c0,0.1,0,0.2,0,0.2s0.9,0,2.6-0.1C32.7,54.8,33.7,54.8,34.8,54.8z"/>
			<path class="st0" d="M35,42.4c-0.2,0.2-0.3,0.3-0.5,0.5c-0.2,0.2-0.3,0.4-0.5,0.5c-0.3,0.3-0.6,0.7-0.9,1.1
				c-0.1,0.2-0.3,0.4-0.4,0.5c-0.1,0.2-0.3,0.4-0.4,0.5c-0.2,0.4-0.5,0.7-0.7,1.1c-0.1,0.2-0.2,0.4-0.3,0.5
				c-0.1,0.2-0.2,0.3-0.3,0.5c-0.1,0.2-0.2,0.3-0.3,0.5c-0.1,0.2-0.2,0.3-0.2,0.5c-0.1,0.2-0.1,0.3-0.2,0.5
				c-0.1,0.2-0.1,0.3-0.2,0.5c-0.1,0.3-0.2,0.6-0.3,0.9c-0.1,0.3-0.2,0.6-0.2,0.9c0,0.1,0,0.1-0.1,0.2c0,0.1,0,0.1,0,0.2
				c0,0.1,0,0.3-0.1,0.4c0,0.2-0.1,0.5-0.1,0.7c0,0.2,0,0.4-0.1,0.6c0,0.2,0,0.4,0,0.5c0,0.1,0,0.2,0,0.3c0,0,0-0.1,0-0.1
				c0.1-0.5,0.2-1.3,0.7-2.1c0.5-0.8,1.2-1.7,2.3-2.6c1-0.9,2.3-1.7,3.8-2.4c0.8-0.4,1.6-0.7,2.4-1.1l0-0.1l0.1-0.5
				c0.1-0.3,0.2-0.6,0.2-0.9c0.1-0.3,0.2-0.6,0.3-0.9l0.1-0.4c0-0.1,0.1-0.3,0.1-0.4c0.1-0.3,0.2-0.6,0.3-0.9
				c0.1-0.3,0.2-0.6,0.3-0.9c0.1-0.3,0.2-0.6,0.3-0.9c0.1-0.3,0.2-0.6,0.3-0.8c0.1-0.3,0.2-0.5,0.4-0.8c0,0,0,0,0,0c0,0-0.1,0-0.1,0
				c-0.3-0.1-0.5-0.1-0.8,0.1c-0.2,0.2-0.4,0.3-0.7,0.4c-0.2,0.1-0.4,0.2-0.4,0.5c0,0.1-0.1,0.1-0.1,0.2c-0.1,0.1,0,0.3-0.2,0.3
				c-0.2,0-0.3,0.2-0.5,0.2c-0.2,0-0.3,0.3-0.3,0.4c0,0.2-0.1,0.4-0.2,0.4c-0.2,0.1,0,0.2-0.1,0.3c-0.1,0.1-0.3,0.1-0.3,0.2
				c0,0.3-0.2,0.1-0.3,0.2c-0.1,0.1-0.2,0.3-0.4,0.3c-0.3,0-0.5,0.3-0.8,0.1c0,0-0.1,0-0.2,0.1c-0.1,0.1-0.5,0.2-0.6,0.2
				C35.1,42.4,35,42.4,35,42.4z"/>
			<path class="st0" d="M59.5,83.9c-0.3,0-0.6-0.1-0.8,0.1c-0.1,0-0.1,0-0.2,0c-0.2,0-0.3,0-0.3-0.2c0-0.1-0.1-0.2-0.2-0.2
				c-0.1-0.1-0.1-0.2-0.3-0.2c-0.3,0-0.5-0.2-0.5-0.5c0-0.1,0-0.2,0-0.2c-0.2-0.2-0.2-0.3,0-0.5c0,0,0-0.1,0-0.1
				c-0.1-0.2-0.1-0.3,0-0.5c0.2-0.1,0.3-0.3,0.2-0.6c0,0,0,0,0,0c0.3,0,0.3-0.4,0.6-0.4c0.2,0,0.3-0.1,0.3-0.2c0,0,0.1-0.1,0.1-0.1
				c0.2,0,0.2-0.1,0.2-0.2c0-0.1,0-0.1,0-0.2c0-0.1,0-0.1,0.1-0.1c0.2,0,0.2,0.2,0.3,0.3c0.1,0.1,0.1,0.3,0.2,0.5
				c0,0.1,0.1,0.1,0.2,0.1c0-0.3,0-0.7,0-1c0-0.6,0-1.2-0.1-1.8c0-0.3,0-0.6,0-0.8c-2.5,0-5-0.3-7.4-0.7c-0.3-0.1-0.5-0.1-0.8-0.2
				c0.3,0.8,0.6,1.5,0.9,2.2c0.7,1.5,1.5,2.8,2.3,3.8c0.8,1,1.7,1.8,2.5,2.3c0.8,0.5,1.5,0.7,2,0.8c0.1,0,0.2,0,0.3,0
				c0.1,0,0.2,0,0.2,0c0.1,0,0.2,0,0.2,0h0c0,0,0-0.2,0-0.7C59.5,84.4,59.5,84.2,59.5,83.9z"/>
			<path class="st0" d="M60.3,85.2c0.3,0,0.6-0.1,1-0.3c0,0,0-0.1-0.1-0.1c-0.2-0.3-0.5-0.5-0.9-0.4c-0.1,0-0.1,0.1-0.2,0
				C60,84.2,59.8,84,59.6,84c0,0.3,0,0.5,0,0.7c0,0.4,0,0.7,0,0.7h0c0,0,0.1,0,0.2,0c0.1,0,0.1,0,0.2,0
				C60.1,85.3,60.2,85.3,60.3,85.2z"/>
			<path class="st0" d="M59.8,33l0.7,0c0.3,0,0.6,0,1,0l1,0.1c0.3,0,0.6,0.1,1,0.1c1.3,0.1,2.6,0.3,3.8,0.5c0.3,0.1,0.5,0.1,0.8,0.2
				c-0.3-0.8-0.6-1.5-0.9-2.2c-0.7-1.5-1.5-2.8-2.3-3.8c-0.6-0.7-1.2-1.3-1.8-1.8c0,0-0.1,0-0.1,0c-0.2,0.1-0.4,0.2-0.4,0.4
				c0,0.1-0.1,0.2-0.1,0.2c0,0.1,0.1,0.1,0.1,0.1c0.3,0,0.4,0.2,0.6,0.2c0,0,0.1,0.1,0.1,0.1c0.1,0,0.3-0.1,0.3,0.1
				c0,0.2-0.1,0.2-0.2,0.3c-0.1,0.1,0,0.2-0.2,0.2c-0.1,0-0.1,0.2-0.2,0.2c-0.1,0-0.2,0.2-0.2,0.3c0,0.2,0,0.2,0.2,0.1
				c0.1,0,0.2,0,0.3,0c0,0,0.1,0.1,0.1,0.1c0,0.2,0,0.4-0.1,0.6c-0.1,0.2-0.1,0.5-0.1,0.7c0,0.1,0,0.3-0.2,0.3c0,0,0,0.1,0,0.1
				c0.3,0.2,0,0.3-0.1,0.3c-0.2,0.1-0.3,0.1-0.5,0.2c-0.2,0-0.4-0.1-0.5-0.2c0,0,0-0.1,0-0.1c-0.1-0.1-0.2-0.2-0.3-0.2
				c-0.1,0-0.2,0.1-0.3,0.2c-0.1,0-0.2,0.1-0.3,0.1c0,0,0,0-0.1,0.1c0,0,0.1,0,0.1,0c0.1,0,0.2,0,0.3,0c0,0,0,0.1,0,0.1
				c-0.1,0.1-0.1,0.2-0.2,0.3c-0.1,0.1-0.1,0-0.2,0c-0.3,0-0.5,0.1-0.8,0.1c0,0.3-0.3,0.2-0.5,0.3c0,0.2,0,0.4,0,0.7
				C59.9,32.4,59.9,32.7,59.8,33z"/>
			<path class="st0" d="M78.1,45.1c0.7,0.2,1.4,0.5,2,0.7L80,45.6c-0.1-0.3-0.1-0.6-0.2-0.9c-0.1-0.3-0.2-0.6-0.3-0.9l-0.1-0.4
				c0-0.1-0.1-0.3-0.1-0.4c-0.1-0.3-0.2-0.6-0.3-0.9c-0.1-0.3-0.2-0.6-0.3-0.9c-0.1-0.3-0.2-0.6-0.3-0.8c-0.1-0.3-0.2-0.6-0.3-0.8
				c-0.1-0.3-0.2-0.5-0.4-0.8c-0.2-0.4-0.4-0.8-0.6-1.2c-0.4-0.2-0.8-0.4-1.2-0.6c-0.3-0.1-0.5-0.3-0.8-0.4
				c-0.3-0.1-0.6-0.2-0.8-0.3c-0.3-0.1-0.6-0.2-0.8-0.3c-0.3-0.1-0.6-0.2-0.9-0.3c-0.3-0.1-0.6-0.2-0.9-0.3c-0.1,0-0.3-0.1-0.4-0.1
				L70.8,35c-0.3-0.1-0.6-0.2-0.9-0.3c-0.3-0.1-0.6-0.1-0.9-0.2l-0.3-0.1c0.2,0.6,0.5,1.3,0.7,2c0.6,1.8,1.1,3.7,1.4,5.7
				c0.1,0.4,0.2,0.8,0.2,1.2c0.4,0.1,0.8,0.1,1.2,0.2C74.4,44,76.3,44.5,78.1,45.1z"/>
			<path class="st0" d="M65,27.7c0.9,1,1.7,2.3,2.4,3.8c0.4,0.8,0.7,1.6,1.1,2.4l0.1,0l0.5,0.1c0.3,0.1,0.6,0.2,0.9,0.2
				c0.3,0.1,0.6,0.2,0.9,0.3l0.4,0.1c0.1,0,0.3,0.1,0.4,0.1c0.3,0.1,0.6,0.2,0.9,0.3c0.3,0.1,0.6,0.2,0.9,0.3
				c0.3,0.1,0.6,0.2,0.9,0.3c0.3,0.1,0.6,0.2,0.8,0.3c0.3,0.1,0.5,0.3,0.8,0.4c0.2,0.1,0.5,0.2,0.7,0.4c-0.5-0.9-1-1.8-1.6-2.7
				c-0.6-0.9-1.3-1.8-1.9-2.5c-0.2-0.2-0.3-0.4-0.5-0.6c-0.1-0.1-0.2-0.2-0.3-0.3c-0.1-0.1-0.2-0.2-0.3-0.3
				c-0.2-0.2-0.4-0.4-0.5-0.5c-0.2-0.2-0.4-0.3-0.5-0.5c-0.3-0.3-0.7-0.6-1.1-0.9c-0.2-0.1-0.4-0.3-0.5-0.4
				c-0.2-0.1-0.4-0.3-0.5-0.4c-0.4-0.2-0.7-0.5-1.1-0.7c-0.2-0.1-0.4-0.2-0.5-0.3c-0.2-0.1-0.3-0.2-0.5-0.3
				c-0.2-0.1-0.3-0.2-0.5-0.3c-0.2-0.1-0.3-0.2-0.5-0.2c-0.2-0.1-0.3-0.1-0.5-0.2c-0.2-0.1-0.3-0.1-0.5-0.2
				c-0.3-0.1-0.6-0.2-0.9-0.3c0,0.1-0.1,0.2-0.2,0.2c-0.1,0-0.2,0.1-0.2,0.1c0,0.2-0.1,0.3-0.3,0.3C63.8,26.5,64.4,27,65,27.7z"/>
			<path class="st0" d="M73,79.1c0,0-0.1,0.1-0.1,0.1C72.9,79.2,72.9,79.2,73,79.1C72.9,79.1,73,79.1,73,79.1z"/>
			<path class="st0" d="M87.2,55.1c-0.8,0-1.8,0.1-3,0.1c-0.6,0-1.2,0-1.8,0.1c-0.3,0-0.6,0-0.8,0l0,0.7c0,0.3,0,0.6,0,1l-0.1,1
				c0,0.3-0.1,0.6-0.1,1c0,0.5-0.1,1.1-0.2,1.6c0.1,0,0.3,0.1,0.4,0.1c0.2,0.1,0.4,0.3,0.6,0.4c0.3,0.2,0.5,0.4,0.7,0.6
				c0.3,0.2,0.6,0.4,0.9,0.5c1.1-0.6,2-1.2,2.8-1.8c1-0.8,1.8-1.7,2.3-2.5c0.5-0.8,0.7-1.5,0.8-2c0-0.1,0-0.2,0-0.3
				c0-0.1,0-0.2,0-0.2c0-0.1,0-0.2,0-0.2s-0.2,0-0.7,0C88.7,55.1,88.1,55.1,87.2,55.1z"/>
			<path class="st0" d="M86.8,49.5c1,0.9,1.8,1.8,2.3,2.6c0.5,0.8,0.7,1.6,0.7,2.1c0,0,0,0.1,0,0.1c0-0.1,0-0.2,0-0.3
				c0-0.2,0-0.3,0-0.5c0-0.2,0-0.4-0.1-0.6c0-0.2-0.1-0.4-0.1-0.7c0-0.1,0-0.2-0.1-0.4c0-0.1,0-0.1,0-0.2c0-0.1,0-0.1-0.1-0.2
				c-0.1-0.3-0.1-0.6-0.2-0.9c-0.1-0.3-0.2-0.6-0.3-0.9c0-0.2-0.1-0.3-0.2-0.5c-0.1-0.2-0.1-0.3-0.2-0.5c-0.1-0.2-0.1-0.3-0.2-0.5
				c-0.1-0.2-0.2-0.3-0.3-0.5c-0.7-1.4-1.7-2.9-3-4.3c-0.2-0.2-0.3-0.4-0.5-0.5c-0.2-0.2-0.3-0.3-0.5-0.5c-0.1-0.1-0.2-0.2-0.3-0.3
				c-0.1-0.1-0.2-0.2-0.3-0.3c-0.2-0.2-0.4-0.3-0.6-0.5c-0.8-0.7-1.6-1.3-2.5-1.9c-0.8-0.6-1.7-1.1-2.7-1.6c0.1,0.2,0.2,0.5,0.3,0.7
				c0.1,0.3,0.3,0.5,0.4,0.8c0.1,0.3,0.2,0.6,0.3,0.8c0.1,0.3,0.2,0.6,0.3,0.9c0.1,0.3,0.2,0.6,0.3,0.9c0.1,0.3,0.2,0.6,0.3,0.9
				c0,0.1,0.1,0.3,0.1,0.4l0.1,0.4c0.1,0.3,0.2,0.6,0.3,0.9c0.1,0.3,0.2,0.6,0.2,0.9l0.1,0.5l0,0.1c0.9,0.3,1.7,0.7,2.4,1.1
				C84.5,47.8,85.8,48.6,86.8,49.5z"/>
			<path class="st0" d="M88.3,61.8c0.1-0.2,0.2-0.3,0.2-0.5c0.1-0.2,0.1-0.3,0.2-0.5c0.1-0.2,0.1-0.3,0.2-0.5
				c0.1-0.3,0.2-0.6,0.3-0.9c0.1-0.3,0.2-0.6,0.2-0.9c0-0.1,0-0.1,0.1-0.2c0-0.1,0-0.1,0-0.2c0-0.1,0-0.3,0.1-0.4
				c0-0.2,0.1-0.5,0.1-0.7c0-0.2,0-0.4,0.1-0.6c0-0.2,0-0.4,0-0.5c0-0.1,0-0.2,0-0.3c0,0,0,0.1,0,0.1c-0.1,0.5-0.2,1.3-0.7,2.1
				c-0.5,0.8-1.2,1.7-2.3,2.6c-0.7,0.6-1.6,1.2-2.5,1.8c0.2,0.1,0.4,0.2,0.6,0.3c0.1,0,0.1,0.1,0.2,0.1c0.3,0,0.5,0,0.7,0.2
				c0.3,0,0.3,0.2,0.3,0.4c0,0.2,0.1,0.3,0.2,0.4c0.2,0.1,0.3,0.3,0.5,0.3c0,0,0.1,0,0.1,0.1c0.4-0.6,0.7-1.2,1-1.8
				C88.1,62.1,88.2,61.9,88.3,61.8z"/>
			<path class="st0" d="M89.8,54.6c0-0.1,0-0.2,0-0.3c-0.1-0.5-0.3-1.2-0.8-2c-0.5-0.8-1.3-1.7-2.3-2.5c-1-0.8-2.3-1.6-3.8-2.3
				c-0.7-0.3-1.4-0.6-2.2-0.9c0.1,0.3,0.1,0.5,0.2,0.8c0.4,2.4,0.7,4.9,0.7,7.4c0.3,0,0.6,0,0.8,0c0.6,0,1.3,0,1.8,0.1
				c1.2,0,2.2,0.1,3,0.1c0.8,0,1.5,0.1,1.9,0.1c0.4,0,0.7,0,0.7,0s0-0.1,0-0.2C89.8,54.7,89.8,54.7,89.8,54.6z"/>
			<path class="st0" d="M60.5,85.3c0.2,0,0.3,0,0.5,0c0.2,0,0.3,0,0.5-0.1c-0.1,0-0.1-0.1-0.1-0.1c-0.4,0.1-0.7,0.2-1,0.2
				c0,0-0.1,0-0.1,0C60.3,85.3,60.4,85.3,60.5,85.3z"/>
			<path class="st0" d="M78.6,69.1c0-0.1,0.1-0.1,0.1-0.2c0-0.1,0.1-0.2,0.1-0.3c0,0.1-0.1,0.1-0.1,0.2C78.7,68.9,78.6,69,78.6,69.1
				z"/>
			<path class="st0" d="M55.7,54.7C55.7,54.7,55.6,54.6,55.7,54.7c-0.2-0.2-0.3-0.3-0.5-0.1c0,0-0.2,0-0.2-0.1
				c-0.2-0.3-0.4-0.6-0.6-1c-0.2-0.4-0.4-0.7-0.8-1c-0.4-0.2-0.7-0.4-1.1-0.5c-0.1,0-0.2,0-0.2,0c-0.2-0.2-0.2-0.1-0.3,0.1
				c0,0.1-0.2,0.2-0.3,0.1c-0.1-0.1-0.4-0.1-0.4-0.3c0-0.2,0-0.2,0.3-0.2c0.1,0,0.1,0,0.2-0.1C52,51.5,52,51,51.8,51
				c-0.2-0.1-0.3-0.2-0.3-0.4c-0.1-0.2-0.2-0.2-0.4-0.3c-0.1-0.1,0-0.3-0.2-0.5c-0.2-0.2-0.5-0.2-0.7-0.3c-0.1-0.1-0.2-0.1-0.3-0.1
				c-0.1-0.1-0.1-0.1,0-0.2c0,0,0.1-0.1,0.1-0.1c0-0.1,0-0.1,0-0.2c0-0.3,0-0.4-0.3-0.5c-0.2-0.1-0.4,0-0.7,0c0,0,0,0.1-0.1,0.1
				c0,0-0.1,0.1-0.1,0.1c-0.1,0-0.2-0.1-0.2-0.2c0-0.1-0.1-0.3,0.1-0.4c0.2-0.2,0.3-0.5,0.2-0.7c0-0.3,0.1-0.7-0.1-1
				c0-0.1-0.1-0.2-0.1-0.2c-0.1-0.3-0.2-0.5-0.4-0.8c-0.1,1.1-0.3,2.2-0.4,3.3c-0.2,2-0.3,4.1-0.3,6.2
				C50.2,54.7,52.9,54.7,55.7,54.7z"/>
			<path class="st0" d="M81.1,54.7c0-2.5-0.2-4.9-0.7-7.3c-0.1-0.3-0.1-0.6-0.2-0.9l0-0.2c-0.7-0.3-1.5-0.5-2.3-0.8
				c-1.8-0.5-3.7-1-5.7-1.4c-0.3-0.1-0.7-0.1-1-0.2c0.2,1.4,0.4,2.9,0.6,4.4c0.2,2,0.3,4.1,0.3,6.2c3,0,5.9,0,8.3,0
				C80.6,54.7,80.9,54.7,81.1,54.7z"/>
			<path class="st0" d="M69.6,54.2c0.2,0,0.3,0.3,0.6,0.3c0.1,0,0.1,0.1,0.2,0.1c0.2-0.1,0.3,0,0.5,0.1c0.2,0,0.4,0,0.6,0
				c0-2.1-0.1-4.1-0.3-6.2c-0.1-1.6-0.3-3.1-0.5-4.6c-1.5-0.2-3-0.4-4.6-0.5c-1.5-0.1-3-0.2-4.5-0.2c0.2,0.1,0.3,0.3,0.5,0.4
				c0.2,0.2,0.5,0.3,0.8,0.5c0.1,0,0.1,0,0.2,0c0.4,0,0.4,0,0.5,0.2c0.1,0.1,0.2,0.2,0.3,0.3c0.1,0.1,0,0.3,0,0.4
				c0.3,0.4,0.4,0.9,0.6,1.4c0.3,0.6,0.5,1.2,0.6,1.8c0,0.2,0.1,0.4,0.2,0.5c0.2,0.4,0.2,0.8,0.4,1.1c0,0.5,0.4,0.8,0.7,1.1
				c0.3,0.4,0.6,0.8,1.1,1.1c0.2,0.1,0.3,0.2,0.4,0.4c0.1,0.3,0.4,0.3,0.5,0.6c0,0.1,0.2,0.1,0.2,0.2c0.2,0.1,0.4,0.2,0.6,0.3
				c0.2,0.1,0.3,0.2,0.3,0.4C69.3,54,69.3,54.1,69.6,54.2z"/>
			<path class="st0" d="M57.5,39.2c0.1,0.2,0.1,0.4,0.2,0.6c0,0.1,0,0.2,0.1,0.3c0.1,0.2,0.3,0.4,0.5,0.5c0.2,0.1,0.1,0.4,0.4,0.5
				c0.1,0,0.1,0.1,0.1,0.2c0.1,0.1,0.2,0.3,0.3,0.4c0-2.7,0-5.2,0-7.5c0-0.2,0-0.5,0-0.7c-0.6,0-1.2,0-1.7,0c0,0.1,0,0.3,0.1,0.4
				c0,0,0,0.1,0,0.1c-0.1,0.3,0,0.4,0.2,0.6c0.2,0.2,0.3,0.4,0.6,0.5c0.1,0.1,0.2,0.2,0.1,0.3c-0.2,0.3-0.2,0.7-0.6,0.9
				c-0.1,0-0.1,0.1-0.2,0.1c0-0.1-0.3-0.1-0.3-0.3c0,0,0-0.1,0-0.1c0,0-0.1,0-0.1,0.1c-0.2,0.3-0.3,0.6-0.2,1c0,0.1,0,0.2,0.1,0.2
				c0.2,0.1,0.2,0.4,0.1,0.5c-0.2,0.3,0.1,0.6,0,0.8C57.6,38.8,57.4,39,57.5,39.2z"/>
			<path class="st0" d="M59.8,66.9c2.1,0,4.1-0.1,6.2-0.3c1.5-0.1,2.9-0.3,4.3-0.5c0-0.1,0.1-0.2,0.3-0.3c0-0.1,0-0.1,0-0.1
				c0,0,0-0.1,0-0.1c0-0.1,0-0.1,0.1-0.2c0-0.1,0-0.1,0-0.2c-0.2-0.3-0.4-0.7-0.6-1.2c0,0-0.1-0.1-0.1-0.1l0,0c0,0,0,0-0.1,0
				c0,0,0,0,0,0c-0.1,0-0.2-0.1-0.2-0.1c0,0-0.1,0.1-0.2,0.1c-0.1,0.1-0.2,0.1-0.3,0.1c-0.1,0-0.2,0-0.3,0.1
				c-0.2,0.2-0.4,0.2-0.6,0.1c-0.1,0-0.1,0-0.2,0c-0.1,0.1-0.3,0.1-0.4,0.1c-0.1,0-0.1,0-0.2,0l-0.1,0l-0.1-0.1
				c-0.1-0.3,0-0.4,0.2-0.5c0.2-0.1,0.3-0.2,0.4-0.3c0,0,0,0,0.1-0.1c0,0,0,0,0,0c-0.1-0.1-0.1-0.2-0.2-0.2c-0.1,0-0.2-0.1-0.3-0.2
				l0,0c-0.1-0.1-0.2-0.1-0.2-0.1c0,0-0.1,0-0.2,0.1c0,0-0.1,0-0.1,0.1l-0.1,0.1l-0.4-0.2L66.3,63l-0.1,0c-0.3-0.1-0.3-0.3-0.3-0.4
				c0-0.3,0-0.6-0.2-0.8c0,0,0-0.1-0.1-0.1c0,0-0.1-0.1-0.1-0.1c-0.2-0.2-0.4-0.4-0.5-0.8c0-0.1-0.1-0.3-0.2-0.4l0-0.1
				c-0.1-0.1-0.1-0.1-0.2-0.2c0,0-0.1-0.1-0.1-0.1l-0.1-0.1l0.1-0.1c-0.1-0.1-0.3-0.1-0.5-0.2c-0.1,0-0.2,0.1-0.2,0.2
				c0,0.1-0.1,0.1-0.2,0.1c-0.3,0-0.6-0.2-0.8-0.4c-0.1-0.1-0.2-0.2-0.4-0.1c-0.3,0.1-0.7,0.1-0.9,0.3c-0.1,0.1-0.2,0.1-0.3,0.1
				c-0.1,0-0.1,0-0.2-0.1c-0.1-0.5-0.4-0.9-0.9-1c-0.1,0-0.2-0.1-0.3-0.1C59.8,61.4,59.8,64.2,59.8,66.9z"/>
			<path class="st0" d="M79.2,67.5c0-0.1,0.1-0.2,0.1-0.4c0-0.1,0.1-0.3,0.1-0.4l0,0c0,0,0,0,0,0C79.1,66.9,79.1,67.2,79.2,67.5z"/>
			<path class="st0" d="M47.9,61.5c0.1,1.6,0.3,3.1,0.5,4.6c1.5,0.2,3,0.4,4.6,0.5c2,0.2,4.1,0.3,6.2,0.3c0-2.7,0-5.6,0-8.5
				c-0.1,0-0.1,0-0.2,0c-0.1,0-0.2-0.1-0.3-0.2c-0.3-0.6-0.7-1-1.2-1.4c-0.2-0.2-0.4-0.2-0.6-0.3c0-0.2-0.1-0.5-0.2-0.7
				c0-0.2-0.1-0.3-0.2-0.4c-3.1,0-6.1,0-9,0C47.7,57.4,47.7,59.5,47.9,61.5z"/>
			<path class="st0" d="M59.8,75.8c0,0.2,0,0.5,0,0.7l0.6,0c0.3,0,0.6,0,1,0l1-0.1c0.3,0,0.6-0.1,1-0.1c1.3-0.1,2.5-0.3,3.8-0.5
				c0.3-0.1,0.6-0.1,0.9-0.2l0.2,0c0.3-0.7,0.5-1.5,0.8-2.3c0.5-1.8,1-3.7,1.4-5.7c0.1-0.3,0.1-0.7,0.2-1c-1.4,0.2-2.9,0.4-4.4,0.6
				c-2,0.2-4.1,0.3-6.2,0.3C59.8,70.5,59.8,73.4,59.8,75.8z"/>
			<path class="st0" d="M68,76.2c-0.3,0.1-0.5,0.1-0.8,0.2c-1.3,0.2-2.5,0.4-3.8,0.5c-0.3,0-0.6,0.1-1,0.1l-1,0.1c-0.3,0-0.6,0-1,0
				l-0.7,0c0,0.3,0,0.6,0,0.8c0,0.6,0,1.3-0.1,1.8c0,0.4,0,0.8,0,1.2c0.1,0,0.2-0.1,0.3-0.1c0.1,0,0.2-0.1,0.3-0.2
				c0.1-0.1,0-0.2-0.1-0.3c0,0,0-0.1,0.1-0.2c0,0,0.1,0,0.1-0.1c0.2-0.2,0.2-0.2,0.4-0.1c0.1,0.1,0.2,0.1,0.3,0
				c0.1-0.1,0.1-0.1,0.2-0.1c0.1-0.1,0.2-0.1,0.4-0.2c0.1,0.2,0.3,0.3,0.3,0.5c0,0.1,0,0.1,0,0.2c0,0,0.1,0.1,0.1,0.1
				c0.1,0,0.3,0,0.4,0c0.2,0,0.3,0,0.3,0.2c-0.1,0.3,0.2,0.3,0.3,0.4c0.5,0.4,1.1,0.4,1.6,0c0.2-0.2,0.5-0.2,0.7-0.1
				c0.1,0,0.1,0,0.2,0c0.5-0.8,1-1.7,1.4-2.6C67.4,77.6,67.7,76.9,68,76.2z"/>
			<path class="st0" d="M69.9,75.3c0.3-0.1,0.6-0.2,0.9-0.3l0.4-0.1c0.1,0,0.3-0.1,0.4-0.1c0.3-0.1,0.6-0.2,0.9-0.3
				c0.3-0.1,0.6-0.2,0.9-0.3c0.3-0.1,0.6-0.2,0.8-0.3c0.3-0.1,0.6-0.2,0.8-0.3c0.3-0.1,0.5-0.2,0.8-0.4c0.2-0.1,0.4-0.2,0.6-0.3
				c0,0,0-0.1,0-0.1c0-0.6-0.2-1.2-0.6-1.7c-0.2-0.2-0.4-0.5-0.5-0.7c-0.2-0.4-0.2-0.8-0.3-1.1c0-0.1-0.1-0.2-0.1-0.3
				c0-0.1,0.1-0.2,0-0.2c-0.1-0.2-0.1-0.3-0.2-0.5c-0.2-0.2-0.3-0.4-0.5-0.6c-0.1,0-0.2,0-0.2,0c-0.1,0-0.1,0-0.2,0
				c-0.1,0-0.1,0-0.2,0.1c0,0-0.1,0.1-0.1,0.1c0,0-0.1,0.1-0.1,0.1C73.3,68,73,68,72.8,68l0,0c-0.1,0-0.2-0.1-0.2-0.1c0,0,0,0,0,0
				c0,0-0.1,0-0.1-0.1c-0.1,0-0.1-0.1-0.2-0.1c-0.2-0.1-0.2-0.3-0.2-0.3c0-0.1,0-0.2-0.1-0.2c0,0-0.1,0-0.1-0.1
				c-0.2-0.2-0.4-0.2-0.6-0.1c-0.1,0-0.2,0-0.3,0c0,0.3-0.1,0.6-0.2,0.8c-0.4,2-0.9,4-1.4,5.7c-0.2,0.7-0.5,1.4-0.7,2l0.3-0.1
				C69.3,75.4,69.6,75.4,69.9,75.3z"/>
			<path class="st0" d="M79.6,59.8c0.3,0.3,0.7,0.3,1,0.4c0,0,0.1,0,0.1,0.1c0.1-0.5,0.1-1,0.2-1.5c0.1-1.2,0.2-2.3,0.2-3.5
				c-0.2,0-0.5,0-0.7,0c-1.2,0-2.5,0-3.8,0c0.1,0.1,0.1,0.3,0.1,0.4c0,0.2,0,0.3-0.2,0.4c-0.4,0.2-0.6,0.7-1.1,0.7
				c-0.1,0-0.2,0.3-0.2,0.4c0.1,0.2,0.1,0.6,0.4,0.7c0.1,0.1,0.2,0.2,0.4,0.2c0.2,0,0.4,0.2,0.7,0.3c0.3,0.1,0.5,0.3,0.8,0.4
				c0.3,0.1,0.5,0.4,0.9,0.3c0,0,0,0,0,0c0.2,0.1,0.4,0.3,0.7,0.3C79.2,59.7,79.4,59.9,79.6,59.8z"/>
			<path class="st0" d="M59.2,76.6c0-0.2,0-0.5,0-0.7c0-2.5,0-5.3,0-8.3c-2.1,0-4.2-0.1-6.2-0.3c-1.5-0.1-3-0.3-4.4-0.6
				c0.1,0.4,0.1,0.7,0.2,1c0.4,2,0.8,3.9,1.4,5.7c0.2,0.8,0.5,1.5,0.8,2.3l0.2,0c0.3,0.1,0.6,0.1,0.9,0.2
				C54.3,76.3,56.8,76.6,59.2,76.6z"/>
			<path class="st0" d="M40.7,40.3c-0.1,0.3-0.2,0.6-0.3,0.8c-0.1,0.3-0.2,0.6-0.3,0.9c-0.1,0.3-0.2,0.6-0.3,0.9
				c0,0.1-0.1,0.3-0.1,0.4l-0.1,0.4c-0.1,0.3-0.2,0.6-0.3,0.9c-0.1,0.3-0.1,0.6-0.2,0.9L39,45.8c0.7-0.2,1.3-0.5,2-0.7
				c1.8-0.6,3.7-1.1,5.7-1.4c0.3-0.1,0.6-0.1,0.9-0.2c0-0.1,0.1-0.2,0.1-0.4c-0.1-0.5-0.1-1.1-0.5-1.5c-0.1-0.2-0.5-0.4-0.7-0.6
				c-0.1-0.1-0.2-0.1-0.3,0c0,0-0.2-0.2-0.2-0.1c-0.1,0-0.3-0.4-0.4,0c0,0-0.1,0-0.1,0c-0.1-0.1-0.2-0.1-0.3-0.2
				c-0.2-0.1-0.3-0.4-0.6-0.4c0,0,0,0,0,0c-0.3-0.4-0.7-0.6-1.1-0.8c0,0,0-0.1-0.1-0.2c-0.2-0.1-0.3-0.3-0.5-0.4
				c-0.1,0-0.2-0.1-0.3,0.1c-0.1,0.2-0.2,0.2-0.2,0c-0.1-0.2-0.2-0.3-0.4-0.4c-0.2-0.1-0.4-0.1-0.5-0.1c0,0-0.1,0-0.1,0
				c0,0,0,0,0,0.1c-0.1,0.3-0.3,0.5-0.4,0.8C40.9,39.7,40.8,40,40.7,40.3z"/>
			<path class="st0" d="M68.1,34.3c-0.3-0.1-0.6-0.1-0.9-0.2c-1.2-0.2-2.5-0.4-3.8-0.5c-0.3,0-0.6-0.1-1-0.1l-1-0.1
				c-0.3,0-0.6,0-1,0l-0.6,0c0,0.2,0,0.5,0,0.7c0,2.3,0,4.9,0,7.7c0.2,0.1,0.3,0.2,0.5,0.3c0.1,0.1,0.3,0.2,0.4,0.4
				c1.8,0,3.5,0.1,5.3,0.3c1.5,0.1,3,0.3,4.4,0.6c-0.1-0.4-0.1-0.7-0.2-1c-0.4-2-0.8-3.9-1.4-5.7c-0.2-0.8-0.5-1.5-0.8-2.3
				L68.1,34.3z"/>
			<path class="st0" d="M44,73.5c0.3,0.1,0.6,0.2,0.8,0.3c0.3,0.1,0.6,0.2,0.8,0.3c0.3,0.1,0.6,0.2,0.9,0.3c0.3,0.1,0.6,0.2,0.9,0.3
				c0.1,0,0.3,0.1,0.4,0.1l0.4,0.1c0.3,0.1,0.6,0.2,0.9,0.3c0.3,0.1,0.6,0.1,0.9,0.2l0.3,0.1c-0.2-0.7-0.5-1.3-0.7-2
				c-0.6-1.8-1.1-3.7-1.4-5.7C48.1,67.4,48,67,48,66.6c-0.4-0.1-0.8-0.1-1.2-0.2c-0.9-0.2-1.8-0.4-2.7-0.6C44,65.8,44,66,44,66.1
				c0,0.3,0,0.6,0.3,0.9c0.1,0,0.1,0.1,0.2,0.1c0.1,0.1,0,0.1,0,0.2c-0.1,0.2-0.2,0.4-0.2,0.6c0.2,0.2,0,0.5,0,0.7
				c-0.1,0.6-0.2,1.3-0.2,1.9c-0.2,0.4,0.1,0.9-0.3,1.2c0,0.2-0.1,0.4,0.1,0.5c-0.1,0.2-0.2,0.3-0.3,0.5c0,0,0,0.1,0,0.2
				c0,0.2,0,0.3-0.1,0.4C43.6,73.3,43.8,73.4,44,73.5z"/>
			<path class="st0" d="M41.1,45.6c-0.8,0.2-1.5,0.5-2.3,0.8l0,0.2c-0.1,0.3-0.1,0.6-0.2,0.9c-0.4,2.4-0.7,4.8-0.7,7.3
				c0.2,0,0.5,0,0.7,0c2.5,0,5.3,0,8.3,0c0-2.1,0.1-4.2,0.3-6.2c0.1-1.3,0.3-2.7,0.5-4c0-0.1-0.1-0.3-0.1-0.5
				c-0.3,0-0.6,0.1-0.9,0.2C44.8,44.6,42.9,45,41.1,45.6z"/>
			<path class="st0" d="M41.8,59.4c0,0,0.1,0,0.1,0c0.2-0.1,0.3,0,0.5,0.2c0.1,0.2,0.2,0.2,0.4,0.1c0,0,0.1-0.1,0.1-0.1
				c0.1-0.2,0.1-0.3,0.3-0.1c0.1,0.1,0.2,0.1,0.3,0.2c-0.2,0.1,0,0.3-0.2,0.4c0,0-0.1,0.1-0.1,0.2c0,0,0,0.1,0,0.1c0,0,0.1,0,0.1,0
				c0,0,0.1,0,0.1,0c0.2-0.1,0.3,0,0.4,0.1c0.1,0.1,0.1,0.2,0,0.4c0,0.1-0.1,0.1-0.1,0.2c0,0.1,0,0.1,0.1,0c0,0,0,0,0.1,0
				c0,0.2,0.2,0.2,0.3,0.2c0.1,0,0.1,0.1,0.2,0.1c0,0-0.1,0.1-0.1,0.1c-0.2-0.1-0.2,0.2-0.3,0.2c0,0,0,0.1,0,0.2c0,0,0.1,0,0.1,0
				c0.1-0.1,0.1-0.1,0.1,0c0,0.2,0.1,0.2,0.4,0.2c0.1,0,0.2,0.1,0.1,0.2c0,0-0.1,0-0.1,0.1c-0.1,0.2-0.4,0.5,0,0.7
				c0,0.2,0,0.3,0.2,0.5c0,0,0,0,0,0c-0.3,0.3,0.2,0.5,0.1,0.8c0,0,0,0.1,0.1,0.1c0.3,0,0.1,0.2,0.1,0.3c-0.1,0.3-0.3,0.6-0.5,0.8
				c0.8,0.2,1.5,0.3,2.3,0.5c0.3,0.1,0.7,0.1,1,0.2c-0.2-1.4-0.4-2.9-0.6-4.4c-0.2-2-0.3-4.1-0.3-6.2c-3,0-5.9,0-8.3,0
				c-0.2,0-0.5,0-0.7,0c0,1.2,0.1,2.4,0.2,3.5c0.1,1.1,0.2,2.1,0.4,3.2c0.2,0,0.3-0.1,0.5-0.3c0.1-0.1,0.3-0.1,0.4-0.2
				c0.1-0.1,0.3,0.1,0.4-0.1c0-0.1,0.2,0,0.2-0.1c0.1-0.1,0.1-0.3,0.2-0.3c0.2-0.1-0.2-0.2,0.1-0.2c0.1,0,0.2-0.1,0.3-0.2
				c0.1-0.1,0.1-0.2,0.2-0.3c0.1-0.1,0.1-0.2,0.2-0.2c0,0,0.1,0,0.1,0c0.1,0.2,0.2,0.1,0.3,0c0.1-0.1,0.2-0.1,0.2-0.2
				c-0.3-0.1,0.1-0.3-0.1-0.4C41.6,59.4,41.6,59.2,41.8,59.4z"/>
			<path class="st0" d="M63.6,25C63.7,25,63.7,25,63.6,25c0,0-0.1,0-0.2,0C63.5,25,63.6,25,63.6,25z"/>
			<path class="st0" d="M63.9,25.2C64,25.2,64,25.2,63.9,25.2c0.3,0.2,0.6,0.3,0.9,0.3c0.2,0,0.3,0.1,0.5,0.2
				c0.2,0.1,0.3,0.1,0.5,0.2c0.2,0.1,0.3,0.1,0.5,0.2c0.2,0.1,0.3,0.2,0.5,0.2c0.2,0.1,0.4,0.2,0.5,0.3c0.2,0.1,0.4,0.2,0.5,0.3
				c0.4,0.2,0.7,0.4,1.1,0.7c0.7,0.5,1.5,1,2.2,1.7c0.2,0.2,0.4,0.3,0.6,0.5c0.2,0.2,0.4,0.3,0.5,0.5c0.1,0.1,0.2,0.2,0.3,0.3
				c0.1,0.1,0.2,0.2,0.3,0.3c0.2,0.2,0.4,0.4,0.5,0.6c0.7,0.8,1.4,1.6,2,2.6c0.6,0.9,1.2,1.9,1.8,2.9c0,0.1,0.1,0.2,0.1,0.3
				c0.1,0,0.2,0.1,0.3,0.1c1,0.6,2,1.1,2.9,1.8c0.9,0.6,1.8,1.3,2.6,2c0.2,0.2,0.4,0.4,0.6,0.5c0.1,0.1,0.2,0.2,0.3,0.3
				c0.1,0.1,0.2,0.2,0.3,0.3c0.2,0.2,0.4,0.4,0.5,0.5c0.2,0.2,0.3,0.4,0.5,0.6c0.6,0.7,1.2,1.5,1.7,2.2c0.2,0.4,0.5,0.7,0.7,1.1
				c0.1,0.2,0.2,0.4,0.3,0.5c0.1,0.2,0.2,0.4,0.3,0.5c0.1,0.2,0.2,0.4,0.2,0.5c0.1,0.2,0.2,0.3,0.2,0.5c0.1,0.2,0.1,0.3,0.2,0.5
				c0.1,0.2,0.1,0.3,0.2,0.5c0.1,0.3,0.2,0.6,0.3,0.9c0.1,0.3,0.1,0.6,0.2,0.9c0,0.1,0,0.1,0,0.2c0,0.1,0,0.1,0,0.2
				c0,0.1,0,0.3,0.1,0.4c0,0.2,0.1,0.5,0.1,0.7c0,0.2,0,0.4,0.1,0.6c0,0.2,0,0.4,0,0.5c0,0.2,0,0.4,0,0.5c0,0,0,0,0,0.1
				C89.7,39.5,78.4,27,63.8,25C63.9,25,63.9,25.1,63.9,25.2z"/>
			<path class="st0" d="M77.2,74.7c-0.3-0.2-0.4-0.4-0.5-0.7c-0.4,0.7-0.8,1.4-1.3,2c-0.6,0.9-1.3,1.8-2,2.6
				c-0.1,0.1-0.3,0.3-0.4,0.4c0.1-0.1,0.1-0.1,0.2,0c0.1,0.1,0.2,0.1,0.4,0.1c0,0,0.1,0,0.1,0c-0.1,0.1-0.1,0.2-0.2,0.2
				c-0.2,0-0.2,0.1-0.3,0.3c-0.1,0.4-0.3,0.8-0.5,1.2c-0.2,0.4-0.5,0.7-0.7,1.1c-0.2,0.3-0.2,0.6-0.5,0.8c0,0,0,0.1,0,0.1
				c0,0,0,0,0,0c1.1-0.5,2.1-1,3.2-1.6c-0.1-0.1-0.1-0.2-0.1-0.2c0.1-0.2,0.1-0.4-0.1-0.6c0,0,0-0.1,0-0.1c0.3-0.2,0.1-0.4,0-0.5
				c-0.1-0.2,0-0.3,0-0.5c0.2,0,0.4,0,0.5-0.1c0.2-0.1,0.4-0.2,0.4-0.5c0-0.3,0.1-0.6,0.3-0.9c0.2-0.2,0.1-0.6-0.1-0.7
				c-0.1-0.1-0.1-0.2-0.2-0.2c-0.2-0.1-0.2-0.2-0.1-0.3c0.1-0.1,0.1-0.2,0.2-0.2c0.2,0,0.4,0,0.5-0.3c0,0,0.1,0,0.1,0
				c0.1,0,0.3,0,0.4,0c0.4,0,0.5,0,0.6-0.4c0.1-0.2,0.1-0.4,0.1-0.5C77.5,74.9,77.4,74.8,77.2,74.7z"/>
			<path class="st0" d="M58.6,85.3c-0.2,0-0.3,0-0.5,0c-0.2,0-0.4,0-0.6-0.1c-0.2,0-0.5-0.1-0.7-0.1c-0.1,0-0.3,0-0.4-0.1
				c-0.1,0-0.1,0-0.2,0c-0.1,0-0.1,0-0.2,0c-0.3-0.1-0.6-0.1-0.9-0.2c-0.3-0.1-0.6-0.2-0.9-0.3c-0.2,0-0.3-0.1-0.5-0.2
				c-0.2-0.1-0.3-0.1-0.5-0.2C53,84,52.9,84,52.7,83.9c-0.2-0.1-0.3-0.2-0.5-0.2c-0.2-0.1-0.4-0.2-0.5-0.3c-0.2-0.1-0.4-0.2-0.5-0.3
				c-0.4-0.2-0.7-0.4-1.1-0.7c-0.7-0.5-1.5-1-2.2-1.7c-0.2-0.2-0.4-0.3-0.6-0.5c-0.2-0.2-0.4-0.3-0.5-0.5c-0.1-0.1-0.2-0.2-0.3-0.3
				c-0.1-0.1-0.2-0.2-0.3-0.3c-0.2-0.2-0.4-0.4-0.5-0.6c-0.7-0.8-1.4-1.6-2-2.6c-0.6-0.9-1.2-1.9-1.8-2.9c0-0.1-0.1-0.2-0.1-0.3
				c-0.1,0-0.1-0.1-0.2-0.1c0,0-0.1,0.1-0.2,0.2c0,0.1-0.1,0.1-0.1,0c-0.1-0.1-0.2-0.2-0.4-0.1c-0.2,0.1-0.4,0.3-0.3,0.5
				c0,0.1,0,0.1,0,0.2c0.1,0.5,0,0.6-0.3,0.9c-0.2,0.1-0.3,0.2-0.5,0.4c-0.2,0.2-0.3,0.2-0.4,0c-0.1-0.2-0.3-0.2-0.5-0.2
				c-0.2,0-0.2,0.1-0.2,0.2c0,0.1-0.1,0.1-0.2,0.1c-0.1-0.1-0.1-0.2-0.1-0.3c0-0.2,0-0.3-0.2-0.5c-0.1-0.1,0-0.2-0.1-0.3
				c0-0.1-0.1-0.2-0.2-0.2c-0.2,0-0.3,0.1-0.3,0.2c0,0,0,0.1,0,0.1c0,0.2-0.1,0.3-0.2,0.3c-0.1,0-0.2-0.1-0.2-0.2
				c0-0.2-0.1-0.3-0.1-0.5c0-0.2,0-0.2,0.2-0.3c0.2,0,0.2,0,0.1-0.2c0-0.1-0.1-0.1-0.1-0.2c-0.2-0.3-0.2-0.3,0-0.5
				c0.2-0.2,0.2-0.2,0-0.5c-0.1-0.2-0.1-0.3,0-0.5c0.1-0.1,0.2-0.1,0-0.2c-0.1,0-0.1-0.1,0-0.2c0.1-0.1,0.2-0.3,0.3-0.4
				c0,0,0-0.1,0.1-0.1c-0.6-0.5-1.2-1-1.8-1.5c-0.2-0.2-0.4-0.4-0.6-0.5c-0.1-0.1-0.2-0.2-0.3-0.3c-0.1-0.1-0.2-0.2-0.3-0.3
				c-0.2-0.2-0.4-0.4-0.5-0.5c-0.2-0.2-0.3-0.4-0.5-0.6c-0.6-0.7-1.2-1.5-1.7-2.2c-0.2-0.4-0.5-0.7-0.7-1.1
				c-0.1-0.2-0.2-0.4-0.3-0.5c-0.1-0.2-0.2-0.4-0.3-0.5c-0.1-0.2-0.2-0.4-0.2-0.5c-0.1-0.2-0.2-0.3-0.2-0.5
				c-0.1-0.2-0.1-0.3-0.2-0.5c-0.1-0.2-0.1-0.3-0.2-0.5c-0.1-0.3-0.2-0.6-0.3-0.9c-0.1-0.3-0.1-0.6-0.2-0.9c0-0.1,0-0.1,0-0.2
				c0-0.1,0-0.1,0-0.2c0-0.1,0-0.3-0.1-0.4c0-0.2-0.1-0.5-0.1-0.7c0-0.2,0-0.4-0.1-0.6c0-0.2,0-0.4,0-0.5c0-0.2,0-0.4,0-0.5
				c0,0,0,0,0-0.1c0.2,16.5,13.5,29.8,30,30c0,0,0,0-0.1,0C59,85.3,58.8,85.3,58.6,85.3z"/>
			<path class="st0" d="M86.2,67.5c-0.1-0.1-0.1-0.2-0.1-0.3c0.2-0.1,0-0.2-0.1-0.3c-0.1,0-0.2,0-0.1-0.2c0.1-0.1,0.1-0.1,0.1-0.2
				c0-0.1-0.1-0.2-0.1-0.2c-0.1,0-0.2-0.1-0.2-0.2c-0.2,0.2-0.3,0.4-0.5,0.6c-0.2,0.2-0.3,0.4-0.5,0.6c-0.2,0.2-0.3,0.4-0.5,0.5
				c-0.1,0.1-0.2,0.2-0.3,0.3c-0.1,0.1-0.2,0.2-0.3,0.3c-0.2,0.2-0.4,0.4-0.6,0.5c-0.7,0.6-1.4,1.2-2.2,1.7c0.1,0.1,0.2,0.3,0.4,0.2
				c0.1,0,0.1,0.1,0.2,0.1c0.1,0.1,0.2,0.2,0.3,0.3c0.1,0.1,0.3,0.1,0.3,0.2c0,0.1,0,0.3-0.1,0.4c-0.2,0.3-0.1,0.5,0,0.8
				c0.1,0.2,0.1,0.3,0,0.5c-0.2,0.3,0,0.5,0.1,0.6c0.1,0.1,0.2,0.1,0.2,0.2c0,0.2-0.1,0.4-0.2,0.6c0,0.2-0.2,0.3-0.3,0.4
				c-0.1-0.2-0.4,0-0.4-0.1c-0.2-0.3-0.4,0-0.6-0.1c-0.3,0.2-0.8,0.2-1,0.6c0,0.1-0.1,0.1-0.1,0.1c-0.2,0.1-0.4,0.2-0.4,0.5
				c-0.2,0.1-0.2,0.3-0.1,0.6c0.1,0.3,0.1,0.7,0.1,1.1c0,0,0,0.1,0.1,0.1c0.1,0.1,0.1,0.1,0.1,0.2c3.1-2.7,5.6-6,7.4-9.7
				c-0.2-0.1-0.4-0.3-0.5-0.5C86.3,67.6,86.3,67.5,86.2,67.5z"/>
			<path class="st0" d="M89.8,55.9c0,0.2,0,0.3,0,0.5c0,0.2,0,0.4-0.1,0.6c0,0.2-0.1,0.5-0.1,0.7c0,0.1,0,0.3-0.1,0.4
				c0,0.1,0,0.1,0,0.2c0,0.1,0,0.1,0,0.2c-0.1,0.3-0.1,0.6-0.2,0.9c-0.1,0.3-0.2,0.6-0.3,0.9c0,0.2-0.1,0.3-0.2,0.5
				c-0.1,0.2-0.1,0.3-0.2,0.5c-0.1,0.2-0.1,0.3-0.2,0.5c-0.1,0.2-0.2,0.3-0.2,0.5c-0.1,0.2-0.2,0.4-0.3,0.5
				c-0.1,0.2-0.2,0.4-0.3,0.5c-0.1,0.2-0.3,0.5-0.4,0.7c0,0,0.1,0.1,0.1,0.1c0.3,0.2,0.5,0.6,0.9,0.8c1.1-3.1,1.7-6.3,1.7-9.7
				c0,0,0,0,0,0.1C89.8,55.5,89.8,55.7,89.8,55.9z"/>
			<path class="st0" d="M61,85.3c-0.2,0-0.4,0-0.5,0c-0.2,0-0.4,0-0.5,0c0,0,0,0-0.1,0c0.6,0,1.2,0,1.7-0.1c0,0,0,0,0,0
				C61.3,85.2,61.1,85.2,61,85.3z"/>
		</g>
		<path class="st3" d="M59.5,21.5c-0.8,0-1.6,0-2.4,0.1c-0.6,0-1.3,0.1-1.9,0.2c-0.2,0-0.4,0.1-0.6,0.1c-1,0.1-1.9,0.3-2.8,0.5
			c-0.5,0.1-1,0.3-1.5,0.4c-0.5,0.1-1,0.3-1.5,0.5c-1.5,0.5-2.9,1.1-4.3,1.8c-0.4,0.2-0.7,0.4-1.1,0.6c-0.9,0.5-1.8,1.1-2.7,1.6
			c-3.2,2.2-6,4.9-8.3,8C28.4,40.8,26,47.6,26,55c0,9,3.5,17.4,9.8,23.7c6.3,6.3,14.8,9.8,23.7,9.8c2.5,0,5-0.3,7.4-0.8
			c1.7-0.4,3.3-0.9,4.9-1.5c4.2-1.7,8.1-4.2,11.4-7.5c6.3-6.3,9.8-14.8,9.8-23.7C93.1,36.5,78,21.5,59.5,21.5z M70.9,84.7
			c-2.4,0.9-4.8,1.5-7.4,1.9c-1.3,0.2-2.6,0.2-4,0.2C42,86.8,27.7,72.5,27.7,55c0-5.9,1.6-11.4,4.4-16.1c2.5-4.2,5.8-7.7,9.8-10.4
			c0.1-0.1,0.2-0.1,0.2-0.2c1.5-1,3-1.8,4.7-2.5c0.2-0.1,0.3-0.1,0.5-0.2c3.2-1.3,6.7-2.2,10.4-2.4c0.6,0,1.2-0.1,1.8-0.1
			c17.5,0,31.8,14.3,31.8,31.8C91.3,68.5,82.9,80.1,70.9,84.7z"/>
		<path class="st1" d="M75,66c0,0-0.1-0.1-0.1-0.1c0,0,0,0-0.1-0.1c0,0-0.1-0.1-0.1-0.1c0-0.2-0.1-0.3-0.1-0.4
			c-0.1-0.2-0.3-0.3-0.4-0.3c0,0,0,0-0.1,0c0,0-0.1-0.1-0.1-0.1c-0.1,0-0.1-0.1-0.2-0.2c0-0.1-0.1-0.6-0.5-0.7c0,0,0-0.1,0-0.1
			c0,0,0-0.1,0.1-0.1l0.2-0.2l-0.3-0.2c-0.1-0.1-0.2-0.1-0.3-0.2c0,0,0,0,0,0l0-0.1c0-0.2-0.1-0.4-0.1-0.7c0-0.1,0-0.1,0-0.1
			c0,0,0,0,0.2,0c0.1,0,0.1,0,0.2,0c0,0,0.1,0,0.1,0l0.1,0l0.1-0.2c0.1-0.2,0.2-0.3,0.3-0.5c0-0.1,0.1-0.2,0-0.3
			c0-0.1,0-0.2-0.1-0.3l-0.1-0.3l-0.2,0c-0.1,0-0.1,0-0.2,0c0,0-0.1,0-0.1-0.1c-0.1-0.1-0.2-0.1-0.4-0.1c-0.1,0-0.2,0-0.3,0
			c-0.1,0-0.1,0-0.2,0c0,0,0,0-0.1,0c-0.2-0.1-0.2-0.2-0.1-0.4c0.1-0.2,0.1-0.3,0.1-0.4c-0.1-0.1-0.2-0.1-0.4-0.2c0,0,0,0-0.1,0
			c0,0-0.1,0-0.1,0c-0.1-0.2-0.2-0.3-0.3-0.4c0,0-0.1,0,0-0.1c0-0.1,0.1-0.3,0-0.5c-0.1-0.1-0.2-0.2-0.3-0.3
			c-0.2-0.1-0.4-0.1-0.6,0.1c0,0-0.1,0-0.1,0.1c-0.1,0.1-0.2,0.2-0.3,0.2c0,0-0.1,0-0.1,0l-0.1-0.1l-0.1,0.1c0,0,0,0,0,0.1
			c0,0,0,0.1,0,0.1c0,0-0.1,0.1-0.1,0.1c-0.3,0-0.5,0-0.7,0.2c-0.1-0.1-0.2-0.1-0.3-0.1c-0.1,0-0.1,0-0.2,0c0,0,0,0,0,0
			c-0.1-0.2-0.2-0.3-0.3-0.3c-0.2-0.1-0.5-0.2-0.8-0.3c-0.1,0-0.2-0.1-0.3-0.1c-0.1,0-0.2,0-0.2,0.1c0,0,0,0,0,0l0,0
			c-0.2,0-0.3,0-0.4,0.1c-0.1,0.1-0.1,0.2,0,0.4l0,0c-0.1,0-0.2,0-0.5-0.4l-0.1-0.1l-0.2,0.1c0,0,0,0-0.1,0C65,58.6,65,58.6,65,59.1
			c0,0.2-0.1,0.5-0.3,0.5c-0.1,0-0.1,0-0.1,0.1c0,0,0,0,0,0l0,0l-0.1,0.1l0.1,0.1c0,0,0.1,0.1,0.1,0.1c0.1,0.1,0.1,0.1,0.2,0.2
			l0,0.1c0.1,0.1,0.2,0.3,0.2,0.4c0.1,0.3,0.3,0.6,0.5,0.8c0,0,0,0.1,0.1,0.1c0,0,0,0.1,0.1,0.1c0.2,0.2,0.2,0.5,0.2,0.8
			c0,0.2,0,0.4,0.3,0.4l0.1,0l0.2-0.3l0.4,0.2l0.1-0.1c0,0,0.1-0.1,0.1-0.1c0.1-0.1,0.1-0.1,0.2-0.1c0,0,0.1,0,0.2,0.1l0,0
			c0.1,0.1,0.1,0.2,0.3,0.2c0.1,0,0.2,0.1,0.2,0.2c0,0,0,0,0,0c0,0,0,0-0.1,0.1c-0.2,0.1-0.3,0.2-0.4,0.3c-0.1,0.1-0.3,0.2-0.2,0.5
			l0.1,0.1l0.1,0c0.1,0,0.1,0,0.2,0c0.1,0,0.3-0.1,0.4-0.1c0.1-0.1,0.2-0.1,0.2,0c0.2,0.1,0.5,0.1,0.6-0.1c0.1-0.1,0.2-0.1,0.3-0.1
			c0.1,0,0.2,0,0.3-0.1c0.1,0,0.1-0.1,0.2-0.1c0,0,0.1,0.1,0.2,0.1c0,0,0,0,0,0c0,0,0,0,0.1,0l0,0c0,0,0.1,0.1,0.1,0.1
			c0.2,0.5,0.3,0.9,0.6,1.2c0,0,0,0.1,0.1,0.1c0,0,0,0,0,0c0,0-0.1,0.1-0.1,0.1c0,0-0.1,0.1-0.1,0.2c0,0,0,0.1,0,0.1
			c0,0,0,0.1,0,0.1c-0.2,0.1-0.2,0.2-0.3,0.3c0,0.1,0,0.2,0,0.3l0,0.2l0.2,0l0,0c0,0,0.1,0,0.1,0c0,0,0.1,0,0.1,0.1
			c0,0,0.1,0.1,0.1,0.2c0,0.1,0.1,0.1,0.1,0.2c0.1,0,0.2,0.1,0.3,0c0.2-0.1,0.4-0.1,0.6,0.1c0,0,0.1,0.1,0.1,0.1
			c0.1,0,0.1,0.1,0.1,0.2c0,0.1,0,0.3,0.2,0.3c0.1,0,0.1,0.1,0.2,0.1c0,0,0.1,0,0.1,0.1c0,0,0,0,0,0c0,0,0.1,0.1,0.2,0.1l0,0
			c0.2,0,0.5,0,0.7-0.3c0,0,0.1-0.1,0.1-0.1c0,0,0.1-0.1,0.1-0.1c0.1-0.1,0.1-0.1,0.2-0.1c0.1,0,0.1,0,0.2,0c0,0,0.1,0,0.2,0
			c0,0,0,0,0.1-0.1c0,0,0-0.1,0.1-0.1c0.1-0.2,0.2-0.4,0.3-0.6c0-0.2,0.1-0.3,0.3-0.5l0.1,0L75,66L75,66z"/>
	</g>
	<g>
		<path class="st0" d="M106.8,74.8c0-0.2,0.1-0.3,0.1-0.5c0.1-0.2,0.2-0.3,0.3-0.4c0.5,0.3,1,0.5,1.5,0.5c0.2,0,0.4,0,0.4-0.1
			c0.1-0.1,0.1-0.2,0.1-0.3c0-0.2-0.2-0.4-0.5-0.5L108,73c-0.3-0.1-0.6-0.3-0.8-0.5c-0.2-0.2-0.3-0.5-0.3-0.8c0-0.2,0-0.4,0.1-0.6
			c0.1-0.2,0.2-0.3,0.4-0.5c0.2-0.1,0.4-0.2,0.6-0.3c0.2-0.1,0.5-0.1,0.7-0.1c0.5,0,1.1,0.1,1.6,0.4c0,0.4-0.2,0.7-0.4,0.9
			c-0.5-0.2-0.9-0.4-1.3-0.4c-0.2,0-0.3,0-0.4,0.1c-0.1,0.1-0.1,0.2-0.1,0.3c0,0.2,0.1,0.3,0.4,0.5l0.9,0.4c0.4,0.2,0.6,0.4,0.8,0.6
			c0.2,0.2,0.3,0.5,0.3,0.8c0,0.2,0,0.4-0.1,0.6c-0.1,0.2-0.2,0.4-0.4,0.5c-0.2,0.1-0.4,0.2-0.6,0.3c-0.2,0.1-0.5,0.1-0.8,0.1
			C108,75.3,107.4,75.1,106.8,74.8z"/>
		<path class="st0" d="M111.2,74.3c0.1,0,0.2-0.1,0.3-0.1c0.1,0,0.2,0,0.3,0c0.2,0,0.4,0,0.6,0.1c0.1,0.1,0.1,0.3,0.1,0.4
			c0,0.1,0,0.2,0,0.2c0,0.1,0,0.1-0.1,0.2c-0.1,0.1-0.3,0.1-0.6,0.1c-0.2,0-0.4,0-0.6-0.1c0-0.1-0.1-0.1-0.1-0.2c0-0.1,0-0.2,0-0.2
			C111.1,74.5,111.1,74.4,111.2,74.3z"/>
		<path class="st0" d="M114.5,74.2c-0.1,0-0.2,0-0.3,0l-0.3,1c-0.1,0-0.3,0-0.5,0c-0.2,0-0.4,0-0.6-0.1l0-0.1l1.6-4.9
			c0.2,0,0.4,0,0.7,0c0.3,0,0.5,0,0.7,0.1l1.6,4.9c-0.2,0.1-0.4,0.1-0.6,0.1c-0.3,0-0.4,0-0.5-0.1c-0.1-0.1-0.2-0.3-0.3-0.5
			l-0.1-0.5c-0.1,0-0.2,0-0.3,0H114.5z M114.5,73.3l0.3,0h0.5c0,0,0.1,0,0.1,0c0.1,0,0.1,0,0.1,0l-0.1-0.4c-0.1-0.4-0.2-0.9-0.4-1.5
			h0c0,0.2-0.2,0.7-0.3,1.4L114.5,73.3z"/>
		<path class="st0" d="M117.9,74.3c0.1,0,0.2-0.1,0.3-0.1c0.1,0,0.2,0,0.3,0c0.2,0,0.4,0,0.6,0.1c0.1,0.1,0.1,0.3,0.1,0.4
			c0,0.1,0,0.2,0,0.2c0,0.1,0,0.1-0.1,0.2c-0.1,0.1-0.3,0.1-0.6,0.1c-0.2,0-0.4,0-0.6-0.1c0-0.1-0.1-0.1-0.1-0.2c0-0.1,0-0.2,0-0.2
			C117.8,74.5,117.8,74.4,117.9,74.3z"/>
		<path class="st0" d="M122.8,71.5c0.2,0,0.5,0.1,0.7,0.2v-1.8l0-0.1h0.4c0.2,0,0.4,0.1,0.5,0.2c0.1,0.1,0.1,0.3,0.1,0.5v3.6
			c0,0.3,0.1,0.4,0.2,0.5c0,0.1-0.1,0.2-0.1,0.3c-0.1,0.1-0.1,0.2-0.2,0.3c-0.4,0-0.6-0.1-0.8-0.4c-0.3,0.3-0.6,0.5-1,0.5
			c-0.4,0-0.7-0.2-0.9-0.5c-0.2-0.3-0.3-0.8-0.3-1.4c0-0.3,0-0.6,0.1-0.8c0.1-0.2,0.2-0.4,0.3-0.6c0.1-0.2,0.3-0.3,0.5-0.4
			C122.4,71.6,122.6,71.5,122.8,71.5z M122.9,74.4c0.2,0,0.4-0.1,0.5-0.3v-1.6c-0.2-0.1-0.4-0.2-0.5-0.2c-0.3,0-0.5,0.4-0.5,1.1
			C122.5,74.1,122.6,74.4,122.9,74.4z"/>
		<path class="st0" d="M128.2,73.8h-1.9c0,0.2,0.1,0.4,0.2,0.5c0.1,0.1,0.3,0.2,0.5,0.2c0.1,0,0.2,0,0.4,0c0.2,0,0.3-0.1,0.5-0.2
			c0.2,0.2,0.3,0.4,0.3,0.7c-0.4,0.3-0.9,0.4-1.4,0.4c-0.3,0-0.6,0-0.8-0.1c-0.2-0.1-0.4-0.2-0.5-0.4c-0.1-0.2-0.2-0.4-0.3-0.6
			c-0.1-0.2-0.1-0.5-0.1-0.8c0-0.3,0-0.5,0.1-0.7c0.1-0.2,0.2-0.4,0.3-0.6c0.1-0.2,0.3-0.3,0.5-0.4c0.2-0.1,0.4-0.1,0.7-0.1
			c0.2,0,0.4,0,0.6,0.1c0.2,0.1,0.3,0.2,0.5,0.3c0.1,0.1,0.2,0.3,0.3,0.5c0.1,0.2,0.1,0.4,0.1,0.6C128.3,73.3,128.3,73.6,128.2,73.8
			z M126.4,73h0.9v-0.1c0-0.2,0-0.3-0.1-0.4c-0.1-0.1-0.2-0.2-0.4-0.2c-0.2,0-0.3,0.1-0.3,0.2C126.4,72.6,126.4,72.7,126.4,73z"/>
		<path class="st0" d="M133.3,72.2L133.3,72.2c0-0.8-0.3-1.2-0.8-1.2c-0.3,0-0.5,0.1-0.7,0.4c-0.1,0.3-0.2,0.7-0.2,1.2
			c0,0.5,0.1,0.9,0.3,1.2c0.2,0.3,0.4,0.4,0.7,0.4c0.2,0,0.4,0,0.6-0.1c0.2-0.1,0.4-0.2,0.7-0.4c0.1,0.1,0.2,0.2,0.3,0.3
			c0.1,0.1,0.2,0.3,0.2,0.4c-0.1,0.1-0.2,0.2-0.4,0.3c-0.1,0.1-0.3,0.2-0.5,0.2c-0.2,0.1-0.3,0.1-0.5,0.2c-0.2,0-0.4,0.1-0.6,0.1
			c-0.4,0-0.7-0.1-0.9-0.2c-0.3-0.1-0.5-0.3-0.6-0.6c-0.2-0.2-0.3-0.5-0.3-0.8c-0.1-0.3-0.1-0.6-0.1-1c0-0.4,0.1-0.8,0.2-1.1
			c0.1-0.3,0.3-0.6,0.4-0.8c0.2-0.2,0.4-0.4,0.7-0.5c0.3-0.1,0.5-0.2,0.8-0.2c0.3,0,0.6,0,0.8,0.1c0.2,0.1,0.4,0.2,0.6,0.3
			c0.2,0.1,0.3,0.3,0.4,0.5c0.1,0.2,0.1,0.4,0.1,0.6c0,0.4-0.2,0.6-0.7,0.6C133.6,72.3,133.5,72.3,133.3,72.2z"/>
		<path class="st0" d="M135.1,74.3c0.1,0,0.2-0.1,0.3-0.1c0.1,0,0.2,0,0.3,0c0.2,0,0.4,0,0.6,0.1c0.1,0.1,0.1,0.3,0.1,0.4
			c0,0.1,0,0.2,0,0.2c0,0.1,0,0.1-0.1,0.2c-0.1,0.1-0.3,0.1-0.6,0.1c-0.2,0-0.4,0-0.6-0.1c0-0.1-0.1-0.1-0.1-0.2c0-0.1,0-0.2,0-0.2
			C135,74.5,135,74.4,135.1,74.3z"/>
		<path class="st0" d="M138.4,74.2l0.9-4c0.1,0,0.3,0,0.4,0c0.3,0,0.4,0,0.6,0.1l0,0.1l-1.4,4.9c-0.3,0-0.6,0-0.8,0
			c-0.3,0-0.5,0-0.6-0.1c-0.1-0.1-0.2-0.2-0.3-0.4l-1.2-4.4c0.3-0.1,0.5-0.2,0.6-0.2c0.2,0,0.4,0,0.4,0.1c0.1,0.1,0.2,0.2,0.2,0.4
			l0.6,2.1C138.1,73.1,138.2,73.6,138.4,74.2C138.3,74.2,138.3,74.2,138.4,74.2z"/>
		<path class="st0" d="M140.4,74.3c0.1,0,0.2-0.1,0.3-0.1c0.1,0,0.2,0,0.3,0c0.2,0,0.4,0,0.6,0.1c0.1,0.1,0.1,0.3,0.1,0.4
			c0,0.1,0,0.2,0,0.2c0,0.1,0,0.1-0.1,0.2c-0.1,0.1-0.3,0.1-0.6,0.1c-0.2,0-0.4,0-0.6-0.1c0-0.1-0.1-0.1-0.1-0.2c0-0.1,0-0.2,0-0.2
			C140.3,74.5,140.3,74.4,140.4,74.3z"/>
	</g>
</g>
</svg>
