<?xml version="1.0" encoding="utf-8"?>
<!-- Generator: Adobe Illustrator 24.0.1, SVG Export Plug-In . SVG Version: 6.00 Build 0)  -->
<svg version="1.1" id="Capa_1" xmlns="http://www.w3.org/2000/svg" xmlns:xlink="http://www.w3.org/1999/xlink" x="0px" y="0px"
	 viewBox="0 0 225 110" style="enable-background:new 0 0 225 110;" xml:space="preserve">
<style type="text/css">
	.st0{fill:none;}
	.st1{fill:#2F9FAD;}
	.st2{fill:#2B9F93;}
	.st3{fill:#4A4CB2;}
	.st4{fill:#3D26B0;}
	.st5{fill:#4F149C;}
	.st6{fill:#7C1A92;}
	.st7{fill:#870083;}
	.st8{fill:#9F006D;}
	.st9{fill:#3FBC92;}
	.st10{fill:#46B3B5;}
	.st11{fill:#47BF8E;}
	.st12{fill:#36AEB7;}
	.st13{fill:#406FB9;}
	.st14{fill:#2F5BBA;}
	.st15{fill:#2F27B0;}
	.st16{fill:#4D27AB;}
	.st17{fill:#6D0599;}
	.st18{fill:#7E028A;}
	.st19{fill:#3DE084;}
	.st20{fill:#5CD0A0;}
	.st21{fill:#55DD8C;}
	.st22{fill:#43BD9F;}
	.st23{fill:#4AA4BB;}
	.st24{fill:#2A7CB9;}
	.st25{fill:#2FB188;}
	.st26{fill:#3DADAE;}
	.st27{fill:#33ABB0;}
	.st28{fill:#4478B9;}
	.st29{fill:#4C6ABA;}
	.st30{fill:#3D2BB6;}
	.st31{fill:#2C1CAE;}
	.st32{fill:#680D9C;}
	.st33{fill:#76068D;}
	.st34{fill:#92007D;}
	.st35{fill:#43C982;}
	.st36{fill:#45C88E;}
	.st37{fill:#49BE9B;}
	.st38{fill:#4AB4B8;}
	.st39{fill:#2B9CB5;}
	.st40{fill:#3158BB;}
	.st41{fill:#3442B6;}
	.st42{fill:#4326AE;}
	.st43{fill:#440DA7;}
	.st44{fill:#810E92;}
</style>
<g>
	<polygon class="st0" points="65.31,50.14 70.52,46.88 70.52,46.88 65.31,50.14 	"/>
	<polygon class="st0" points="75.82,43.55 75.82,43.55 73.38,45.08 73.38,45.08 	"/>
	<polygon class="st0" points="75.82,43.55 73.38,42.02 73.38,42.02 75.82,43.55 	"/>
	<polygon class="st0" points="158.47,60.17 158.47,60.26 163.67,57.02 163.67,56.93 	"/>
	<path class="st0" d="M148.69,66.34l9.8,6.1c0.03-0.01,0.06-0.02,0.09-0.03l-9.81-6.11L148.69,66.34z"/>
	<polygon class="st0" points="37.17,42.05 32.68,39.24 32.68,39.24 37.17,42.05 	"/>
	<polygon class="st0" points="64.94,59.48 64.94,59.48 69.4,62.27 69.4,62.27 	"/>
	<polygon class="st0" points="35.49,46.1 30.29,49.36 30.29,49.36 35.49,46.1 	"/>
	<polygon class="st0" points="39.56,66.3 30.79,60.8 30.79,60.8 39.56,66.3 	"/>
	<polygon class="st0" points="163.67,52.92 163.67,52.83 158.47,49.59 158.47,49.68 	"/>
	<polygon class="st0" points="73.39,64.78 73.39,64.78 75.71,66.23 75.71,66.23 	"/>
	<path class="st0" d="M112.22,66.3l-0.07,0.04l16.28,10.13c0.04-0.01,0.07-0.01,0.11-0.02L112.22,66.3z"/>
	<path class="st0" d="M114.99,64.49l-2.84,1.77l0.07,0.04l2.8-1.74C115.01,64.54,114.99,64.51,114.99,64.49z"/>
	<polygon class="st0" points="93.95,54.93 93.96,54.92 93.95,54.93 	"/>
	<polygon class="st0" points="93.95,54.93 93.96,54.93 93.95,54.93 	"/>
	<path class="st0" d="M148.76,66.3l1.08-0.67c-0.01-0.03-0.01-0.05-0.02-0.08l-1.13,0.7L148.76,66.3z"/>
	<polygon class="st0" points="189.51,63.68 194.71,60.44 194.71,60.36 189.51,63.6 	"/>
	<path class="st0" d="M118.74,47.69c0.02-0.02,0.04-0.03,0.06-0.05l-4.69-2.92c-0.02,0.02-0.04,0.03-0.06,0.05L118.74,47.69z"/>
	<path class="st0" d="M187.81,67.95l4.52,2.82c0.02-0.02,0.04-0.04,0.05-0.05l-4.51-2.81C187.85,67.92,187.83,67.93,187.81,67.95z"
		/>
	<path class="st0" d="M115.51,41.41c0.02,0.02,0.04,0.03,0.06,0.05l4.59-2.86c-0.02-0.02-0.04-0.04-0.05-0.05L115.51,41.41z"/>
	<polygon class="st0" points="39.56,66.3 39.47,66.35 39.47,66.35 39.56,66.3 	"/>
	<path class="st0" d="M194.2,49.18c-0.01-0.04-0.02-0.07-0.04-0.11l-8.71-5.42c-0.05,0-0.09,0-0.14,0L194.2,49.18z"/>
	<path class="st1" d="M39.56,66.3v0.05c0.03,0,0.05,0,0.08,0L39.56,66.3z"/>
	<path class="st2" d="M39.56,66.3l-0.08,0.05c0.01,0,0.02,0,0.02,0c0.02,0,0.04,0,0.06,0L39.56,66.3L39.56,66.3z"/>
	<path class="st3" d="M106.53,69.84c1.57,0.13,3.16,0.03,4.76-0.3l0.44-0.09l0.27,0.36c0.03,0.04,0.06,0.08,0.09,0.11v-3.54
		L106.53,69.84z"/>
	<path class="st4" d="M112.08,66.39v3.54c3.2,4.24,8.27,6.77,13.6,6.77c0.92,0,1.84-0.07,2.75-0.22l-16.28-10.13L112.08,66.39z"/>
	<path class="st5" d="M142.31,76.7c0.15,0.02,0.34,0.04,0.57,0.04c0.68,0,1.04-0.17,1.12-0.28c0.29-0.44,0.27-1.37,0.16-1.57
		l-0.05-0.08l-1.97-4.4l-8.47,5.28L142.31,76.7z"/>
	<path class="st5" d="M145.29,68.46c0.72,1.63,1.88,2.79,3.33,3.54v-5.61L145.29,68.46z"/>
	<path class="st6" d="M148.62,66.39V72c1.54,0.8,3.4,1.16,5.44,1.16c1.6,0,3.11-0.22,4.43-0.71l-9.8-6.1L148.62,66.39z"/>
	<path class="st7" d="M178.24,70.7c1.67,1.7,4.13,2.43,6.93,2.45v-4.57c-0.98-0.02-1.8-0.24-2.43-0.69L178.24,70.7z"/>
	<path class="st8" d="M185.3,68.59c-0.05,0-0.09,0-0.14,0v4.57c0.05,0,0.09,0,0.14,0c2.83,0,5.32-0.71,7.03-2.39l-4.52-2.82
		C187.14,68.38,186.29,68.59,185.3,68.59z"/>
	<path class="st9" d="M49.07,58.43c0-2.04-0.84-2.56-2.64-2.56c-1.36,0-2.48,0.4-2.56,1.64c-0.12,1.68-0.44,4.28-4.08,4.28
		c-0.08,0-0.15,0-0.22,0v4.52l9.25-5.8C48.97,59.85,49.07,59.16,49.07,58.43z"/>
	<path class="st9" d="M56.95,54.46l-5.21-3.27v5.99c0,0.5,0.02,0.98,0.07,1.43l5.14-3.22V54.46z"/>
	<path class="st10" d="M75.82,43.55L75.82,43.55l-2.44,1.53v19.51c0,0.06,0,0.13,0.01,0.19l2.32,1.45h0.11V43.55z"/>
	<path class="st10" d="M70.52,46.88l-5.2,3.26v7.04c0,0.9-0.13,1.66-0.38,2.29l4.46,2.8c0.72-1.32,1.12-3,1.12-5.09V46.88z"/>
	<path class="st11" d="M39.56,66.3v-4.52c-2.62-0.08-4.06-1.56-4.06-4.6V46.1l-5.2,3.27v7.82c0,1.38,0.18,2.58,0.5,3.62L39.56,66.3
		L39.56,66.3z"/>
	<path class="st12" d="M93.95,54.93l-3.51-2.2c0.08,1.4,0.28,2.74,0.61,4.03L93.95,54.93L93.95,54.93L93.95,54.93z"/>
	<polygon class="st12" points="93.95,54.93 93.95,54.93 93.95,54.93 93.95,54.93 	"/>
	<polygon class="st12" points="93.95,54.93 93.95,54.93 93.95,54.93 93.95,54.93 	"/>
	<polygon class="st12" points="93.95,54.93 93.95,54.93 93.95,54.93 93.95,54.93 	"/>
	<polygon class="st12" points="78.58,61.67 78.58,45.29 75.82,43.55 75.82,66.23 75.93,66.23 83.2,61.67 	"/>
	<path class="st13" d="M95.91,53.7l-1.95,1.21l-0.01,0.01l0,0l0,0l0.01,0.01l2.6,1.62C96.26,55.66,96.04,54.71,95.91,53.7z"/>
	<path class="st13" d="M108.49,58.49c0,1.8,0.21,3.53,0.61,5.15l0.21,0.84l-0.02,0l2.79,1.74V46.98
		C109.74,50.1,108.49,54.04,108.49,58.49z"/>
	<polygon class="st13" points="93.95,54.93 93.95,54.93 93.95,54.93 93.95,54.93 	"/>
	<path class="st14" d="M112.08,46.98v19.24l0.07,0.04l2.84-1.77c-0.36-0.86-0.64-1.78-0.82-2.77c-0.2-1.06-0.31-2.15-0.31-3.23
		c0-4.39,1.57-8.09,4.44-10.45c0.15-0.12,0.29-0.23,0.45-0.34l-4.68-2.92C113.33,45.46,112.67,46.19,112.08,46.98z"/>
	<path class="st15" d="M137.78,59.47l4.99,3.11c0.28-1.37,0.42-2.81,0.42-4.3c0-3.82-0.92-7.07-2.45-9.72l-4.5,2.8
		c1.02,1.94,1.58,4.28,1.58,6.92C137.82,58.68,137.81,59.07,137.78,59.47z"/>
	<path class="st15" d="M144.45,49.81c0.97,2.47,1.53,5.3,1.53,8.46c0,2.05-0.24,4.01-0.71,5.86l3.35,2.08V43.93
		c-0.09-0.04-0.19-0.07-0.29-0.11l-3.87,2.41V49.81z"/>
	<polygon class="st16" points="163.67,56.93 163.67,52.92 158.47,49.68 158.47,60.17 	"/>
	<path class="st16" d="M148.69,66.26l1.13-0.7c-0.11-0.47-0.17-0.99-0.17-1.57V45.25c0-0.64-0.43-1.07-1.04-1.32v22.29L148.69,66.26
		z"/>
	<polygon class="st17" points="172.51,58.33 172.51,51.52 167.3,54.76 167.3,55.09 	"/>
	<path class="st17" d="M176.48,49.04c-0.35,1.07-0.55,2.32-0.55,3.77v7.65l5.21,3.24V52.82c0-3.11,1.47-4.55,4.02-4.6v-4.57
		c-0.01,0-0.01,0-0.02,0L176.48,49.04z"/>
	<path class="st18" d="M185.3,43.65c-0.05,0-0.09,0-0.14,0v4.57c0.05,0,0.09,0,0.14,0c2.6,0,4.2,1.44,4.2,4.6V63.6l5.2-3.24v-7.54
		c0-1.39-0.18-2.6-0.51-3.64l-8.88-5.53C185.31,43.65,185.31,43.65,185.3,43.65z"/>
	<path class="st19" d="M39.7,41.41c1.05,0,1.83,0.21,2.42,0.54l4.52-2.84c-1.69-1.44-4.17-2.26-7.08-2.26v4.57
		C39.6,41.41,39.65,41.41,39.7,41.41z"/>
	<path class="st20" d="M75.82,43.55v-6.58c-1.26,0.04-2.44,0.53-2.44,1.6v3.46L75.82,43.55L75.82,43.55z"/>
	<path class="st21" d="M39.56,41.41v-4.57c-0.01,0-0.01,0-0.02,0c-2.7,0-5.15,0.71-6.86,2.39l4.49,2.82
		C37.8,41.64,38.6,41.43,39.56,41.41z"/>
	<path class="st22" d="M78.58,41.81v-3.25c0-1.12-1.32-1.6-2.6-1.6c-0.06,0-0.11,0-0.17,0v6.58L78.58,41.81z"/>
	<path class="st23" d="M107.59,38.62c1.61,0,3.12,0.26,4.49,0.77v-5.54c-1.45-0.39-2.96-0.59-4.49-0.59c-2.85,0-5.77,0.75-8.37,2.21
		l5.55,3.45C105.66,38.72,106.6,38.62,107.59,38.62z"/>
	<path class="st24" d="M115.51,41.41l4.6-2.86c-2.2-2.27-4.99-3.89-8.03-4.71v5.54C113.35,39.85,114.5,40.53,115.51,41.41z"/>
	<path class="st25" d="M39.56,66.3L39.56,66.3l-8.76-5.5c1.25,3.98,4.69,5.54,8.68,5.55L39.56,66.3L39.56,66.3z"/>
	<polygon class="st26" points="39.56,66.3 39.56,66.3 39.56,66.3 39.56,66.3 39.56,66.3 39.56,66.3 	"/>
	<path class="st26" d="M48.8,60.5l-9.25,5.8l0.08,0.05C44.32,66.31,47.84,64.1,48.8,60.5z"/>
	<path class="st26" d="M56.95,57.18v-1.79l-5.14,3.22c0.41,4.22,2.7,6.47,5.88,7.32v-5.71C57.2,59.49,56.95,58.48,56.95,57.18z"/>
	<polygon class="st26" points="39.56,66.3 39.56,66.3 39.64,66.35 39.64,66.35 	"/>
	<polygon class="st26" points="39.56,66.3 39.56,66.3 39.56,66.3 	"/>
	<polygon class="st26" points="48.8,60.5 48.8,60.5 39.56,66.3 39.56,66.3 	"/>
	<polygon class="st26" points="56.95,55.39 56.95,55.39 51.81,58.61 51.81,58.61 	"/>
	<polygon class="st26" points="39.56,66.3 39.56,66.3 39.56,66.3 	"/>
	<polygon class="st26" points="39.56,66.3 39.56,66.3 39.56,66.3 39.56,66.3 	"/>
	<path class="st27" d="M75.66,66.23h0.05l-2.32-1.45C73.51,65.74,74.57,66.23,75.66,66.23z"/>
	<path class="st27" d="M61.11,61.79c-1.56,0-2.73-0.5-3.42-1.56v5.71c1.05,0.28,2.21,0.42,3.42,0.42c3.63,0,6.72-1.17,8.29-4.08
		l-4.46-2.8C64.32,61.05,62.97,61.79,61.11,61.79z"/>
	<path class="st28" d="M91.04,56.75c0.35,1.35,0.83,2.63,1.46,3.84l0.16,0.3l-1.07,2.39l-1.32,2.94l-0.84,1.88
		c-0.11,0.2-0.13,1.13,0.16,1.57c0.08,0.11,0.44,0.28,1.12,0.28c0.29,0,0.48-0.03,0.54-0.04l2.7-0.32V54.93L91.04,56.75z"/>
	<polygon class="st28" points="87.21,66.23 89.25,61.67 83.2,61.67 75.93,66.23 	"/>
	<polygon class="st28" points="93.95,54.93 91.04,56.75 91.04,56.75 93.95,54.93 	"/>
	<polygon class="st28" points="75.93,66.23 75.93,66.23 83.2,61.67 83.2,61.67 	"/>
	<polygon class="st28" points="93.95,54.93 93.95,54.93 93.95,54.93 	"/>
	<polygon class="st29" points="112.22,66.3 112.22,66.3 112.22,66.3 112.15,66.26 112.08,66.3 112.15,66.34 	"/>
	<path class="st29" d="M101.74,68.75c1.53,0.58,3.1,0.95,4.7,1.08l5.64-3.54l-2.9-1.82l-0.9,0.04c-0.12,0.01-0.24,0.01-0.36,0.01
		c-5.54,0-9.69-3.05-11.35-7.96l-2.6-1.63l-0.01-0.01l0,0v14.66l7.63-0.9L101.74,68.75z"/>
	<path class="st29" d="M112.08,66.3l-5.64,3.54c0.03,0,0.06,0,0.09,0.01l5.55-3.46V66.3z"/>
	<polygon class="st29" points="112.15,66.34 112.08,66.3 112.08,66.39 	"/>
	<polygon class="st29" points="93.95,54.93 93.95,54.93 93.95,54.93 	"/>
	<polygon class="st29" points="93.95,54.93 93.95,54.93 93.95,54.93 	"/>
	<path class="st29" d="M93.96,54.93l2.6,1.63c0-0.01,0-0.01-0.01-0.02L93.96,54.93z"/>
	<polygon class="st29" points="109.29,64.47 109.18,64.48 112.08,66.3 112.08,66.21 	"/>
	<polygon class="st29" points="112.08,66.21 112.08,66.3 112.15,66.26 	"/>
	<polygon class="st29" points="93.95,54.93 93.95,69.59 93.95,69.59 93.95,54.93 	"/>
	<polygon class="st29" points="93.95,54.93 93.95,54.93 93.95,54.93 93.95,54.93 93.95,54.93 	"/>
	<path class="st30" d="M117.32,68.05c-0.97-0.99-1.74-2.16-2.31-3.49l-2.8,1.74l0,0l0,0l16.31,10.16c0.66-0.11,1.31-0.26,1.96-0.45
		v-5.56c-1.44,0.58-3.06,0.88-4.81,0.88C122.32,71.33,119.43,70.2,117.32,68.05z"/>
	<polygon class="st30" points="112.22,66.3 112.22,66.3 112.22,66.3 112.22,66.3 	"/>
	<polygon class="st31" points="148.62,66.3 148.69,66.34 148.76,66.3 148.76,66.3 148.76,66.3 148.69,66.26 	"/>
	<path class="st31" d="M141.09,67.39c0.76-1.47,1.32-3.06,1.67-4.74l-4.98-3.1c-0.38,5.28-3.09,9.23-7.29,10.9v5.56
		c0.46-0.13,0.91-0.28,1.36-0.45l0.16-0.06l1.55,0.18l8.56-5.33l-1.19-2.66L141.09,67.39z"/>
	<path class="st31" d="M144.63,66.22c0.14,0.8,0.35,1.53,0.63,2.17l3.36-2.09l-3.37-2.1C145.08,64.89,144.87,65.56,144.63,66.22z"/>
	<polygon class="st31" points="133.56,75.68 133.68,75.69 142.15,70.42 142.12,70.35 	"/>
	<path class="st31" d="M145.26,68.39c0.01,0.02,0.02,0.05,0.03,0.07l3.33-2.07V66.3L145.26,68.39z"/>
	<polygon class="st31" points="148.62,66.39 148.69,66.34 148.62,66.3 	"/>
	<path class="st31" d="M142.76,62.65c0.01-0.03,0.01-0.05,0.02-0.08l-4.99-3.11c0,0.03,0,0.06-0.01,0.08L142.76,62.65z"/>
	<path class="st31" d="M148.62,66.3v-0.09l-3.35-2.08c-0.01,0.03-0.01,0.05-0.02,0.08L148.62,66.3z"/>
	<polygon class="st31" points="148.69,66.26 148.62,66.21 148.62,66.3 	"/>
	<path class="st32" d="M158.47,63.99c0,3.12-1.64,4.6-4.4,4.6c-2.22,0-3.72-0.96-4.22-2.96l-1.08,0.67l0,0l0,0l9.81,6.11
		c3.05-1.17,5.09-3.78,5.09-8.42v-6.97l-5.2,3.24V63.99z"/>
	<polygon class="st32" points="148.76,66.3 148.76,66.3 148.76,66.3 148.76,66.3 	"/>
	<path class="st33" d="M167.3,71.39c0,1.08,1.28,1.64,2.6,1.64c1.28,0,2.6-0.56,2.6-1.64V58.42l-5.21-3.24V71.39z"/>
	<path class="st33" d="M178.18,70.65l4.48-2.79c-0.99-0.72-1.52-1.99-1.52-3.87V63.8l-5.21-3.24v3.43
		C175.93,67.02,176.77,69.18,178.18,70.65z"/>
	<path class="st33" d="M178.18,70.65c0.02,0.02,0.04,0.04,0.05,0.05l4.49-2.8c-0.02-0.02-0.04-0.03-0.07-0.05L178.18,70.65z"/>
	<polygon class="st33" points="167.3,55.18 172.51,58.42 172.51,58.33 167.3,55.09 	"/>
	<polygon class="st33" points="181.14,63.8 181.14,63.71 175.93,60.47 175.93,60.55 	"/>
	<path class="st34" d="M189.51,63.99c0,1.92-0.59,3.2-1.63,3.91l4.51,2.81c1.45-1.46,2.33-3.65,2.33-6.72v-3.54l-5.2,3.24V63.99z"/>
	<path class="st35" d="M35.49,46.01c0-1.94,0.59-3.25,1.68-3.96l-4.49-2.82c-1.48,1.46-2.39,3.66-2.39,6.78v3.35l5.2-3.27V46.01z"/>
	<path class="st36" d="M57.69,42.97v-5.71c-3.52,0.95-5.95,3.61-5.95,8.75v5.18l5.21,3.27v-8.45C56.95,44.72,57.2,43.71,57.69,42.97
		z"/>
	<path class="st36" d="M43.86,45.37c0.04,1.2,1.12,1.64,2.6,1.64c1.76,0,2.6-0.48,2.6-2.56c0-2.21-0.9-4.03-2.43-5.34l-4.52,2.84
		C43.64,42.8,43.8,44.48,43.86,45.37z"/>
	<polygon class="st36" points="56.95,54.46 51.74,51.2 51.74,51.2 56.95,54.46 	"/>
	<polygon class="st36" points="46.63,39.11 46.63,39.11 42.11,41.95 42.11,41.95 	"/>
	<polygon class="st37" points="75.82,43.55 75.82,43.55 73.38,42.02 73.38,45.08 75.82,43.55 	"/>
	<path class="st37" d="M61.11,41.41c2.6,0,4.2,1.44,4.2,4.6v4.13l5.2-3.26v-0.86c0-6.69-4.12-9.17-9.41-9.17
		c-1.22,0-2.37,0.13-3.42,0.42v5.71C58.38,41.91,59.55,41.41,61.11,41.41z"/>
	<polygon class="st38" points="78.58,41.81 75.82,43.55 78.58,45.29 	"/>
	<path class="st38" d="M93.95,40.08c-2.17,2.91-3.55,6.73-3.55,11.39c0,0.42,0.01,0.84,0.03,1.25l3.51,2.2V40.08z"/>
	<polygon class="st38" points="75.82,43.55 75.82,43.55 75.82,43.55 75.82,43.55 75.82,43.55 75.82,43.55 	"/>
	<polygon class="st38" points="75.82,43.55 75.82,43.55 75.82,43.55 	"/>
	<polygon class="st38" points="93.95,54.93 93.95,54.93 90.43,52.72 90.43,52.72 	"/>
	<polygon class="st38" points="93.95,54.93 93.95,54.93 93.95,54.93 	"/>
	<polygon class="st38" points="78.58,45.29 75.82,43.55 75.82,43.55 78.58,45.29 	"/>
	<polygon class="st38" points="75.82,43.55 75.82,43.55 75.82,43.55 	"/>
	<polygon class="st38" points="78.58,41.81 78.58,41.81 75.82,43.55 75.82,43.55 	"/>
	<polygon class="st38" points="75.82,43.55 75.82,43.55 75.82,43.55 75.82,43.55 	"/>
	<path class="st39" d="M93.95,54.93l0.01-0.01l1.95-1.22c-0.09-0.72-0.14-1.46-0.14-2.23c0-6.59,3.49-11.32,8.94-12.54l-5.51-3.46
		c-1.99,1.12-3.8,2.67-5.25,4.61L93.95,54.93L93.95,54.93z"/>
	<polygon class="st39" points="93.95,54.93 93.95,54.93 93.95,54.93 	"/>
	<polygon class="st39" points="93.95,54.93 93.95,54.93 93.95,54.93 	"/>
	<polygon class="st39" points="93.96,54.92 95.91,53.7 95.91,53.7 	"/>
	<path class="st39" d="M104.77,38.91l-5.55-3.45c-0.01,0-0.01,0.01-0.02,0.01l5.51,3.46C104.73,38.92,104.75,38.92,104.77,38.91z"/>
	<polygon class="st39" points="93.95,54.93 93.95,40.08 93.95,40.08 93.95,54.93 	"/>
	<polygon class="st39" points="93.95,54.93 93.95,54.93 93.95,54.93 93.95,54.93 93.95,54.93 	"/>
	<path class="st40" d="M122.24,40.48l-0.44,0.1l-0.27-0.36c-0.42-0.57-0.88-1.1-1.36-1.61l-4.59,2.86c0.22,0.19,0.43,0.4,0.64,0.61
		l0.58,0.59l-0.68,0.47c-0.71,0.49-1.38,1.02-1.99,1.59l4.69,2.92c1.76-1.28,3.91-2.03,6.27-2.18l0.1-0.01
		c0.27-0.02,0.55-0.04,0.83-0.04c1.63,0,3.14,0.27,4.49,0.79v-5.54c-1.48-0.41-2.99-0.61-4.49-0.61
		C124.76,40.05,123.5,40.2,122.24,40.48z"/>
	<path class="st41" d="M136.2,51.28l4.5-2.8c-2.36-4.05-6.14-6.69-10.21-7.81v5.54C132.97,47.16,134.93,48.91,136.2,51.28z"/>
	<path class="st41" d="M147.06,43.65c-1.32,0-2.6,0.48-2.6,1.6v0.9l3.78-2.35C147.86,43.69,147.46,43.65,147.06,43.65z"/>
	<path class="st41" d="M136.24,51.35l4.5-2.8c-0.01-0.02-0.02-0.04-0.04-0.06l-4.5,2.8C136.21,51.3,136.23,51.33,136.24,51.35z"/>
	<path class="st41" d="M148.33,43.82c-0.03-0.01-0.06-0.02-0.1-0.03l-3.78,2.35v0.09L148.33,43.82z"/>
	<path class="st42" d="M163.67,45.25c0-1.12-1.32-1.6-2.6-1.6c-1.32,0-2.6,0.48-2.6,1.6v4.34l5.2,3.24V45.25z"/>
	<path class="st43" d="M172.51,45.37c0-1.12-1.32-1.6-2.6-1.6c-1.32,0-2.6,0.48-2.6,1.6v9.3l5.21-3.24V45.37z"/>
	<path class="st43" d="M176.52,48.93l8.49-5.28C181.04,43.72,177.8,45.23,176.52,48.93z"/>
	<path class="st43" d="M185.15,43.65c-0.05,0-0.1,0-0.14,0l-8.49,5.28c-0.01,0.04-0.03,0.07-0.04,0.11L185.15,43.65z"/>
	<polygon class="st43" points="172.51,51.52 172.51,51.43 167.3,54.67 167.3,54.76 	"/>
	<path class="st44" d="M185.46,43.65l8.71,5.42C192.9,45.23,189.54,43.69,185.46,43.65z"/>
</g>
</svg>
