<?xml version="1.0" encoding="utf-8"?>
<!-- Generator: Adobe Illustrator 24.0.1, SVG Export Plug-In . SVG Version: 6.00 Build 0)  -->
<svg version="1.1" id="Capa_1" xmlns="http://www.w3.org/2000/svg" xmlns:xlink="http://www.w3.org/1999/xlink" x="0px" y="0px"
	 viewBox="0 0 225 110" style="enable-background:new 0 0 225 110;" xml:space="preserve">
<style type="text/css">
	.st0{fill:#265696;}
</style>
<path class="st0" d="M112.5,58.8c-0.6,0.7-1.1,1.4-1.6,2c-9.2,13.4-18.6,26.8-27.8,40.2c-0.4,0.6-0.9,1.2-1.3,1.8
	c-1,1.3-2.2,1.8-3.8,1.8c-2.5,0-5.2,0-7.7,0c-0.1,0-0.2,0-0.3,0c0.1-0.2,0.2-0.4,0.4-0.7c-0.8,0-1.5,0-2.3,0
	c9.6-22.1,19.3-44.1,28.8-66C89.2,27.1,81.4,16.5,73.6,5.7c0.4-0.1,0.6-0.3,0.8-0.3c2.9,0,5.9,0,8.9,0c0.6,0,0.9,0.4,1.2,0.8
	c3.2,4.6,6.3,9.1,9.5,13.6c2,2.9,4.1,5.8,6.1,8.8c0.1,0.2,0.3,0.4,0.5,0.7c3.4-7.8,6.7-15.5,10.2-23.3c4,8.5,8,16.8,12,25.3
	c0.2-0.2,0.3-0.4,0.4-0.5c5.4-7.9,10.9-15.7,16.3-23.5c0.8-1.1,1.7-1.6,3-1.6c2.8,0,5.6,0,8.7,0C143,16.9,134.7,28,126.6,39.2
	c10.1,21.5,20.1,43.1,30.3,64.7c-0.8,0-1.4,0-1.9,0c-0.1,0.2-0.1,0.3-0.2,0.5c-2.5,0-5.1,0-7.6,0c-0.5,0-1.1,0-1.6,0
	c-0.8,0.1-1.4-0.3-1.8-1c-4.6-6.6-9.2-13.1-13.9-19.7c-5.4-7.9-10.9-15.7-16.3-23.5C113.1,59.8,112.8,59.3,112.5,58.8z M86.4,81.8
	c0-0.1,0.1-0.2,0.1-0.3c0.1-0.2,0.3-0.3,0.4-0.5c6.8-9.3,13.6-18.8,20.4-28.1c0.1-0.2,0.2-0.3,0.3-0.5c-1.8-2.5-3.7-5.1-5.6-7.7
	c-0.2,0.4-0.3,0.6-0.4,0.9c-5,11.8-9.9,23.5-14.9,35.4c-0.1,0.2-0.1,0.4-0.1,0.5C86.5,81.7,86.5,81.7,86.4,81.8L86.4,81.8L86.4,81.8
	L86.4,81.8z M135.1,77.3L135.1,77.3c-4.6-10.2-9.2-20.4-13.9-30.8c-1.3,1.8-2.4,3.5-3.5,5.2c-0.4,0.6-0.3,1.2,0,1.8
	c0.2,0.5,0.5,0.9,0.8,1.3c5.4,7.4,10.9,14.8,16.3,22.2C134.8,77,135,77.1,135.1,77.3z M111.1,24.3c-0.1,0-0.2,0-0.3,0
	c-1.8,4.1-3.6,8.2-5.3,12.3c2.2,3.1,4.3,6.3,6.8,9.4c1.8-2.5,3.6-5,5.3-7.3C115.5,33.8,113.3,29,111.1,24.3z"/>
</svg>
