<?xml version="1.0" encoding="utf-8"?>
<!-- Generator: Adobe Illustrator 24.0.1, SVG Export Plug-In . SVG Version: 6.00 Build 0)  -->
<svg version="1.1" id="Capa_1" xmlns="http://www.w3.org/2000/svg" xmlns:xlink="http://www.w3.org/1999/xlink" x="0px" y="0px"
	 viewBox="0 0 225 110" style="enable-background:new 0 0 225 110;" xml:space="preserve">
<style type="text/css">
	.st0{fill:#265696;}
</style>
<g>
	<g>
		<path class="st0" d="M75.8,46.5c-1.4-6.6-6.9-10.4-13.2-10.4c-11.4,0-16.2,9.5-16.2,18.9c0,9.4,4.8,18.9,16.2,18.9
			c8,0,13-6.2,13.8-13.8h4.1c-1.1,10.6-7.8,17.3-17.9,17.3C49,77.4,42.3,66.8,42.3,55c0-11.8,6.8-22.4,20.3-22.4
			c8.1,0,16.2,4.9,17.3,13.9H75.8z"/>
		<path class="st0" d="M83.8,33.5h19.7c7.1,0,13.1,3.4,13.1,11.2c0,5.4-2.8,9.9-8.4,11v0.1c5.6,0.7,7.2,4.6,7.5,9.7
			c0.2,3,0.2,8.9,2,11h-4.5c-1-1.7-1-4.9-1.1-6.7c-0.4-6-0.8-12.7-8.6-12.4H87.9v19.1h-4.1V33.5z M87.9,53.9h15.3
			c5,0,9.3-3.1,9.3-8.4c0-5.2-3.1-8.6-9.3-8.6H87.9V53.9z"/>
		<path class="st0" d="M116.7,33.5h34.1V37h-15v39.6h-4.1V37h-15V33.5z"/>
		<path class="st0" d="M147.7,33.5h4.8l12.2,18l12.6-18h4.6l-14.7,21l15.6,22.1h-4.9l-13.1-19l-13.3,19h-4.6l15.5-22.2L147.7,33.5z"
			/>
	</g>
</g>
</svg>
