<?xml version="1.0" encoding="utf-8"?>
<!-- Generator: Adobe Illustrator 24.0.1, SVG Export Plug-In . SVG Version: 6.00 Build 0)  -->
<svg version="1.1" id="Capa_1" xmlns="http://www.w3.org/2000/svg" xmlns:xlink="http://www.w3.org/1999/xlink" x="0px" y="0px"
	 viewBox="0 0 225 110" style="enable-background:new 0 0 225 110;" xml:space="preserve">
<style type="text/css">
	.st0{fill:#778797;}
</style>
<g>
	<g>
		<path class="st0" d="M69.6,66.5h7.6l-5.8-8.6c0.1,0,0.2-0.1,0.3-0.1c1.4-0.7,2.4-1.6,3.1-2.8c0.7-1.2,1-2.5,1-4
			c0-1.6-0.3-2.9-1-4.1c-0.7-1.2-1.7-2.1-3.1-2.8c-1.4-0.7-3.2-1-5.3-1h-9.2v23.4h6.5v-7.7h1.4L69.6,66.5z M65.9,48.6
			c0.7,0,1.2,0.1,1.7,0.3c0.5,0.2,0.8,0.5,1.1,0.9c0.3,0.4,0.4,0.9,0.4,1.4c0,0.6-0.1,1.1-0.4,1.5c-0.3,0.4-0.6,0.7-1.1,0.9
			c-0.5,0.2-1.1,0.3-1.7,0.3h-2.2v-5.2H65.9z"/>
		<path class="st0" d="M94,66.5h7.4L88.7,41.6L75.9,66.5h7.4l1.9-3.7h6.9L94,66.5z M90.9,58h-4.6l2.3-5.2L90.9,58z"/>
		<polygon class="st0" points="116.7,43.2 116.7,51.4 109.6,51.4 109.6,43.2 103.1,43.2 103.1,66.5 109.6,66.5 109.6,57.2 
			116.7,57.2 116.7,66.5 123.2,66.5 123.2,43.2 		"/>
		<polygon class="st0" points="142.8,48.4 142.8,43.2 132.8,43.2 131,43.2 126.6,43.2 126.6,66.5 131,66.5 132.8,66.5 142.8,66.5 
			142.8,61.3 132.8,61.3 132.8,56.9 139.4,56.9 139.4,51.8 132.8,51.8 132.8,48.4 		"/>
		<path class="st0" d="M168,43.2v24.5l-15.7-13v11.8h-6.2V42l15.7,13V43.2H168z"/>
		<path class="st0" d="M178.2,43.2v23.4h-6.6V43.2H178.2z"/>
		<path class="st0" d="M52.9,47.4c-0.7-1.7-1.8-3.2-3.1-4.4c-1.4-1.2-3-2.2-4.9-2.8c-1.9-0.7-4-1-6.4-1h-5.7h-4.6v21.7
			c0.7,0.1,1.3,0.1,2,0.1c0.2,0,0.4,0,0.6,0c0.9,0,1.7,0,2.6-0.1c0.7,0,1.4-0.1,2-0.2V45.2h2.8c1.1,0,2.2,0.1,3.2,0.4
			c1,0.3,1.9,0.7,2.7,1.3c0.8,0.6,1.4,1.4,1.9,2.5c0.5,1,0.7,2.3,0.7,3.8c0,1.4-0.3,2.9-0.9,4.2c-0.6,1.2-1.6,2.3-2.8,3
			c-1.2,0.8-2.6,1.4-3.9,1.8c-1.8,0.5-3.6,0.8-5.5,1c-1.1,0.1-2.2,0.1-3.3,0.1c-8.5-0.2-15-2.3-15.2-2.3c0.2,0.1,7.2,4.3,15.1,5.7
			c3.3,0.6,6.6,0.7,9.9,0.5c1.6-0.1,3.3-0.4,4.8-0.9c1.7-0.6,3.5-1.5,4.8-2.7c0,0,0,0,0,0c1.4-1.2,2.4-2.7,3.1-4.4
			c0.7-1.7,1.1-3.7,1.1-5.8C54,51.1,53.6,49.1,52.9,47.4z"/>
		<path class="st0" d="M209.9,70.8c0,0-1.8-2.6-3-4.3l-9.4-13.9l8.9-13.2h-8.4l-4.5,7.9l-4.4-7.9h-8.4l8.6,13.2l-9.6,13.9h8.4l5.3-9
			l5.2,9h0c2.2,0.2,3.4,0.3,6.2,1.3C206.3,68.5,207.9,69.4,209.9,70.8z"/>
	</g>
</g>
</svg>
