<?xml version="1.0" encoding="utf-8"?>
<!-- Generator: Adobe Illustrator 24.0.1, SVG Export Plug-In . SVG Version: 6.00 Build 0)  -->
<svg version="1.1" id="Capa_1" xmlns="http://www.w3.org/2000/svg" xmlns:xlink="http://www.w3.org/1999/xlink" x="0px" y="0px"
	 viewBox="0 0 225 110" style="enable-background:new 0 0 225 110;" xml:space="preserve">
<style type="text/css">
	.st0{fill:#778797;}
</style>
<g>
	<path class="st0" d="M120.2,31.9c0-0.1,0-0.3,0-0.4c0-1.9-0.4-3.8-1.2-5.5c-0.7-1.6-1.7-3.2-2.9-4.4c-1.2-1.2-2.6-2.2-4.1-3
		c-1.6-0.8-3.2-1.5-5-1.8c-1.7-0.3-3.5-0.1-5,0.6c-0.6,0.3-1.2,0.6-1.7,1c-0.6,0.5-1.2,1.1-1.7,1.7C98,21,97.6,22,97.3,23
		c0,0,3.5-5.3,9.1-3.9c0,0-12.6,0.9-11.1,15.7c0-0.3,0.1-0.6,0.2-0.8c0.4-1.8,1.1-3.6,2.1-5.1c0.6-0.9,1.3-1.8,2.1-2.6
		c2.3-2.1,5.6-3.4,8.7-3.1c1.6,0.1,3.2,0.6,4.7,1.2c1.5,0.6,2.9,1.5,4.1,2.7c1.1,1,1.9,2.3,2.5,3.7c-2.3-2.8-6.7-3.2-9.7-1.3
		c-2.2,1.3-3.5,3.7-3.4,6.3c0.2,4.4,2.2,5.4,2.2,5.4c0,0-0.1-0.1-0.1-0.2c0-0.1-0.1-0.1-0.1-0.2c-0.1-0.1-0.1-0.2-0.2-0.4
		c-0.1-0.3-0.2-0.5-0.3-0.8c-0.3-1-0.3-2-0.2-3c0-0.5,0.2-1,0.3-1.4c0.5-1.8,2.1-3.1,3.8-4C114.7,29.5,117.8,30,120.2,31.9z"/>
	<path class="st0" d="M157.5,63.3c-1.3-2.9-3.3-5.5-5.7-7.6c0-0.5-0.1-0.9-0.2-1.4c-0.4-2-1.5-3.9-2.8-5.4c-0.9-1-1.8-1.9-2.9-2.6
		c-0.4-1.1-1-2-1.8-2.8c-1.8-1.8-4.2-2.9-6.7-3.3c0,0,0,0-0.1,0c0-0.1-0.1-0.2-0.2-0.3c-0.4-0.7-1.1-1.2-1.8-1.6
		c-2.1-1.1-4.8-1.3-6.9-0.1c-0.6,0.3-1.1,0.8-1.6,1.3c-3.9-2.1-8.3-3.4-12.7-3.9c-1.5-0.2-3.1-0.3-4.6-0.3c-0.5,0-1.1,0.1-1.7,0.1
		c5,1.3,9.5,4.3,13.2,7.7c4.8,4.4,8.8,9.8,11.1,15.9c2.8,7.4,2.6,15.3,0.4,22.9c-1.7,5.7-4.6,11.1-8.7,15.4
		c-1.6,1.7-3.4,3.2-5.4,4.5c0.2-0.4,0.5-0.7,0.7-1.1c1.2-1.9,2.1-3.9,2.8-6.1c0.5-1.7,0.8-3.5,0.8-5.3c0-4.1-1.6-8.1-4.1-11.2
		c-0.9-1.1-1.8-2.1-3-2.9c0.5,0.8,0.9,1.5,1.3,2.3c1.6,3.6,1.8,7.7,0.9,11.5c0,0,0,0,0,0.1c-1.5,6.6-5.7,12.3-12.3,14.5
		c-4.9,1.6-10.3,1.6-15-0.6c-1-0.5-2-1-2.9-1.6c-0.1-0.1-1.1-0.6-1.1-0.7c0,0.4,1,1.5,1.2,1.8c0.4,0.6,0.9,1.1,1.5,1.6
		c1.1,1,2.2,1.9,3.5,2.6c6.4,3.7,14.4,4.1,21.6,3.1c7.3-1,14.3-3.8,19.8-8.8c0.7-0.6,1.3-1.2,1.9-1.9c5.5-6,9.5-14.6,9.8-22.8
		c0.8,2.4,1.6,6.9-0.4,13.1c-3,9.3-11.5,14.1-11.5,14.1s11.6-1.7,16.5-11.1c0,0,1.4-2.1,2.5-5.6c1.3-1.1,4.1-3.9,5.6-9.1
		C159.9,72.7,159.6,67.8,157.5,63.3z M149.4,52.3c0.9,0.9,1.6,1.9,2,3.1c-0.7-0.6-1.5-1.1-2.3-1.6c-1.4-0.9-2.9-1.6-4.5-2
		c-0.8-0.2-1.7-0.4-2.6-0.5c-0.9-0.1-1.7-0.2-2.6-0.2c-0.1,0-0.2,0-0.3,0c-0.5-0.8-1-1.5-1.5-2.2c0.5-0.1,0.9-0.1,1.4-0.1
		c1.5-0.1,3.1,0,4.5,0.3c1.2,0.3,2.4,0.8,3.5,1.4C147.8,50.9,148.7,51.5,149.4,52.3z M142.3,44.1c1,0.4,2.4,1,3.2,1.9
		c-0.8-0.5-1.7-0.9-2.6-1.1c-2-0.5-4.1-0.5-6.1-0.3c-0.8,0.1-1.6,0.3-2.4,0.5c-0.3-0.3-0.6-0.6-0.9-0.9c0.3-0.1,0.5-0.2,0.6-0.2
		C136.7,42.9,139.7,43.1,142.3,44.1z M136.6,40.1c-2.2-0.2-4.3,0.4-6.1,1.6c-0.5-0.3-0.9-0.7-1.4-1C130,40.2,133,38.7,136.6,40.1z
		 M153.4,85.5c-0.1,0.1-0.2,0.3-0.3,0.4c1-3.5,1.6-8.2,0.2-13.5c0,0-2.4-9.1-9.7-13.9c2.4,1.6,4.7,2.9,6.6,5.1c1.7,2,3,4.3,3.8,6.8
		C155.6,74.9,156.2,81.3,153.4,85.5z"/>
	<path class="st0" d="M90.5,10.2C84.5,16,80.3,23.5,79,31.6c-0.4-2.6-0.6-7.2,1.4-12.9C83.7,9.6,92.6,5.2,92.6,5.2
		c-0.6,0.3-1.4,0.3-2.1,0.5c-1.7,0.5-3.3,1.1-5,1.8c-5,2.2-9.2,5.9-11.5,10.9c-0.3,0.6-0.5,1.1-0.7,1.7c-1.9,1.6-5.2,4.8-6.7,9.4
		c-1.8,5.8-1.2,12.2,1.8,17.5c0.8,1.4,1.8,2.8,3,4c0.1,0.8,0.6,2.4,0.7,2.7c0.2,0.6,0.3,1.2,0.6,1.7c0.3,0.7,0.7,1.4,1.2,2
		c0.8,1.2,1.8,2.3,3,3.2c0.4,1,0.8,1.9,1.5,2.7c0.6,0.8,1.4,1.5,2.2,2.1c0.3,0.2,0.5,0.3,0.8,0.5c1,0.6,2.1,1.1,3.2,1.4
		c0.4,0.6,2.1,2.6,6,3.3c2.2,0.4,4.3-0.4,5.7-1.2c5,3,10.6,4.7,16.5,5.3c0.2,0,0.3,0,0.5,0.1c0.8,0.1,2.4,0.2,2.4,0.2
		c-0.5-0.3-2.6-1.3-3.1-1.5c-7.8-3.5-14.2-9.4-18.1-17c-0.8-1.5-1.5-3.1-2-4.8c-2.9-8.5-2.6-17.3,0.6-25.7c2-5.3,5.1-10.1,9.2-14
		c3.3-3.1,7.2-5.5,11.4-7.2c3.1-1.3,6.4-2.2,9.8-2.7c1.5-0.2,3-0.4,4.5-0.4c0,0,0,0,0,0C118.4-1.1,103.1-2,90.5,10.2z M71,37.1
		c-0.7-2.9-0.9-6-0.4-9c0.2-1.2,0.5-2.4,0.9-3.5c0.3-1,0.7-2.1,1.4-3c0,0,0,0,0,0c-1,3.1-1.5,6.5-1.4,9.8c0.1,3.1,0.7,6.2,2.1,9
		c1.4,3,3.3,5.7,5.8,7.8c0.4,0.4,0.9,0.7,1.4,1.1c0,0,0,0,0,0c-0.1-0.1-0.3-0.1-0.4-0.1c-0.5-0.2-1-0.5-1.4-0.7
		c-1.6-1-3-2.2-4.1-3.7C72.9,42.5,71.7,39.8,71,37.1z M72,51.8c-0.1-0.1-0.1-0.2-0.1-0.3c2.1,1.9,4.8,3.4,7.5,4.4
		c1.5,0.6,3.1,1,4.8,1.1c0.5,0.9,1,1.7,1.6,2.5c-0.7,0-1.4,0.1-2.1,0c-1.5-0.1-3-0.4-4.4-1c-1.4-0.6-2.7-1.4-3.9-2.4
		C74.1,55,72.7,53.2,72,51.8z M83.7,65.1c-2-0.4-3.9-1.6-5.3-3.1c-0.2-0.2-0.5-0.5-0.7-0.7c0.2,0.1,0.4,0.3,0.6,0.4
		c2.3,1.3,5,1.7,7.6,1.7c0.9,0,1.7-0.1,2.6-0.2c0.4,0.5,0.9,1,1.4,1.4C87.9,65.2,85.7,65.4,83.7,65.1z M93.6,67.9
		c-2.5,1.3-5.9,1-8.3-0.4c2,0.5,4.1,0.4,6.1-0.2c0.4-0.1,0.8-0.3,1.1-0.4c0.4,0.3,0.8,0.6,1.2,0.9C93.7,67.9,93.7,67.9,93.6,67.9z"
		/>
</g>
</svg>
