<?xml version="1.0" encoding="utf-8"?>
<!-- Generator: Adobe Illustrator 24.0.1, SVG Export Plug-In . SVG Version: 6.00 Build 0)  -->
<svg version="1.1" id="Capa_1" xmlns="http://www.w3.org/2000/svg" xmlns:xlink="http://www.w3.org/1999/xlink" x="0px" y="0px"
	 viewBox="0 0 225 110" style="enable-background:new 0 0 225 110;" xml:space="preserve">
<style type="text/css">
	.st0{fill-rule:evenodd;clip-rule:evenodd;}
</style>
<g>
	<g>
		<g>
			<g>
				<g>
					<path class="st0" d="M51.4,66.45l0.18-1.02l0.54,0.09c2.06-3.64,4.74-7.41,8.04-11.3l-3.81-20.5l-6.96,37.44
						c0.62-1.53,1.35-3.1,2.21-4.68L51.4,66.45z M59.19,54.04l-0.74,0.13l-0.18-1.03L59,53.02L59.19,54.04z M58.82,51.99l-0.74,0.13
						l-0.13-1.03l0.69-0.12L58.82,51.99z M58.46,49.94l-0.64,0.11l-0.13-1.03l0.58-0.11L58.46,49.94z M58.1,47.89l-0.53,0.1
						l-0.13-1.03l0.48-0.09L58.1,47.89z M57.74,45.85l-0.43,0.07l-0.13-1.03l0.38-0.07L57.74,45.85z M57.2,42.77l0.18,1.03
						l-0.32,0.05l-0.13-1.03L57.2,42.77z M55.6,42.77l0.27,0.05l-0.13,1.03l-0.32-0.05L55.6,42.77z M55.24,44.82l0.37,0.07
						l-0.13,1.03l-0.43-0.07L55.24,44.82z M54.88,46.87l0.48,0.09l-0.13,1.03l-0.53-0.1L54.88,46.87z M54.52,48.92l0.59,0.11
						l-0.13,1.03l-0.64-0.11L54.52,48.92z M54.16,50.97l0.69,0.12l-0.13,1.03l-0.75-0.13L54.16,50.97z M53.8,53.02l0.74,0.13
						l-0.18,1.03l-0.74-0.13L53.8,53.02z M53.43,55.07l0.74,0.13L54,56.22l-0.75-0.13L53.43,55.07z M53.07,57.11l0.75,0.13
						l-0.18,1.02l-0.74-0.13L53.07,57.11z M52.71,59.17l0.74,0.13l-0.18,1.02l-0.75-0.13L52.71,59.17z M52.35,61.21l0.74,0.13
						l-0.18,1.02l-0.75-0.13L52.35,61.21z M51.97,63.23l0.75,0.13l-0.18,1.02l-0.75-0.13L51.97,63.23z"/>
				</g>
			</g>
			<g>
				<g>
					<path class="st0" d="M49.26,73.28c0.68-0.98,1.58-2.14,2.63-3.39l-0.08,0.01c0.16-0.3,0.33-0.61,0.5-0.92l0.25,0.14
						c0.27-0.31,0.56-0.63,0.84-0.94l-0.59-0.28c0.15-0.31,0.31-0.62,0.47-0.94l0.67,0.34c-0.1,0.21-0.21,0.41-0.31,0.62
						c3.16-3.39,7.2-6.94,11.13-8.74c1.54-6.06,3.97-11.23,6.74-15.81C59.65,54.35,52.29,64.35,49.26,73.28z M64.44,51.64l0.22,0.2
						c-0.22,0.28-0.43,0.56-0.63,0.83l-0.28-0.25C63.97,52.16,64.2,51.9,64.44,51.64z M54.5,66.23l-0.66-0.37
						c0.17-0.3,0.34-0.6,0.52-0.91l0.65,0.39C54.84,65.63,54.67,65.93,54.5,66.23z M55.55,64.45l-0.65-0.4
						c0.18-0.29,0.37-0.59,0.56-0.89l0.64,0.41C55.91,63.86,55.73,64.16,55.55,64.45z M56.66,62.7l-0.63-0.41
						c0.19-0.29,0.38-0.58,0.58-0.87l0.62,0.43C57.04,62.13,56.85,62.42,56.66,62.7z M57.82,61L57.82,61L57.82,61l-0.62-0.43
						c0.2-0.29,0.4-0.57,0.61-0.85l0.61,0.45C58.23,60.44,58.02,60.71,57.82,61L57.82,61z M59.04,59.32L59.04,59.32l-0.61-0.45
						c0.21-0.28,0.41-0.56,0.63-0.83l0.6,0.46C59.45,58.77,59.24,59.05,59.04,59.32z M60.3,57.68l-0.6-0.47
						c0.22-0.27,0.43-0.54,0.65-0.82l0.56,0.44C60.52,57.37,60.3,57.68,60.3,57.68z M61.52,56l-0.51-0.42
						c0.22-0.27,0.44-0.54,0.67-0.8l0.46,0.39C61.92,55.46,61.71,55.74,61.52,56z M62.36,53.98c0.22-0.26,0.45-0.52,0.68-0.79
						l0.35,0.3c-0.22,0.29-0.43,0.57-0.63,0.83L62.36,53.98z M63.72,59.09v0.14l-0.73-0.19V58.9c0.07-0.28,0.15-0.56,0.23-0.85
						l0.73,0.2C63.87,58.53,63.79,58.81,63.72,59.09z M64.23,57.26l-0.64-0.19c0.11-0.29,0.24-0.62,0.38-0.98l0.57,0.18
						C64.43,56.6,64.32,56.93,64.23,57.26z M64.85,55.29l-0.5-0.17c0.13-0.33,0.26-0.65,0.39-0.96l0.45,0.16
						C65.07,54.64,64.96,54.96,64.85,55.29z M65.54,53.34l-0.39-0.15c0.17-0.38,0.33-0.7,0.46-0.94l0.31,0.12
						C65.79,52.7,65.66,53.02,65.54,53.34z"/>
				</g>
			</g>
			<g>
				<g>
					<path class="st0" d="M73.17,56.8c-2.9,0.21-5.17,0.9-7.16,1.81c2.8-0.89,5.6-1.02,8.41,0.97c2.09,1.69,5.62,3.86,9.4,3.65
						C80.96,61.77,81.83,56.75,73.17,56.8z M74.36,58.46c-0.3-0.17-0.59-0.31-0.9-0.43l-0.23-0.1l0.76-0.36
						c0.59,0.24,0.77,0.31,0.88,0.38L74.36,58.46z M76.02,59.62c0,0-0.56-0.42-0.8-0.62c-0.01-0.01-0.02-0.01-0.02-0.01
						s0.48-0.58,0.49-0.58l-0.03-0.02l0.02,0.01l0.01,0.01l0.01,0.01c0.22,0.18,0.77,0.59,0.77,0.59L76.02,59.62z M77.8,60.78
						c-0.32-0.18-0.62-0.37-0.9-0.56l0.41-0.63c0,0,0.32,0.24,0.84,0.58L77.8,60.78z M79.71,61.73c-0.33-0.14-0.66-0.29-0.97-0.44
						l0.29-0.57c0.28,0.17,0.58,0.34,0.9,0.51L79.71,61.73z M81.74,62.4c-0.35-0.09-0.69-0.19-1.03-0.3l0.14-0.42
						c0.32,0.15,0.64,0.28,0.96,0.4L81.74,62.4z"/>
				</g>
			</g>
			<g>
				<g>
					<path class="st0" d="M47.36,59.47c-0.53-0.19-0.87-0.27-0.87-0.27c-1.24-0.4-2.34-0.59-3.37-0.59c-1.09,0-2.11,0.22-3.09,0.66
						c4.52,5.05,6.73,8.05,8.19,14.75l0.72-3.85C48.75,66.48,48.23,62.93,47.36,59.47z M43.56,61.97c-0.22-0.26-0.44-0.52-0.66-0.79
						l0.17-0.15c0.27,0.27,0.52,0.51,0.75,0.73L43.56,61.97z M44.84,63.58c-0.2-0.27-0.41-0.54-0.63-0.81l0.34-0.28
						c0.24,0.24,0.47,0.49,0.71,0.77L44.84,63.58z M45.44,59.4c0.32,0.14,0.65,0.28,0.97,0.44l-0.15,0.31
						c-0.3-0.18-0.6-0.36-0.91-0.53L45.44,59.4z M46.02,65.26c-0.18-0.29-0.37-0.57-0.57-0.85l0.48-0.34
						c0.19,0.25,0.4,0.53,0.62,0.85L46.02,65.26z M46.55,66.13l0.59-0.34c0.18,0.27,0.37,0.56,0.58,0.88l-0.67,0.35
						C46.89,66.72,46.72,66.42,46.55,66.13z M48.05,68.97c-0.16-0.3-0.28-0.62-0.46-0.91l0.6-0.32c0.18,0.31,0.34,0.55,0.48,0.92
						L48.05,68.97z"/>
				</g>
			</g>
			<g>
				<g>
					<path class="st0" d="M69.58,58.61c-8.21,0-19.47,13.62-21.03,17.03h15.59c1.47-7.87,3.65-10.94,8.52-16.37
						C71.69,58.84,70.67,58.61,69.58,58.61z M65.35,60.34L65.35,60.34L65.35,60.34l0.21,0.37c-0.3,0.2-0.58,0.39-0.86,0.59
						l-0.26-0.42C64.74,60.69,65.04,60.51,65.35,60.34L65.35,60.34z M63.55,61.45L63.55,61.45l0.31,0.47
						c-0.29,0.22-0.56,0.44-0.81,0.64l-0.37-0.5C62.97,61.85,63.26,61.65,63.55,61.45z M52.3,74.05l-0.01,0.01l-0.39,0.58
						l-0.84-0.35l0.68-0.99l0.73,0.43C52.41,73.85,52.35,73.95,52.3,74.05z M53.01,72.88L52.3,72.4c0.19-0.27,0.39-0.56,0.62-0.86
						l0,0l0.68,0.51C53.38,72.34,53.19,72.62,53.01,72.88z M54.23,71.24l-0.66-0.54c0.21-0.26,0.44-0.53,0.68-0.81l0,0l0.64,0.56
						C54.65,70.73,54.44,70.99,54.23,71.24z M55.57,69.69l-0.63-0.57c0.23-0.25,0.47-0.5,0.72-0.77l0.62,0.59
						C56.03,69.2,55.8,69.45,55.57,69.69z M57,68.19l-0.61-0.6c0.24-0.24,0.49-0.48,0.74-0.74l0.6,0.61
						C57.48,67.71,57.23,67.96,57,68.19z M58.85,66.38c-0.13,0.12-0.25,0.24-0.38,0.36l-0.59-0.61c0.12-0.12,0.25-0.24,0.38-0.36
						c0.13-0.12,0.25-0.24,0.38-0.36l0.58,0.62C59.1,66.15,58.97,66.27,58.85,66.38z M59.98,65.34l-0.57-0.64
						c0.26-0.23,0.52-0.46,0.79-0.69l0.55,0.65C60.5,64.88,60.23,65.11,59.98,65.34z M61.49,63.93l-0.48-0.59
						c0.27-0.22,0.55-0.44,0.83-0.65l0.42,0.55C61.96,63.49,61.7,63.73,61.49,63.93z M63.06,74.79l-0.74-0.15
						c0.07-0.35,0.15-0.69,0.22-1.02l0,0l0.74,0.17C63.21,74.1,63.13,74.44,63.06,74.79z M63.52,72.78l-0.74-0.19
						c0.09-0.35,0.18-0.68,0.27-1.01l0.73,0.21C63.69,72.1,63.6,72.43,63.52,72.78z M64.08,70.8l-0.72-0.23
						c0.11-0.34,0.22-0.67,0.34-0.99l0.71,0.26C64.3,70.15,64.19,70.46,64.08,70.8z M64.78,68.87l-0.7-0.29
						c0.13-0.33,0.27-0.65,0.42-0.97l0.68,0.32C65.05,68.24,64.91,68.56,64.78,68.87z M65.64,67.02l-0.67-0.35
						c0.21-0.32,0.4-0.61,0.58-0.88l0.59,0.34C65.97,66.42,65.8,66.72,65.64,67.02z M66.68,65.26l-0.53-0.34
						c0.22-0.32,0.43-0.59,0.62-0.85l0.48,0.34C67.05,64.69,66.86,64.97,66.68,65.26z M66.44,60.16l-0.16-0.31
						c0.32-0.16,0.65-0.31,0.97-0.44l0.1,0.23C67.04,59.8,66.74,59.98,66.44,60.16z M67.85,63.58l-0.43-0.32
						c0.24-0.28,0.48-0.53,0.72-0.77l0.34,0.28C68.27,63.04,68.06,63.31,67.85,63.58z M68.89,61.76c0.23-0.22,0.47-0.46,0.74-0.73
						l0.17,0.15c-0.23,0.27-0.45,0.53-0.67,0.79L68.89,61.76z"/>
				</g>
			</g>
			<g>
				<g>
					<path class="st0" d="M49.89,63.46c0,0-0.14-0.7-0.22-0.98l0.73-0.2c0,0.01,0,0.01,0,0.02l1.47-7.9
						c-3.03-3.55-6.59-7.22-10.69-11.01c4,6.61,7.29,14.43,8.21,24.38l0.82-4.39L49.89,63.46z M49.65,53.2
						c0.23,0.27,0.46,0.53,0.69,0.79l-0.41,0.35c-0.2-0.27-0.41-0.54-0.63-0.83L49.65,53.2z M48.26,51.64
						c0.24,0.25,0.47,0.52,0.7,0.77l-0.29,0.25c-0.21-0.27-0.42-0.55-0.64-0.83L48.26,51.64z M46.77,52.38l0.3-0.12
						c0.13,0.23,0.29,0.56,0.46,0.94l-0.39,0.15C47.03,53.02,46.9,52.7,46.77,52.38z M47.51,54.31l0.45-0.16
						c0.13,0.31,0.26,0.64,0.4,0.96l-0.5,0.17C47.74,54.96,47.62,54.64,47.51,54.31z M48.17,56.27l0.57-0.18
						c0.14,0.36,0.27,0.69,0.38,0.98l-0.64,0.19C48.37,56.93,48.27,56.6,48.17,56.27z M48.75,58.26l0.73-0.2
						c0.08,0.28,0.23,0.99,0.23,0.99l-0.73,0.19C48.97,59.23,48.83,58.53,48.75,58.26z M49.22,60.27l0.73-0.2
						c0.08,0.28,0.22,0.98,0.22,0.98l-0.73,0.19C49.44,61.25,49.3,60.55,49.22,60.27z"/>
				</g>
			</g>
			<g>
				<g>
					<path class="st0" d="M28.86,63.24c3.78,0.2,7.32-1.96,9.4-3.65c2.81-1.99,5.62-1.86,8.41-0.97c-1.98-0.91-4.25-1.6-7.16-1.81
						C30.86,56.75,31.73,61.77,28.86,63.24z M37.82,57.94c0.12-0.07,0.29-0.14,0.88-0.38l0.76,0.36l-0.24,0.1
						c-0.3,0.12-0.6,0.27-0.89,0.43L37.82,57.94z M36.22,59.01c0,0,0.55-0.41,0.78-0.59L37,58.41l0.01-0.01l0.02-0.01L37,58.41
						c0.01-0.01,0.49,0.58,0.49,0.58S37.48,59,37.47,59c-0.23,0.19-0.8,0.62-0.8,0.62L36.22,59.01z M34.54,60.17
						c0.52-0.34,0.84-0.58,0.84-0.58l0.41,0.63c-0.28,0.19-0.58,0.37-0.9,0.56L34.54,60.17z M32.78,61.22
						c0.32-0.17,0.62-0.34,0.9-0.51l0.29,0.57c-0.31,0.16-0.64,0.31-0.97,0.44L32.78,61.22z M30.88,62.08
						c0.32-0.12,0.65-0.25,0.96-0.4l0.14,0.42c-0.34,0.11-0.68,0.21-1.03,0.3L30.88,62.08z"/>
				</g>
			</g>
		</g>
		<g>
			<rect x="118.95" y="41.25" width="9.51" height="34.39"/>
			<polygon points="114.19,49.35 114.19,41.25 88.63,41.25 88.63,75.65 98.14,75.65 98.14,63.05 113.38,63.05 113.38,55.53 
				98.14,55.53 98.14,49.35 			"/>
			<path d="M159.59,65.39c-0.51,0.49-3.36,2.99-8.18,2.99c-5.4,0-8.75-4.15-8.75-10.25c0-5.73,3.35-9.66,8.75-9.66
				c4.16,0,7.19,2.35,8.06,3.11c1.07-2.95,1.96-4.66,3.53-7.17c-2.09-1.5-6.06-3.65-11.63-3.65c-9.58,0-18.16,7.03-18.16,17.36
				c0,10.68,7.84,18.14,18.08,18.14c5.37,0,9.31-2.21,11.65-4.04C161.48,69.85,160.62,68.17,159.59,65.39L159.59,65.39z"/>
			<path d="M196.14,71.89V55.53h-15.29v6.43h6.81v5.32c-1.34,0.6-3.09,1.1-5.25,1.1c-5.4,0-8.75-4.15-8.75-10.25
				c0-5.73,4.06-9.51,8.6-9.51c4.59,0,7.58,2.45,8.45,3.21l4.94-6.03c-1.18-1.09-5.24-5.03-13.29-5.03
				c-10.1,0-18.17,7.03-18.17,17.36c0,10.68,7.85,18.14,18.08,18.14C190.15,76.27,194.16,73.37,196.14,71.89L196.14,71.89z"/>
		</g>
	</g>
</g>
</svg>
