<?xml version="1.0" encoding="utf-8"?>
<!-- Generator: Adobe Illustrator 24.3.0, SVG Export Plug-In . SVG Version: 6.00 Build 0)  -->
<svg version="1.1" id="Capa_1" xmlns="http://www.w3.org/2000/svg" xmlns:xlink="http://www.w3.org/1999/xlink" x="0px" y="0px"
	 viewBox="0 0 225 110" style="enable-background:new 0 0 225 110;" xml:space="preserve">
<style type="text/css">
	.st0{fill:#005CB9;}
	.st1{fill:#E50695;}
</style>
<g>
	<g id="XMLID_2137_">
		<path id="XMLID_2154_" class="st0" d="M50.1,53c0,1-0.1,2-0.1,3c0,1-0.1,1.9-0.3,2.8c-0.2,0.9-0.5,1.8-0.9,2.6
			c-0.4,0.8-1,1.7-1.7,2.5c-0.7,0.7-1.4,1.4-2.3,2c-0.8,0.6-1.7,1-2.7,1.4c-0.9,0.4-1.9,0.7-2.9,0.9c-1,0.2-2,0.3-3,0.3
			c-1.9,0-3.8-0.3-5.5-0.9C29,67,27.5,66.1,26.2,65c-1.3-1.1-2.3-2.5-3-4.1c-0.7-1.6-1.1-3.4-1.1-5.5c0-2.1,0.4-3.9,1.1-5.6
			c0.7-1.6,1.7-3,3-4.2c1.3-1.1,2.8-2,4.5-2.6c1.7-0.6,3.6-0.9,5.6-0.9c1.1,0,2.3,0.1,3.5,0.4c1.3,0.3,2.5,0.7,3.6,1.2
			c1.2,0.6,2.2,1.2,3.2,2.1c0.9,0.8,1.7,1.8,2.2,2.9l-8.7,3.2c-0.4-0.7-0.9-1.1-1.5-1.5c-0.6-0.3-1.3-0.5-2-0.5
			c-0.8,0-1.6,0.2-2.2,0.5c-0.6,0.3-1.2,0.8-1.6,1.3c-0.4,0.6-0.8,1.2-1,1.9c-0.2,0.7-0.3,1.4-0.3,2.2c0,0.7,0.1,1.4,0.3,2
			c0.2,0.7,0.5,1.2,0.9,1.7c0.4,0.5,0.9,0.9,1.5,1.2c0.6,0.3,1.3,0.5,2,0.5c0.4,0,0.7,0,1.1-0.1c0.4-0.1,0.8-0.2,1.1-0.4
			c0.3-0.2,0.7-0.4,0.9-0.7c0.3-0.3,0.5-0.6,0.6-1h-4.2v-6H50.1z"/>
		<path id="XMLID_2151_" class="st0" d="M59.9,68h-9.8L59,42.5h10.2L78.3,68h-9.8l-0.8-3.2h-7L59.9,68z M66,58.8L65,54.3
			c-0.1-0.5-0.2-1.1-0.3-1.6c-0.1-0.6-0.2-1.1-0.3-1.6H64l-1.7,7.8H66z"/>
		<path id="XMLID_2149_" class="st0" d="M80.9,58.9l0.5,0.4c0.8,0.7,1.7,1.2,2.7,1.7c1,0.5,2,0.7,3.1,0.7c0.2,0,0.5,0,0.8-0.1
			c0.3,0,0.5-0.1,0.8-0.3c0.2-0.1,0.4-0.3,0.6-0.5c0.2-0.2,0.2-0.4,0.2-0.7c0-0.3-0.1-0.5-0.2-0.7c-0.1-0.2-0.3-0.3-0.5-0.4
			c-0.2-0.1-0.4-0.2-0.7-0.2c-0.2,0-0.5-0.1-0.7-0.1l-1.9-0.3c-0.9-0.2-1.8-0.4-2.6-0.8c-0.8-0.3-1.5-0.8-2.1-1.4
			c-0.6-0.6-1.1-1.2-1.4-2c-0.4-0.8-0.5-1.6-0.5-2.6c0-1.5,0.3-2.9,0.9-4c0.6-1.2,1.5-2.2,2.5-3c1-0.8,2.2-1.4,3.5-1.8
			c1.3-0.4,2.7-0.6,4.1-0.6c2.9,0,5.6,0.7,8.1,2.2l-2.5,6.5c-0.8-0.5-1.6-1-2.5-1.4c-0.9-0.4-1.8-0.6-2.9-0.6c-0.2,0-0.4,0-0.7,0.1
			c-0.2,0-0.5,0.1-0.6,0.2c-0.2,0.1-0.4,0.2-0.5,0.4c-0.1,0.2-0.2,0.4-0.2,0.7c0,0.2,0.1,0.4,0.2,0.6c0.1,0.1,0.3,0.2,0.5,0.3
			c0.2,0.1,0.4,0.2,0.6,0.2c0.2,0,0.4,0.1,0.6,0.1l2.1,0.5c1,0.2,1.9,0.5,2.7,0.9c0.8,0.4,1.5,0.9,2.1,1.5c0.6,0.6,1.1,1.3,1.4,2.1
			c0.3,0.8,0.5,1.8,0.5,2.8c0,1.5-0.3,2.9-0.9,4c-0.6,1.1-1.5,2.1-2.5,2.8c-1,0.8-2.2,1.3-3.5,1.7c-1.3,0.4-2.7,0.6-4.1,0.6
			c-1.6,0-3.3-0.2-5-0.6c-1.7-0.4-3.3-1-4.8-1.7L80.9,58.9z"/>
		<path id="XMLID_2146_" class="st1" d="M101,42.5h11.2c1.4,0,2.8,0.2,4.1,0.5c1.3,0.3,2.4,0.8,3.4,1.5c1,0.7,1.7,1.6,2.3,2.8
			c0.6,1.1,0.8,2.5,0.8,4.1c0,1-0.1,1.8-0.3,2.5c-0.2,0.7-0.5,1.3-0.9,1.8c-0.4,0.5-0.9,1-1.5,1.3c-0.6,0.4-1.4,0.7-2.2,1v0.2
			c0.2,0.2,0.5,0.4,0.8,0.6c0.3,0.2,0.5,0.5,0.8,0.9l5.5,8.3h-10.7l-4.1-8.2H110V68H101V42.5z M110,53.8h0.6c0.4,0,0.8,0,1.1-0.1
			c0.4,0,0.7-0.1,1-0.3c0.3-0.1,0.5-0.4,0.7-0.6c0.2-0.3,0.3-0.7,0.3-1.1c0-0.5-0.1-0.9-0.2-1.2c-0.2-0.3-0.4-0.5-0.6-0.7
			c-0.3-0.2-0.6-0.3-0.9-0.3c-0.4,0-0.7-0.1-1.1-0.1H110V53.8z"/>
		<path id="XMLID_2143_" class="st1" d="M138.9,42.1c1.9,0,3.8,0.3,5.5,0.9c1.7,0.6,3.2,1.5,4.5,2.7c1.3,1.1,2.3,2.5,3,4.2
			c0.7,1.6,1.1,3.4,1.1,5.4c0,2.1-0.4,3.9-1.1,5.5c-0.7,1.6-1.8,3-3,4.1c-1.3,1.1-2.8,2-4.5,2.6s-3.5,0.9-5.5,0.9
			c-1.9,0-3.8-0.3-5.5-0.9c-1.7-0.6-3.2-1.5-4.5-2.6c-1.3-1.1-2.3-2.5-3-4.1c-0.7-1.6-1.1-3.4-1.1-5.5c0-2,0.4-3.8,1.1-5.4
			c0.7-1.6,1.8-3,3-4.2c1.3-1.1,2.8-2,4.5-2.7C135.1,42.4,136.9,42.1,138.9,42.1z M138.9,50.5c-0.7,0-1.4,0.1-2,0.4
			c-0.6,0.3-1.1,0.6-1.5,1.1c-0.4,0.5-0.7,1-0.9,1.6c-0.2,0.6-0.3,1.2-0.3,1.9c0,1.5,0.4,2.6,1.3,3.5c0.9,0.9,2,1.4,3.4,1.4
			c1.4,0,2.6-0.5,3.4-1.4c0.9-0.9,1.3-2.1,1.3-3.5c0-0.7-0.1-1.3-0.3-1.9c-0.2-0.6-0.5-1.1-0.9-1.6c-0.4-0.5-0.9-0.8-1.5-1.1
			C140.3,50.6,139.6,50.5,138.9,50.5z"/>
		<path id="XMLID_2141_" class="st1" d="M156.9,58.9l0.5,0.4c0.8,0.7,1.7,1.2,2.7,1.7c1,0.5,2,0.7,3.1,0.7c0.2,0,0.5,0,0.8-0.1
			c0.3,0,0.5-0.1,0.8-0.3c0.2-0.1,0.4-0.3,0.6-0.5c0.2-0.2,0.2-0.4,0.2-0.7c0-0.3-0.1-0.5-0.2-0.7c-0.1-0.2-0.3-0.3-0.5-0.4
			c-0.2-0.1-0.4-0.2-0.7-0.2c-0.2,0-0.5-0.1-0.7-0.1l-1.9-0.3c-0.9-0.2-1.8-0.4-2.6-0.8c-0.8-0.3-1.5-0.8-2.1-1.4
			c-0.6-0.6-1.1-1.2-1.4-2c-0.3-0.8-0.5-1.6-0.5-2.6c0-1.5,0.3-2.9,0.9-4c0.6-1.2,1.5-2.2,2.5-3c1-0.8,2.2-1.4,3.5-1.8
			c1.3-0.4,2.7-0.6,4.1-0.6c2.9,0,5.6,0.7,8.1,2.2l-2.5,6.5c-0.8-0.5-1.6-1-2.5-1.4c-0.9-0.4-1.8-0.6-2.9-0.6c-0.2,0-0.4,0-0.7,0.1
			c-0.2,0-0.5,0.1-0.6,0.2s-0.4,0.2-0.5,0.4c-0.1,0.2-0.2,0.4-0.2,0.7c0,0.2,0.1,0.4,0.2,0.6c0.1,0.1,0.3,0.2,0.5,0.3
			c0.2,0.1,0.4,0.2,0.6,0.2c0.2,0,0.4,0.1,0.6,0.1l2.1,0.5c1,0.2,1.9,0.5,2.7,0.9c0.8,0.4,1.5,0.9,2.1,1.5c0.6,0.6,1.1,1.3,1.4,2.1
			c0.3,0.8,0.5,1.8,0.5,2.8c0,1.5-0.3,2.9-0.9,4c-0.6,1.1-1.5,2.1-2.5,2.8c-1,0.8-2.2,1.3-3.5,1.7c-1.3,0.4-2.7,0.6-4.1,0.6
			c-1.6,0-3.3-0.2-5-0.6c-1.7-0.4-3.3-1-4.8-1.7L156.9,58.9z"/>
		<path id="XMLID_2138_" class="st1" d="M184.5,68h-9.8l8.9-25.5h10.2l9.1,25.5h-9.8l-0.8-3.2h-7L184.5,68z M190.6,58.8l-1.1-4.5
			c-0.1-0.5-0.2-1.1-0.3-1.6c-0.1-0.6-0.2-1.1-0.3-1.6h-0.3l-1.7,7.8H190.6z"/>
	</g>
	<g id="XMLID_617_">
		<g>
			<g id="XMLID_19_">
				<path class="st0" d="M61.2,3.3c0,0,7.3,6.8-3,18.8c-10.3,12-6.2,18.1-1,23.5c0,0-6.5-5,6.7-22.2C73.9,10.5,61.2,3.3,61.2,3.3z"
					/>
			</g>
			<g id="XMLID_18_">
				<path class="st0" d="M69.9,17.8c0,0-4.7,4.4,1.9,12.1c6.6,7.7,4,11.7,0.6,15.1c0,0,4.2-3.2-4.4-14.3
					C61.7,22.4,69.9,17.8,69.9,17.8z"/>
			</g>
		</g>
	</g>
</g>
</svg>
