<?xml version="1.0" encoding="utf-8"?>
<!-- Generator: Adobe Illustrator 24.0.1, SVG Export Plug-In . SVG Version: 6.00 Build 0)  -->
<svg version="1.1" id="Capa_1" xmlns="http://www.w3.org/2000/svg" xmlns:xlink="http://www.w3.org/1999/xlink" x="0px" y="0px"
	 viewBox="0 0 225 110" style="enable-background:new 0 0 225 110;" xml:space="preserve">
<style type="text/css">
	.st0{fill:#87AF4A;}
	.st1{fill:#486A32;}
</style>
<g>
	<g>
		<path d="M39.4,31.7h6.8v34.9h-6.8V31.7z"/>
		<path d="M157.9,31.8h14.9c6.6,0,11.1,2.1,11.1,8.6c0,3.5-1.6,5.8-4.7,7.3c4.3,1.2,6.4,4.5,6.4,8.8c0,7.1-6,10.1-12.3,10.1h-15.4
			V31.8z M165.6,45.8h6.3c2.7,0,4.7-1.2,4.7-4.1c0-3.3-2.5-4-5.3-4h-5.7V45.8z M165.6,60.6h6.8c3,0,5.7-1,5.7-4.6c0-3.6-2.2-5-5.5-5
			h-6.9V60.6z"/>
		<polygon points="155.5,38.1 155.5,31.7 133.3,31.7 129.9,38.2 129.9,66.6 155.5,66.6 155.5,60.2 137.3,60.2 137.3,51.1 
			151.7,51.1 151.7,45.8 137.3,45.8 137.3,38.1 		"/>
		<path d="M67.5,46.2C59,44.1,57.4,43.5,57.4,41c0-2.9,2.8-3.9,5.1-3.9c2.3,0,5.8,0.1,6.7,4.1l0.4,0.1h6.8c-0.5-7.1-6.8-10-13.6-10
			c-6.2,0-12.7,3.3-12.7,10.3c0,12.7,20.3,8.1,20.3,15.3c0,3.5-4,4.2-6.6,4.2c-2.7,0-6.7-0.6-7.5-5H49C49.7,63.7,56.3,67,63.5,67
			c9.3,0,14.2-4.7,14.2-10.9C77.6,48.4,70.1,46.8,67.5,46.2z"/>
		<polygon class="st0" points="121,31.8 107.9,54.4 103.8,47.8 99.4,55.7 108.3,71.1 120.7,49.6 131.1,31.8 		"/>
		<path class="st0" d="M107.2,40.6l4.2-7.2c-1.5,0.6-4.5,1.2-7.9-0.5c-3.7-1.9-6.6-0.9-7.8-0.3l4.7,8.1h3.4L107.2,40.6z"/>
		<polygon class="st1" points="100.8,41.6 103.8,46.9 106.9,41.6 103.8,41.6 		"/>
		<polygon class="st1" points="84.3,31.7 74.8,31.7 86.9,52.6 97.5,71.1 102.3,62.8 89.9,41.3 		"/>
	</g>
	<g>
		<g>
			<path d="M39.6,78.6c-0.1,0-0.2-0.1-0.2-0.2v-3.9c0-0.1,0.1-0.2,0.2-0.2h2.1c0.1,0,0.2,0.1,0.2,0.2c0,0.1-0.1,0.2-0.2,0.2h-1.9
				v1.6h1.4c0.1,0,0.2,0.1,0.2,0.2s-0.1,0.2-0.2,0.2h-1.4v1.6h1.9c0.1,0,0.2,0.1,0.2,0.2c0,0.1-0.1,0.2-0.2,0.2H39.6z"/>
			<path d="M46.9,74.6c-0.7,0-0.9,0.3-0.9,0.7c0,1.1,2.5,0.6,2.5,2.2c0,0.8-0.6,1.2-1.6,1.2c-0.7,0-1.3-0.4-1.5-0.8
				c0-0.1,0-0.1,0-0.1c0-0.1,0.1-0.2,0.2-0.2c0.1,0,0.1,0,0.2,0.1c0.2,0.3,0.6,0.6,1.2,0.6c0.7,0,1.1-0.3,1.1-0.8
				c0-1.2-2.5-0.6-2.5-2.2c0-0.6,0.4-1.1,1.4-1.1c0.6,0,1.1,0.3,1.4,0.7c0,0,0,0.1,0,0.1c0,0.1-0.1,0.2-0.2,0.2
				c-0.1,0-0.1,0-0.2-0.1C47.8,74.8,47.5,74.6,46.9,74.6z"/>
			<path d="M52,74.7c-0.1,0-0.2-0.1-0.2-0.2c0-0.1,0.1-0.2,0.2-0.2h2.8c0.1,0,0.2,0.1,0.2,0.2c0,0.1-0.1,0.2-0.2,0.2h-1.2v3.8
				c0,0.1-0.1,0.2-0.2,0.2c-0.1,0-0.2-0.1-0.2-0.2v-3.8H52z"/>
			<path d="M58.8,78.4c0,0.1-0.1,0.2-0.2,0.2c-0.1,0-0.2-0.1-0.2-0.2v-3.9c0-0.1,0.1-0.2,0.2-0.2h1.3c0.7,0,1.2,0.5,1.2,1.2
				c0,0.7-0.5,1.2-1.2,1.2l1.2,1.6c0,0,0,0.1,0,0.1c0,0.1-0.1,0.2-0.2,0.2c-0.1,0-0.1,0-0.2-0.1l-1.3-1.8h-0.7V78.4z M58.8,76.3h1.1
				c0.5,0,0.8-0.4,0.8-0.8c0-0.5-0.3-0.8-0.8-0.8h-1.1V76.3z"/>
			<path d="M65.4,77.3L65,78.5c0,0.1-0.1,0.2-0.2,0.2c-0.1,0-0.2-0.1-0.2-0.2c0,0,0-0.1,0-0.1l1.6-4c0-0.1,0.1-0.1,0.2-0.1
				c0.1,0,0.2,0.1,0.2,0.1l1.6,4c0,0,0,0.1,0,0.1c0,0.1-0.1,0.2-0.2,0.2c-0.1,0-0.2-0.1-0.2-0.1l-0.5-1.2H65.4z M66.3,74.9l-0.8,2
				h1.5L66.3,74.9z"/>
			<path d="M71.7,74.7c-0.1,0-0.2-0.1-0.2-0.2c0-0.1,0.1-0.2,0.2-0.2h2.8c0.1,0,0.2,0.1,0.2,0.2c0,0.1-0.1,0.2-0.2,0.2h-1.2v3.8
				c0,0.1-0.1,0.2-0.2,0.2c-0.1,0-0.2-0.1-0.2-0.2v-3.8H71.7z"/>
			<path d="M78.3,78.6c-0.1,0-0.2-0.1-0.2-0.2v-3.9c0-0.1,0.1-0.2,0.2-0.2h2.1c0.1,0,0.2,0.1,0.2,0.2c0,0.1-0.1,0.2-0.2,0.2h-1.9
				v1.6h1.4c0.1,0,0.2,0.1,0.2,0.2s-0.1,0.2-0.2,0.2h-1.4v1.6h1.9c0.1,0,0.2,0.1,0.2,0.2c0,0.1-0.1,0.2-0.2,0.2H78.3z"/>
			<path d="M87.2,77.8v-0.9h-1.1c-0.1,0-0.2-0.1-0.2-0.2s0.1-0.2,0.2-0.2h1.3c0.1,0,0.2,0.1,0.2,0.2v1.1c0,0.1,0,0.1-0.1,0.2
				c-0.3,0.4-0.8,0.7-1.6,0.7c-1.3,0-2-0.7-2-2.3c0-1.5,0.8-2.3,2-2.3c0.6,0,1.2,0.3,1.5,0.7c0,0,0,0.1,0,0.1c0,0.1-0.1,0.2-0.2,0.2
				c-0.1,0-0.1,0-0.2-0.1c-0.2-0.3-0.6-0.5-1.1-0.5c-1,0-1.6,0.6-1.6,1.9c0,1.3,0.6,1.9,1.6,1.9C86.6,78.3,87,78,87.2,77.8z"/>
			<path d="M91.5,78.4c0,0.1-0.1,0.2-0.2,0.2c-0.1,0-0.2-0.1-0.2-0.2v-4c0-0.1,0.1-0.2,0.2-0.2c0.1,0,0.2,0.1,0.2,0.2V78.4z"/>
			<g>
				<path class="st0" d="M106.3,76.6c-0.1,0-0.2-0.1-0.2-0.2c0-0.1,0.1-0.2,0.2-0.2h4c0.1,0,0.2,0.1,0.2,0.2c0,0.1-0.1,0.2-0.2,0.2
					H106.3z"/>
				<path class="st0" d="M108.5,78.4c0,0.1-0.1,0.2-0.2,0.2c-0.1,0-0.2-0.1-0.2-0.2v-4c0-0.1,0.1-0.2,0.2-0.2c0.1,0,0.2,0.1,0.2,0.2
					V78.4z"/>
			</g>
			<path d="M95.7,77.3l-0.5,1.2c0,0.1-0.1,0.2-0.2,0.2c-0.1,0-0.2-0.1-0.2-0.2c0,0,0-0.1,0-0.1l1.6-4c0-0.1,0.1-0.1,0.2-0.1
				c0.1,0,0.2,0.1,0.2,0.1l1.6,4c0,0,0,0.1,0,0.1c0,0.1-0.1,0.2-0.2,0.2c-0.1,0-0.2-0.1-0.2-0.1l-0.5-1.2H95.7z M96.6,74.9l-0.8,2
				h1.5L96.6,74.9z"/>
			<path d="M118.6,76.4c0-1.5,0.8-2.3,2-2.3c0.6,0,1.2,0.3,1.5,0.7c0,0,0,0.1,0,0.1c0,0.1-0.1,0.2-0.2,0.2c-0.1,0-0.1,0-0.2-0.1
				c-0.2-0.3-0.6-0.5-1.1-0.5c-1,0-1.6,0.6-1.6,1.9c0,1.3,0.6,1.9,1.6,1.9c0.4,0,0.9-0.2,1.1-0.5c0-0.1,0.1-0.1,0.2-0.1
				c0.1,0,0.2,0.1,0.2,0.2c0,0.1,0,0.1,0,0.1c-0.3,0.4-0.9,0.7-1.5,0.7C119.4,78.7,118.6,78,118.6,76.4z"/>
			<path d="M126.3,78.4c0,0.1-0.1,0.2-0.2,0.2c-0.1,0-0.2-0.1-0.2-0.2v-3.9c0-0.1,0.1-0.2,0.2-0.2h1.3c0.7,0,1.2,0.5,1.2,1.2
				c0,0.7-0.5,1.2-1.2,1.2l1.2,1.6c0,0,0,0.1,0,0.1c0,0.1-0.1,0.2-0.2,0.2c-0.1,0-0.1,0-0.2-0.1l-1.3-1.8h-0.7V78.4z M126.3,76.3
				h1.1c0.5,0,0.8-0.4,0.8-0.8c0-0.5-0.3-0.8-0.8-0.8h-1.1V76.3z"/>
			<path d="M132.6,78.6c-0.1,0-0.2-0.1-0.2-0.2v-3.9c0-0.1,0.1-0.2,0.2-0.2h2.1c0.1,0,0.2,0.1,0.2,0.2c0,0.1-0.1,0.2-0.2,0.2h-1.9
				v1.6h1.4c0.1,0,0.2,0.1,0.2,0.2s-0.1,0.2-0.2,0.2h-1.4v1.6h1.9c0.1,0,0.2,0.1,0.2,0.2c0,0.1-0.1,0.2-0.2,0.2H132.6z"/>
			<path d="M139.3,77.3l-0.5,1.2c0,0.1-0.1,0.2-0.2,0.2c-0.1,0-0.2-0.1-0.2-0.2c0,0,0-0.1,0-0.1l1.6-4c0-0.1,0.1-0.1,0.2-0.1
				c0.1,0,0.2,0.1,0.2,0.1l1.6,4c0,0,0,0.1,0,0.1c0,0.1-0.1,0.2-0.2,0.2c-0.1,0-0.2-0.1-0.2-0.1l-0.5-1.2H139.3z M140.2,74.9l-0.8,2
				h1.5L140.2,74.9z"/>
			<path d="M145.5,74.7c-0.1,0-0.2-0.1-0.2-0.2c0-0.1,0.1-0.2,0.2-0.2h2.8c0.1,0,0.2,0.1,0.2,0.2c0,0.1-0.1,0.2-0.2,0.2h-1.2v3.8
				c0,0.1-0.1,0.2-0.2,0.2c-0.1,0-0.2-0.1-0.2-0.2v-3.8H145.5z"/>
			<path d="M152.5,78.4c0,0.1-0.1,0.2-0.2,0.2c-0.1,0-0.2-0.1-0.2-0.2v-4c0-0.1,0.1-0.2,0.2-0.2c0.1,0,0.2,0.1,0.2,0.2V78.4z"/>
			<path d="M159.2,74.3c0-0.1,0.1-0.1,0.2-0.1s0.2,0.1,0.2,0.2c0,0,0,0.1,0,0.1l-1.5,4c0,0.1-0.1,0.1-0.2,0.1
				c-0.1,0-0.2-0.1-0.2-0.1l-1.5-4c0,0,0-0.1,0-0.1c0-0.1,0.1-0.2,0.2-0.2c0.1,0,0.2,0.1,0.2,0.1l1.3,3.5L159.2,74.3z"/>
			<path d="M163.6,78.4c0,0.1-0.1,0.2-0.2,0.2c-0.1,0-0.2-0.1-0.2-0.2v-4c0-0.1,0.1-0.2,0.2-0.2c0.1,0,0.2,0.1,0.2,0.2V78.4z"/>
			<path d="M168.8,74.2c1.2,0,2,0.6,2,2.2s-0.8,2.2-2,2.2h-0.9c-0.1,0-0.2-0.1-0.2-0.2v-3.9c0-0.1,0.1-0.2,0.2-0.2H168.8z
				 M168.1,78.2h0.7c1,0,1.6-0.4,1.6-1.8c0-1.3-0.6-1.8-1.6-1.8h-0.7V78.2z"/>
			<path d="M175.1,77.3l-0.5,1.2c0,0.1-0.1,0.2-0.2,0.2c-0.1,0-0.2-0.1-0.2-0.2c0,0,0-0.1,0-0.1l1.6-4c0-0.1,0.1-0.1,0.2-0.1
				c0.1,0,0.2,0.1,0.2,0.1l1.6,4c0,0,0,0.1,0,0.1c0,0.1-0.1,0.2-0.2,0.2c-0.1,0-0.2-0.1-0.2-0.1l-0.5-1.2H175.1z M176,74.9l-0.8,2
				h1.5L176,74.9z"/>
			<path d="M182.6,74.2c1.2,0,2,0.6,2,2.2s-0.8,2.2-2,2.2h-0.9c-0.1,0-0.2-0.1-0.2-0.2v-3.9c0-0.1,0.1-0.2,0.2-0.2H182.6z
				 M181.9,78.2h0.7c1,0,1.6-0.4,1.6-1.8c0-1.3-0.6-1.8-1.6-1.8h-0.7V78.2z"/>
		</g>
	</g>
</g>
</svg>
