<?xml version="1.0" encoding="utf-8"?>
<!-- Generator: Adobe Illustrator 24.0.1, SVG Export Plug-In . SVG Version: 6.00 Build 0)  -->
<svg version="1.1" id="Capa_1" xmlns="http://www.w3.org/2000/svg" xmlns:xlink="http://www.w3.org/1999/xlink" x="0px" y="0px"
	 viewBox="0 0 225 110" style="enable-background:new 0 0 225 110;" xml:space="preserve">
<style type="text/css">
	.st0{fill:#9C9B9B;}
	.st1{fill:#5EB3E4;}
</style>
<g>
	<g>
		<g>
			<g>
				<path class="st0" d="M82.4,35.5c-1.3-0.9-2.8-1.4-4.7-1.4c-1.8,0-3.4,0.5-4.7,1.4c-1.3,1-2.2,2.3-2.8,4.1L62.4,62h5.8
					c1.9,0,1.8-0.4,2.1-1.2l1.1-3.2c4.5-0.6,8.7-0.5,12.8,0.1l1,3c0.5,1,0.3,1.2,1.7,1.3l6.2,0l-7.8-22.3
					C84.7,37.8,83.7,36.4,82.4,35.5z M73.6,50.8l2.7-8.3c0.2-0.5,0.3-0.8,0.5-1c0.2-0.2,0.5-0.3,0.8-0.3c0.4,0,0.7,0.1,0.9,0.3
					c0.2,0.2,0.4,0.6,0.6,1l2.8,8.4C79.2,50.5,76.4,50.5,73.6,50.8z"/>
				<path class="st0" d="M173.2,41.5h11.7v-3.6c-0.1-2.5-2.2-3.5-4.4-3.4h-8.3c-3,0-5.4,0.9-7.1,2.5c-1.7,1.7-2.5,3-2.5,6.1v9.2
					c0,3,0.8,5.4,2.5,7.1c1.7,1.7,4,2.5,7.1,2.5h12.7V58c-0.2-1.6-1.1-3.2-3.5-3.2h-8c-1.1,0-2-0.3-2.6-0.9
					c-0.6-0.6-0.9-1.5-0.9-2.6v-6.5C169.7,42.8,170.9,41.5,173.2,41.5z"/>
				<path class="st0" d="M54.3,36.6v16c0,1-0.2,1.6-0.5,1.9c-0.3,0.3-1,0.5-2,0.5h-3.1c-1,0-1.7-0.2-2-0.5c-0.3-0.3-0.5-0.9-0.5-1.9
					v-4l-2.4,0c-1.7,0-3.5,0.5-4.3,2.7l-0.1,1.5c0.1,4.3,0.5,6,1.7,7.2c1.4,1.4,3.9,2.1,7.2,2.1h3.8c3.4,0,5.8-0.7,7.2-2.1
					c1.5-1.4,2.2-3.8,2.2-7.1V34.1C59.4,34.1,54.6,33.6,54.3,36.6z"/>
				<path class="st0" d="M154,34.4h-9.6c-3.3,0-5.8,0.7-7.2,2.2c-1.5,1.4-2.2,3.8-2.2,7.1v8.9c0,3.3,0.7,5.7,2.2,7.1
					c1.5,1.4,3.9,2.1,7.2,2.1h14v-3.9c-0.2-1.6-0.7-2.9-3.5-3h-10.2c-1,0-1.7-0.2-2-0.5c-0.3-0.3-0.5-0.9-0.5-1.9v-1.6h16.3V44
					h-16.3v-0.3c0-1,0.2-1.6,0.5-1.9c0.3-0.3,1-0.5,2-0.5h13.7v-3.5C158.4,35.1,156.1,34.4,154,34.4z"/>
				<path class="st0" d="M110.1,54.8h-5.4c-1.3,0-2.2-0.2-2.6-0.7c-0.5-0.5-0.7-1.3-0.7-2.6V37.9c-0.1-3.1-1.8-3.4-7.1-3.4v18
					c0,3.3,0.7,5.7,2.1,7.2c1.4,1.4,3.8,2.2,7.2,2.2h9.9v-2.8C113.4,56.3,112.4,55,110.1,54.8z"/>
				<path class="st0" d="M130.2,34.4h-21.8v3c0.2,2.4,1.6,3.9,3.7,4h5.8v20.4h7.1V41.5h8.5v-3.6C133.4,36,132.2,34.6,130.2,34.4z"/>
			</g>
		</g>
		<g>
			<path class="st1" d="M40.1,75.1l0.4-0.5c0.3,0.4,0.7,0.8,1.4,0.8c0.9,0,1.5-0.6,1.5-1.6v-4.9h0.6v4.9c0,1.4-0.9,2.1-2.1,2.1
				C41.1,75.9,40.5,75.7,40.1,75.1z"/>
			<path class="st1" d="M52.3,75.8l-0.7-1.7h-3.6l-0.7,1.7h-0.7l2.8-6.9h0.7l2.8,6.9H52.3z M49.8,69.6l-1.6,4h3.3L49.8,69.6z"/>
			<path class="st1" d="M55.7,75.8v-6.9h0.6v6.3h3.3v0.5H55.7z"/>
			<path class="st1" d="M62.7,75.8v-6.9h0.6v6.9H62.7z"/>
			<path class="st1" d="M66.5,74.8l0.4-0.4c0.4,0.5,1.2,1,2.2,1c1.4,0,1.8-0.8,1.8-1.4c0-2-4.1-1-4.1-3.4c0-1.1,1-1.8,2.3-1.8
				c1,0,1.8,0.4,2.3,1l-0.4,0.4c-0.5-0.6-1.2-0.9-2-0.9c-0.9,0-1.6,0.5-1.6,1.3c0,1.8,4.1,0.8,4.1,3.4c0,0.9-0.6,1.9-2.4,1.9
				C67.9,75.9,67,75.5,66.5,74.8z"/>
			<path class="st1" d="M74.5,72.4c0-2.1,1.5-3.6,3.5-3.6c1.1,0,1.9,0.5,2.5,1.2L80,70.4c-0.4-0.6-1.2-1-2-1c-1.6,0-2.9,1.2-2.9,3
				c0,1.8,1.3,3,2.9,3c0.8,0,1.6-0.4,2-1l0.5,0.3c-0.6,0.8-1.4,1.2-2.5,1.2C76,75.9,74.5,74.5,74.5,72.4z"/>
			<path class="st1" d="M83.3,72.4c0-2,1.3-3.6,3.3-3.6c2,0,3.3,1.5,3.3,3.6c0,2-1.3,3.6-3.3,3.6C84.6,75.9,83.3,74.4,83.3,72.4z
				 M89.3,72.4c0-1.7-1.1-3-2.7-3c-1.7,0-2.7,1.3-2.7,3c0,1.7,1.1,3,2.7,3C88.2,75.4,89.3,74.1,89.3,72.4z"/>
			<path class="st1" d="M99.6,75.8v-6.3h-2.3v-0.5h5.1v0.5h-2.2v6.3H99.6z"/>
			<path class="st1" d="M105.5,75.8v-6.9h4.4v0.5h-3.8V72h3.7v0.5h-3.7v2.7h3.8v0.5H105.5z"/>
			<path class="st1" d="M112.9,72.4c0-2.1,1.5-3.6,3.5-3.6c1.1,0,1.9,0.5,2.5,1.2l-0.5,0.3c-0.4-0.6-1.2-1-2-1c-1.6,0-2.9,1.2-2.9,3
				c0,1.8,1.3,3,2.9,3c0.8,0,1.6-0.4,2-1l0.5,0.3c-0.6,0.8-1.4,1.2-2.5,1.2C114.5,75.9,112.9,74.5,112.9,72.4z"/>
			<path class="st1" d="M126.9,75.8l-4.3-5.9v5.9H122v-6.9h0.6l4.3,5.8v-5.8h0.6v6.9H126.9z"/>
			<path class="st1" d="M130.8,72.4c0-2,1.3-3.6,3.3-3.6c2,0,3.3,1.5,3.3,3.6c0,2-1.3,3.6-3.3,3.6C132.1,75.9,130.8,74.4,130.8,72.4
				z M136.9,72.4c0-1.7-1.1-3-2.7-3c-1.7,0-2.7,1.3-2.7,3c0,1.7,1.1,3,2.7,3C135.8,75.4,136.9,74.1,136.9,72.4z"/>
			<path class="st1" d="M140.7,75.8v-6.9h0.6v6.3h3.3v0.5H140.7z"/>
			<path class="st1" d="M147,72.4c0-2,1.3-3.6,3.3-3.6c2,0,3.3,1.5,3.3,3.6c0,2-1.3,3.6-3.3,3.6C148.3,75.9,147,74.4,147,72.4z
				 M153.1,72.4c0-1.7-1.1-3-2.7-3c-1.7,0-2.7,1.3-2.7,3c0,1.7,1.1,3,2.7,3C152,75.4,153.1,74.1,153.1,72.4z M150.2,68.3h-0.5
				l1.6-1.5h0.6L150.2,68.3z"/>
			<path class="st1" d="M156.8,72.4c0-2.1,1.5-3.6,3.5-3.6c1.1,0,2,0.5,2.6,1.2l-0.4,0.3c-0.5-0.6-1.3-1-2.1-1c-1.6,0-2.9,1.2-2.9,3
				c0,1.8,1.3,3,2.9,3c0.9,0,1.6-0.5,2-0.8v-1.7h-2.6v-0.5h3.2v2.4c-0.6,0.7-1.5,1.1-2.6,1.1C158.3,75.9,156.8,74.5,156.8,72.4z"/>
			<path class="st1" d="M166.2,75.8v-6.9h0.6v6.9H166.2z"/>
			<path class="st1" d="M170.2,72.4c0-2.1,1.5-3.6,3.5-3.6c1.1,0,1.9,0.5,2.5,1.2l-0.5,0.3c-0.4-0.6-1.2-1-2-1c-1.6,0-2.9,1.2-2.9,3
				c0,1.8,1.3,3,2.9,3c0.8,0,1.6-0.4,2-1l0.5,0.3c-0.6,0.8-1.4,1.2-2.5,1.2C171.7,75.9,170.2,74.5,170.2,72.4z"/>
			<path class="st1" d="M178.9,72.4c0-2,1.3-3.6,3.3-3.6c2,0,3.3,1.5,3.3,3.6c0,2-1.3,3.6-3.3,3.6C180.3,75.9,178.9,74.4,178.9,72.4
				z M185,72.4c0-1.7-1.1-3-2.7-3c-1.7,0-2.7,1.3-2.7,3c0,1.7,1.1,3,2.7,3C183.9,75.4,185,74.1,185,72.4z"/>
		</g>
	</g>
</g>
</svg>
