<?xml version="1.0" encoding="utf-8"?>
<!-- Generator: Adobe Illustrator 24.3.0, SVG Export Plug-In . SVG Version: 6.00 Build 0)  -->
<svg version="1.1" id="Capa_1" xmlns="http://www.w3.org/2000/svg" xmlns:xlink="http://www.w3.org/1999/xlink" x="0px" y="0px"
	 viewBox="0 0 225 110" style="enable-background:new 0 0 225 110;" xml:space="preserve">
<style type="text/css">
	.st0{fill:#AA182C;}
	.st1{fill-rule:evenodd;clip-rule:evenodd;fill:#AA182C;}
</style>
<g>
	<g>
		<path class="st0" d="M70.8,84.5c1.2-0.1,1.9-0.3,2.3-0.6c0.3-0.3,0.5-1.1,0.5-2.3V67.4c0-1.1-0.2-1.9-0.5-2.2
			c-0.3-0.4-1.1-0.6-2.3-0.7v-0.6h9v0.6c-1.2,0.1-2,0.3-2.4,0.6c-0.4,0.3-0.6,1-0.6,2.1v15.4c0,0.3,0.1,0.6,0.2,0.8
			c0.1,0.2,0.4,0.3,0.8,0.4c0.2,0,0.5,0,0.8,0.1c0.3,0,0.8,0,1.5,0c2.8,0,4.8-0.2,5.8-0.7c1-0.5,2-1.7,2.9-3.6h0.8L88,85.1H70.8
			V84.5z"/>
		<path class="st0" d="M97.7,68.9v0.5c-0.9,0.1-1.6,0.2-1.8,0.5c-0.3,0.3-0.4,0.8-0.4,1.7v7.9c0,1.3,0.2,2.3,0.5,3
			c0.6,1.3,1.9,2,3.7,2c2,0,3.4-0.7,4.1-2c0.4-0.8,0.6-1.9,0.6-3.5v-6.4c0-1.3-0.1-2.2-0.5-2.5c-0.3-0.3-0.9-0.6-1.8-0.6v-0.5h5.7
			v0.5c-1,0.1-1.6,0.3-1.9,0.7c-0.3,0.4-0.4,1.2-0.4,2.5v6.4c0,1.7-0.3,3-0.8,4c-1,1.8-2.8,2.6-5.5,2.6c-2.7,0-4.5-0.9-5.4-2.6
			c-0.5-0.9-0.8-2.2-0.8-3.7v-7.7c0-0.9-0.1-1.5-0.4-1.7c-0.3-0.2-0.9-0.4-1.8-0.5v-0.5H97.7z"/>
		<path class="st0" d="M110.6,84.7c0.9-0.1,1.5-0.3,1.8-0.5c0.3-0.2,0.4-0.8,0.4-1.7v-11c0-0.9-0.1-1.4-0.4-1.7
			c-0.3-0.3-0.9-0.4-1.8-0.5v-0.5h7v0.5c-0.9,0.1-1.5,0.2-1.8,0.4c-0.3,0.3-0.5,0.8-0.5,1.6v11.9c0,0.3,0.1,0.5,0.2,0.6
			c0.1,0.2,0.3,0.3,0.6,0.3c0.2,0,0.4,0,0.6,0c0.2,0,0.6,0,1.2,0c2.2,0,3.7-0.2,4.4-0.5c0.8-0.4,1.5-1.3,2.2-2.8h0.6l-1.2,4.3h-13.3
			V84.7z"/>
		<path class="st0" d="M127.2,84.7c1-0.1,1.6-0.2,1.9-0.5c0.3-0.2,0.4-0.8,0.4-1.8v-11c0-0.9-0.1-1.5-0.4-1.8
			c-0.3-0.3-0.9-0.4-1.9-0.5v-0.5h7.3v0.5c-1,0.1-1.7,0.2-2,0.5c-0.3,0.3-0.4,0.8-0.4,1.8v11c0,1,0.1,1.5,0.4,1.8
			c0.3,0.2,1,0.4,2,0.5v0.5h-7.3V84.7z"/>
		<path class="st0" d="M140.3,70.7c1.5-1.4,3.4-2.2,5.6-2.2c2.2,0,4.1,0.7,5.6,2.2c1.6,1.6,2.5,3.7,2.5,6.3c0,2.7-0.8,4.8-2.6,6.4
			c-1.5,1.4-3.4,2.1-5.5,2.1c-2.3,0-4.2-0.8-5.8-2.4c-1.6-1.6-2.3-3.6-2.3-6.1C137.9,74.4,138.7,72.3,140.3,70.7 M142.2,82.8
			c1,1.2,2.3,1.9,3.8,1.9c1.4,0,2.7-0.6,3.7-1.8c1-1.2,1.5-3.1,1.5-5.8c0-2.7-0.5-4.6-1.6-5.8c-1-1.2-2.3-1.8-3.7-1.8
			c-1.5,0-2.8,0.6-3.8,1.9c-1,1.2-1.5,3.2-1.5,5.8C140.7,79.6,141.2,81.5,142.2,82.8"/>
		<path class="st1" d="M154.2,56.9c-5.3,3.7-12.8,5.9-21,5.2c-6.6-0.6-11.8-3.2-17.4-5.4c-5.7-2.2-12-3.8-18.8-4.1
			c-4.6-0.2-8.7,0.2-13.6-0.2V32.1h7.2c1.3,0.3,1.7,1,1.7,1v-2.6h-8.8V16.9c0.2,0,0.3,0,0.5,0H104c0.9,0.1,1.7,0.2,2.2,0.6
			c0.3,0.2,0.4,0.6,0.7,0.8v-4.5c-0.3,0.2-0.4,0.6-0.7,0.8c-0.5,0.4-1.3,0.6-2.2,0.6H70.8v0.1c2.4,0.2,3.9,0.6,4.6,1.3
			c0.7,0.7,1,2.2,1,4.4v30.2c0,2.4-0.3,3.2-1,3.8c-0.7,0.6-2.2,1.7-4.6,1.9v0.1h12.5c0.5,0,1.1,0,1.6,0c1.8,0,3.7,0.1,5.5,0v0
			c0,0,0.1,0,0.2,0c0.1,0,0.2,0,0.2,0c1.5-0.1,7.2-0.2,13.8,0.8c0.8,0.1,1.6,0.3,2.4,0.4c0.2,0,0.3,0.1,0.5,0.1
			c2.6,0.5,5.2,1,7.2,1.8c3.9,1.5,7.8,3.2,12.2,3.8c1.1,0.1,2,0.4,3.1,0.4c9.8,0.4,17.9-2.3,23.2-6.6
			C153.7,57.6,154.4,57.3,154.2,56.9"/>
		<path class="st1" d="M138.7,18.4c0.4-0.4,1,0,1.3,0.4c0.5-0.3,1,0.1,1.3,0.5c0.5-0.4,1,0.2,1.2,0.6c0.6-0.2,1,0.3,1.2,0.7
			c0.5-0.1,0.9,0.3,1.1,0.8c0.6,0,1,0.3,1.1,0.9c0.6,0,0.9,0.4,1.1,1.1c0.6,0,0.9,0.5,1,1.2c0.5,0.1,0.8,0.5,0.9,1.3
			c0.4,0.2,0.8,0.6,0.9,1.4c0.4,0.4,0.8,0.7,0.8,1.6c0.3,0.2,0.6,0.5,0.6,1c0,0.2,0,0.4,0,0.6c0.1,0.5,0.8,0.9,0.5,1.8
			c0.3,0.3,0.6,1.2,0.3,1.9c0.3,0.4,0.4,1.5,0.1,2c0.3,0.5,0.2,1.5-0.1,1.9c0.2,0.6,0.1,1.6-0.3,1.9c0.2,0.8-0.1,1.5-0.5,1.8
			c0.1,0.8-0.2,1.4-0.6,1.6c0.1,1-0.3,1.4-0.7,1.6c0,0.8-0.3,1.2-0.8,1.4c-0.1,0.7-0.4,1.3-1,1.4c-0.1,0.7-0.4,1.1-0.9,1.2
			c-0.3,0.6-0.5,1.1-1.1,1.1c-0.2,0.5-0.5,1-1.1,1c-0.2,0.5-0.5,0.9-1.2,0.8c-0.2,0.4-0.6,0.9-1.2,0.7c-0.2,0.2-0.4,0.5-0.6,0.7
			c-0.9-0.3-0.9,0.9-1.9,0.5c-0.3,0.4-0.8,0.7-1.3,0.4c-0.2,0.4-0.8,0.7-1.3,0.3c-0.3,0.3-0.9,0.6-1.3,0.2c-0.4,0.3-0.9,0.5-1.3,0.1
			c-0.3,0.3-1,0.4-1.3,0c-0.4,0.4-1,0.3-1.3-0.1c-0.4,0.4-1,0.2-1.3-0.2c-0.4,0.3-1,0.1-1.3-0.3c-0.4,0.4-1,0-1.3-0.4
			c-0.5,0.3-1-0.1-1.2-0.5c-0.5,0.4-1-0.2-1.3-0.6c-0.6,0.2-1-0.2-1.2-0.7c-0.6,0.1-0.9-0.3-1.1-0.8c-0.6,0-1-0.3-1.1-1
			c-0.6,0-0.9-0.4-1.1-1.1c-0.6,0-0.9-0.5-1-1.2c-0.5-0.1-0.8-0.6-0.9-1.3c-0.5-0.1-0.8-0.8-0.9-1.4c-0.4-0.3-0.8-0.7-0.8-1.6
			c-0.2-0.3-0.6-0.4-0.6-1c0-0.2,0-0.4,0-0.6c-0.1-0.4-0.8-0.9-0.5-1.8c-0.3-0.4-0.6-1.2-0.3-1.9c-0.3-0.4-0.4-1.5-0.1-2
			c-0.3-0.5-0.3-1.5,0.1-1.9c-0.2-0.6-0.1-1.6,0.3-1.8c-0.2-0.8,0.1-1.5,0.4-1.9c-0.1-0.8,0.2-1.5,0.6-1.6c0-0.9,0.2-1.4,0.7-1.6
			c0.1-0.8,0.3-1.3,0.8-1.4c0.1-0.7,0.4-1.3,0.9-1.4c0.2-0.6,0.4-1.1,1-1.2c0.2-0.5,0.5-1.1,1.1-1.1c0.2-0.5,0.5-1,1.1-1
			c0.2-0.5,0.5-0.9,1.2-0.8c0.2-0.4,0.6-0.9,1.2-0.7c0.2-0.2,0.4-0.5,0.6-0.7c0.9,0.3,0.8-0.9,1.9-0.5c0.2-0.4,0.8-0.7,1.3-0.4
			c0.2-0.4,0.8-0.7,1.3-0.3c0.3-0.4,0.9-0.6,1.3-0.2c0.3-0.3,1-0.5,1.3-0.1c0.3-0.3,1-0.4,1.3,0c0.4-0.4,1-0.3,1.3,0.1
			c0.3-0.4,1-0.2,1.3,0.2C137.8,17.8,138.4,18,138.7,18.4 M132.8,19.7c1.1,0.5,1.4-0.9,1.8-1.7c-1.1-0.7-1.2,1.1-1.9,1.5
			C132.7,19.6,132.8,19.6,132.8,19.7 M133.3,18c-1.1-0.7-1.2,1.2-1.8,1.6c0.2-0.5,0.4-1,0.6-1.5c-1.1-0.7-1.1,1.3-1.8,1.7
			c0.2-0.5,0.3-1,0.5-1.5c-0.8-0.4-1,0.5-1.2,1.2c-0.2,0.4-0.4,0.6-0.4,0.9c0.5,0.2,0.9-0.2,1.2-0.5c0.3,0.5,1,0,1.2-0.3
			C132.4,20.5,133,19,133.3,18 M133.9,19.6c1,0.7,1.6-0.7,1.9-1.6C134.8,17.4,134.5,19,133.9,19.6 M135.2,19.5c0.8,1,1.6-0.5,2-1.2
			C136.3,17.3,135.8,19.2,135.2,19.5 M136.4,19.7c0.3,0.3,0.8,0.3,1.2,0.1c0.2,0.5,0.8,0.6,1.2,0.3c0.1,0.5,0.8,0.6,1.2,0.4
			c0.2,0.5,0.7,0.7,1.1,0.5c0.2,0.4,0.6,0.8,1.2,0.6c0.2,0.5,0.6,0.9,1.2,0.7c0.1,0.6,0.5,0.8,1,0.8c0.2,0.6,0.5,0.9,1.1,0.9
			c0.1,0.7,0.5,0.9,1,1c0.1,0.8,0.5,0.9,1,1.2c0,0.8,0.5,0.9,0.8,1.2c0.1,0.7,0.4,1,0.8,1.3c0,0.8,0.4,1.1,0.7,1.5
			c-0.1,0.9,0.3,1.1,0.5,1.5c-0.2,0.7,0.2,1.2,0.4,1.6c-0.3,0.5,0.1,1.2,0.2,1.6c-0.2,0.5-0.1,1.3,0.1,1.7c-0.3,0.3-0.3,1.2-0.1,1.6
			c-0.3,0.3-0.5,1-0.3,1.6c-0.3,0.3-0.5,0.9-0.4,1.5c-0.3,0.3-0.6,0.7-0.6,1.5c-0.4,0.2-0.7,0.7-0.7,1.5c-0.5,0-0.7,0.7-0.8,1.3
			c-0.5,0-0.7,0.6-0.9,1.2c-0.6,0-0.7,0.6-1,1.1c-1-0.1-1.1,1.3-1.1,2.7c1.1,0.2,0.7-1.8,1.1-2.5c0,0.6,0,1.1,0.1,1.6
			c1,0,0.6-1.9,0.9-2.7c0,0.5,0.1,1,0.1,1.6c1,0,0.6-1.8,0.8-2.8c0.1,0.5,0.1,1.1,0.3,1.6c0.4-0.2,0.6-0.6,0.6-1.3
			c0-0.5-0.3-1.2,0-1.6c0.1,0.6,0.2,1.1,0.4,1.5c0.9-0.4,0.2-2,0.3-2.9c0.2,0.4,0.2,1,0.5,1.3c0.9-0.5,0-2.1,0.1-2.9
			c0.2,0.5,0.3,0.9,0.6,1.3c0.8-0.6,0-2-0.2-2.9c0.3,0.3,0.4,0.9,0.8,1.2c0.7-1-0.2-1.9-0.4-2.8c0.3,0.3,0.5,0.7,0.8,1
			c0.7-1.2-0.5-1.9-0.7-2.7c0.4,0.2,0.6,0.7,1,0.9c0.5-1.4-0.8-1.8-1-2.6c0.3,0.2,0.7,0.5,1,0.7c0.5-1.5-0.9-1.6-1.2-2.4
			c0.4,0.1,0.7,0.4,1.1,0.5c0.2-1.6-1-1.4-1.5-2.1c0.2,0,0.8,0.3,1.1,0.3c0.2-1.4-1-1.2-1.6-1.8c0.4,0,0.7,0,1.1,0.1
			c0.1-1.5-1.2-1.1-1.8-1.6c0.3-0.1,0.8,0,1.2-0.1c0.1-1.4-1.3-0.9-1.9-1.3c0.4-0.1,0.8-0.1,1.2-0.2c-0.1-0.6-0.4-1-0.9-1
			c-0.4,0-0.9,0.3-1.1-0.1c0.4,0,0.7-0.3,1.1-0.3c-0.1-1.3-1.2-0.7-2-0.7c0.3-0.3,0.6-0.4,1-0.5c-0.2-1.6-1.5-0.2-2.1-0.6
			c0.4-0.1,0.7-0.4,1.1-0.6c-0.3-1.3-1.5-0.1-2.1-0.3c0.4-0.1,0.6-0.5,1-0.6c-0.4-1.3-1.4-0.2-2.1-0.1c0.3-0.3,0.7-0.6,1-0.8
			c-0.1-0.2-0.2-0.5-0.4-0.5c-0.6-0.3-1.1,0.8-1.7,0.6c0.3-0.3,0.6-0.6,0.9-0.9c-0.6-1.3-1.5,0.5-2.2,0.3c0.4-0.2,0.7-0.7,1-1
			c-0.7-1.1-1.4,0.4-2.1,0.5c0.3-0.4,0.6-0.7,0.9-1.1c-0.8-1.1-1.4,0.7-2.1,0.7c0.3-0.4,0.6-0.7,0.8-1.2c-0.9-1.1-1.4,0.8-2.1,0.8
			c0.3-0.4,0.6-0.7,0.8-1.3C137.4,17.7,137,19.2,136.4,19.7 M127.9,20.8c1.1,0.3,1.3-1.1,1.6-2.2C128.4,18.2,128.3,20.1,127.9,20.8
			 M126.7,21.3c1,0.4,1.3-1.1,1.5-2.2C127,18.7,127.2,20.7,126.7,21.3 M125.5,21.8c0-0.6,0.2-1,0.2-1.6c-1.2-0.2-0.8,1.9-1.3,2.4
			c0.1-0.5,0.1-1.3,0.1-1.6c-0.8-0.1-0.8,0.9-0.9,1.8c0,0.3-0.2,0.6-0.2,0.8c0.5,0.1,0.7-0.5,1-0.8c0.6,0.1,0.9-0.4,1.1-0.9
			c0.1,0.2,0.2,0.2,0.3,0.2c0.8-0.1,0.9-1.5,1.1-2.4C125.9,19.2,126.1,21.2,125.5,21.8 M121.5,25.9c-0.2,0.6-0.4,1-0.9,1.2
			c-0.1,0.7-0.4,1-0.8,1.3c-0.1,0.7-0.4,1-0.6,1.4c0.1,0.7-0.4,1-0.6,1.5c-0.1,0.2,0,0.6-0.1,0.8c-0.1,0.3-0.3,0.5-0.3,0.7
			c-0.1,0.5,0.1,1.2-0.3,1.6c0.2,0.5,0,1.2-0.1,1.6c0.2,0.4,0.2,1.2,0,1.6c0.2,0.3,0.4,1,0.2,1.6c0.2,0.4,0.4,0.8,0.4,1.5
			c0.2,0.4,0.5,0.6,0.5,1.4c0.3,0.4,0.6,0.6,0.6,1.4c0.3,0.3,0.7,0.6,0.7,1.3c0.4,0.3,0.8,0.6,0.9,1.3c0.5,0.1,0.8,0.5,0.9,1.1
			c0.5,0.1,0.8,0.4,0.9,1c0.5,0,0.8,0.4,1.1,0.9c0.6,0,0.8,0.4,1.1,0.7c0.5-0.2,0.8,0.5,1.1,0.7c0.2,0.1,0.4,0,0.6,0.1
			c0.3,0.1,0.3,0.4,0.5,0.5c0.6-0.3,0.9,0.4,1.2,0.5c0.2,0,0.4-0.1,0.6-0.1c0.2,0.1,0.4,0.4,0.6,0.4c0.4,0.1,0.9-0.2,1.2,0.3
			c0.4-0.3,0.9-0.1,1.2,0.2c0.3-0.3,0.9-0.2,1.2,0.1c0.4-0.2,0.9-0.3,1.2,0.1c0.3-0.3,0.9-0.3,1.2-0.1c0.3-0.3,0.8-0.4,1.2-0.2
			c0.3-0.3,0.8-0.5,1.2-0.3c0.3-0.3,0.7-0.5,1.2-0.4c0.3-0.3,0.7-0.6,1.2-0.4c0.3-0.3,0.7-0.7,1.2-0.5c0.3-0.4,0.5-0.7,1.1-0.7
			c0.3-0.4,0.5-0.8,1.1-0.7c0.3-0.4,0.5-0.8,1-0.8c0.3-0.5,0.5-0.9,1-1c0.2-0.5,0.5-0.9,0.9-1.1c0.1-0.6,0.4-1,0.9-1.2
			c0.1-0.7,0.4-1,0.8-1.3c0.1-0.7,0.3-1,0.6-1.4c0.1-0.7,0.3-1.1,0.6-1.5c-0.1-0.7,0.3-1.1,0.4-1.5c0.1-0.5-0.1-1.2,0.3-1.6
			c-0.1-0.5-0.1-1.2,0.1-1.6c-0.2-0.4-0.2-1.2,0-1.6c-0.2-0.3-0.4-1-0.2-1.6c-0.2-0.4-0.4-0.8-0.4-1.5c-0.2-0.4-0.5-0.6-0.5-1.4
			c-0.3-0.4-0.6-0.6-0.6-1.4c-0.3-0.3-0.7-0.6-0.7-1.4c-0.4-0.2-0.7-0.6-0.9-1.2c-0.5-0.1-0.7-0.6-0.9-1.1c-0.6,0-0.7-0.6-1-0.9
			c-0.5-0.1-0.7-0.5-1-0.9c-0.6,0-0.8-0.4-1.1-0.8c-0.5,0.1-0.9-0.3-1.1-0.6c-0.5,0.3-0.8-0.4-1.2-0.6c-0.2-0.1-0.4,0.1-0.6,0
			c-0.2-0.1-0.4-0.4-0.6-0.5c-0.2,0-0.4,0.1-0.6,0.1c-0.2-0.1-0.4-0.4-0.6-0.4c-0.4-0.1-0.9,0.2-1.2-0.3c-0.4,0.3-0.9,0.1-1.2-0.2
			c-0.3,0.3-0.9,0.2-1.2-0.1c-0.3,0.3-0.8,0.3-1.2,0.1c-0.2,0.1-0.9,0.4-1.2,0c-0.3,0.3-0.8,0.4-1.2,0.2c-0.3,0.3-0.8,0.5-1.2,0.3
			c-0.3,0.6-0.8,0.3-1.2,0.4c-0.3,0.1-0.7,0.8-1.2,0.4c-0.3,0.3-0.6,0.7-1.2,0.5c-0.2,0.4-0.6,0.8-1.1,0.6c-0.3,0.4-0.5,0.8-1.1,0.8
			c-0.2,0.4-0.5,0.8-1,0.8c-0.3,0.5-0.5,0.9-1,1C122.2,25.4,121.9,25.8,121.5,25.9 M126.4,52.6c0.7,1.1,1.4-0.4,2.1-0.5
			c-0.3,0.4-0.6,0.7-0.9,1.1c0.8,1.1,1.4-0.6,2.1-0.7c-0.3,0.4-0.6,0.7-0.8,1.2c0.9,1.1,1.4-0.8,2.1-0.8c-0.3,0.4-0.6,0.7-0.8,1.2
			c0.9,0.8,1.4-0.8,2-1.3c-0.3-0.3-0.8-0.3-1.2-0.1c-0.2-0.5-0.8-0.6-1.2-0.3c-0.1-0.5-0.8-0.6-1.2-0.4
			C128,50.8,126.8,51.9,126.4,52.6 M126.2,50.9c-0.2-0.5-0.6-0.8-1.2-0.7c-0.1-0.6-0.5-0.8-1-0.8c-0.2-0.6-0.5-0.9-1.1-0.9
			c-0.1-0.7-0.4-0.9-0.9-1c-0.1-0.7-0.6-1-1-1.2c0-0.8-0.5-0.9-0.8-1.2c0-0.8-0.4-1-0.7-1.3c0-0.8-0.3-1.1-0.7-1.5
			c0.1-0.9-0.3-1.1-0.5-1.5c0.2-0.7-0.2-1.2-0.4-1.6c0.3-0.6,0-1.2-0.2-1.6c0.2-0.5,0.1-1.3-0.1-1.7c0.3-0.3,0.3-1.1,0.1-1.6
			c0.3-0.3,0.4-1,0.3-1.6c0.3-0.3,0.5-0.9,0.4-1.6c0.4-0.2,0.6-0.7,0.6-1.5c0.4-0.2,0.7-0.7,0.7-1.5c0.5-0.1,0.7-0.6,0.8-1.3
			c0.6,0,0.7-0.6,0.9-1.2c0.5,0.1,0.8-0.5,0.9-1.1c0.9,0.3,1.2-1.4,1.1-2.7c-0.3,0-0.4,0.1-0.6,0.3c-0.4,0.5-0.1,1.7-0.5,2.3
			c0-0.5,0-1.1-0.1-1.6c-0.4,0.1-0.7,0.4-0.7,1.1c-0.1,0.5,0.1,1.2-0.1,1.6c-0.1-0.5-0.1-1-0.1-1.5c-0.5,0.1-0.7,0.5-0.8,1.1
			c0,0.6,0.3,1.3-0.1,1.7c0-0.6-0.2-1.1-0.2-1.6c-0.4,0.1-0.6,0.5-0.6,1.2c0,0.6,0.3,1.3,0,1.7c0-0.6-0.3-0.9-0.3-1.5
			c-0.9,0.3-0.4,1.9-0.4,2.9c-0.2-0.4-0.3-0.9-0.5-1.4c-1,0.4-0.1,2.1-0.2,2.9c-0.2-0.4-0.4-0.8-0.5-1.3c-0.9,0.7,0.1,2.1,0.1,3
			c-0.2-0.4-0.4-0.9-0.7-1.2c-0.7,1,0.3,1.9,0.5,2.8c-0.3-0.2-0.5-0.8-0.8-1c-0.6,1.2,0.5,1.9,0.7,2.8c-0.4-0.3-0.6-0.7-1-0.9
			c-0.5,1.4,0.8,1.8,1,2.6c-0.3-0.2-0.6-0.5-1-0.7c-0.5,1.5,0.9,1.6,1.2,2.4c-0.3-0.2-0.6-0.4-1-0.5c-0.2,1.7,1.1,1.4,1.5,2.1
			c-0.3-0.1-0.7-0.2-1.1-0.3c-0.2,1.5,1,1.3,1.6,1.9c-0.4,0-0.7-0.1-1.1-0.1c-0.1,1.5,1.2,1.1,1.8,1.6c-0.3,0.1-0.7,0-1.2,0.1
			c0,1.4,1.2,1,1.9,1.3c-0.3,0.2-0.8,0.1-1.1,0.3c0.1,1.3,1.1,0.8,2,1c-0.3,0.2-0.7,0.3-1.1,0.4c0.1,1.4,1.3,0.6,2,0.8
			c-0.3,0.2-0.8,0.3-1,0.5c0.3,1.4,1.5,0.1,2.1,0.5c-0.4,0.1-0.7,0.4-1.1,0.5c0.3,1.4,1.5,0.2,2.1,0.4c-0.4,0.1-0.6,0.5-1,0.6
			c0.4,1.5,1.4,0.1,2.1,0.2c-0.3,0.3-0.6,0.5-0.9,0.8c0.2,0.5,0.6,0.6,0.9,0.6c0.4-0.2,0.7-0.8,1.2-0.7c-0.3,0.3-0.6,0.6-0.9,0.9
			c0.6,1.3,1.3-0.3,2.2-0.4C127.2,50.9,126.7,50.8,126.2,50.9 M144.1,49.8c-0.5-0.3-0.9,0.3-1.1,0.8c-0.1,0,0-0.2-0.2-0.2
			c-1,0-1,1.3-1.3,2.4c1.1,0.4,1-1.7,1.4-2.2c0,0.6-0.1,1-0.2,1.6C144,52.5,143.6,50.5,144.1,49.8c0,0.6-0.1,1.3-0.1,1.7
			c0.9,0.1,0.8-1,0.9-1.9c0-0.3,0.2-0.5,0.2-0.8C144.6,48.7,144.4,49.4,144.1,49.8 M140.7,51.7c-1-0.6-1.4,1.1-1.6,2.1
			C140.2,54.3,140.1,52.3,140.7,51.7c-0.1,0.6-0.3,1.3-0.4,1.7h0.5c0.6-0.2,0.5-1.1,0.7-1.7c0.1-0.3,0.3-0.3,0.3-0.6
			C141.3,50.9,141,51.4,140.7,51.7 M138.3,52.5c-0.4-0.5-1,0-1.2,0.3c-0.1-0.1-0.1-0.2-0.2-0.2c-1-0.2-1.3,1-1.6,1.9
			c1.1,0.7,1.2-1.2,1.8-1.6c-0.2,0.5-0.4,1-0.6,1.5C137.7,54.9,137.6,53,138.3,52.5c-0.2,0.6-0.4,1-0.5,1.6c1,0.4,1-0.8,1.3-1.5
			c0.1-0.3,0.3-0.3,0.3-0.6C139,51.8,138.6,52.2,138.3,52.5 M131.4,54.2c1,1,1.3-1,2-1.2C132.6,52,131.7,53.4,131.4,54.2
			 M132.7,54.5c1.1,0.6,1.4-1,1.9-1.6C133.6,52.2,133,53.6,132.7,54.5 M133.9,54.5c1.1,0.7,1.3-1.1,1.9-1.6
			C134.8,52.1,134.3,53.6,133.9,54.5"/>
		<path class="st1" d="M134.3,20.7c-8.6,0-15.6,7-15.6,15.6c0,8.6,7,15.6,15.6,15.6c8.6,0,15.5-7,15.5-15.6
			C149.8,27.6,142.9,20.7,134.3,20.7 M140.4,40.4c-0.4,1-1.5-0.4-1.5-0.4c-1.3,0.4-1.4-0.4-1.4-0.4h-1.2l-0.3,0.3
			c-0.7,1.2-1.5,0-1.5,0c-1.1-0.2-1.5,1.5-1.5,1.5c-1.1-1.5-3.6-2.9-3.6-2.9c-0.3-0.3-0.6,0-0.6,0l-1.2,1.2L129,35
			c1-0.6,1.5-0.2,1.5-0.2c0,0.8,2.2,2.4,2.2,2.4c4.2,3.5,6.6,1.2,6.6,1.2c0.4-0.4,1.9,0.6,1.9,0.6C142.1,39.7,140.4,40.4,140.4,40.4
			 M132.8,32.6c0.3-0.3-1-1.5-1-1.5v-0.9c0.1-0.5,0.4,0,0.4,0l0,1.1c0.3,0,1.2,0.8,1.2,0.8c0,1.6-1.2,1.5-1.2,1.5h-1.6
			c0.2-0.2,1.2-0.3,1.2-0.3C132.9,33.5,132.8,32.6,132.8,32.6 M132.4,27.2c0-0.6,0.5-1.3,0.5-1.3C132.9,27,132.4,27.2,132.4,27.2
			 M129.3,32.7c-0.4-0.4,1-0.5,1-0.5c0.7-0.3,1.1,0.1,1.1,0.1C131.1,32.6,129.3,32.7,129.3,32.7 M130,33.4c0,0.7-1.1,1.1-1.1,1.1
			C128.8,33.5,130,33.4,130,33.4 M134.4,32.7c0-0.6,0.4-0.4,0.4-0.4c0.3,0.8,0,1.7,0,1.7C134.8,33.7,134.4,32.7,134.4,32.7
			 M139.7,30.3c0,0-0.1-0.7,0.5,0c0,0,0.7,1.2-0.7,1.2C139.5,31.6,139.9,31.1,139.7,30.3 M137.5,26.8c0,0,0.5,0.2,1,1h-1.1
			C137.4,27.8,136.9,27.3,137.5,26.8 M136.7,28.5c1.1,0.1,0.4,0.4,0.4,0.4c-0.5,1.6,0.8,0.8,0.8,0.8c1.1-0.2,0.7,0.4,0.7,0.4
			l-0.7,0.7c-0.4,0.4-0.2,0.7-0.2,0.7c2.2,0.7,1.8,1.3,1.8,1.3c-0.5-0.5-1-0.4-1-0.4v0.6c0.9,0.3,1.1,1.7,1.1,1.7
			c0.3,0.3,0.7,1,0.7,1l-3.2-2.4v-2.7c0-0.5-1.5,0.9-1.5,0.9c-0.3-0.7-2.6-0.8-2.6-0.8c-0.3-0.3,0.4-1.1,0.4-1.1
			c-0.3-0.7,0.3-1,0.3-1c0.5-0.3,0.3,0.3,0.3,0.3c-0.4,0.4,0.2,0.7,0.2,0.7c0.7-0.7,1.3,0,1.3,0C135.7,28.3,136.7,28.5,136.7,28.5
			 M134.1,26.6l1.1-2.1c0,0,1.4,0.7,1.1,1.1c0,0-0.2,1-1,1V27h-0.7l-1.4,1.4C133.2,28.4,133.2,26.9,134.1,26.6 M127.2,28
			c0.5-0.5,0.5-1,0.5-1c0.2-1.6,0.9-2.1,0.9-2.1c1.5-1.5,4.5-0.9,4.5-0.9c-0.5,1.3-3.1,6.2-3.1,6.2v1.1h-0.7l-1.7-1.3v-0.8
			C127.1,28.7,127.2,28,127.2,28 M129.7,48.4h-1.6c0.3-1.7,1.6-1.6,1.6-1.6V48.4z M129.9,44.3c0,0-0.2,0.4-0.9,0.4l-2.4,2.1l0.4-4.7
			c0,0,1.8,1.5,2.2,1.1C129.1,43.2,130.3,43.9,129.9,44.3 M131.8,48c0,0-0.1-0.4-0.1-1.2c0,0,1.2-0.3,1.2,0.2
			C132.8,47,132.1,48.3,131.8,48 M132.4,45.6c0.4-0.9-1.6-1.6-1.6-1.6c-0.9-0.4,0.2-1.9,0.2-1.9c0.8-0.9,1.5,0,1.5,0
			c0.1,0.1-0.2,1.2-0.2,1.2c0.8,0.3,0.9-0.3,0.9-0.3c0.8-0.8,1.1-0.3,1.1-0.3c0.5,1.1-0.7,2.9-0.7,2.9
			C133.2,46.7,132.4,45.6,132.4,45.6 M137.3,48.1h-3c-0.7,0-0.4-0.7-0.4-0.7c0.4-0.4,1.2-3.3,1.2-3.3c0.5,0,0.4-1.9,0.4-1.9
			c1.2-1.2,1.3-0.3,1.3-0.3c0.1,0.3,0.7,1.4,0.7,1.4C135.7,45.8,137.3,48.1,137.3,48.1 M138.5,48.1c-1.1-0.4-1.1-1.5-1.1-1.5
			c0.3-0.7,1.1,0,1.1,0c0,0.2,0.7,1.5,0.7,1.5H138.5z M142.3,42.5c0,1.1-1.7,2-1.7,2c-0.7-0.3-1.4,0.3-1.4,0.3
			c-0.8,0.8-1.2,0.3-1.2,0.3c-1-0.4,0.2-1.9,0.2-1.9c0.4-1,0.8-0.8,0.8-0.8c0,0.2,0.6,0.6,0.6,0.6c0.7,0.2,0.3-1.3,0.3-1.3
			c0.4-1.3,1.6-0.7,1.6-0.7c1.2,0,0.5,0.5,0.5,0.5c-0.2,0.5,0.2,0.5,0.2,0.5C142.7,42.1,142.3,42.5,142.3,42.5 M143.4,43.5
			c0,0,0.9-0.7,1.6,0C145,43.5,145.2,44.9,143.4,43.5"/>
		<path class="st0" d="M86,92c0.3-0.4,0.5-0.8,0.5-1.3c0-0.6-0.2-1.1-0.7-1.6c-0.4-0.4-1-0.6-1.6-0.6h-1.5c-0.2,0-0.3,0.1-0.3,0.3v7
			c0,0.2,0.1,0.3,0.3,0.3c0.2,0,0.3-0.1,0.3-0.3v-2.9c0.8,0,1.1,0,1.3,0l1.6,3.1C86,96,86.1,96,86.3,96c0.2,0,0.3-0.1,0.3-0.3
			c0-0.1,0-0.1-1.6-3C85.5,92.5,85.8,92.3,86,92 M83.1,89.1h1.2c0.4,0,0.8,0.1,1.1,0.5c0.3,0.3,0.5,0.7,0.5,1.1
			c0,0.4-0.2,0.8-0.5,1.1c-0.3,0.3-0.7,0.5-1.1,0.5h-1.2V89.1z"/>
		<path class="st0" d="M90.9,91.7c-0.6,0-1.1,0.2-1.5,0.7c-0.4,0.4-0.6,1-0.6,1.6c0,0.6,0.2,1.1,0.6,1.6c0.4,0.4,0.9,0.7,1.5,0.7
			c0.8,0,1.4-0.3,1.8-1c0-0.1,0-0.1,0-0.2c0-0.2-0.1-0.3-0.3-0.3c-0.1,0-0.2,0.1-0.3,0.2c-0.3,0.4-0.7,0.6-1.2,0.6
			c-0.4,0-0.7-0.1-1-0.4c-0.2-0.2-0.4-0.5-0.4-0.8h3.2c0.2,0,0.3-0.1,0.3-0.3c0-0.6-0.2-1.1-0.6-1.6C92,91.9,91.5,91.7,90.9,91.7
			 M90.9,92.3c0.4,0,0.7,0.1,1,0.4c0.2,0.2,0.4,0.5,0.4,0.8h-2.8c0.1-0.3,0.2-0.6,0.4-0.8C90.2,92.5,90.6,92.3,90.9,92.3"/>
		<path class="st0" d="M98.2,93.6l-1.4-0.3c-0.4-0.1-0.6-0.3-0.6-0.4c0-0.1,0-0.5,1-0.5c0.5,0,0.8,0.1,0.9,0.3
			c0.1,0.1,0.1,0.2,0.2,0.4c0,0.2,0.1,0.3,0.3,0.3c0.2,0,0.3-0.1,0.3-0.3c0-0.5-0.2-0.8-0.6-1.1c-0.3-0.2-0.7-0.3-1.2-0.3
			c-0.4,0-0.8,0.1-1.1,0.2c-0.4,0.2-0.6,0.5-0.6,0.9c0,0.3,0.1,0.8,0.9,1c0.3,0.1,0.7,0.2,1,0.2l0.4,0.1c0.6,0.2,0.6,0.5,0.6,0.6
			c0,0.2-0.1,0.4-0.4,0.6c-0.2,0.1-0.5,0.2-0.8,0.2c-1,0-1.1-0.5-1.1-0.8c0-0.3-0.2-0.4-0.3-0.4c-0.2,0-0.4,0.1-0.4,0.4
			c0,0.5,0.2,0.9,0.6,1.1c0.3,0.2,0.7,0.3,1.2,0.3c0.4,0,0.8-0.1,1.2-0.3c0.4-0.3,0.6-0.6,0.6-1.1C99,94.2,98.8,93.9,98.2,93.6"/>
		<path class="st0" d="M103.7,91.7H103v-1.1c0-0.2-0.1-0.3-0.3-0.3c-0.2,0-0.3,0.1-0.3,0.3v1.1h-0.7c-0.2,0-0.3,0.1-0.3,0.3
			c0,0.2,0.1,0.3,0.3,0.3h0.7v3.3c0,0.2,0.1,0.3,0.3,0.3c0.2,0,0.3-0.1,0.3-0.3v-3.3h0.7c0.2,0,0.3-0.1,0.3-0.3
			C104,91.9,103.9,91.7,103.7,91.7"/>
		<path class="st0" d="M109.9,91.7c-0.2,0-0.3,0.1-0.3,0.3v0.3c-0.4-0.4-0.9-0.7-1.5-0.7c-0.6,0-1.1,0.2-1.5,0.7
			c-0.4,0.4-0.6,1-0.6,1.6c0,0.6,0.2,1.1,0.6,1.6c0.4,0.4,0.9,0.7,1.5,0.7c0.6,0,1.1-0.2,1.5-0.7v0.2c0,0.2,0.1,0.3,0.3,0.3
			c0.2,0,0.3-0.1,0.3-0.3v-3.6C110.3,91.9,110.2,91.7,109.9,91.7 M107.1,92.8c0.3-0.3,0.6-0.5,1-0.5c0.4,0,0.7,0.2,1,0.5
			c0.3,0.3,0.4,0.7,0.4,1.1c0,0.4-0.1,0.8-0.4,1.1c-0.3,0.3-0.6,0.5-1,0.5c-0.4,0-0.7-0.2-1-0.5c-0.3-0.3-0.4-0.7-0.4-1.1
			C106.7,93.5,106.8,93.1,107.1,92.8"/>
		<path class="st0" d="M116,91.7c-0.2,0-0.3,0.1-0.3,0.3v1.4c0,2-0.9,2-1.2,2c-0.3,0-0.6-0.1-0.8-0.4c-0.2-0.2-0.3-0.5-0.3-0.9v-2.1
			c0-0.2-0.1-0.3-0.3-0.3c-0.2,0-0.3,0.1-0.3,0.3v2.1c0,0.5,0.2,1,0.4,1.3c0.3,0.4,0.7,0.6,1.3,0.6c0.5,0,0.9-0.2,1.2-0.6v0.1
			c0,0.2,0.1,0.3,0.3,0.3c0.2,0,0.3-0.1,0.3-0.3v-3.7C116.3,91.9,116.2,91.7,116,91.7"/>
		<path class="st0" d="M120.7,91.7c-0.3,0-0.6,0.1-0.9,0.3c-0.1,0.1-0.2,0.2-0.3,0.3v-0.2c0-0.2-0.1-0.3-0.3-0.3
			c-0.2,0-0.3,0.1-0.3,0.3v3.6c0,0.2,0.1,0.3,0.3,0.3c0.2,0,0.3-0.1,0.3-0.3v-1.6c0-0.5,0.1-0.8,0.3-1.1c0.2-0.3,0.5-0.5,1-0.6
			c0.2,0,0.3-0.2,0.3-0.3C121.1,91.9,121,91.7,120.7,91.7"/>
		<path class="st0" d="M126.9,91.7c-0.2,0-0.3,0.1-0.3,0.3v0.3c-0.4-0.4-0.9-0.7-1.5-0.7c-0.6,0-1.1,0.2-1.5,0.7
			c-0.4,0.4-0.6,1-0.6,1.6c0,0.6,0.2,1.1,0.6,1.6c0.4,0.4,0.9,0.7,1.5,0.7c0.6,0,1.1-0.2,1.5-0.7v0.2c0,0.2,0.1,0.3,0.3,0.3
			c0.2,0,0.3-0.1,0.3-0.3v-3.6C127.3,91.9,127.1,91.7,126.9,91.7 M124.1,92.8c0.3-0.3,0.6-0.5,1-0.5c0.4,0,0.7,0.2,1,0.5
			c0.3,0.3,0.4,0.7,0.4,1.1c0,0.4-0.1,0.8-0.4,1.1c-0.3,0.3-0.6,0.5-1,0.5c-0.4,0-0.7-0.2-1-0.5c-0.3-0.3-0.4-0.7-0.4-1.1
			C123.7,93.5,123.8,93.1,124.1,92.8"/>
		<path class="st0" d="M131.6,91.6c-0.5,0-0.9,0.2-1.2,0.5v-0.1c0-0.2-0.1-0.3-0.3-0.3c-0.2,0-0.3,0.1-0.3,0.3v3.6
			c0,0.2,0.1,0.3,0.3,0.3c0.2,0,0.3-0.1,0.3-0.3V94c0-0.5,0.1-0.9,0.3-1.2c0.2-0.3,0.5-0.5,0.9-0.5c0.3,0,0.6,0.1,0.7,0.4
			c0.2,0.3,0.3,0.5,0.3,0.9v2.1c0,0.2,0.1,0.3,0.3,0.3c0.2,0,0.3-0.1,0.3-0.3v-2.1c0-0.5-0.1-1-0.4-1.3
			C132.6,91.9,132.2,91.6,131.6,91.6"/>
		<path class="st0" d="M138,91.7h-0.7v-1.1c0-0.2-0.1-0.3-0.3-0.3c-0.2,0-0.3,0.1-0.3,0.3v1.1h-0.7c-0.2,0-0.3,0.1-0.3,0.3
			c0,0.2,0.1,0.3,0.3,0.3h0.7v3.3c0,0.2,0.1,0.3,0.3,0.3c0.2,0,0.3-0.1,0.3-0.3v-3.3h0.7c0.2,0,0.3-0.1,0.3-0.3
			C138.3,91.9,138.2,91.7,138,91.7"/>
		<path class="st0" d="M144.4,93.9c0-0.6-0.2-1.1-0.6-1.6c-0.4-0.4-0.9-0.7-1.5-0.7c-0.6,0-1.1,0.2-1.5,0.7c-0.4,0.4-0.6,1-0.6,1.6
			c0,0.6,0.2,1.1,0.6,1.6c0.4,0.4,0.9,0.7,1.5,0.7c0.8,0,1.4-0.3,1.8-1c0-0.1,0-0.1,0-0.2c0-0.2-0.1-0.3-0.3-0.3
			c-0.1,0-0.2,0.1-0.3,0.2c-0.3,0.4-0.7,0.6-1.2,0.6c-0.4,0-0.7-0.1-1-0.4c-0.2-0.2-0.4-0.5-0.4-0.8h3.2
			C144.2,94.3,144.4,94.1,144.4,93.9 M142.2,92.3c0.4,0,0.7,0.1,1,0.4c0.2,0.2,0.4,0.5,0.4,0.8h-2.8c0.1-0.3,0.2-0.6,0.4-0.8
			C141.5,92.5,141.9,92.3,142.2,92.3"/>
		<rect x="146.4" y="92.9" class="st0" width="7.7" height="0.7"/>
		<rect x="70.8" y="92.9" class="st0" width="9" height="0.7"/>
	</g>
</g>
</svg>
