<?xml version="1.0" encoding="utf-8"?>
<!-- Generator: Adobe Illustrator 24.0.1, SVG Export Plug-In . SVG Version: 6.00 Build 0)  -->
<svg version="1.1" id="Capa_1" xmlns="http://www.w3.org/2000/svg" xmlns:xlink="http://www.w3.org/1999/xlink" x="0px" y="0px"
	 viewBox="0 0 225 110" style="enable-background:new 0 0 225 110;" xml:space="preserve">
<style type="text/css">
	.st0{fill:#5CAD41;}
	.st1{fill:#7CB63E;}
	.st2{fill:#A6C535;}
	.st3{fill:#BECE2C;}
	.st4{fill:#F5A81E;}
	.st5{fill:#008C44;}
	.st6{fill:#009944;}
	.st7{fill:#31A445;}
	.st8{fill:#53AB42;}
	.st9{fill:#BFC1BF;}
</style>
<g>
	<path class="st0" d="M38.27,68.29c0,1.93-1.57,3.5-3.5,3.5c-1.93,0-3.41-1.83-3.85-3.71l-1.4-6.99l9.99-8.16L38.27,68.29z"/>
	<path class="st1" d="M49.09,68.38c1.27,1.39,1.17,3.56-0.22,4.83c-1.39,1.27-3.67,0.93-5.22-0.14l-5.46-3.98l1.02-12.67
		L49.09,68.38z"/>
	<path class="st2" d="M56.77,59.8c1.87,0.01,3.39,1.54,3.39,3.43c0,1.89-1.78,3.33-3.61,3.76l-7.37,1.52l-7.84-9.48L56.77,59.8z"/>
	<path class="st3" d="M56.38,50.04c1.33-1.32,3.34-1.43,4.68-0.09c1.33,1.34,1.1,3.61,0.11,5.2l-3.36,4.74l-12.28-0.64L56.38,50.04z
		"/>
	<path class="st4" d="M49.04,42.37c0.01-1.88,1.56-3.39,3.48-3.39c1.91,0,3.38,1.78,3.81,3.6l1.02,6.78l-9.49,7.94L49.04,42.37z"/>
	<path class="st5" d="M38.1,41.78c-1.32-1.33-1.29-3.5,0.06-4.86c1.36-1.35,3.65-1.13,5.25-0.15l5.84,4.53l-1.1,12.57L38.1,41.78z"
		/>
	<path class="st6" d="M30.26,49.63c-1.87,0-3.38-1.56-3.37-3.48c0-1.93,1.77-3.39,3.58-3.83l7.19-1.08l7.97,9.58L30.26,49.63z"/>
	<path class="st7" d="M30.06,60.67c-1.44,1.32-3.47,1.32-4.79-0.01c-1.32-1.33-1.08-3.6-0.09-5.18l4.52-5.9l12.74,1L30.06,60.67z"/>
	<path class="st8" d="M81.73,49.09c-1.62,0-3.77,0.53-5.07,1.94c-0.99-1.26-2.78-2.01-4.92-2.01c-1.63,0-3.04,0.4-4.15,1.16v-0.13
		c0-0.32-0.26-0.57-0.58-0.57h-1.77c-0.32,0-0.58,0.26-0.58,0.57v16.83c0,0.32,0.26,0.58,0.58,0.58h1.77c0.32,0,0.58-0.26,0.58-0.58
		V54.73c0-1.8,1.98-2.94,3.99-3c1.65,0,3.37,0.8,3.48,2.55v12.59c0,0.32,0.26,0.58,0.58,0.58h1.73c0.32,0,0.58-0.26,0.58-0.58
		l0-12.55c0.12-1.84,2.09-2.49,3.74-2.49c1.72,0,3.73,0.69,3.73,2.63v12.41c0,0.32,0.26,0.58,0.58,0.58h1.77
		c0.32,0,0.57-0.26,0.57-0.58V54.49C88.36,50.81,85.04,49.12,81.73,49.09"/>
	<path class="st8" d="M94.45,60.98c0.62,0.02,1.28,0.05,1.96,0.05c1.55,0,3.54-0.11,5.15-0.99c2.11-1.11,3.27-3.25,3.05-5.58
		c-0.24-2.41-1.86-4.36-4.24-5.07c-1.72-0.48-3.62-0.48-5.35,0c-2.81,0.77-4.42,2.56-4.42,4.89V62c0,1.16,0.29,2.13,0.88,2.99
		c0.96,1.29,2.65,2.2,4.64,2.51c0.49,0.09,0.97,0.12,1.46,0.12c0.55,0,1.12-0.05,1.75-0.15c2.32-0.37,3.92-1.31,4.89-2.88
		c0.08-0.13,0.1-0.29,0.07-0.44c-0.03-0.15-0.13-0.28-0.26-0.35l-1.5-0.91c-0.26-0.16-0.59-0.09-0.77,0.16
		c-0.6,0.85-1.56,1.37-2.87,1.54c-0.87,0.16-1.65,0.16-2.54,0c-1.09-0.18-2.04-0.68-2.51-1.32c-0.23-0.33-0.32-0.66-0.32-1.14v-1.19
		C93.82,60.96,94.13,60.97,94.45,60.98 M93.52,58.25v-3.97c0-1.35,1.58-1.93,2.25-2.12c1.21-0.32,2.63-0.32,3.84,0
		c1.24,0.35,2.1,1.38,2.21,2.63c0.1,1.19-0.5,2.2-1.61,2.72c-1.73,0.83-4.28,0.77-5.97,0.75L93.52,58.25z"/>
	<path class="st8" d="M119.43,49.26h-1.77c-0.32,0-0.58,0.26-0.58,0.58v2.16c0,0.61-0.03,0.71-0.45,1.08l-3.61,3.46l-3.62-3.46
		c-0.39-0.37-0.44-0.49-0.44-1.07v-2.16c0-0.32-0.26-0.58-0.58-0.58h-1.74c-0.32,0-0.57,0.26-0.57,0.58v2.16
		c0,1.33,0.22,2.13,1.53,3.37l3.14,2.99l-3.14,2.99c-1.31,1.24-1.53,2.07-1.53,3.38v2.16c0,0.32,0.26,0.57,0.57,0.57h1.74
		c0.32,0,0.58-0.26,0.58-0.57v-2.16c0-0.57,0.07-0.72,0.45-1.08l3.62-3.46l3.64,3.48c0.4,0.35,0.43,0.48,0.43,1.06v2.16
		c0,0.32,0.26,0.57,0.58,0.57h1.77c0.32,0,0.57-0.26,0.57-0.57v-2.16c0-1.28-0.23-2.1-1.53-3.38l-3.17-2.99l3.18-3
		c1.3-1.26,1.53-2.09,1.53-3.37v-2.16C120,49.51,119.75,49.26,119.43,49.26"/>
	<path class="st9" d="M128.63,57.14c-2.71-0.35-4.36-0.68-4.33-2.45c0-1.41,1.44-2.04,2.29-2.3c0.69-0.2,1.44-0.3,2.18-0.3
		c1.05,0,2.95,0.23,3.84,1.74c0.08,0.14,0.21,0.23,0.36,0.27c0.16,0.03,0.31,0.01,0.44-0.08l1.39-0.9c0.24-0.16,0.33-0.46,0.21-0.72
		c-0.91-2.03-3.21-3.2-6.32-3.2c-1,0-2,0.13-2.89,0.38c-2.77,0.82-4.38,2.68-4.41,5.1c-0.04,4.48,3.58,4.95,6.83,5.37
		c2.71,0.35,4.35,0.69,4.33,2.45c0,1.41-1.6,2-2.29,2.19c-0.67,0.19-1.44,0.29-2.18,0.29c-1.27,0-3.54-0.3-4.4-2.35
		c-0.06-0.16-0.2-0.28-0.36-0.33c-0.16-0.05-0.34-0.03-0.48,0.07l-1.49,0.97c-0.22,0.15-0.32,0.42-0.23,0.67
		c0.99,2.86,4.29,3.87,7.05,3.87c1.01,0,2-0.13,2.87-0.38c2.77-0.78,4.38-2.6,4.42-5C135.5,58.05,131.86,57.57,128.63,57.14"/>
	<path class="st9" d="M153.14,64.99c-2.64-0.07-3.89-0.5-3.89-2.69V52.19c1.19-0.02,2.35-0.02,3.55-0.02h0.01
		c0.32,0,0.58-0.26,0.58-0.58v-1.56c0-0.32-0.26-0.58-0.58-0.58h-3.56v-6.76c0-0.32-0.26-0.58-0.57-0.58h-1.74
		c-0.32,0-0.58,0.26-0.58,0.58v6.76h-1.64h-0.78h-2.78v-6.76c0-0.32-0.26-0.58-0.58-0.58h-1.73c-0.32,0-0.57,0.26-0.57,0.58v6.76
		h-1.79c-0.32,0-0.57,0.26-0.57,0.58v1.56c0,0.32,0.26,0.58,0.57,0.58h1.79v10.17c0,3.45,2.24,5.43,6.16,5.43
		c0.21,0,0.42-0.01,0.63-0.02c0.3-0.02,0.54-0.27,0.54-0.57v-1.6c0-0.31-0.25-0.56-0.56-0.57c-2.64-0.07-3.89-0.5-3.89-2.69V52.19
		c1.19-0.02,2.35-0.02,3.55-0.02h1.65v10.17c0,3.45,2.25,5.43,6.16,5.43c0.21,0,0.42-0.01,0.63-0.02c0.31-0.02,0.55-0.27,0.55-0.57
		v-1.6C153.7,65.26,153.46,65,153.14,64.99"/>
	<path class="st9" d="M164.68,49.62c-1.62-0.5-3.68-0.51-5.39-0.01c-2.75,0.72-4.39,2.55-4.39,4.89v8.07c0,2.59,2.04,4.56,5.32,5.12
		c0.61,0.09,1.22,0.14,1.82,0.14c1.09,0,2.14-0.16,3.12-0.48c2.51-0.87,3.9-2.57,3.9-4.79v-8.07
		C169.06,52.17,167.41,50.34,164.68,49.62 M166.16,54.51v8.07c0,1.27-1.36,1.86-1.94,2.06c-0.7,0.24-1.46,0.36-2.26,0.36
		c-0.42,0-0.86-0.03-1.28-0.1c-1.34-0.23-2.89-0.98-2.89-2.32v-8.07c0-1.3,1.41-1.88,2.25-2.12c0.64-0.17,1.3-0.26,1.94-0.26
		c0.64,0,1.29,0.09,1.93,0.26C164.59,52.58,166.16,53.17,166.16,54.51"/>
	<path class="st9" d="M175.72,52.43c1.32-0.35,2.62-0.34,3.84,0c0.69,0.18,2.29,0.77,2.29,2.15c0,0.32,0.26,0.58,0.58,0.58h1.74
		c0.32,0,0.58-0.26,0.58-0.58c0-2.35-1.6-4.14-4.4-4.94c-2-0.49-3.52-0.47-5.37,0c-2.74,0.77-4.38,2.61-4.38,4.93v7.97
		c0,2.38,1.64,4.25,4.39,5.01c0.86,0.22,1.76,0.33,2.68,0.33c0.92,0,1.82-0.11,2.68-0.33c0.06-0.02,0.12-0.04,0.18-0.08
		c2.64-0.76,4.22-2.57,4.22-4.86c0-0.32-0.26-0.58-0.58-0.58h-1.74c-0.32,0-0.58,0.26-0.58,0.58c0,1.38-1.57,1.97-2.13,2.13
		c-0.05,0-0.1,0.01-0.15,0.02c-1.17,0.32-2.68,0.31-3.83,0c-0.84-0.24-2.26-0.86-2.26-2.23v-7.93
		C173.48,53.19,175.05,52.61,175.72,52.43"/>
	<path class="st9" d="M194.04,56.7l5.86-5.43c0.12-0.11,0.18-0.26,0.18-0.42v-0.18c0-0.32-0.26-0.57-0.57-0.57h-2.33
		c-0.15,0-0.29,0.05-0.39,0.15l-7.41,6.92V42.64c0-0.32-0.26-0.58-0.58-0.58h-1.74c-0.32,0-0.58,0.26-0.58,0.58v24.47
		c0,0.32,0.26,0.58,0.58,0.58h1.74c0.32,0,0.58-0.26,0.58-0.58v-5.18c0-0.53,0.1-0.88,0.33-1.22c0.63-0.83,2.16-1.37,3.89-1.37
		c1.96,0,4.11,0.75,4.16,2.45v5.32c0,0.32,0.26,0.58,0.57,0.58h1.73c0.32,0,0.58-0.26,0.58-0.58V61.8v-0.16
		C200.54,58.37,197.26,56.73,194.04,56.7"/>
</g>
</svg>
