<?xml version="1.0" encoding="utf-8"?>
<!-- Generator: Adobe Illustrator 24.0.1, SVG Export Plug-In . SVG Version: 6.00 Build 0)  -->
<svg version="1.1" id="Capa_1" xmlns="http://www.w3.org/2000/svg" xmlns:xlink="http://www.w3.org/1999/xlink" x="0px" y="0px"
	 viewBox="0 0 225 110" style="enable-background:new 0 0 225 110;" xml:space="preserve">
<style type="text/css">
	.st0{fill:#051C2C;}
	.st1{fill:#CB3533;}
</style>
<g>
	<path class="st0" d="M126.6,73.8v3.3h0.4c0.1,0,0.3,0,0.3-0.1s0.1-0.2,0.2-0.4c0-0.1,0.1-0.2,0.1-0.3c0,0,0.1,0,0.1,0h0.3
		c0.1,0,0.1,0,0.1,0.1v2c0,0.1,0,0.1-0.1,0.1h-0.3c-0.1,0-0.1,0-0.1,0c0,0,0-0.1-0.1-0.2c-0.1-0.3-0.1-0.4-0.2-0.5
		c-0.1-0.1-0.2-0.1-0.3-0.1h-0.4v3.1c0,0.2,0.1,0.3,0.2,0.4c0.1,0.1,0.1,0.1,0.1,0.2v0.3c0,0.1,0,0.1-0.1,0.1h-1.8
		c-0.1,0-0.1,0-0.1-0.1v-0.3c0-0.1,0-0.2,0.1-0.2c0.1-0.1,0.2-0.2,0.2-0.4v-6.7c0-0.2-0.1-0.3-0.2-0.4c-0.1-0.1-0.2-0.1-0.2-0.2
		v-0.3c0-0.1,0-0.1,0.1-0.1h2.9c0.1,0,0.2,0,0.4,0c0.1,0,0.2,0,0.2,0c0.1,0,0.1,0,0.2,0c0,0,0,0.1,0,0.1V75c0,0.1-0.1,0.1-0.2,0.1
		h-0.2c-0.1,0-0.1,0-0.1,0c0,0,0-0.1-0.1-0.3c-0.1-0.4-0.2-0.6-0.3-0.8c-0.1-0.1-0.4-0.2-0.7-0.2H126.6z"/>
	<path class="st0" d="M131.3,77.8v3.1c0,0.2,0.1,0.3,0.2,0.4c0.1,0.1,0.1,0.1,0.1,0.2v0.3c0,0.1,0,0.1-0.1,0.1h-1.8
		c-0.1,0-0.1,0-0.1-0.1v-0.3c0-0.1,0-0.2,0.1-0.2c0.1-0.1,0.2-0.2,0.2-0.4v-6.7c0-0.2-0.1-0.3-0.2-0.4c-0.1-0.1-0.1-0.1-0.1-0.2
		v-0.3c0-0.1,0-0.1,0.1-0.1h1.5c0.8,0,1.5,0.2,1.9,0.6s0.7,0.9,0.7,1.6c0,1.1-0.5,1.9-1.6,2.2c0.3,0.2,0.5,0.3,0.7,0.5
		c0.2,0.2,0.3,0.5,0.4,0.8l0.4,1.8c0.1,0.2,0.1,0.4,0.2,0.5c0.1,0.1,0.1,0.2,0.3,0.2c0,0,0.1,0.1,0.1,0.1v0.3c0,0.1,0,0.1-0.1,0.1
		H133c-0.1,0-0.2-0.1-0.2-0.2l-0.8-3.1c-0.1-0.3-0.2-0.6-0.3-0.7C131.6,77.9,131.5,77.8,131.3,77.8z M131.3,73.8v3.3
		c0.4,0,0.7-0.1,0.9-0.4c0.2-0.3,0.3-0.7,0.3-1.4c0-0.6-0.1-1.1-0.3-1.3S131.7,73.8,131.3,73.8z"/>
	<path class="st0" d="M136.7,74.3l-0.1-0.4c0-0.1,0-0.2,0-0.2c0,0,0-0.1,0.1-0.1l1-0.4c0,0,0,0,0.1,0c0.1,0,0.1,0,0.1,0.1l1.5,7.7
		c0,0.1,0.1,0.2,0.1,0.3c0,0.1,0.1,0.1,0.2,0.2c0.1,0.1,0.1,0.1,0.1,0.2v0.3c0,0.1,0,0.1-0.1,0.1h-1.9c-0.1,0-0.2,0-0.2-0.1v-0.3
		c0-0.1,0.1-0.2,0.2-0.2c0.1-0.1,0.2-0.2,0.2-0.3c0,0,0-0.1,0-0.1l-0.2-1.2h-1.5l-0.2,1.1c0,0,0,0.1,0,0.1c0,0.1,0.1,0.2,0.3,0.4
		c0.1,0.1,0.2,0.2,0.2,0.2v0.3c0,0.1-0.1,0.1-0.2,0.1h-1.2c-0.1,0-0.2,0-0.2-0.1v-0.3c0-0.1,0-0.1,0.1-0.2c0.2-0.1,0.3-0.3,0.3-0.5
		L136.7,74.3z M137.1,76.1l-0.6,2.9h1.2L137.1,76.1z"/>
	<path class="st0" d="M144.5,79.8c0,0.7-0.2,1.3-0.5,1.7c-0.3,0.4-0.7,0.6-1.2,0.6c-0.7,0-1.3-0.4-1.7-1.1c-0.4-0.8-0.6-1.9-0.6-3.4
		c0-1.5,0.2-2.6,0.6-3.4c0.4-0.8,0.9-1.2,1.6-1.2c0.3,0,0.6,0.1,0.9,0.3c0,0,0.1,0,0.1,0c0,0,0.1,0,0.1-0.1c0,0,0.1-0.1,0.1-0.1h0.3
		c0.1,0,0.1,0.1,0.1,0.2v1.9c0,0.1,0,0.2-0.1,0.2H144c-0.1,0-0.1,0-0.2-0.1c0,0-0.1-0.2-0.1-0.3c-0.2-0.9-0.5-1.3-0.9-1.3
		c-0.2,0-0.4,0.1-0.5,0.3s-0.2,0.7-0.3,1.3c-0.1,0.6-0.1,1.3-0.1,1.9c0,1.4,0.1,2.4,0.2,3.1c0.2,0.7,0.4,1,0.8,1
		c0.5,0,0.8-0.5,0.9-1.6L144.5,79.8z"/>
	<path class="st0" d="M149.5,79.8c0,0.7-0.2,1.3-0.5,1.7c-0.3,0.4-0.7,0.6-1.2,0.6c-0.7,0-1.3-0.4-1.7-1.1c-0.4-0.8-0.6-1.9-0.6-3.4
		c0-1.5,0.2-2.6,0.6-3.4c0.4-0.8,0.9-1.2,1.6-1.2c0.3,0,0.6,0.1,0.9,0.3c0,0,0.1,0,0.1,0c0,0,0.1,0,0.1-0.1c0,0,0.1-0.1,0.1-0.1h0.3
		c0.1,0,0.1,0.1,0.1,0.2v1.9c0,0.1,0,0.2-0.1,0.2h-0.2c-0.1,0-0.1,0-0.2-0.1c0,0-0.1-0.2-0.1-0.3c-0.2-0.9-0.5-1.3-0.9-1.3
		c-0.2,0-0.4,0.1-0.5,0.3s-0.2,0.7-0.3,1.3c-0.1,0.6-0.1,1.3-0.1,1.9c0,1.4,0.1,2.4,0.2,3.1c0.2,0.7,0.4,1,0.8,1
		c0.5,0,0.8-0.5,0.9-1.6L149.5,79.8z"/>
	<path class="st0" d="M152.1,80.9c0,0.2,0.1,0.3,0.2,0.4c0.1,0.1,0.1,0.1,0.1,0.2v0.3c0,0.1,0,0.1-0.1,0.1h-1.8
		c-0.1,0-0.1,0-0.1-0.1v-0.3c0-0.1,0-0.2,0.1-0.2c0.1-0.1,0.2-0.2,0.2-0.4v-6.7c0-0.2-0.1-0.3-0.2-0.4c-0.1-0.1-0.1-0.1-0.1-0.2
		v-0.3c0-0.1,0-0.1,0.1-0.1h1.8c0.1,0,0.1,0,0.1,0.1v0.3c0,0.1,0,0.2-0.1,0.2c-0.1,0.1-0.2,0.2-0.2,0.4V80.9z"/>
	<path class="st0" d="M155.8,82.1c-0.8,0-1.4-0.4-1.8-1.2c-0.4-0.8-0.6-1.9-0.6-3.3c0-1.4,0.2-2.5,0.6-3.3c0.4-0.8,1-1.2,1.7-1.2
		c0.7,0,1.3,0.4,1.7,1.1c0.4,0.8,0.6,1.9,0.6,3.4c0,1.5-0.2,2.7-0.6,3.4S156.5,82.1,155.8,82.1z M155.8,81.5c0.2,0,0.3-0.1,0.5-0.3
		c0.1-0.2,0.2-0.8,0.3-1.8c0.1-1,0.1-1.9,0.1-2.7c0-0.7,0-1.3-0.1-1.8c-0.1-0.5-0.2-0.8-0.3-0.9c-0.1-0.1-0.2-0.2-0.4-0.2
		c-0.1,0-0.3,0.1-0.4,0.2s-0.2,0.3-0.3,0.6S155,75.2,155,76c0,0.8-0.1,1.6-0.1,2.5c0,1.1,0.1,1.8,0.2,2.3
		C155.3,81.2,155.5,81.5,155.8,81.5z"/>
	<path class="st0" d="M162.5,77.9v-3.7c0-0.2-0.1-0.3-0.2-0.4c-0.1-0.1-0.1-0.1-0.1-0.2v-0.3c0-0.1,0-0.1,0.1-0.1h1.3
		c0.1,0,0.1,0,0.1,0.1v0.3c0,0.1,0,0.2-0.1,0.2c-0.1,0.1-0.2,0.2-0.2,0.4v7.6c0,0.1-0.1,0.2-0.2,0.2h-0.3c-0.1,0-0.2-0.1-0.2-0.2
		l-2.4-6.2v5.3c0,0.2,0.1,0.3,0.2,0.4c0.1,0.1,0.1,0.1,0.1,0.2v0.3c0,0.1,0,0.1-0.1,0.1h-1.3c-0.1,0-0.1,0-0.1-0.1v-0.3
		c0-0.1,0-0.2,0.1-0.2c0.1-0.1,0.2-0.2,0.2-0.4v-6.7c0-0.2-0.1-0.3-0.2-0.4c-0.1-0.1-0.1-0.1-0.1-0.2v-0.3c0-0.1,0-0.1,0.1-0.1h1.2
		c0.1,0,0.1,0,0.2,0c0,0,0.1,0.1,0.1,0.2L162.5,77.9z"/>
	<path class="st0" d="M166.2,74.3l-0.1-0.4c0-0.1,0-0.2,0-0.2c0,0,0-0.1,0.1-0.1l1-0.4c0,0,0,0,0.1,0c0.1,0,0.1,0,0.1,0.1l1.5,7.7
		c0,0.1,0.1,0.2,0.1,0.3c0,0.1,0.1,0.1,0.2,0.2c0.1,0.1,0.1,0.1,0.1,0.2v0.3c0,0.1,0,0.1-0.1,0.1h-1.9c-0.1,0-0.2,0-0.2-0.1v-0.3
		c0-0.1,0.1-0.2,0.2-0.2c0.1-0.1,0.2-0.2,0.2-0.3c0,0,0-0.1,0-0.1l-0.2-1.2h-1.5l-0.2,1.1c0,0,0,0.1,0,0.1c0,0.1,0.1,0.2,0.3,0.4
		c0.1,0.1,0.2,0.2,0.2,0.2v0.3c0,0.1-0.1,0.1-0.2,0.1h-1.2c-0.1,0-0.2,0-0.2-0.1v-0.3c0-0.1,0-0.1,0.1-0.2c0.2-0.1,0.3-0.3,0.3-0.5
		L166.2,74.3z M166.6,76.1L166,79h1.2L166.6,76.1z"/>
	<path class="st0" d="M170.5,80.9v-6.7c0-0.2-0.1-0.3-0.2-0.4c-0.1-0.1-0.1-0.1-0.1-0.2v-0.3c0-0.1,0-0.1,0.1-0.1h2l0.6,4.1l0.6-4.1
		h2.1c0.1,0,0.1,0,0.1,0.1v0.3c0,0.1,0,0.2-0.1,0.2c-0.1,0.1-0.2,0.2-0.2,0.4v6.7c0,0.2,0.1,0.3,0.2,0.4c0.1,0.1,0.1,0.1,0.1,0.2
		v0.3c0,0.1,0,0.1-0.1,0.1h-1.7c-0.1,0-0.1,0-0.1-0.1v-0.3c0-0.1,0-0.2,0.1-0.2c0.1-0.1,0.2-0.3,0.2-0.4V74L173,82h-0.5l-1.2-7.9
		v6.9c0,0.2,0.1,0.3,0.2,0.4c0.1,0.1,0.1,0.1,0.1,0.2v0.3c0,0.1,0,0.1-0.1,0.1h-1.3c-0.1,0-0.1,0-0.1-0.1v-0.3c0-0.1,0-0.2,0.1-0.2
		C170.4,81.2,170.5,81.1,170.5,80.9z"/>
	<path class="st0" d="M178.4,80.9c0,0.2,0.1,0.3,0.2,0.4c0.1,0.1,0.1,0.1,0.1,0.2v0.3c0,0.1,0,0.1-0.1,0.1h-1.8
		c-0.1,0-0.1,0-0.1-0.1v-0.3c0-0.1,0-0.2,0.1-0.2c0.1-0.1,0.2-0.2,0.2-0.4v-6.7c0-0.2-0.1-0.3-0.2-0.4c-0.1-0.1-0.1-0.1-0.1-0.2
		v-0.3c0-0.1,0-0.1,0.1-0.1h1.8c0.1,0,0.1,0,0.1,0.1v0.3c0,0.1,0,0.2-0.1,0.2c-0.1,0.1-0.2,0.2-0.2,0.4V80.9z"/>
	<path class="st0" d="M183.7,82h-3.9c-0.1,0-0.1,0-0.1-0.1v-0.3c0-0.1,0.1-0.2,0.2-0.3c0.1-0.1,0.2-0.2,0.2-0.4v-6.7
		c0-0.2-0.1-0.3-0.2-0.4c-0.1-0.1-0.1-0.1-0.1-0.2v-0.3c0-0.1,0-0.1,0.1-0.1h2.9c0.1,0,0.2,0,0.3,0c0.1,0,0.2,0,0.2,0
		c0.1,0,0.2,0,0.2,0.1v1.7c0,0.1,0,0.1,0,0.2c0,0-0.1,0-0.1,0h-0.2c-0.1,0-0.1-0.1-0.2-0.2c0-0.3-0.1-0.5-0.2-0.8
		c-0.1-0.2-0.3-0.3-0.6-0.3h-0.7V77h0.3c0.2,0,0.3,0,0.3-0.1s0.1-0.3,0.2-0.6c0-0.1,0.1-0.2,0.1-0.2c0,0,0,0,0.1,0h0.2
		c0.1,0,0.1,0,0.1,0.1v2.1c0,0.1,0,0.1-0.1,0.1h-0.3c-0.1,0-0.1,0-0.1,0s-0.1-0.1-0.1-0.3c-0.1-0.3-0.1-0.4-0.2-0.5
		c-0.1-0.1-0.2-0.1-0.3-0.1h-0.2v3.6h0.8c0.3,0,0.5-0.1,0.6-0.2c0.1-0.1,0.2-0.5,0.4-1.1c0-0.1,0.1-0.2,0.2-0.2h0.2
		c0.1,0,0.1,0,0.1,0.1V82z"/>
	<path class="st0" d="M187.9,77.9v-3.7c0-0.2-0.1-0.3-0.2-0.4c-0.1-0.1-0.1-0.1-0.1-0.2v-0.3c0-0.1,0-0.1,0.1-0.1h1.3
		c0.1,0,0.1,0,0.1,0.1v0.3c0,0.1,0,0.2-0.1,0.2c-0.1,0.1-0.2,0.2-0.2,0.4v7.6c0,0.1-0.1,0.2-0.2,0.2h-0.3c-0.1,0-0.2-0.1-0.2-0.2
		l-2.4-6.2v5.3c0,0.2,0.1,0.3,0.2,0.4c0.1,0.1,0.1,0.1,0.1,0.2v0.3c0,0.1,0,0.1-0.1,0.1h-1.3c-0.1,0-0.1,0-0.1-0.1v-0.3
		c0-0.1,0-0.2,0.1-0.2c0.1-0.1,0.2-0.2,0.2-0.4v-6.7c0-0.2-0.1-0.3-0.2-0.4c-0.1-0.1-0.1-0.1-0.1-0.2v-0.3c0-0.1,0-0.1,0.1-0.1h1.2
		c0.1,0,0.1,0,0.2,0c0,0,0.1,0.1,0.1,0.2L187.9,77.9z"/>
	<path class="st0" d="M192.7,73.8v7.1c0,0.2,0.1,0.3,0.2,0.4c0.1,0.1,0.1,0.1,0.1,0.2v0.3c0,0.1,0,0.1-0.1,0.1h-1.8
		c-0.1,0-0.1,0-0.1-0.1v-0.3c0-0.1,0-0.2,0.1-0.2c0.1-0.1,0.2-0.2,0.2-0.4v-7.1h-0.3c-0.2,0-0.3,0.1-0.4,0.2s-0.2,0.4-0.2,0.9
		c0,0.1,0,0.1-0.1,0.1h-0.2c-0.1,0-0.2-0.1-0.2-0.2v-1.6c0-0.1,0.1-0.2,0.2-0.2c0.1,0,0.2,0,0.4,0c0.3,0,0.5,0.1,0.7,0.1h2
		c0.1,0,0.2,0,0.4-0.1c0.2,0,0.4-0.1,0.4-0.1c0.1,0,0.2,0,0.2,0.1v1.7c0,0.1,0,0.2-0.1,0.2h-0.2c-0.1,0-0.1,0-0.2-0.1
		c0,0,0-0.2-0.1-0.4c-0.1-0.3-0.1-0.5-0.2-0.6c-0.1-0.1-0.2-0.2-0.4-0.2H192.7z"/>
	<path class="st0" d="M197.4,82.1c-0.8,0-1.4-0.4-1.8-1.2c-0.4-0.8-0.6-1.9-0.6-3.3c0-1.4,0.2-2.5,0.6-3.3c0.4-0.8,1-1.2,1.7-1.2
		c0.7,0,1.3,0.4,1.7,1.1c0.4,0.8,0.6,1.9,0.6,3.4c0,1.5-0.2,2.7-0.6,3.4S198.1,82.1,197.4,82.1z M197.4,81.5c0.2,0,0.3-0.1,0.5-0.3
		c0.1-0.2,0.2-0.8,0.3-1.8c0.1-1,0.1-1.9,0.1-2.7c0-0.7,0-1.3-0.1-1.8c-0.1-0.5-0.2-0.8-0.3-0.9c-0.1-0.1-0.2-0.2-0.4-0.2
		c-0.1,0-0.3,0.1-0.4,0.2s-0.2,0.3-0.3,0.6s-0.1,0.8-0.2,1.6c0,0.8-0.1,1.6-0.1,2.5c0,1.1,0.1,1.8,0.2,2.3
		C196.9,81.2,197.1,81.5,197.4,81.5z"/>
</g>
<g>
	<path class="st1" d="M51.5,46.4c1.1,0.4,3.2,0.6,5.6-4.3c1,1.4,2.3,3.8,5.7,3.8c0.9-0.1,1.8-1.1,2.5-2.7c0.2,0.9,0.6,1.5,1.3,1.6
		c0.4,0.2,1.7,0.3,2.9-1.2c0.2,0.5,0.3,3.4,2.4,2.4c0.5-0.6,2.8-0.8,4.4-7.3c0,0,0.1-0.4-0.2-0.6c-0.2-0.3-0.4,0.1-0.4,0.1
		c-0.9,3.6-2.5,6.2-3.6,6.8c-0.2,0.1-1,0.4-0.5-3.3c0.2-0.6-0.2-1.2-0.7-1.6c-0.4-0.4-0.9-0.1-1.2,1.6c-0.2,0.9-1.1,2.1-1.8,2.2
		c-0.6,0-0.4-5.4,1.8-7.6c0,0,0.9-0.6,1,2.7l0.5-0.2c0.1-0.7-0.7-4.5-3.4-3.3c-0.7,0.3-1.4,1.3-1.8,2.6c0,0,0,0.1,0,0.1
		c-0.4,1-0.6,2.1-0.7,3.1c-0.5,1.7-1.3,3.5-2.8,3.6c-1.4,0-3.3-3.3-4.4-4.4c0.8-2.4,2.4-7.8,2.5-8.5c0.7-0.1,5.6-1.5,2.9-4.8
		c-0.7-0.9-3.6-1-5.4,4.1c-2.2,0.5-3.6-1.3-4-2.4c-0.4-1.1-1.1,0-0.6,0.7c0.9,1.5,1.8,2.8,4.3,2.7c-0.6,2.8-1.4,4.7-2.2,6.8
		C50,35.6,45.3,43.4,51.5,46.4z M63,27.7c0.8,0.9,0.2,2.8-2.3,3.3C60.8,30.3,62,26.4,63,27.7z M55.1,40c-0.5,1.9-3.5,7.7-5.6,3.3
		C48.8,41.8,50.6,36.7,55.1,40z"/>
	<path class="st1" d="M197.9,36.8c-4-0.9-4.6,4.2-5.1,5.6c-0.7-0.4-1.8-0.9-3-1.3c0.4-1.9,0.8-4.1,0.5-4.2c-2.3-0.6-3.5,1.7-4.1,3.5
		c-2.3-0.1-4.7,0.4-6.6,2.3c-0.6,0.6,0.4,1,0.5,0.8c1.1-1.5,3.4-2,5.8-2c-0.1,0.6-0.2,1-0.2,1l-0.2,1c0,0-2.6,19-2.1,20.5
		c1.5,4.8,3.4,4.1,3.4,2.9c0-0.7,0.1-1.4,0.1-2c0.2-3.2,0.4-6.4,0.7-9.6c0.3-3.1,0.6-6.1,1.2-9.2c0.1-0.7,0.3-1.5,0.5-2.2
		c0-0.2,0.2-0.9,0.4-1.8c1.2,0.3,2.3,0.8,3,1.4c0,1.5-2.8,19.1-2.3,20.7c1.6,4.8,3.7,4.1,3.7,2.9c0.1-1.7,0.3-9.9,2.1-21.7
		C200.7,46.1,203.9,38.1,197.9,36.8z M196.2,44c0.2-1.5,0.5-6.3,2.7-5.4C200.7,39.3,199.9,44.6,196.2,44z"/>
	<path class="st1" d="M31.6,38.1c-3.5,0.3-6.4,2.2-7.4,3.4c-1,1.1,0,1.6,0.7,1.1c2.5-1.8,2.8-2.3,6.4-2.9c4.4-0.7,11.3,1.2,11,7.4
		c-0.3,5-1.5,8.2-7.5,6.8c0.3-0.8,1.2-9.2-0.6-12c-0.2-0.3-2.4,0.2-2.7,1.8c-1.5,4.8-1.3,8-1.7,12.8c0.1,0.1-0.5,13,0.1,14.3
		c0,1.7,2.8,2,3.4,1.7c0.5-0.2,1.5-17.4,1.5-17.4c9.8,1.6,11.2-3.4,11.6-6.9C46.6,46,46.6,36.9,31.6,38.1z"/>
	<path class="st1" d="M155.9,49.5c0.3-0.3,0.3-1.3,0.4-1.9c-0.1-1-2.2-1.6-3-1.7c0,0-1.4,0.8-0.2,3.1
		C153.2,49.2,155.7,49.8,155.9,49.5z"/>
	<path class="st1" d="M179.5,54.5c-0.3-0.4-0.7,0.1-0.7,0.1c-1.4,6.1-4.1,10.3-6,11.4c-0.4,0.2-1.6,0.6-0.9-5.4c0.3-1-0.3-2-1.2-2.7
		c-0.6-0.6-1.5-0.2-2.1,2.6c-0.3,1.5-1.8,3.5-3,3.6c-1-0.1-0.7-9,3-12.6c0,0,1.4-1.1,1.7,4.5l0.8-0.4c0.2-1.2-1.1-7.5-5.6-5.4
		c-1.2,0.5-2.2,2.2-3,4.2c-0.1,0-0.2,0-0.2,0c0,0.3-0.1,0.7-0.2,1c-0.4,1.4-0.8,2.9-0.9,4.3c-2.7,10.7-7,9.4-6.9,5.6
		c0.2-3.6,0.4-6.9,0.9-10.2c0.2-0.8-0.1-2-1.7-3c-0.7-0.4-1.9,0.2-2.1,1.1c0,0.1-0.1,0.7-0.2,1.6c0,0,0,0,0,0
		c-1.6,9.9-5.1,14-6.4,11.8c-1.5-3.3-0.6-9-0.5-11.6c-0.1-0.9-1.8-2.4-2.5-2.6c-0.6-0.2-1.4-0.8-1.5,3.3c0.2,2.2-1.2,7.1-4,7.1
		c-0.3-0.1-0.8-2.2,0.5-12c0-0.6-0.4-1.1-0.7-1.7c-1.4-1.2-3-1-3.6,0.7c-0.2,0.9-0.6,3.2-0.8,5.7c-2.9,6.1-8.3,7.4-9.1,7.7
		c0.3-1.4,1.4-4.7,2.3-8.1c0.6-1.9-0.9-2.4-2.4-3.1c-0.3-0.3-0.8-0.3-1.1,0.3c-0.6,1.9-2,7.7-3.5,8c-1.8,0.1-3.2-7.8,2.8-11.6
		c0.8-0.4,2.2,0.7,1.9,1.8c0,0,0.3,0.8,1,0.2c0.6-0.7-0.7-3.9-4.7-3.5c-2.7,0.2-5.8,3.4-6.4,7.3c-0.1,0.1-0.1,0.2-0.1,0.2
		c-1.1,3.2-4.8,3.2-5.6,2.6c1-2.9,0.4-4.5-0.2-6.5c-1-2.9-4-3.5-5.5-2.8c-0.5,0.3-2.1,0.9-1.9,3.3c-1.4-0.2-2.5,1.2-3.1,3.4
		c-0.1,0-0.1,0.1-0.1,0.1s-2.4,15.3-6.2,14.6c0,0-1.8-0.2-0.9-6.7c0.3-2.5,0.7-3.1,0.7-5.8c0.1-1.8-1.6-2.4-3.1-1.6
		c-1.1,0.8-4.7,1.4-5.5-0.7c0.9-1.9,2.8-4.3,1-5.9c-1.2-1-3.1-0.3-3.9,1.9c-0.6,2.3,0.1,3.6,1.1,5.5c-0.7,3.7-2.8,13.8-5.9,13.3
		c0,0-1.8-0.2-0.9-6.7c0.3-2.5,0.7-3.1,0.7-5.8c0.1-1.8-1.6-2.4-3.1-1.6c-1.1,0.8-4.7,1.4-5.5-0.7c0.9-1.9,2.8-4.3,1-5.9
		c-1.2-1-3.1-0.3-3.9,1.9c-0.6,2.3,0.1,3.6,1.1,5.4c-1.5,5.3-3.9,8.9-5.7,10c-0.4,0.2-1.6,0.6-0.9-5.4c0.3-1-0.3-2-1.2-2.7
		c-0.6-0.6-1.5-0.2-2.1,2.6c-0.3,1.5-1.8,3.5-3,3.6c-1-0.1-0.7-9,3-12.6c0,0,1.4-1.1,1.7,4.5l0.8-0.4c0.2-1.2-1.1-7.5-5.6-5.4
		c-3.7,1.7-6.5,14.7-2,15.4c0.6,0.3,2.8,0.5,4.9-2c0.3,0.7,0.6,5.6,4,4.1c0.9-0.9,4.2-1.3,6.9-10.5c1.2,0.8,3.2,1.3,5.3,0.6
		c-0.5,1.9-2.3,8.1-0.1,12c0.7,1.3,3,2.3,5.4,1.1c1.3-0.7,3.9-1.9,5.9-13.7c1.2,0.8,3.2,1.3,5.3,0.6c-0.5,1.9-2.3,8.1-0.1,12
		c0.7,1.3,3,2.3,5.4,1.1c1.2-0.6,3.3-1.6,5.1-9.7c0.5,2,1.6,4.3,4,4.1c2.4-0.3,5-1.1,6.5-6.6c0.4,0.1,3.9,0.8,6-1.7
		c0.1,1.1,0.5,2.3,1.2,3.4c0.8,1.3,2.9,2,4.9,1.3c-0.3,0.3-1.7,8.5-0.8,14.5c0.2,1.4,2.9,7.4,6.1,4.8v-1.9c-0.7,0.9-1.7,1.7-2.3-0.2
		c-0.3-1-0.9-6.6,0.5-13.7c1,0.3,3,3,3.2,4c0.2,1.1,0.3,2,0.4,2.9h1.4c-0.1-2.4-1-5.1-3.4-7.9c1.4-0.2,5.2-1.2,8.1-5.9
		c0,2.3,0.4,4.4,1.4,5.6c1.3,1.5,5.2,1.5,7.4-3.2c0,0.3,0,7.2,3.7,8c0.5,0.1,4,0.9,6.6-7c0,3.8,0.5,7.5,2.3,8.1
		c3.4,0.9,6.4-1.1,8.3-6.5c0.3,1.4,1,2.3,2.1,2.5c0.6,0.3,2.8,0.5,4.9-2c0.3,0.7,0.6,5.6,4,4.1c0.9-0.9,4.6-1.4,7.3-12.1
		C179.8,55.5,180,54.8,179.5,54.5z M63.7,53.6c-0.6-0.9-0.9-2.3-0.3-3.6c1-1.2,1.5,0,1.5,0C65.2,51,64.6,51.5,63.7,53.6z M80.2,53.6
		c-0.6-0.9-0.9-2.3-0.3-3.6c1-1.2,1.5,0,1.5,0C81.7,51,81.1,51.5,80.2,53.6z M101.9,63.1c-2.2-0.6-1.8-7.2-1.6-8.7
		c0.1-0.4-0.7-2.2-0.7-2.5c1.6,3.4,4.5,6.1,5.9,6.3C104.4,61.1,103.2,62.9,101.9,63.1z M105.9,56.7c-2-0.9-4.4-4.1-4.4-6.1
		c0.2-2.6,2.4-1.8,3.2-0.7C105.3,50.8,106.7,52.6,105.9,56.7z"/>
</g>
</svg>
