<?xml version="1.0" encoding="utf-8"?>
<!-- Generator: Adobe Illustrator 24.0.1, SVG Export Plug-In . SVG Version: 6.00 Build 0)  -->
<svg version="1.1" id="Capa_1" xmlns="http://www.w3.org/2000/svg" xmlns:xlink="http://www.w3.org/1999/xlink" x="0px" y="0px"
	 viewBox="0 0 225 110" style="enable-background:new 0 0 225 110;" xml:space="preserve">
<style type="text/css">
	.st0{fill:#0047BA;}
	.st1{fill:#FFFFFF;}
</style>
<g>
	<path class="st0" d="M143,2.2H82.1c-7.4,0-13.2,6-13.2,13.2v60.9c0,7.4,6,13.2,13.2,13.2h44.5l21.7,18.2l2.8-21.2
		c3.1-2.4,5-6.2,5-10.4V15.4C156.2,8.1,150.4,2.2,143,2.2z"/>
	<path class="st1" d="M87.2,18.1h12.1c2.2,0,3.9,0.2,5.2,0.7c1.3,0.5,2.4,1,3.2,1.7s1.2,1.6,1.5,2.5c0.2,1,0.5,1.9,0.5,3.1
		s-0.2,2.3-0.8,3.3c-0.6,0.9-1.2,1.6-2.2,2.3c-0.9,0.7-1.9,1.1-3.2,1.4c-1.2,0.3-2.4,0.5-3.8,0.5h-2.8v5.8h2.3v4.9h-12v-4.9h2.1V23
		h-2.1C87.2,22.9,87.2,18.1,87.2,18.1z M96.9,23v6.5h1.6c1.1,0,1.9-0.2,2.6-0.8c0.7-0.6,1-1.3,1-2.3c0-1.1-0.3-1.9-0.9-2.5
		c-0.7-0.6-1.4-0.9-2.5-0.9L96.9,23C96.9,23.1,96.9,23,96.9,23z"/>
	<path class="st1" d="M124,44.9c-1.9,0-3.6-0.3-5.3-0.9c-1.6-0.6-3.1-1.4-4.2-2.6c-1.2-1.2-2.1-2.6-2.7-4.3c-0.7-1.7-1-3.8-1-6
		c0-2.1,0.3-3.8,1-5.6c0.7-1.6,1.5-3.2,2.7-4.3c1.2-1.2,2.5-2.2,4.1-2.8c1.6-0.6,3.4-1,5.3-1c2.3,0,4.2,0.3,6,1
		c1.6,0.7,3.1,1.6,4.1,2.8c1.1,1.2,1.9,2.7,2.5,4.3c0.6,1.7,0.8,3.6,0.8,5.7s-0.3,4-0.9,5.7c-0.6,1.6-1.4,3.2-2.5,4.2
		c-1.1,1.2-2.5,2.1-4.1,2.7C128,44.5,126.1,44.9,124,44.9 M124,39.1c0.6,0,1.1-0.2,1.6-0.6c0.5-0.3,0.9-0.9,1.2-1.5
		c0.3-0.7,0.6-1.5,0.8-2.4c0.2-1,0.2-1.9,0.2-3.2c0-1.2-0.1-2.2-0.2-3.2s-0.5-1.8-0.8-2.6c-0.3-0.8-0.8-1.3-1.3-1.7
		c-0.6-0.5-1.2-0.7-1.8-0.7c-0.6,0-1.1,0.2-1.5,0.6c-0.5,0.5-0.9,1-1.2,1.6c-0.3,0.7-0.6,1.5-0.8,2.5c-0.2,1-0.3,2.1-0.3,3.2
		c0,1.2,0.1,2.3,0.3,3.3s0.6,1.8,0.9,2.5c0.3,0.7,0.8,1.2,1.3,1.6C122.9,38.8,123.4,39.1,124,39.1"/>
	<path class="st1" d="M87.2,76.2v-9.3h6.9c0,0.8,0.2,1.4,0.6,1.8c0.3,0.5,0.8,0.9,1.2,1.1c0.5,0.3,1,0.5,1.5,0.6
		c0.6,0.1,1,0.1,1.4,0.1c0.3,0,0.7,0,1.1-0.1c0.3,0,0.8-0.1,1-0.3c0.3-0.1,0.6-0.3,0.8-0.6s0.3-0.6,0.3-1c0-0.4-0.3-0.9-1.1-1.2
		c-0.8-0.3-1.6-0.7-2.6-0.9c-1.1-0.3-2.2-0.7-3.5-1c-1.3-0.3-2.4-0.9-3.5-1.5c-1.1-0.7-1.9-1.5-2.6-2.5c-0.8-1-1.1-2.4-1.1-3.9
		c0-1.4,0.3-2.6,0.9-3.6c0.6-1,1.3-1.8,2.2-2.5c0.9-0.7,1.8-1.1,2.8-1.4c1-0.3,1.9-0.5,3-0.5c0.8,0,1.5,0.1,2.3,0.2
		c0.8,0.1,1.5,0.3,2.2,0.7c0.7,0.4,1.3,0.7,1.8,1.2c0.6,0.5,1,1.1,1.4,1.7l0.3-3.2h6.4v9.3h-6.6c0-0.7-0.1-1.3-0.3-1.8
		c-0.2-0.6-0.6-1-1-1.4c-0.5-0.3-1-0.7-1.5-0.9c-0.6-0.2-1.2-0.3-1.8-0.3c-0.3,0-0.6,0-0.9,0.1c-0.3,0.1-0.6,0.2-0.9,0.3
		c-0.2,0.1-0.5,0.3-0.7,0.7c-0.1,0.2-0.2,0.6-0.2,0.9c0,0.7,0.3,1.2,1.1,1.6c0.8,0.5,1.6,0.9,2.7,1.2c1.1,0.3,2.3,0.8,3.6,1.2
		c1.3,0.5,2.5,1,3.6,1.6c1.1,0.7,1.9,1.4,2.7,2.4s1.1,2.2,1.1,3.6s-0.3,2.7-0.9,3.6c-0.7,1-1.4,1.8-2.4,2.4c-1,0.7-2.1,1.1-3.2,1.4
		c-1.2,0.3-2.3,0.5-3.5,0.5c-1,0-1.8-0.1-2.6-0.3c-0.8-0.2-1.5-0.5-2.2-0.8c-0.7-0.3-1.2-0.7-1.7-1.1c-0.6-0.5-1-0.9-1.3-1.2
		l-0.5,2.8C93.7,76.2,87.2,76.2,87.2,76.2z"/>
	<polygon class="st1" points="138.3,50.1 138.3,59.8 132.7,59.8 132.7,55 129.7,55 129.7,71.2 132.7,71.2 132.7,76.2 118.9,76.2 
		118.9,71.2 122,71.2 122,55 118.8,55 118.8,59.8 113.3,59.8 113.3,50.1 	"/>
</g>
</svg>
