<?xml version="1.0" encoding="utf-8"?>
<!-- Generator: Adobe Illustrator 24.0.1, SVG Export Plug-In . SVG Version: 6.00 Build 0)  -->
<svg version="1.1" id="Capa_1" xmlns="http://www.w3.org/2000/svg" xmlns:xlink="http://www.w3.org/1999/xlink" x="0px" y="0px"
	 viewBox="0 0 225 110" style="enable-background:new 0 0 225 110;" xml:space="preserve">
<style type="text/css">
	.st0{fill:#0047BA;}
	.st1{fill:#FFFFFF;}
</style>
<g>
	<path class="st0" d="M140.5,6.4h-56c-6.8,0-12.2,5.5-12.2,12.2v56c0,6.8,5.5,12.2,12.2,12.2h41l20,16.8l2.6-19.5
		c2.8-2.2,4.6-5.7,4.6-9.5v-56C152.7,11.8,147.3,6.4,140.5,6.4z"/>
	<path class="st1" d="M89.2,21.1h11.1c2,0,3.6,0.2,4.8,0.6c1.2,0.4,2.2,0.9,2.9,1.6c0.7,0.7,1.1,1.5,1.4,2.3
		c0.2,0.9,0.4,1.8,0.4,2.8c0,1.1-0.2,2.1-0.7,3c-0.5,0.8-1.1,1.5-2,2.1c-0.8,0.6-1.8,1-2.9,1.3c-1.1,0.3-2.2,0.4-3.5,0.4h-2.6v5.3
		h2.1v4.5h-11v-4.5h1.9v-15h-1.9V21.1z M98.1,25.6v6h1.5c1,0,1.8-0.2,2.4-0.7c0.6-0.5,0.9-1.2,0.9-2.1c0-1-0.3-1.8-0.8-2.3
		c-0.6-0.5-1.3-0.8-2.3-0.8H98.1z"/>
	<path class="st1" d="M123,45.7c-1.8,0-3.4-0.3-4.9-0.8c-1.5-0.5-2.8-1.3-3.9-2.4c-1.1-1.1-1.9-2.4-2.5-4c-0.6-1.6-0.9-3.5-0.9-5.6
		c0-1.9,0.3-3.5,0.9-5.1c0.6-1.5,1.4-2.9,2.5-4c1.1-1.1,2.3-2,3.8-2.6c1.5-0.6,3.1-0.9,4.9-0.9c2.1,0,3.9,0.3,5.5,0.9
		c1.5,0.6,2.8,1.5,3.8,2.6c1,1.1,1.8,2.5,2.3,4c0.5,1.6,0.7,3.3,0.7,5.2c0,1.9-0.3,3.7-0.8,5.2c-0.5,1.5-1.3,2.9-2.3,3.9
		c-1,1.1-2.3,1.9-3.8,2.5C126.7,45.4,125,45.7,123,45.7 M123,40.3c0.5,0,1-0.2,1.5-0.5c0.4-0.3,0.8-0.8,1.1-1.4
		c0.3-0.6,0.5-1.4,0.7-2.2c0.2-0.9,0.2-1.8,0.2-2.9c0-1.1-0.1-2-0.2-2.9c-0.1-0.9-0.4-1.7-0.7-2.4c-0.3-0.7-0.7-1.2-1.2-1.6
		c-0.5-0.4-1.1-0.6-1.7-0.6c-0.5,0-1,0.2-1.4,0.5c-0.4,0.4-0.8,0.9-1.1,1.5c-0.3,0.6-0.5,1.4-0.7,2.3c-0.2,0.9-0.3,1.9-0.3,2.9
		c0,1.1,0.1,2.1,0.3,3c0.2,0.9,0.5,1.7,0.8,2.3c0.3,0.6,0.7,1.1,1.2,1.5C122,40.1,122.5,40.3,123,40.3"/>
	<path class="st1" d="M89.2,74.5v-8.6h6.4c0,0.7,0.2,1.3,0.5,1.7c0.3,0.4,0.7,0.8,1.1,1c0.4,0.3,0.9,0.4,1.4,0.5
		c0.5,0.1,0.9,0.1,1.3,0.1c0.3,0,0.6,0,1-0.1c0.3,0,0.7-0.1,0.9-0.3c0.3-0.1,0.5-0.3,0.7-0.5c0.2-0.2,0.3-0.5,0.3-0.9
		c0-0.4-0.3-0.8-1-1.1c-0.7-0.3-1.5-0.6-2.4-0.8c-1-0.3-2-0.6-3.2-0.9C95,64.3,94,63.8,93,63.2c-1-0.6-1.8-1.4-2.4-2.3
		c-0.7-0.9-1-2.2-1-3.6c0-1.3,0.3-2.4,0.8-3.3c0.5-0.9,1.2-1.7,2-2.3c0.8-0.6,1.7-1,2.6-1.3c0.9-0.3,1.8-0.4,2.7-0.4
		c0.7,0,1.4,0.1,2.1,0.2c0.7,0.1,1.4,0.3,2,0.6c0.6,0.3,1.2,0.6,1.7,1.1c0.5,0.4,0.9,1,1.3,1.6l0.3-2.9h5.9v8.6H105
		c0-0.6-0.1-1.2-0.3-1.7c-0.2-0.5-0.5-0.9-0.9-1.3c-0.4-0.3-0.9-0.6-1.4-0.8c-0.5-0.2-1.1-0.3-1.7-0.3c-0.3,0-0.5,0-0.8,0.1
		c-0.3,0.1-0.5,0.2-0.8,0.3c-0.2,0.1-0.4,0.3-0.6,0.6c-0.1,0.2-0.2,0.5-0.2,0.8c0,0.6,0.3,1.1,1,1.5c0.7,0.4,1.5,0.8,2.5,1.1
		c1,0.3,2.1,0.7,3.3,1.1c1.2,0.4,2.3,0.9,3.3,1.5c1,0.6,1.8,1.3,2.5,2.2c0.7,0.9,1,2,1,3.4c0,1.4-0.3,2.5-0.8,3.4
		c-0.6,0.9-1.3,1.7-2.2,2.2c-0.9,0.6-1.9,1-2.9,1.3c-1.1,0.3-2.1,0.4-3.2,0.4c-0.9,0-1.7-0.1-2.4-0.3c-0.7-0.2-1.4-0.4-2-0.7
		c-0.6-0.3-1.1-0.6-1.6-1c-0.5-0.4-0.9-0.8-1.2-1.1l-0.4,2.6H89.2z"/>
	<polygon class="st1" points="136.2,50.5 136.2,59.4 131.1,59.4 131.1,55 128.3,55 128.3,69.9 131.1,69.9 131.1,74.5 118.3,74.5 
		118.3,69.9 121.2,69.9 121.2,55 118.2,55 118.2,59.4 113.2,59.4 113.2,50.5 	"/>
</g>
</svg>
