<?xml version="1.0" encoding="utf-8"?>
<!-- Generator: Adobe Illustrator 24.3.0, SVG Export Plug-In . SVG Version: 6.00 Build 0)  -->
<svg version="1.1" id="Capa_1" xmlns="http://www.w3.org/2000/svg" xmlns:xlink="http://www.w3.org/1999/xlink" x="0px" y="0px"
	 viewBox="0 0 225 110" style="enable-background:new 0 0 225 110;" xml:space="preserve">
<style type="text/css">
	.st0{fill:#FFF9AE;}
	.st1{fill-rule:evenodd;clip-rule:evenodd;fill:#FFF9AE;}
	.st2{fill-rule:evenodd;clip-rule:evenodd;fill:#005185;}
	.st3{clip-path:url(#SVGID_2_);}
	.st4{filter:url(#Adobe_OpacityMaskFilter);}
	.st5{clip-path:url(#SVGID_4_);}
	.st6{enable-background:new    ;}
	.st7{clip-path:url(#SVGID_4_);fill:url(#SVGID_6_);}
	.st8{clip-path:url(#SVGID_4_);mask:url(#SVGID_5_);}
	.st9{clip-path:url(#SVGID_8_);}
	.st10{clip-path:url(#SVGID_10_);fill:url(#SVGID_11_);}
	.st11{clip-path:url(#SVGID_13_);}
	.st12{filter:url(#Adobe_OpacityMaskFilter_1_);}
	.st13{clip-path:url(#SVGID_15_);}
	.st14{clip-path:url(#SVGID_15_);fill:url(#SVGID_17_);}
	.st15{clip-path:url(#SVGID_15_);mask:url(#SVGID_16_);}
	.st16{clip-path:url(#SVGID_19_);}
	.st17{clip-path:url(#SVGID_21_);fill:url(#SVGID_22_);}
	.st18{clip-path:url(#SVGID_24_);}
	.st19{filter:url(#Adobe_OpacityMaskFilter_2_);}
	.st20{clip-path:url(#SVGID_26_);}
	.st21{clip-path:url(#SVGID_29_);fill:url(#SVGID_30_);}
	.st22{clip-path:url(#SVGID_26_);mask:url(#SVGID_27_);}
	.st23{clip-path:url(#SVGID_32_);}
	.st24{clip-path:url(#SVGID_34_);fill:url(#SVGID_35_);}
	.st25{clip-path:url(#SVGID_37_);}
	.st26{filter:url(#Adobe_OpacityMaskFilter_3_);}
	.st27{clip-path:url(#SVGID_39_);}
	.st28{clip-path:url(#SVGID_42_);fill:url(#SVGID_43_);}
	.st29{clip-path:url(#SVGID_39_);mask:url(#SVGID_40_);}
	.st30{clip-path:url(#SVGID_45_);}
	.st31{clip-path:url(#SVGID_47_);fill:url(#SVGID_48_);}
	.st32{fill-rule:evenodd;clip-rule:evenodd;fill:#FFFFFF;}
	.st33{opacity:0.3;}
	.st34{clip-path:url(#SVGID_50_);}
	.st35{clip-path:url(#SVGID_52_);fill-rule:evenodd;clip-rule:evenodd;fill:#FFFFFF;}
	.st36{fill:#FFFFFF;}
	.st37{fill:#F38A20;}
	.st38{fill:#F18B21;}
</style>
<g>
	<path class="st0" d="M108.2,87.8c-1.9,0-4.2-0.6-5.5-3.3c-1.1,1.5-2.9,3.3-6.3,3.3c-4.9,0-7.8-3.7-7.8-9.9
		c0-7.3,5.7-11.5,15.7-11.5c1.9,0,4,0.2,7,0.7c0.9,0.1,1.6,0.8,1.6,1.7v10.5c0,0.9,0.2,1.4,0.5,1.4c0.6,0,2-0.8,3.2-1.8
		c0.2-0.2,0.5-0.4,0.9-0.4c0.7,0,1.3,0.6,1.3,1.3v2c0,0.1,0,0.2,0,0.3v0.2l-0.2,0.3C115.6,85.9,112,87.8,108.2,87.8 M101.7,71.6
		c-1.7,0.2-3.2,1.3-3.2,5c0,1.6,0.3,3.5,1.8,3.5c0.4,0,0.9-0.2,1.4-0.7V71.6z"/>
	<path class="st0" d="M122.9,87.9c-0.9,0-1.3-0.6-1.4-0.8l-0.1-0.1l-7.5-15.4c-0.3-0.6-1.2-2.3,1.1-3.5c1.4-0.8,4.4-1.6,6.5-1.6
		c0.8,0,1.4,0.1,1.9,0.3c0.6,0.3,0.9,0.8,1.2,1.4l4,8.2l1.7-3.5c0.7-1.5,1.5-3.7,1.4-4.9c0-0.4,0.1-0.9,0.4-1.2
		c0.3-0.3,0.8-0.5,1.3-0.5c0.1,0,0.1,0,0.2,0c0.1,0,0.1,0,0.2,0c0.9,0.1,2.7,0.2,3.5,1.7c0.9,1.7,0.4,4.2-1.6,8.1l-0.4,0.8
		c-0.7,1.2-1.9,3.5-3.6,6.8c-0.2,0.4-1.4,2.6-1.6,2.9c-0.3,0.4-0.5,0.6-1,0.8l-0.1,0c-0.8,0.2-3.2,0.4-5.5,0.6
		C123.3,87.9,123,87.9,122.9,87.9L122.9,87.9z"/>
	<path class="st0" d="M185.5,79.2c-0.2-2.7-1.4-6.4-8.2-6.8c-0.3,0-0.6,0-0.9,0c-3.9,0-7.2,1.5-12.3,3.9c-0.7,0.4-1.6,0.9-2.6,1.4
		c-2.1,1.3-4.8,2.9-7.8,3.6c-1.2,0.3-2.3,0.4-3.3,0.4c-1.1,0-1.9-0.2-2.3-0.6c2.3-0.1,7.1-0.7,9.6-3.6c1.3-1.4,1.8-3.1,1.6-5.1
		c-0.2-1.4-1.4-6.1-9.8-6.1c-4.7,0-9.1,2-11.5,5.3c-2.8,3.8-1.8,8.1-1.4,9.3c1.3,3.9,4.8,6.4,9.6,6.8l0,0.1h1.1c0.1,0,0.2,0,0.4,0
		c0.3,0,0.5,0,0.8,0c0.1,0,0.2,0,0.3,0c5.9-0.3,10.4-3.1,13.8-5.2c0.4-0.2,0.8-0.5,1.1-0.7c2.6-1.6,6.9-3.2,10.5-3.9
		c-0.4,0.6-0.6,1.4-0.6,2.4c0,2.4,2.4,5,5.6,5c1.7,0,3.6-0.9,4.9-2.2C185.1,82.1,185.6,80.7,185.5,79.2 M149.9,74.4
		c0.1,0,0.1,0,0.2,0c0.6,0,1,0.4,1,0.9c0,0.3-1.1,1.2-3.7,1.8C147.7,75.4,148.5,74.5,149.9,74.4"/>
	<path class="st1" d="M80.6,69.8c-0.6-0.3-1.2-0.6-1.6-0.9c-0.3-0.2-0.6-0.4-0.9-0.6c-1.7-1-2.5-1.5-2.5-2.5c0-0.4,0.9-1.1,2.6-1.1
		c0.6,0,1.3,0.1,2,0.3c-0.1,1,0.1,2.1,0.6,2.9c0.7,1.1,1.8,1.7,3.2,1.7c3.1,0,4.2-2.6,4.2-4.4c-0.1-1.6-1-2.9-1.9-3.5
		c-2.6-1.9-6-2.9-10.1-2.9c-6.6,0-10.7,3.5-10.7,9.1c0,5,5.6,7.8,9,9.5c0.7,0.4,1.4,0.7,1.8,1c1.3,0.8,2,1.4,2,1.9
		c0,1.3-2.4,1.4-3.2,1.4c-0.2,0-0.5,0-0.7,0c-2.6-0.3-6.1-2.1-7.8-3.2c0,0-0.1,0-0.1-0.1c0,0-0.1,0-0.1-0.1
		c-0.2-0.1-0.4-0.2-0.5-0.4c-2-1.3-5.2-3.4-11.8-3.4c-6.8,0-11.6,3.2-13.3,4.5c-0.3,0.3-1,0.8-1.1,1.7c0,1,0.8,1.9,2.8,3.5
		c1.6,1.4,1.8,2,1.9,2.4c0.1,0.2,0.3,1,1.2,1.1l0.1,0h0.1c0.8,0,1.4-0.6,2-1.2c0.8-0.9,2.1-2.1,4.8-3.2c2.3-0.9,4.2-1.4,6.2-1.4
		c1.5,0,2.9,0.3,4.2,0.5c1.3,0.3,2.8,1.3,4.3,2.3c1.8,1.2,3.6,2.4,5.5,2.8l0.1,0c1.3,0.4,2.8,0.6,4.3,0.6c6,0,12.4-3.1,12.4-8.7
		C89.2,74.3,83.8,71.5,80.6,69.8"/>
	<path class="st2" d="M78.4,69.8c-2.1-1.3-4-2.1-4-4c0-1.7,3.2-3,6.8-1.4c-0.7,1.6,0,4.2,2.5,4.2c2.7,0,3.2-2.4,3.2-3.3
		c0-1.4-1-2.3-1.5-2.7c-1.7-1.3-4.5-2.7-9.5-2.7c-4.9,0-9.7,2.1-9.7,8.1c0,5.4,7.7,8,10.3,9.6c1.7,1,2.5,1.8,2.5,2.8
		c0,1.8-2,2.4-4.2,2.4c-0.3,0-0.6,0-0.9-0.1c-3-0.4-6.7-2.4-8.4-3.4c-1.8-1.1-4.9-3.6-11.8-3.6c-7,0-11.6,3.4-12.6,4.3
		c-1.1,0.9-1,1.3,1.7,3.6c2.8,2.4,2,3.2,2.5,3.2c1.1,0.1,1.7-2.4,6.5-4.4c4.8-2,7.9-1.6,11-0.9c3.1,0.7,6.5,4.4,9.8,5.1
		c0.1,0,0.1,0,0.2,0c1.2,0.4,2.6,0.6,4,0.6c5.3,0,11.3-2.6,11.3-7.7C88.2,74,81,71.4,78.4,69.8"/>
	<path class="st2" d="M117.5,79.5c0,0-0.1,0-0.1,0c-1.1,0.9-2.9,2.1-4,2.1c-0.9,0-1.6-0.6-1.6-2.4V68.8c0-0.4-0.3-0.7-0.7-0.7
		c-2.6-0.4-4.8-0.7-6.9-0.7c-10.2,0-14.6,4.4-14.6,10.5c0,5.7,2.6,8.9,6.8,8.9c4.2,0,5.4-2.9,6.7-4.5c0.5,2,1.6,4.5,5.2,4.5
		c3.4,0,6.7-1.6,9.5-4.9c0,0,0-0.1,0-0.1v-2C117.7,79.6,117.6,79.5,117.5,79.5 M102.7,79.8c-0.9,0.9-1.8,1.3-2.5,1.3
		c-0.7,0-2.8-0.2-2.8-4.5c0-4.3,2-6.1,5.3-6.1V79.8z"/>
	<path class="st2" d="M133.5,67.1c-0.4,0-0.8,0.2-0.7,0.6c0.1,1.5-0.7,3.9-1.5,5.4l-2.6,5.4l-4.9-10.1c-0.2-0.4-0.4-0.8-0.7-0.9
		c-1.6-0.7-5.9,0.4-7.5,1.2c-1.4,0.8-1,1.5-0.6,2.2l7.5,15.4c0.1,0.2,0.2,0.4,0.5,0.4c0.4,0,4.9-0.5,5.9-0.7
		c0.3-0.1,0.3-0.1,0.5-0.4c0.1-0.2,1.5-2.8,1.5-2.8c2.3-4.3,3.7-6.9,4-7.6C139.4,66.9,134.8,67.3,133.5,67.1"/>
	<path class="st2" d="M184.5,79.3c-0.3-2.9-1.5-5.6-7.2-5.9c-3.9-0.2-7,1.1-12.7,3.8c-2.3,1.1-6.2,4-10.6,5.1
		c-0.9,0.2-1.8,0.4-2.7,0.4c-0.2,0-0.5,0-0.7,0c0,0-0.1,0-0.1,0c-3.6,0-4.1-1.8-4.1-4.5c0-3.8,2.1-4.8,3.5-4.9
		c1.4-0.2,2.4,0.8,2.4,1.9c0,1.3-2.4,2.4-5.1,2.9c-0.1,0-0.1,0.1-0.2,0.2c0,0.4,0,1.3,0.1,1.6c0,0.1,0.1,0.2,0.2,0.2
		c4.9,0,11.7-1.9,11.1-7.6c-0.2-1.4-1.5-5.2-8.8-5.2c-3.9,0-8.2,1.6-10.7,4.9c-2.2,2.9-1.8,6.4-1.2,8.4c1.6,4.9,6.6,6.3,10.8,6.1
		c0.1,0,0.2,0,0.2,0c6.3-0.3,11.1-3.6,14.6-5.7c3.6-2.2,9.7-4.3,13.7-4.3c3.9,0,2.8,1.6,2.8,1.6s-0.5-0.9-1.6-0.9
		c-2.8,0-3.4,1.2-3.4,3c0,1.8,1.9,4,4.6,4C181.8,84.5,184.7,82.1,184.5,79.3"/>
	<g>
		<g>
			<defs>
				<rect id="SVGID_1_" x="41.6" y="60.9" width="45.6" height="25.2"/>
			</defs>
			<clipPath id="SVGID_2_">
				<use xlink:href="#SVGID_1_"  style="overflow:visible;"/>
			</clipPath>
			<g class="st3">
				<defs>
					<path id="SVGID_3_" d="M76,60.9c-2.6,0-8.6,0.7-8.6,7c0,3.7,4.7,6.1,7.8,7.6c0.8,0.4,1.5,0.7,2,1.1c1.5,0.9,3,2,3,3.7
						c0,1-0.5,3.4-5.2,3.4c-0.4,0-0.7,0-1.1-0.1c-3.7-0.5-8.3-3.3-8.8-3.6c-0.2-0.1-0.4-0.2-0.6-0.4c-1.9-1.2-4.7-3.1-10.7-3.1
						c-6.2,0-10.4,2.9-12,4.1c-0.1,0.1-0.2,0.1-0.2,0.2c0.2,0.3,0.7,0.8,2,1.8c1.4,1.1,2,2,2.3,2.6c0.1-0.1,0.1-0.1,0.2-0.2
						c0.9-0.9,2.4-2.4,5.5-3.7c2.5-1,4.8-1.5,7-1.5c1.7,0,3.3,0.3,4.6,0.6c1.7,0.4,3.4,1.5,5,2.6c1.6,1.1,3.2,2.2,4.8,2.5l0.2,0
						l0.1,0c1.2,0.4,2.5,0.5,3.7,0.5c5.1,0,10.3-2.5,10.3-6.7c0-3.9-4.6-6.3-7.6-7.8c-0.7-0.4-1.3-0.7-1.7-1
						c-0.3-0.2-0.6-0.4-0.9-0.5c-1.8-1.1-3.6-2.1-3.6-4.3c0-1.8,1.9-3.2,4.6-3.2c1.2,0,2.4,0.3,3.6,0.8l1,0.4l-0.4,1
						c-0.3,0.6-0.2,1.4,0.1,2c0.3,0.5,0.8,0.7,1.4,0.7c2.1,0,2.2-2.1,2.2-2.3c0-1.1-1-1.8-1.1-1.9C82.7,61.7,79.7,60.9,76,60.9z"/>
				</defs>
				<clipPath id="SVGID_4_">
					<use xlink:href="#SVGID_3_"  style="overflow:visible;"/>
				</clipPath>
				<defs>
					<filter id="Adobe_OpacityMaskFilter" filterUnits="userSpaceOnUse" x="41.6" y="60.9" width="45.6" height="25.2">
						<feColorMatrix  type="matrix" values="1 0 0 0 0  0 1 0 0 0  0 0 1 0 0  0 0 0 1 0"/>
					</filter>
				</defs>
				<mask maskUnits="userSpaceOnUse" x="41.6" y="60.9" width="45.6" height="25.2" id="SVGID_5_">
					<g class="st4">
						<rect x="41.6" y="60.9" class="st5" width="45.6" height="25.2"/>
						<g class="st6">
							
								<linearGradient id="SVGID_6_" gradientUnits="userSpaceOnUse" x1="-282.175" y1="363.2126" x2="-281.7846" y2="363.2126" gradientTransform="matrix(0 -64.659 64.659 0 -23420.5801 -18159.0449)">
								<stop  offset="0" style="stop-color:#1D1D1B"/>
								<stop  offset="1" style="stop-color:#FFFFFF"/>
							</linearGradient>
							<rect x="41.6" y="60.9" class="st7" width="45.6" height="25.2"/>
						</g>
					</g>
				</mask>
				<g class="st8">
					<g>
						<defs>
							<rect id="SVGID_7_" x="41.6" y="60.9" width="45.6" height="25.2"/>
						</defs>
						<clipPath id="SVGID_8_">
							<use xlink:href="#SVGID_7_"  style="overflow:visible;"/>
						</clipPath>
						<g class="st9">
							<defs>
								<rect id="SVGID_9_" x="41.6" y="60.9" width="45.6" height="25.2"/>
							</defs>
							<clipPath id="SVGID_10_">
								<use xlink:href="#SVGID_9_"  style="overflow:visible;"/>
							</clipPath>
							
								<linearGradient id="SVGID_11_" gradientUnits="userSpaceOnUse" x1="-282.175" y1="363.2126" x2="-281.7846" y2="363.2126" gradientTransform="matrix(0 -64.659 64.659 0 -23420.5801 -18159.0449)">
								<stop  offset="0" style="stop-color:#FFFFFF"/>
								<stop  offset="1" style="stop-color:#FFFFFF"/>
							</linearGradient>
							<rect x="41.6" y="60.9" class="st10" width="45.6" height="25.2"/>
						</g>
					</g>
				</g>
			</g>
		</g>
	</g>
	<g>
		<g>
			<defs>
				<rect id="SVGID_12_" x="90.6" y="68.4" width="26.1" height="17.3"/>
			</defs>
			<clipPath id="SVGID_13_">
				<use xlink:href="#SVGID_12_"  style="overflow:visible;"/>
			</clipPath>
			<g class="st11">
				<defs>
					<path id="SVGID_14_" d="M104.2,68.4c-8.8,0-13.6,3.4-13.6,9.4c0,2.9,0.7,7.8,5.8,7.8c3,0,4.2-1.7,5.2-3.3
						c0.2-0.3,0.4-0.6,0.6-0.8l0.2-0.2c-0.8,0.5-1.6,0.7-2.1,0.7c-1.2,0-3.8-0.5-3.8-5.5c0-5.9,3.4-7.1,6.3-7.1h1v10.8l-0.1,0.1
						L104,82c0.6,2.5,1.9,3.7,4.2,3.7c3.1,0,6.1-1.5,8.5-4.3v-0.1c-1,0.7-2.3,1.4-3.3,1.4c-0.6,0-2.6-0.2-2.6-3.5V69.1
						C107.9,68.6,105.9,68.4,104.2,68.4z"/>
				</defs>
				<clipPath id="SVGID_15_">
					<use xlink:href="#SVGID_14_"  style="overflow:visible;"/>
				</clipPath>
				<defs>
					<filter id="Adobe_OpacityMaskFilter_1_" filterUnits="userSpaceOnUse" x="90.6" y="68.4" width="26.1" height="17.3">
						<feColorMatrix  type="matrix" values="1 0 0 0 0  0 1 0 0 0  0 0 1 0 0  0 0 0 1 0"/>
					</filter>
				</defs>
				<mask maskUnits="userSpaceOnUse" x="90.6" y="68.4" width="26.1" height="17.3" id="SVGID_16_">
					<g class="st12">
						<rect x="90.6" y="68.4" class="st13" width="26.1" height="17.3"/>
						<g class="st6">
							
								<linearGradient id="SVGID_17_" gradientUnits="userSpaceOnUse" x1="-281.8091" y1="362.3882" x2="-281.4187" y2="362.3882" gradientTransform="matrix(0 -44.265 44.265 0 -15937.4746 -12388.5762)">
								<stop  offset="0" style="stop-color:#1D1D1B"/>
								<stop  offset="1" style="stop-color:#FFFFFF"/>
							</linearGradient>
							<rect x="90.6" y="68.4" class="st14" width="26.1" height="17.3"/>
						</g>
					</g>
				</mask>
				<g class="st15">
					<g>
						<defs>
							<rect id="SVGID_18_" x="90.6" y="68.4" width="26.1" height="17.3"/>
						</defs>
						<clipPath id="SVGID_19_">
							<use xlink:href="#SVGID_18_"  style="overflow:visible;"/>
						</clipPath>
						<g class="st16">
							<defs>
								<rect id="SVGID_20_" x="90.6" y="68.4" width="26.1" height="17.3"/>
							</defs>
							<clipPath id="SVGID_21_">
								<use xlink:href="#SVGID_20_"  style="overflow:visible;"/>
							</clipPath>
							
								<linearGradient id="SVGID_22_" gradientUnits="userSpaceOnUse" x1="-281.8065" y1="362.3908" x2="-281.4161" y2="362.3908" gradientTransform="matrix(0 -44.265 44.265 0 -15937.5898 -12388.4609)">
								<stop  offset="0" style="stop-color:#FFFFFF"/>
								<stop  offset="1" style="stop-color:#FFFFFF"/>
							</linearGradient>
							<rect x="90.6" y="68.4" class="st17" width="26.1" height="17.3"/>
						</g>
					</g>
				</g>
			</g>
		</g>
	</g>
	<g>
		<g>
			<defs>
				<rect id="SVGID_23_" x="115.6" y="68.2" width="20.2" height="17.6"/>
			</defs>
			<clipPath id="SVGID_24_">
				<use xlink:href="#SVGID_23_"  style="overflow:visible;"/>
			</clipPath>
			<g class="st18">
				<defs>
					<path id="SVGID_25_" d="M133.8,68.2c-0.1,1.8-1,4.3-1.6,5.5l-3.5,7.3l-5.9-12c-0.1-0.2-0.2-0.4-0.3-0.4c-0.2-0.1-0.5-0.1-1-0.1
						c-1.7,0-4.4,0.7-5.6,1.3c-0.3,0.2-0.4,0.3-0.4,0.3h0c0,0.1,0.1,0.4,0.2,0.5l7.5,15.3c0.1,0,0.1,0,0.2,0c1-0.1,4.1-0.4,5-0.6
						c0.2-0.4,0.9-1.6,1.5-2.7c1.7-3.3,3-5.6,3.7-6.8l0.4-0.7c1.4-2.7,1.8-4.3,1.8-5.2v-0.1c0-0.4-0.1-0.7-0.2-0.8
						C135.3,68.3,134.6,68.2,133.8,68.2z"/>
				</defs>
				<clipPath id="SVGID_26_">
					<use xlink:href="#SVGID_25_"  style="overflow:visible;"/>
				</clipPath>
				<defs>
					<filter id="Adobe_OpacityMaskFilter_2_" filterUnits="userSpaceOnUse" x="115.6" y="68.2" width="20.2" height="17.6">
						<feColorMatrix  type="matrix" values="1 0 0 0 0  0 1 0 0 0  0 0 1 0 0  0 0 0 1 0"/>
					</filter>
				</defs>
				<mask maskUnits="userSpaceOnUse" x="115.6" y="68.2" width="20.2" height="17.6" id="SVGID_27_">
					<g class="st19">
						<rect x="115.6" y="68.2" class="st20" width="20.2" height="17.6"/>
						<g class="st6">
							<g>
								<defs>
									<rect id="SVGID_28_" x="115.6" y="68.2" width="20.2" height="17.6"/>
								</defs>
								<clipPath id="SVGID_29_" class="st20">
									<use xlink:href="#SVGID_28_"  style="overflow:visible;"/>
								</clipPath>
								
									<linearGradient id="SVGID_30_" gradientUnits="userSpaceOnUse" x1="-281.834" y1="361.6072" x2="-281.4436" y2="361.6072" gradientTransform="matrix(0 -45.142 45.142 0 -16197.8184 -12636.7441)">
									<stop  offset="0" style="stop-color:#1D1D1B"/>
									<stop  offset="1" style="stop-color:#FFFFFF"/>
								</linearGradient>
								<rect x="115.6" y="68.2" class="st21" width="20.6" height="17.6"/>
							</g>
						</g>
					</g>
				</mask>
				<g class="st22">
					<g>
						<defs>
							<rect id="SVGID_31_" x="115.6" y="68.2" width="20.2" height="17.6"/>
						</defs>
						<clipPath id="SVGID_32_">
							<use xlink:href="#SVGID_31_"  style="overflow:visible;"/>
						</clipPath>
						<g class="st23">
							<defs>
								<rect id="SVGID_33_" x="115.6" y="68.2" width="20.2" height="17.6"/>
							</defs>
							<clipPath id="SVGID_34_">
								<use xlink:href="#SVGID_33_"  style="overflow:visible;"/>
							</clipPath>
							
								<linearGradient id="SVGID_35_" gradientUnits="userSpaceOnUse" x1="-281.8317" y1="361.6159" x2="-281.4413" y2="361.6159" gradientTransform="matrix(0 -45.142 45.142 0 -16198.4121 -12636.6406)">
								<stop  offset="0" style="stop-color:#FFFFFF"/>
								<stop  offset="1" style="stop-color:#FFFFFF"/>
							</linearGradient>
							<rect x="115.6" y="68.2" class="st24" width="20.2" height="17.6"/>
						</g>
					</g>
				</g>
			</g>
		</g>
	</g>
	<g>
		<g>
			<defs>
				<rect id="SVGID_36_" x="138.1" y="68.5" width="45.4" height="17.3"/>
			</defs>
			<clipPath id="SVGID_37_">
				<use xlink:href="#SVGID_36_"  style="overflow:visible;"/>
			</clipPath>
			<g class="st25">
				<defs>
					<path id="SVGID_38_" d="M139.6,73c-1.2,1.6-1.5,3.2-1.5,4.6v0.1c0,1.3,0.3,2.3,0.4,2.8c1.6,4.9,6.9,5.4,9.1,5.4
						c0.2,0,0.4,0,0.7,0c0.1,0,0.1,0,0.2,0c5.4-0.2,9.6-2.8,12.9-4.9c0.4-0.2,0.8-0.5,1.1-0.7c3.6-2.2,10-4.4,14.2-4.4
						c1.3,0,3.1,0.1,3.8,1.4c0.4,0.7,0.2,1.4-0.1,1.9l-1,1.5c0,0,0.1-1.8-2-2c-1.3-0.2-1.9,0.8-1.9,2c0,1.2,1.4,3,3.5,3
						c1.2,0,2.5-0.6,3.3-1.6c0.6-0.7,1-1.5,1-2.2v-0.1c0-0.1,0-0.1,0-0.2c-0.2-2.2-0.9-4.6-6.3-4.9c-0.3,0-0.5,0-0.7,0
						c-3.3,0-6,1.1-11.5,3.7c-0.7,0.3-1.5,0.8-2.4,1.3c-2.3,1.4-5.1,3-8.4,3.9c-1,0.2-2,0.4-2.8,0.4c-0.3,0-0.5,0-0.8,0l-0.1,0
						c-4.6,0-5.2-2.8-5.2-5.6c0-4.9,3.1-5.8,4.4-6c0.2,0,0.3,0,0.5,0c1.8,0,3.1,1.3,3.1,3c0,2.3-3.3,3.3-5.3,3.8c0,0,0,0.1,0,0.1
						c3-0.1,6.5-1,8.3-2.9c0.9-1,1.2-2.1,1.1-3.5c-0.1-1-1.1-4.3-7.8-4.3C146.3,68.5,142,69.6,139.6,73"/>
				</defs>
				<clipPath id="SVGID_39_">
					<use xlink:href="#SVGID_38_"  style="overflow:visible;"/>
				</clipPath>
				<defs>
					<filter id="Adobe_OpacityMaskFilter_3_" filterUnits="userSpaceOnUse" x="138.1" y="68.5" width="45.4" height="17.3">
						<feColorMatrix  type="matrix" values="1 0 0 0 0  0 1 0 0 0  0 0 1 0 0  0 0 0 1 0"/>
					</filter>
				</defs>
				<mask maskUnits="userSpaceOnUse" x="138.1" y="68.5" width="45.4" height="17.3" id="SVGID_40_">
					<g class="st26">
						<rect x="138.1" y="68.5" class="st27" width="45.4" height="17.3"/>
						<g class="st6">
							<g>
								<defs>
									<rect id="SVGID_41_" x="138.1" y="68.5" width="45.4" height="17.3"/>
								</defs>
								<clipPath id="SVGID_42_" class="st27">
									<use xlink:href="#SVGID_41_"  style="overflow:visible;"/>
								</clipPath>
								
									<linearGradient id="SVGID_43_" gradientUnits="userSpaceOnUse" x1="-281.8114" y1="360.3915" x2="-281.421" y2="360.3915" gradientTransform="matrix(0 -44.415 44.415 0 -15846.3564 -12430.8428)">
									<stop  offset="0" style="stop-color:#1D1D1B"/>
									<stop  offset="1" style="stop-color:#FFFFFF"/>
								</linearGradient>
								<rect x="137.3" y="68.5" class="st28" width="46.2" height="17.3"/>
							</g>
						</g>
					</g>
				</mask>
				<g class="st29">
					<g>
						<defs>
							<rect id="SVGID_44_" x="138.1" y="68.5" width="45.4" height="17.3"/>
						</defs>
						<clipPath id="SVGID_45_">
							<use xlink:href="#SVGID_44_"  style="overflow:visible;"/>
						</clipPath>
						<g class="st30">
							<defs>
								<rect id="SVGID_46_" x="138.1" y="68.5" width="45.4" height="17.3"/>
							</defs>
							<clipPath id="SVGID_47_">
								<use xlink:href="#SVGID_46_"  style="overflow:visible;"/>
							</clipPath>
							
								<linearGradient id="SVGID_48_" gradientUnits="userSpaceOnUse" x1="-281.8143" y1="360.3766" x2="-281.4239" y2="360.3766" gradientTransform="matrix(0 -44.414 44.414 0 -15844.9922 -12430.6914)">
								<stop  offset="0" style="stop-color:#FFFFFF"/>
								<stop  offset="1" style="stop-color:#FFFFFF"/>
							</linearGradient>
							<rect x="138.1" y="68.5" class="st31" width="45.4" height="17.3"/>
						</g>
					</g>
				</g>
			</g>
		</g>
	</g>
	<path class="st32" d="M76,60.9c3.7,0,6.7,0.8,8.9,2.5c0.1,0.1,1,0.8,1.1,1.9c0,0.2,0,1.4-1,2c1.2-0.5,1.2-1.9,1.2-2.1
		c0-1.1-1-1.8-1.1-1.9c-2.2-1.7-5.2-2.5-8.9-2.5c-1.3,0-3.5,0.2-5.4,1.2C72.7,61.1,74.7,60.9,76,60.9"/>
	<path class="st32" d="M53.8,76.6c6,0,8.8,1.9,10.7,3.1c0.2,0.1,0.4,0.3,0.6,0.4c0.5,0.3,5,3.1,8.8,3.6c0.3,0,0.7,0.1,1.1,0.1
		c1.6,0,2.7-0.3,3.5-0.7c-0.8,0.3-1.8,0.6-3.2,0.6c-0.4,0-0.7,0-1.1-0.1c-3.7-0.5-8.3-3.3-8.8-3.6c-0.2-0.1-0.4-0.2-0.6-0.4
		c-1.9-1.2-4.7-3.1-10.7-3.1c-3.9,0-7,1.1-9.2,2.3C47,77.7,50.1,76.6,53.8,76.6"/>
	<path class="st32" d="M79.8,71.5c-0.7-0.4-1.3-0.7-1.7-1c-0.3-0.2-0.6-0.4-0.9-0.5c-1.8-1.1-3.6-2.1-3.6-4.3c0-1,0.6-1.9,1.6-2.5
		c-1.2,0.6-1.9,1.5-1.9,2.6c0,2.2,1.7,3.2,3.6,4.3c0.3,0.2,0.6,0.3,0.9,0.5c0.5,0.3,1.1,0.6,1.7,1c3,1.6,7.6,4,7.6,7.8
		c0,2.3-1.6,4.1-3.8,5.2c2.4-1.1,4.1-3,4.1-5.3C87.4,75.5,82.9,73.1,79.8,71.5"/>
	<path class="st32" d="M46,85.1C46,85.1,46,85.1,46,85.1C46,85.1,46,85.2,46,85.1c0.1,0,0.2-0.1,0.3-0.1c0.8-0.8,2-2,4.2-3.1
		C48.1,83,46.8,84.3,46,85.1"/>
	<path class="st32" d="M104.2,68.5c1.7,0,3.7,0.2,6.6,0.6v10.2c0,3.2,2,3.5,2.6,3.5c0.7,0,1.5-0.3,2.2-0.7c-0.7,0.3-1.3,0.6-2,0.6
		c-0.6,0-2.6-0.2-2.6-3.5V69c-2.9-0.4-4.8-0.6-6.6-0.6c-3.9,0-6.9,0.6-9.2,1.9C97.4,69.1,100.4,68.5,104.2,68.5"/>
	<path class="st32" d="M99.6,70.1c-1.8,0.8-3.2,2.7-3.2,6.5c0,5,2.7,5.5,3.8,5.5c0.4,0,1-0.1,1.7-0.4c-0.6,0.2-1.1,0.3-1.4,0.3
		c-1.1,0-3.8-0.5-3.8-5.5C96.7,72.8,98,71,99.6,70.1"/>
	<path class="st32" d="M116.7,81.5L116.7,81.5c-1.2,1.4-2.5,2.4-3.9,3.1c1.5-0.7,2.9-1.8,4.1-3.2v-0.1
		C116.8,81.4,116.8,81.4,116.7,81.5"/>
	<path class="st32" d="M102.2,81.7c-0.2,0.3-0.4,0.5-0.6,0.8c-0.7,0.9-1.4,2-2.5,2.6c1.3-0.6,2.1-1.7,2.8-2.7
		c0.2-0.3,0.4-0.6,0.6-0.8l0.2-0.2c-0.1,0.1-0.2,0.1-0.3,0.1L102.2,81.7z"/>
	<path class="st32" d="M121.5,68.5c0.5,0,0.8,0.1,1,0.1c0.1,0.1,0.1,0.2,0.2,0.4l5.9,12l0.2-0.3L123,68.9c-0.1-0.2-0.2-0.4-0.3-0.4
		c-0.2-0.1-0.5-0.1-1-0.1c-1.7,0-4.4,0.7-5.6,1.3c0,0-0.1,0-0.1,0C117.4,69.1,119.9,68.5,121.5,68.5"/>
	<path class="st32" d="M135.8,68.8c-0.3-0.5-1-0.6-1.8-0.7c0,0,0,0.1,0,0.1c0.7,0.1,1.3,0.2,1.6,0.7c0.2,0.4,0.6,1.9-1.6,6.1
		l-0.4,0.7c-0.7,1.2-1.9,3.5-3.7,6.8c-0.6,1-1.2,2.2-1.4,2.6c0.1,0,0.1,0,0.2,0c0.2-0.4,0.9-1.6,1.5-2.7c1.7-3.3,3-5.6,3.7-6.8
		l0.4-0.7C136.4,70.7,136.1,69.2,135.8,68.8"/>
	<path class="st32" d="M148.1,78.9C148.1,79,148.1,79,148.1,78.9c0.9-0.1,2-0.5,2.9-0.9C150.1,78.5,149,78.8,148.1,78.9"/>
	<path class="st32" d="M149.4,68.5c6.7,0,7.7,3.3,7.8,4.3c0.2,1.4-0.2,2.5-1.1,3.5c-0.5,0.6-1.2,1.1-1.9,1.4
		c0.9-0.4,1.6-0.9,2.2-1.6c0.9-1,1.2-2.1,1.1-3.5c-0.1-1-1.1-4.3-7.8-4.3c-1.9,0-4.1,0.4-6.1,1.4C145.5,68.9,147.6,68.5,149.4,68.5"
		/>
	<path class="st32" d="M154.4,83.3c-1,0.2-2,0.4-2.8,0.4c-0.3,0-0.5,0-0.8,0l-0.1,0c-4.6,0-5.2-2.8-5.2-5.6c0-3.2,1.3-4.7,2.6-5.4
		c-1.4,0.6-2.9,2.1-2.9,5.5c0,2.8,0.6,5.6,5.2,5.6l0.1,0c0.3,0,0.5,0,0.8,0c0.9-0.1,1.8-0.2,2.8-0.4c1.7-0.4,3.3-1.1,4.8-1.8
		C157.5,82.3,156,82.9,154.4,83.3"/>
	<path class="st32" d="M183.7,79.3c-0.1-2.1-0.9-4.6-6.3-4.9c-0.3,0-0.5,0-0.7,0c-3.3,0-6,1.1-11.5,3.7c-0.1,0-0.2,0.1-0.2,0.1
		c5.5-2.6,8.2-3.7,11.5-3.7c0.2,0,0.5,0,0.7,0c5.4,0.3,6.1,2.5,6.3,4.9c0.1,0.9-0.3,1.8-1,2.5c-0.4,0.4-0.9,0.8-1.4,1
		c0.6-0.3,1.2-0.7,1.6-1.2C183.4,81.1,183.8,80.4,183.7,79.3"/>
	<path class="st32" d="M178.1,78.6c-1.3-0.4-1.9,0.3-1.9,0.3s0.9-0.5,1.9-0.1c1.4,0.5,1.4,1.9,1.4,1.9l0.2-0.3
		C179.7,80.3,179.5,79,178.1,78.6"/>
	<g class="st33">
		<g>
			<defs>
				<rect id="SVGID_49_" x="43.1" y="61.7" width="139.4" height="23.2"/>
			</defs>
			<clipPath id="SVGID_50_">
				<use xlink:href="#SVGID_49_"  style="overflow:visible;"/>
			</clipPath>
			<g class="st34">
				<defs>
					<rect id="SVGID_51_" x="43.1" y="61.7" width="139.4" height="23.2"/>
				</defs>
				<clipPath id="SVGID_52_">
					<use xlink:href="#SVGID_51_"  style="overflow:visible;"/>
				</clipPath>
				<path class="st35" d="M76.9,84.9c-1,0-2.1-0.1-3.2-0.4c0,0,0,0,0,0c0.4,0,0.8,0.1,1.2,0.1c5.8,0,6.2-3.4,6.2-4.4
					c0-2.5-2.3-3.9-3.5-4.6c-0.5-0.3-1.2-0.7-2-1.1c-2.9-1.5-7.3-3.6-7.3-6.7c0-5.1,4.7-6,7.5-6c-2.1,0.6-3.5,2.1-3.5,3.9
					c0,2.8,2.2,4.1,4.1,5.2c0.3,0.2,0.6,0.3,0.9,0.5c0.5,0.3,1.1,0.6,1.8,1c2.8,1.5,7,3.7,7,6.9C86.1,82.8,81.3,84.9,76.9,84.9
					 M46,83.5c-0.5-0.6-1-1.2-1.8-1.8c-0.5-0.4-0.8-0.7-1.1-0.9c1.9-1.3,5.6-3.3,10.7-3.3c3.5,0,5.9,0.7,7.6,1.5
					c-0.9-0.1-1.8-0.2-2.9-0.2c-2.4,0-4.8,0.5-7.4,1.6C48.5,81.3,47,82.5,46,83.5 M83.8,66.3c-0.4,0-0.5-0.2-0.6-0.2
					c-0.2-0.3-0.2-0.7-0.1-1l0.6-1.4c0.2,0.1,0.3,0.2,0.5,0.3c0,0,0.6,0.5,0.7,1.1C84.9,65.6,84.8,66.3,83.8,66.3"/>
				<path class="st35" d="M108.2,84.5c-1.8,0-2.7-0.8-3.2-2.9l-0.3-1.1l0,0V69.3c1.4,0,2.9,0.2,4.9,0.5v9.3c0,2.7,1.3,3.9,2.6,4.3
					C111,84.1,109.6,84.5,108.2,84.5 M96.4,84.5c-3.9,0-4.7-3.7-4.7-6.8c0-4.2,2.5-6.4,5.8-7.5c-1.2,1.2-2,3.1-2,6.2
					c0,5.5,3,6.4,4.4,6.5C99.1,83.8,98.1,84.5,96.4,84.5"/>
				<path class="st35" d="M116.9,70.3c1.2-0.5,3.3-1,4.7-1c0.1,0,0.2,0,0.3,0l6.6,13.5c-0.3,0.5-0.5,1-0.7,1.3
					c-0.7,0.1-2.1,0.2-3.9,0.4L116.9,70.3z M133.1,73.9c0.1-0.3,1.2-2.5,1.6-4.7c0,0,0,0,0,0c0,0,0.4,1.1-1.7,5.1
					c0,0-0.8,1.4-0.9,1.7L133.1,73.9z"/>
				<path class="st35" d="M147.6,84.6c-2,0-6.8-0.5-8.1-4.7c-0.3-0.9-1-3.9,0.9-6.5c2.2-3,6.1-4.1,9-4.1c5.9,0,6.7,2.6,6.8,3.4
					c0.1,1.1-0.1,1.9-0.8,2.7c-0.4,0.4-0.9,0.8-1.5,1.1c0.2-0.4,0.3-0.9,0.3-1.4c0-2.3-1.8-4-4.1-4c-0.2,0-0.4,0-0.6,0
					c-1.2,0.2-5.3,1.1-5.3,7c0,1.5,0,5.6,4.4,6.4c-0.1,0-0.1,0-0.2,0c-0.1,0-0.2,0-0.3,0C148,84.6,147.8,84.6,147.6,84.6
					 M179.1,82.3c-1.6,0-2.5-1.4-2.5-1.9c0-0.9,0.6-1.1,1.2-1c0.8,0.2,1.4,2.9,1.4,2.9C179.3,82.3,179.2,82.3,179.1,82.3
					 M181.5,80.1c0.7-1.1,0.2-3.2,0.2-3.2s1.5,2.3,0.5,3.8c-0.8,1.3-2.7,1.5-2.7,1.5S180.6,81.5,181.5,80.1"/>
			</g>
		</g>
	</g>
	<path class="st36" d="M74.4,90.3c1,0,1.6,0.5,1.6,0.5l-0.2,0.3c0,0-0.5-0.4-1.3-0.4c-1.1,0-1.8,0.8-1.8,1.9c0,1.1,0.7,1.9,1.7,1.9
		c0.9,0,1.4-0.6,1.4-0.6V93H75v-0.4h1.2v2.1h-0.4v-0.3c0-0.1,0-0.2,0-0.2h0c0,0-0.5,0.6-1.4,0.6c-1.2,0-2.1-1-2.1-2.3
		C72.2,91.3,73.1,90.3,74.4,90.3"/>
	<path class="st36" d="M78.6,90.3H79v2.9c0,0.8,0.5,1.2,1.2,1.2c0.8,0,1.2-0.5,1.2-1.2v-2.8h0.4v2.9c0,1-0.7,1.6-1.7,1.6
		c-1,0-1.7-0.6-1.7-1.6V90.3z"/>
	<path class="st36" d="M86.7,93.3H85l-0.5,1.4H84l1.6-4.4h0.5l1.6,4.4h-0.5L86.7,93.3z M85.8,90.8c0,0-0.1,0.4-0.2,0.6L85.1,93h1.5
		L86,91.4C85.9,91.2,85.8,90.8,85.8,90.8L85.8,90.8z"/>
	<path class="st36" d="M89.8,93.9c0,0,0.5,0.5,1.1,0.5c0.5,0,0.9-0.3,0.9-0.8c0-1.1-2.2-0.8-2.2-2.2c0-0.6,0.6-1.2,1.4-1.2
		c0.8,0,1.2,0.4,1.2,0.4l-0.2,0.4c0,0-0.4-0.4-1-0.4c-0.6,0-0.9,0.4-0.9,0.8c0,1,2.2,0.7,2.2,2.2c0,0.7-0.5,1.2-1.3,1.2
		c-0.9,0-1.4-0.6-1.4-0.6L89.8,93.9z"/>
	<path class="st36" d="M96.8,93.3H95l-0.5,1.4h-0.5l1.6-4.4h0.5l1.6,4.4h-0.5L96.8,93.3z M95.9,90.8c0,0-0.1,0.4-0.2,0.6L95.2,93
		h1.5l-0.6-1.6C96,91.2,95.9,90.8,95.9,90.8L95.9,90.8z"/>
	<path class="st36" d="M99.2,90.3h0.5l1.2,3.3c0.1,0.2,0.2,0.6,0.2,0.6h0c0,0,0.1-0.3,0.2-0.6l1.2-3.3h0.5l-1.6,4.4h-0.4L99.2,90.3z
		"/>
	<polygon class="st36" points="105,90.3 107.5,90.3 107.5,90.7 105.4,90.7 105.4,92.3 107.1,92.3 107.1,92.7 105.4,92.7 105.4,94.4 
		107.6,94.4 107.6,94.7 105,94.7 	"/>
	<path class="st36" d="M119.3,93.9c0,0,0.5,0.5,1.1,0.5c0.5,0,0.9-0.3,0.9-0.8c0-1.1-2.2-0.8-2.2-2.2c0-0.6,0.6-1.2,1.4-1.2
		c0.8,0,1.2,0.4,1.2,0.4l-0.2,0.4c0,0-0.4-0.4-1-0.4c-0.6,0-0.9,0.4-0.9,0.8c0,1,2.2,0.7,2.2,2.2c0,0.7-0.5,1.2-1.3,1.2
		c-0.9,0-1.4-0.6-1.4-0.6L119.3,93.9z"/>
	<rect x="124.2" y="90.3" class="st36" width="0.4" height="4.4"/>
	<path class="st36" d="M127.3,90.3h0.4l2.2,3.2c0.2,0.2,0.4,0.6,0.4,0.6h0c0,0,0-0.4,0-0.6v-3.2h0.4v4.4h-0.4l-2.2-3.2
		c-0.1-0.2-0.4-0.6-0.4-0.6h0c0,0,0,0.4,0,0.6v3.2h-0.4V90.3z"/>
	<path class="st36" d="M135.6,93.3h-1.8l-0.5,1.4h-0.5l1.6-4.4h0.5l1.6,4.4h-0.5L135.6,93.3z M134.7,90.8c0,0-0.1,0.4-0.2,0.6
		L134,93h1.5l-0.6-1.6C134.8,91.2,134.7,90.8,134.7,90.8L134.7,90.8z"/>
	<polygon class="st36" points="138.7,90.3 139.2,90.3 139.2,94.4 141.2,94.4 141.2,94.7 138.7,94.7 	"/>
	<path class="st36" d="M145.1,90.3c1.2,0,2.2,1,2.2,2.2c0,1.3-1,2.3-2.2,2.3c-1.2,0-2.2-1-2.2-2.3C142.9,91.3,143.9,90.3,145.1,90.3
		 M145.1,94.4c1,0,1.8-0.8,1.8-1.9c0-1-0.8-1.8-1.8-1.8c-1,0-1.8,0.8-1.8,1.8C143.4,93.6,144.2,94.4,145.1,94.4"/>
	<path class="st36" d="M151.9,93.3h-1.8l-0.5,1.4h-0.5l1.6-4.4h0.5l1.6,4.4h-0.5L151.9,93.3z M151,90.8c0,0-0.1,0.4-0.2,0.6
		l-0.6,1.6h1.5l-0.6-1.6C151.1,91.2,151.1,90.8,151,90.8L151,90.8z"/>
	<path class="st36" d="M112.7,92.4c0-0.7,0.5-1.2,1.2-1.2c0.7,0,1.2,0.5,1.2,1.2c0,0.7-0.5,1.2-1.2,1.2
		C113.3,93.6,112.7,93.1,112.7,92.4"/>
	<path class="st0" d="M112.5,58.8c-12,0-21.8-9.8-21.8-21.8c0-12,9.8-21.8,21.8-21.8c12,0,21.8,9.8,21.8,21.8
		C134.3,49,124.5,58.8,112.5,58.8"/>
	<path class="st37" d="M91.8,37c0-11.4,9.3-20.7,20.7-20.7c11.4,0,20.7,9.3,20.7,20.7c0,11.4-9.3,20.7-20.7,20.7
		C101.1,57.7,91.8,48.4,91.8,37"/>
	<path class="st36" d="M112.8,54.2c7.9,0,15.9-7.2,15.9-13.5c0-4.2-2.9-7.4-7.4-7.4c-4.4,0-5.5,2.7-5.5,2.7s6.1-0.2,6.1,6.1
		C121.9,49.7,112.8,54.2,112.8,54.2"/>
	<path class="st36" d="M113.2,38.6c0,0,0.9-1.9,2.9-1.7c1.8,0.2,4.5,1.2,4.9,5c0.5,4-4.3,8.7-4.3,8.7s3.1-4.2,2.7-8.2
		c-0.3-3-1.6-3.9-3.2-4.2C115.1,37.9,113.2,38.6,113.2,38.6"/>
	<path class="st36" d="M112.1,54.2c0,0-16.6,0.5-16.6-18.3c0.1-10.1,7.7-15.7,16.3-16.3c6-0.5,9,3,9,3s-0.6,6.9-7.4,8.1
		c-6.6,1.4-9.7,5.7-9.7,11.2C103.8,51.6,112.1,54.2,112.1,54.2"/>
	<path class="st38" d="M93,36.1l0-0.6c0-2.1,0.8-4,2.2-5.4c1.4-1.4,3.3-2.2,5.4-2.2l0.7,0l0,0.6c0,2.1-0.8,4-2.2,5.4
		c-1.4,1.4-3.3,2.2-5.4,2.2L93,36.1z"/>
	<path class="st36" d="M95.7,30.5c-1.4,1.4-2.1,3.2-2,5c1.8,0,3.6-0.7,5-2c1.4-1.4,2.1-3.2,2-5C98.8,28.4,97,29.1,95.7,30.5"/>
	<path class="st36" d="M106.6,49c0,0,1.3,1.7,2.5,2.6c1.7,1.3,3.3,1.9,3.3,1.9s0.7-0.2,1.3-0.7c0.7-0.5-0.2-1.2-0.8-1.3
		c-0.7-0.1-1.9-0.2-3.2-0.7C108.4,50.1,106.6,49,106.6,49"/>
	<path class="st38" d="M110.6,22.2c0-0.6,0.4-1,1-1c0.6,0,1,0.4,1,1c0,0.5-0.4,1-1,1C111.1,23.2,110.6,22.7,110.6,22.2"/>
	<path class="st38" d="M105.8,26.6c-0.5-1.8,0.2-3.7,1.4-4.9c-1.9,1.2-3,3.2-2.5,5.1c0.5,1.9,2.3,3.2,4.5,3.4
		C107.6,29.7,106.2,28.4,105.8,26.6"/>
	<path class="st36" d="M104.8,40.6c0,0,2,6.4,8.9,6.4c2.6,0,4.5-1.1,4.5-1.1s-0.3,1.2-1.2,2.4c-0.9,1.2-3.1,2.1-5.1,2
		c-2.8-0.2-4.9-1.8-6.2-3.8C104.8,44.8,104.8,40.6,104.8,40.6"/>
</g>
</svg>
