<?xml version="1.0" encoding="utf-8"?>
<!-- Generator: Adobe Illustrator 24.3.0, SVG Export Plug-In . SVG Version: 6.00 Build 0)  -->
<svg version="1.1" id="Capa_1" xmlns="http://www.w3.org/2000/svg" xmlns:xlink="http://www.w3.org/1999/xlink" x="0px" y="0px"
	 viewBox="0 0 225 110" style="enable-background:new 0 0 225 110;" xml:space="preserve">
<style type="text/css">
	.st0{fill:#FFFFFF;}
	.st1{fill:#090609;}
	.st2{fill:url(#SVGID_1_);}
	.st3{fill:url(#SVGID_2_);}
</style>
<g>
	<circle class="st0" cx="66.8" cy="69.3" r="21.1"/>
	<polygon class="st1" points="97.1,15.9 80.9,15.9 80.9,19.2 87.4,19.2 87.4,45.7 90.6,45.7 90.6,19.2 97.1,19.2 	"/>
	<path class="st1" d="M96.4,26.3v19.4h2.9V26.8c0,0,0.3-3.2,3.5-3.2c3.5,0,3.8,2.9,3.8,2.9v18.9h2.9V26.8c0,0-0.1-5.9-6.6-6
		C97.2,20.7,96.4,26.3,96.4,26.3z"/>
	<path class="st1" d="M124.1,23.9c0.2,0,0.3,0,0.5,0V21c-0.2,0-0.3,0-0.5,0c-6.7,0-12.2,5.5-12.2,12.2s5.5,12.2,12.2,12.2
		c0.2,0,0.3,0,0.5,0v-2.9c-0.2,0-0.3,0-0.5,0c-5.2,0-9.3-4.2-9.3-9.3C114.7,28.1,118.9,23.9,124.1,23.9z"/>
	<path class="st1" d="M135.3,21c-6.8,0-12.3,5.5-12.3,12.3c0,6.8,5.5,12.3,12.3,12.3c6.8,0,12.3-5.5,12.3-12.3
		C147.7,26.5,142.1,21,135.3,21z M135.3,42.9c-5.2,0-9.5-4.3-9.5-9.5c0-5.2,4.3-9.5,9.5-9.5c5.2,0,9.5,4.3,9.5,9.5
		C144.8,38.6,140.6,42.9,135.3,42.9z"/>
	<path class="st1" d="M106.2,39.7c0,1.8-1.4,3.2-3.2,3.2c-1.8,0-3.2-1.4-3.2-3.2c0-1.8,1.4-3.2,3.2-3.2
		C104.7,36.5,106.2,37.9,106.2,39.7z"/>
	<g>
		<g>
			<linearGradient id="SVGID_1_" gradientUnits="userSpaceOnUse" x1="57.9642" y1="98.8694" x2="82.4655" y2="49.8669">
				<stop  offset="0" style="stop-color:#810202"/>
				<stop  offset="0.4517" style="stop-color:#C00302"/>
				<stop  offset="0.8164" style="stop-color:#ED0402"/>
				<stop  offset="1" style="stop-color:#FE0402"/>
			</linearGradient>
			<polygon class="st2" points="69,73.3 74.1,73.3 71.5,65.1 			"/>
			<linearGradient id="SVGID_2_" gradientUnits="userSpaceOnUse" x1="53.2887" y1="96.5316" x2="77.7899" y2="47.5292">
				<stop  offset="0" style="stop-color:#810202"/>
				<stop  offset="0.4517" style="stop-color:#C00302"/>
				<stop  offset="0.8164" style="stop-color:#ED0402"/>
				<stop  offset="1" style="stop-color:#FE0402"/>
			</linearGradient>
			<path class="st3" d="M66.8,45.4c-13.3,0-24.1,10.8-24.1,24.2c0,5.5,1.9,10.6,5,14.7l-4,9.8l14.5-1.9c2.7,1,5.6,1.6,8.6,1.6
				c13.3,0,24.1-10.8,24.1-24.2C90.9,56.2,80.1,45.4,66.8,45.4z M82.3,61.3L82,74h-1.9l-0.6-12.7H82.3z M57.3,79.3l-5.6-18h2.6
				l4.4,13.9l4.2-14h2.3l-5.4,18.1H57.3z M75.8,79.3l-1.2-4.1h-6.3l-1.2,4h-2.4l5.5-17.9h2.6l5.5,18H75.8z M81,79.7
				c-1,0-1.7-0.8-1.7-1.7c0-0.9,0.8-1.7,1.7-1.7c0.9,0,1.7,0.8,1.7,1.7C82.7,79,81.9,79.7,81,79.7z"/>
		</g>
	</g>
	<path class="st1" d="M119.3,62.9v17.9h2.7V63.4c0,0,0.3-2.9,3.2-2.9c3.2,0,3.5,2.7,3.5,2.7v17.5h2.7V63.3c0,0-0.1-5.5-6.1-5.5
		C120,57.8,119.3,62.9,119.3,62.9z"/>
	<path class="st1" d="M128.3,75.2c0,1.6-1.3,2.9-2.9,2.9c-1.6,0-2.9-1.3-2.9-2.9c0-1.6,1.3-2.9,2.9-2.9
		C127,72.3,128.3,73.6,128.3,75.2z"/>
	<path class="st1" d="M164.9,62.9v17.9h2.7V63.4c0,0,0.3-2.9,3.2-2.9c3.2,0,3.5,2.7,3.5,2.7v17.5h2.7V63.3c0,0-0.1-5.5-6.1-5.5
		C165.6,57.8,164.9,62.9,164.9,62.9z"/>
	<path class="st1" d="M173.9,75.2c0,1.6-1.3,2.9-2.9,2.9c-1.6,0-2.9-1.3-2.9-2.9c0-1.6,1.3-2.9,2.9-2.9
		C172.6,72.3,173.9,73.6,173.9,75.2z"/>
	<polygon class="st1" points="98.7,78 98.7,57.9 96,57.9 96,78 96,80.8 98.7,80.8 105.6,80.8 105.6,78 	"/>
	<polyline class="st1" points="107.7,57.9 107.7,78 107.7,80.8 110.5,80.8 117.4,80.8 117.4,78 110.5,78 110.5,57.9 107.7,57.9 	"/>
	<polygon class="st1" points="162.7,57.9 150,57.9 150,60.8 154.9,60.8 154.9,80.8 157.7,80.8 157.7,60.8 162.7,60.8 	"/>
	<path class="st1" d="M148.8,77.6c-1.9-0.7-5-3.5-5-3.5s4-1.8,3.9-8c-0.2-6.6-8.1-8.1-8.1-8.1h-2.7v15.1c0,0-0.3,0.1-1.7,0.6
		c-1.4,0.5-1.4,0.8-1.4,0.8l1.4,2.2c0,0,0.2-0.2,0.8-0.4c0.6-0.3,1-0.3,1-0.3v4.7h2.8v-5c0.5-0.1,1.2,0.3,2.4,0.9
		c1.3,0.6,2.6,1.9,4.8,3.2c2.2,1.2,4.6,1.1,4.6,1.1v-2.5C151.4,78.3,150.8,78.3,148.8,77.6z M139.7,73.2V61c0,0,5.4,1.3,5.4,5.8
		C145.1,71.2,139.7,73.2,139.7,73.2z"/>
	<g>
		<g>
			<path class="st1" d="M89.8,86h4.4v1h-1.7v6.2h-1V87h-1.7V86z"/>
			<path class="st1" d="M101.7,85.8l3.4,7.5h-1l-0.8-1.8h-3.1l-0.8,1.8h-1L101.7,85.8z M101.7,88l-1.2,2.6h2.3L101.7,88z"/>
			<path class="st1" d="M116.1,92.5l1.1,1.2H116l-0.6-0.7c-0.7,0.3-1.3,0.5-2,0.5c-1.1,0-2.1-0.4-2.8-1.1c-0.8-0.8-1.2-1.7-1.2-2.8
				c0-1,0.4-1.9,1.2-2.7c0.8-0.7,1.7-1.1,2.8-1.1c1.1,0,2,0.4,2.8,1.1c0.8,0.7,1.2,1.6,1.2,2.7C117.4,90.7,116.9,91.7,116.1,92.5z
				 M114.6,92.2l-1.6-1.7h1.3l1.1,1.2c0.6-0.6,0.9-1.3,0.9-2.1c0-0.8-0.3-1.5-0.9-2c-0.6-0.5-1.3-0.8-2.1-0.8
				c-0.8,0-1.5,0.3-2.1,0.8s-0.8,1.2-0.8,2c0,0.8,0.3,1.5,0.9,2c0.6,0.5,1.3,0.8,2.1,0.8C113.8,92.5,114.1,92.4,114.6,92.2z"/>
			<path class="st1" d="M122.6,86.1h1v4.4c0,0.7,0.2,1.2,0.5,1.5c0.3,0.4,0.8,0.5,1.3,0.5c0.6,0,1-0.2,1.3-0.5
				c0.3-0.3,0.5-0.8,0.5-1.4v-4.6h1v4.5c0,0.9-0.3,1.6-0.8,2.1s-1.2,0.8-2,0.8c-0.9,0-1.5-0.3-2.1-0.8c-0.5-0.5-0.8-1.3-0.8-2.4
				V86.1z"/>
			<path class="st1" d="M133.6,86h4v1h-3v1.8h3v1h-3v2.5h3v1h-4V86z"/>
			<path class="st1" d="M142.9,86h1.6c0.8,0,1.4,0.2,1.9,0.6c0.5,0.4,0.7,0.9,0.7,1.5c0,0.5-0.2,0.9-0.5,1.3
				c-0.3,0.4-0.8,0.6-1.5,0.8l2.1,3.1h-1.1l-2-3h-0.2v3h-1V86z M143.8,86.9v2.5c1.5,0,2.2-0.4,2.2-1.3c0-0.3-0.1-0.6-0.3-0.8
				c-0.2-0.2-0.4-0.3-0.7-0.4C144.8,87,144.4,86.9,143.8,86.9z"/>
			<path class="st1" d="M152.3,85.3l0.8-1.6h1.3l-1.3,1.6H152.3z M152.5,86h1v7.2h-1V86z"/>
			<path class="st1" d="M161.7,85.8l3.4,7.5h-1l-0.8-1.8h-3.1l-0.8,1.8h-1L161.7,85.8z M161.7,88l-1.2,2.6h2.3L161.7,88z"/>
		</g>
	</g>
	<path class="st1" d="M154.2,24.1l1.7-2.6c0,0-1.2-0.9-3.5-0.8c-3.4,0.1-4.6,3.1-4.7,4.5c-0.1,2,0.8,3.5,1.8,6.1
		c1.1,2.5,3.3,6.2,3.3,8.1c-0.1,2.5-2,3.7-3.3,3.8c-1.2,0.1-3.7-0.5-3.7-0.5l-1.2,2.8c0,0,2.8,1.3,5.7,0.7c2.7-0.5,4.7-3.2,5.2-5.3
		c0,0,0.8-2.4-1.1-6.2c-1.5-2.9-3.5-7.1-3.7-8.3C150.5,25.2,151.9,23,154.2,24.1z"/>
	<g>
		<g>
			<path class="st1" d="M179.3,77.1c0.2,0,0.4-0.1,0.6-0.1c0.4,0,0.6,0.1,0.7,0.2c0.1,0.1,0.2,0.3,0.2,0.5c0,0.3-0.2,0.6-0.5,0.7v0
				c0.2,0.1,0.3,0.3,0.4,0.5c0.1,0.4,0.1,0.6,0.2,0.7h-0.3c0-0.1-0.1-0.3-0.2-0.6c-0.1-0.4-0.2-0.5-0.5-0.5h-0.3v1.1h-0.3V77.1z
				 M179.6,78.2h0.3c0.4,0,0.6-0.2,0.6-0.5c0-0.3-0.2-0.5-0.6-0.5c-0.2,0-0.3,0-0.3,0V78.2z"/>
		</g>
	</g>
	<path class="st1" d="M180.1,76.1c-1.2,0-2.2,1-2.2,2.2c0,1.2,1,2.2,2.2,2.2c1.2,0,2.2-1,2.2-2.2C182.4,77.1,181.4,76.1,180.1,76.1z
		 M180.1,80.3c-1.1,0-1.9-0.9-1.9-1.9c0-1.1,0.9-1.9,1.9-1.9c1.1,0,1.9,0.9,1.9,1.9C182.1,79.4,181.2,80.3,180.1,80.3z"/>
</g>
</svg>
