<?xml version="1.0" encoding="utf-8"?>
<!-- Generator: Adobe Illustrator 24.0.1, SVG Export Plug-In . SVG Version: 6.00 Build 0)  -->
<svg version="1.1" id="Capa_1" xmlns="http://www.w3.org/2000/svg" xmlns:xlink="http://www.w3.org/1999/xlink" x="0px" y="0px"
	 viewBox="0 0 225 110" style="enable-background:new 0 0 225 110;" xml:space="preserve">
<style type="text/css">
	.st0{fill:#7D868C;}
	.st1{fill:#F38B00;}
	.st2{fill:#FFA400;}
	.st3{fill:#CE101C;}
</style>
<g>
	<g>
		<path class="st0" d="M48.1,62.29v-1.66v-0.05V44.23c0-2.71-5.66-2.74-6.06-2.74v19.78v0.04v2.13c0,3.23,1.56,6.05,4.98,6.05
			c1.05,0,2.34-0.18,3.27-1.68C48.14,67.63,48.1,64.25,48.1,62.29"/>
		<path class="st0" d="M68.59,58.82v-0.06v-2.38c0-4.16-3.09-6.43-8.96-6.43c-2.48,0-7.6,0.73-7.6,4.35c0,1.11,0.33,2.4,1.66,4.16
			c0-3.41,3.09-4.24,5.87-4.24c2.34,0,2.99,1,2.99,1.86c-1.22,1.77-6.6,1.6-9.37,3.97c-0.02,0-0.04,0-0.06,0
			c-0.95,0.85-1.58,2.02-1.58,3.72c0,4.51,3.89,5.88,7.92,5.88c2.11,0,4.13-0.65,6.05-0.65c1.01,0,2.07,0.1,3.09,0.65V58.82z
			 M62.65,65.22c0,0-1.33,0.4-2.62,0.4c-1.23,0-2.46-0.36-2.46-2.04c0-2.3,4.12-1.72,5.07-3.23V65.22z"/>
		<path class="st0" d="M164.87,62.29v-3.41v-0.05v-14.6c0-2.71-5.66-2.74-6.05-2.74v16.91v0.04v4.99c0,3.23,1.54,6.05,4.97,6.05
			c1.05,0,2.34-0.18,3.27-1.68C164.89,67.63,164.87,64.25,164.87,62.29"/>
		<path class="st0" d="M178.47,65.3c-2.57,0-3.79-0.97-3.79-3.66V59.7v-0.05V57.9c0-3.39,2-3.66,3.94-3.66c2.01,0,4.3,1.25,4.3,4.45
			c1.2-1.73,1.71-3.2,1.71-4.37c0-3.66-4.9-4.35-7.32-4.35c-5.58,0-8.67,2.56-8.67,6.76v2.42v0.04v3.77c0,4.21,3.51,6.73,9.04,6.73
			c4.62,0,7.34-2.07,7.34-4.73c0-0.93-0.54-2.09-1.33-3.19C183.65,63.55,181.57,65.3,178.47,65.3"/>
		<path class="st0" d="M148.99,50.11v7.72v7.21c0,0-1.48,0.36-2.7,0.36c-2.09,0-2.81-0.93-2.81-2.62v-5.14v-0.05v-4.67
			c0-2.63-6.05-2.76-6.05-2.76v7.22v0.04v5.91c0,4.98,4.33,6.34,8.37,6.34c1.83,0,3.52-0.75,5.36-0.75c2.27,0,3.89,0.89,3.89,0.89
			V58.17v-5.3C155.04,50.11,148.99,50.11,148.99,50.11"/>
		<path class="st0" d="M23.45,43.24c-2.97,0-4.67-0.58-4.67-0.58c0,2.48,0.53,4.94,4.09,4.94h3.47V63.4v0.05v3.39
			c0,2.77,6.18,2.77,6.18,2.77v-7.08v-0.05V47.61h3.6c3.61,0,4.07-2.47,4.07-4.94c0,0-1.7,0.58-4.64,0.58H23.45z"/>
		<path class="st0" d="M72.37,50.16v8.35v0.03v15.54c0,1.8-1,5.07-3.96,5.07c2.38,2.04,3.96,2.13,5.03,2.13
			c3.1,0,4.94-2.83,4.94-6.04V58.17v-0.03v-5.22C78.38,50.16,72.37,50.16,72.37,50.16"/>
		<path class="st0" d="M91.38,49.96c-6.42,0-9.39,2.56-9.39,6.76v1.23v0.04v4.96c0,4.21,2.97,6.73,9.39,6.73
			c6.33,0,9.32-2.52,9.32-6.73v-5.67v-0.04v-0.51C100.71,52.52,97.72,49.96,91.38,49.96 M94.66,57.44v4.95
			c0,1.97-0.58,3.09-3.28,3.09c-2.77,0-3.37-1.11-3.37-3.09v-4.7v-0.04v-0.4c0-1.96,0.6-3.05,3.37-3.05c2.7,0,3.28,1.09,3.28,3.05
			v0.16V57.44z"/>
		<path class="st0" d="M125.58,49.96c-3.99,0-6.18,1.49-6.18,1.49s-2.26-1.49-5.76-1.49c-1.85,0-3.45,0.73-5.16,0.73
			c-2.76,0-4.16-0.82-4.16-0.82v7.29v0.04v9.55c0,2.76,6.05,2.76,6.05,2.76V57.12v-0.06v-2.51c0,0,1.5-0.28,2.77-0.28
			c2.04,0,2.74,1.12,2.74,2.58v0.18v0.05v9.65c0,2.61,6.04,2.76,6.04,2.76V57.1v-0.05v-0.66c0-1.4,1.4-2.19,2.77-2.19
			c1.51,0,2.67,0.79,2.74,2.97c0,0.05,0.02,0.1,0.02,0.14v9.43c0,2.68,6.04,2.76,6.04,2.76v-12.2v-0.04v-0.54
			C133.47,52.31,130.02,49.96,125.58,49.96"/>
		<path class="st0" d="M196.91,49.96c-6.42,0-9.42,2.56-9.42,6.75v4.27v0.04v1.91c0,4.21,3,6.73,9.42,6.73
			c6.09,0,9.06-2.33,9.29-6.27h0.01c0-0.14,0.01-0.28,0.01-0.42v-6.26C206.23,52.52,203.23,49.96,196.91,49.96 M196.91,65.48
			c-2.79,0-3.36-1.11-3.36-3.08v-0.65v-0.04v-4.46c0-1.96,0.57-3.05,3.36-3.05c2.68,0,3.27,1.09,3.27,3.05v5.2
			c0,0.04,0,0.08-0.01,0.12h-0.01C200.15,64.43,199.52,65.48,196.91,65.48"/>
		<g>
			<path class="st1" d="M87.97,28.71c0,0,0.02,1.62-8.63,3.12c-4.16,0.71-4.58,4.04-4.62,4.81c0.01,2.34,0.06,5.5,0.03,5.5
				c0,0,13.24,1.23,13.24-6.71C87.98,32.52,87.99,29.23,87.97,28.71"/>
		</g>
		<g>
			<path class="st2" d="M65.14,33.8c0,0-0.01,1.01,5.38,1.94c2.6,0.46,2.86,2.53,2.89,3.02c-0.01,1.45-0.04,3.42-0.02,3.42
				c0,0-8.24,0.77-8.24-4.18C65.13,36.17,65.13,34.12,65.14,33.8"/>
		</g>
		<g>
			<path class="st3" d="M78.38,49.65c0,0,0.01-0.73-3.92-1.41c-1.88-0.32-2.08-1.83-2.09-2.18c0-1.07,0.02-2.5,0-2.5
				c0,0,6.01-0.56,6.01,3.05C78.39,47.91,78.39,49.41,78.38,49.65"/>
		</g>
	</g>
</g>
</svg>
