<?xml version="1.0" encoding="utf-8"?>
<!-- Generator: Adobe Illustrator 24.3.0, SVG Export Plug-In . SVG Version: 6.00 Build 0)  -->
<svg version="1.1" id="Capa_1" xmlns="http://www.w3.org/2000/svg" xmlns:xlink="http://www.w3.org/1999/xlink" x="0px" y="0px"
	 viewBox="0 0 225 110" style="enable-background:new 0 0 225 110;" xml:space="preserve">
<style type="text/css">
	.st0{fill:#FFFFFF;}
	.st1{fill:#A2A9AD;}
	.st2{fill:none;}
	.st3{fill:#F5333F;}
	.st4{fill:#003D96;}
</style>
<g>
	<rect x="56.3" y="25.5" class="st0" width="110.4" height="57.3"/>
	<g>
		<polygon class="st1" points="82.9,75.7 84.4,75.7 83.7,73.9 		"/>
		<polygon class="st2" points="83.1,72.7 80.9,77.6 82.1,77.6 82.6,76.5 84.8,76.5 85.3,77.6 86.5,77.6 84.3,72.7 		"/>
		<polygon class="st2" points="83.1,72.7 80.9,77.6 82.1,77.6 82.6,76.5 84.8,76.5 85.3,77.6 86.5,77.6 84.3,72.7 		"/>
		<polygon class="st2" points="93.9,74.6 91.7,74.6 91.7,72.7 90.6,72.7 90.6,77.6 91.7,77.6 91.7,75.5 93.9,75.5 93.9,77.6 
			95.1,77.6 95.1,72.7 93.9,72.7 		"/>
		<path class="st1" d="M101.9,73.6c-0.5,0-0.8,0.1-1.1,0.4c-0.3,0.3-0.4,0.7-0.4,1.3c0,0.6,0.1,1,0.4,1.3c0.3,0.3,0.7,0.4,1.1,0.4
			c0.5,0,0.8-0.1,1.1-0.4c0.3-0.3,0.4-0.7,0.4-1.3c0-0.6-0.1-1-0.4-1.3C102.7,73.7,102.3,73.6,101.9,73.6z"/>
		<path class="st2" d="M103.8,73.4c-0.5-0.4-1.2-0.7-2-0.7c-0.5,0-0.9,0.1-1.2,0.2c-0.3,0.1-0.5,0.2-0.7,0.4
			c-0.2,0.2-0.4,0.4-0.5,0.7c-0.2,0.3-0.3,0.8-0.3,1.3c0,0.8,0.2,1.4,0.7,1.8c0.5,0.4,1.1,0.7,2,0.7c0.8,0,1.5-0.2,2-0.7
			c0.5-0.4,0.7-1.1,0.7-1.8C104.6,74.5,104.3,73.9,103.8,73.4z"/>
		<polygon class="st2" points="93.9,74.6 91.7,74.6 91.7,72.7 90.6,72.7 90.6,77.6 91.7,77.6 91.7,75.5 93.9,75.5 93.9,77.6 
			95.1,77.6 95.1,72.7 93.9,72.7 		"/>
		<polygon class="st2" points="83.1,72.7 80.9,77.6 82.1,77.6 82.6,76.5 84.8,76.5 85.3,77.6 86.5,77.6 84.3,72.7 		"/>
		<path class="st2" d="M111.2,75.8h1.3v0.6c-0.2,0.1-0.4,0.2-0.6,0.3c-0.2,0.1-0.5,0.1-0.7,0.1c-0.5,0-0.9-0.1-1.2-0.4
			c-0.3-0.3-0.4-0.7-0.4-1.3c0-0.5,0.1-0.9,0.4-1.2c0.3-0.3,0.7-0.4,1.2-0.4c0.3,0,0.6,0.1,0.8,0.2c0.2,0.1,0.4,0.3,0.4,0.6l1.1-0.2
			c-0.1-0.4-0.4-0.8-0.8-1c-0.4-0.3-0.9-0.4-1.6-0.4c-0.5,0-1,0.1-1.3,0.2c-0.5,0.2-0.8,0.5-1.1,0.9c-0.2,0.4-0.4,0.8-0.4,1.4
			c0,0.5,0.1,0.9,0.3,1.3c0.2,0.4,0.5,0.7,1,0.9c0.4,0.2,0.9,0.3,1.5,0.3c0.5,0,0.9-0.1,1.4-0.2c0.4-0.2,0.8-0.3,1-0.5V75h-2.4V75.8
			z"/>
		<path class="st2" d="M103.8,73.4c-0.5-0.4-1.2-0.7-2-0.7c-0.5,0-0.9,0.1-1.2,0.2c-0.3,0.1-0.5,0.2-0.7,0.4
			c-0.2,0.2-0.4,0.4-0.5,0.7c-0.2,0.3-0.3,0.8-0.3,1.3c0,0.8,0.2,1.4,0.7,1.8c0.5,0.4,1.1,0.7,2,0.7c0.8,0,1.5-0.2,2-0.7
			c0.5-0.4,0.7-1.1,0.7-1.8C104.6,74.5,104.3,73.9,103.8,73.4z"/>
		<polygon class="st2" points="93.9,74.6 91.7,74.6 91.7,72.7 90.6,72.7 90.6,77.6 91.7,77.6 91.7,75.5 93.9,75.5 93.9,77.6 
			95.1,77.6 95.1,72.7 93.9,72.7 		"/>
		<polygon class="st2" points="83.1,72.7 80.9,77.6 82.1,77.6 82.6,76.5 84.8,76.5 85.3,77.6 86.5,77.6 84.3,72.7 		"/>
		<polygon class="st1" points="119.5,75.7 121,75.7 120.3,73.9 		"/>
		<polygon class="st2" points="119.7,72.7 117.5,77.6 118.7,77.6 119.2,76.5 121.4,76.5 121.9,77.6 123.1,77.6 120.9,72.7 		"/>
		<path class="st2" d="M111.2,75.8h1.3v0.6c-0.2,0.1-0.4,0.2-0.6,0.3c-0.2,0.1-0.5,0.1-0.7,0.1c-0.5,0-0.9-0.1-1.2-0.4
			c-0.3-0.3-0.4-0.7-0.4-1.3c0-0.5,0.1-0.9,0.4-1.2c0.3-0.3,0.7-0.4,1.2-0.4c0.3,0,0.6,0.1,0.8,0.2c0.2,0.1,0.4,0.3,0.4,0.6l1.1-0.2
			c-0.1-0.4-0.4-0.8-0.8-1c-0.4-0.3-0.9-0.4-1.6-0.4c-0.5,0-1,0.1-1.3,0.2c-0.5,0.2-0.8,0.5-1.1,0.9c-0.2,0.4-0.4,0.8-0.4,1.4
			c0,0.5,0.1,0.9,0.3,1.3c0.2,0.4,0.5,0.7,1,0.9c0.4,0.2,0.9,0.3,1.5,0.3c0.5,0,0.9-0.1,1.4-0.2c0.4-0.2,0.8-0.3,1-0.5V75h-2.4V75.8
			z"/>
		<path class="st2" d="M103.8,73.4c-0.5-0.4-1.2-0.7-2-0.7c-0.5,0-0.9,0.1-1.2,0.2c-0.3,0.1-0.5,0.2-0.7,0.4
			c-0.2,0.2-0.4,0.4-0.5,0.7c-0.2,0.3-0.3,0.8-0.3,1.3c0,0.8,0.2,1.4,0.7,1.8c0.5,0.4,1.1,0.7,2,0.7c0.8,0,1.5-0.2,2-0.7
			c0.5-0.4,0.7-1.1,0.7-1.8C104.6,74.5,104.3,73.9,103.8,73.4z"/>
		<polygon class="st2" points="93.9,74.6 91.7,74.6 91.7,72.7 90.6,72.7 90.6,77.6 91.7,77.6 91.7,75.5 93.9,75.5 93.9,77.6 
			95.1,77.6 95.1,72.7 93.9,72.7 		"/>
		<polygon class="st2" points="83.1,72.7 80.9,77.6 82.1,77.6 82.6,76.5 84.8,76.5 85.3,77.6 86.5,77.6 84.3,72.7 		"/>
		<path class="st1" d="M129.7,73.8c-0.1-0.1-0.3-0.2-0.5-0.2c-0.2,0-0.5,0-0.9,0h-0.5v3.2h0.8c0.3,0,0.5,0,0.7,0
			c0.2,0,0.3-0.1,0.5-0.2c0.1-0.1,0.2-0.3,0.3-0.5c0.1-0.2,0.1-0.5,0.1-0.9c0-0.4,0-0.7-0.1-0.9C129.9,74.1,129.8,73.9,129.7,73.8z"
			/>
		<polygon class="st2" points="119.7,72.7 117.5,77.6 118.7,77.6 119.2,76.5 121.4,76.5 121.9,77.6 123.1,77.6 120.9,72.7 		"/>
		<path class="st2" d="M111.2,75.8h1.3v0.6c-0.2,0.1-0.4,0.2-0.6,0.3c-0.2,0.1-0.5,0.1-0.7,0.1c-0.5,0-0.9-0.1-1.2-0.4
			c-0.3-0.3-0.4-0.7-0.4-1.3c0-0.5,0.1-0.9,0.4-1.2c0.3-0.3,0.7-0.4,1.2-0.4c0.3,0,0.6,0.1,0.8,0.2c0.2,0.1,0.4,0.3,0.4,0.6l1.1-0.2
			c-0.1-0.4-0.4-0.8-0.8-1c-0.4-0.3-0.9-0.4-1.6-0.4c-0.5,0-1,0.1-1.3,0.2c-0.5,0.2-0.8,0.5-1.1,0.9c-0.2,0.4-0.4,0.8-0.4,1.4
			c0,0.5,0.1,0.9,0.3,1.3c0.2,0.4,0.5,0.7,1,0.9c0.4,0.2,0.9,0.3,1.5,0.3c0.5,0,0.9-0.1,1.4-0.2c0.4-0.2,0.8-0.3,1-0.5V75h-2.4V75.8
			z"/>
		<path class="st2" d="M103.8,73.4c-0.5-0.4-1.2-0.7-2-0.7c-0.5,0-0.9,0.1-1.2,0.2c-0.3,0.1-0.5,0.2-0.7,0.4
			c-0.2,0.2-0.4,0.4-0.5,0.7c-0.2,0.3-0.3,0.8-0.3,1.3c0,0.8,0.2,1.4,0.7,1.8c0.5,0.4,1.1,0.7,2,0.7c0.8,0,1.5-0.2,2-0.7
			c0.5-0.4,0.7-1.1,0.7-1.8C104.6,74.5,104.3,73.9,103.8,73.4z"/>
		<polygon class="st2" points="83.1,72.7 80.9,77.6 82.1,77.6 82.6,76.5 84.8,76.5 85.3,77.6 86.5,77.6 84.3,72.7 		"/>
		<polygon class="st2" points="93.9,74.6 91.7,74.6 91.7,72.7 90.6,72.7 90.6,77.6 91.7,77.6 91.7,75.5 93.9,75.5 93.9,77.6 
			95.1,77.6 95.1,72.7 93.9,72.7 		"/>
		<path class="st2" d="M130.5,73.3c-0.2-0.2-0.5-0.4-0.8-0.4c-0.2-0.1-0.6-0.1-1.1-0.1h-2.1v4.9h2.1c0.4,0,0.7,0,1-0.1
			c0.3-0.1,0.6-0.2,0.8-0.4c0.3-0.2,0.5-0.5,0.6-0.9c0.1-0.3,0.2-0.6,0.2-1c0-0.5-0.1-0.8-0.2-1.2C130.9,73.7,130.8,73.5,130.5,73.3
			z"/>
		<polygon class="st1" points="136.4,75.7 137.9,75.7 137.1,73.9 		"/>
		<path class="st2" d="M111.2,75.8h1.3v0.6c-0.2,0.1-0.4,0.2-0.6,0.3c-0.2,0.1-0.5,0.1-0.7,0.1c-0.5,0-0.9-0.1-1.2-0.4
			c-0.3-0.3-0.4-0.7-0.4-1.3c0-0.5,0.1-0.9,0.4-1.2c0.3-0.3,0.7-0.4,1.2-0.4c0.3,0,0.6,0.1,0.8,0.2c0.2,0.1,0.4,0.3,0.4,0.6l1.1-0.2
			c-0.1-0.4-0.4-0.8-0.8-1c-0.4-0.3-0.9-0.4-1.6-0.4c-0.5,0-1,0.1-1.3,0.2c-0.5,0.2-0.8,0.5-1.1,0.9c-0.2,0.4-0.4,0.8-0.4,1.4
			c0,0.5,0.1,0.9,0.3,1.3c0.2,0.4,0.5,0.7,1,0.9c0.4,0.2,0.9,0.3,1.5,0.3c0.5,0,0.9-0.1,1.4-0.2c0.4-0.2,0.8-0.3,1-0.5V75h-2.4V75.8
			z"/>
		<path class="st2" d="M103.8,73.4c-0.5-0.4-1.2-0.7-2-0.7c-0.5,0-0.9,0.1-1.2,0.2c-0.3,0.1-0.5,0.2-0.7,0.4
			c-0.2,0.2-0.4,0.4-0.5,0.7c-0.2,0.3-0.3,0.8-0.3,1.3c0,0.8,0.2,1.4,0.7,1.8c0.5,0.4,1.1,0.7,2,0.7c0.8,0,1.5-0.2,2-0.7
			c0.5-0.4,0.7-1.1,0.7-1.8C104.6,74.5,104.3,73.9,103.8,73.4z"/>
		<polygon class="st2" points="83.1,72.7 80.9,77.6 82.1,77.6 82.6,76.5 84.8,76.5 85.3,77.6 86.5,77.6 84.3,72.7 		"/>
		<polygon class="st2" points="119.7,72.7 117.5,77.6 118.7,77.6 119.2,76.5 121.4,76.5 121.9,77.6 123.1,77.6 120.9,72.7 		"/>
		<polygon class="st2" points="93.9,74.6 91.7,74.6 91.7,72.7 90.6,72.7 90.6,77.6 91.7,77.6 91.7,75.5 93.9,75.5 93.9,77.6 
			95.1,77.6 95.1,72.7 93.9,72.7 		"/>
		<path class="st2" d="M130.5,73.3c-0.2-0.2-0.5-0.4-0.8-0.4c-0.2-0.1-0.6-0.1-1.1-0.1h-2.1v4.9h2.1c0.4,0,0.7,0,1-0.1
			c0.3-0.1,0.6-0.2,0.8-0.4c0.3-0.2,0.5-0.5,0.6-0.9c0.1-0.3,0.2-0.6,0.2-1c0-0.5-0.1-0.8-0.2-1.2C130.9,73.7,130.8,73.5,130.5,73.3
			z"/>
		<polygon class="st2" points="136.5,72.7 134.4,77.6 135.6,77.6 136.1,76.5 138.3,76.5 138.8,77.6 140,77.6 137.7,72.7 		"/>
		<path class="st1" d="M78.2,71.8v6.5h72.7v-6.5H78.2z M85.3,77.6l-0.5-1.1h-2.2l-0.5,1.1h-1.2l2.1-4.9h1.2l2.2,4.9H85.3z
			 M95.1,77.6h-1.1v-2.1h-2.2v2.1h-1.1v-4.9h1.1v1.9h2.2v-1.9h1.1V77.6z M103.8,77.2c-0.5,0.4-1.1,0.7-2,0.7c-0.8,0-1.5-0.2-2-0.7
			c-0.5-0.4-0.7-1.1-0.7-1.8c0-0.5,0.1-0.9,0.3-1.3c0.1-0.2,0.3-0.5,0.5-0.7c0.2-0.2,0.5-0.3,0.7-0.4c0.3-0.1,0.7-0.2,1.2-0.2
			c0.8,0,1.5,0.2,2,0.7s0.7,1.1,0.7,1.9C104.6,76.1,104.3,76.7,103.8,77.2z M113.6,76.9c-0.2,0.2-0.6,0.4-1,0.5
			c-0.4,0.2-0.9,0.2-1.4,0.2c-0.6,0-1.1-0.1-1.5-0.3c-0.4-0.2-0.8-0.5-1-0.9c-0.2-0.4-0.3-0.8-0.3-1.3c0-0.5,0.1-1,0.4-1.4
			c0.2-0.4,0.6-0.7,1.1-0.9c0.4-0.2,0.8-0.2,1.3-0.2c0.7,0,1.2,0.1,1.6,0.4c0.4,0.3,0.6,0.6,0.8,1l-1.1,0.2
			c-0.1-0.2-0.2-0.4-0.4-0.6c-0.2-0.1-0.5-0.2-0.8-0.2c-0.5,0-0.9,0.1-1.2,0.4c-0.3,0.3-0.4,0.7-0.4,1.2c0,0.6,0.1,1,0.4,1.3
			c0.3,0.3,0.7,0.4,1.2,0.4c0.2,0,0.5,0,0.7-0.1c0.2-0.1,0.4-0.2,0.6-0.3v-0.6h-1.3V75h2.4V76.9z M121.9,77.6l-0.5-1.1h-2.2
			l-0.5,1.1h-1.2l2.1-4.9h1.2l2.2,4.9H121.9z M131.1,76.2c-0.1,0.4-0.3,0.6-0.6,0.9c-0.2,0.2-0.5,0.3-0.8,0.4
			c-0.2,0.1-0.6,0.1-1,0.1h-2.1v-4.9h2.1c0.5,0,0.8,0,1.1,0.1c0.3,0.1,0.6,0.2,0.8,0.4c0.2,0.2,0.4,0.5,0.5,0.8
			c0.1,0.3,0.2,0.7,0.2,1.2C131.3,75.6,131.2,76,131.1,76.2z M138.8,77.6l-0.5-1.1h-2.2l-0.5,1.1h-1.2l2.1-4.9h1.2l2.2,4.9H138.8z
			 M147.9,77c-0.2,0.2-0.4,0.4-0.8,0.5c-0.3,0.1-0.7,0.2-1.2,0.2c-0.7,0-1.2-0.1-1.6-0.4c-0.4-0.3-0.6-0.7-0.7-1.2l1.1-0.1
			c0.1,0.3,0.2,0.6,0.4,0.7c0.2,0.2,0.5,0.2,0.8,0.2c0.4,0,0.6-0.1,0.8-0.2c0.2-0.1,0.3-0.3,0.3-0.5c0-0.1,0-0.2-0.1-0.3
			c-0.1-0.1-0.2-0.1-0.4-0.2c-0.1,0-0.4-0.1-0.9-0.2c-0.6-0.1-1-0.3-1.3-0.5c-0.3-0.3-0.5-0.6-0.5-1c0-0.2,0.1-0.5,0.2-0.7
			c0.2-0.2,0.4-0.4,0.7-0.5c0.3-0.1,0.7-0.2,1.1-0.2c0.7,0,1.2,0.1,1.6,0.4c0.4,0.3,0.5,0.6,0.6,1.1l-1.1,0c0-0.3-0.2-0.4-0.3-0.5
			c-0.2-0.1-0.4-0.2-0.7-0.2c-0.3,0-0.6,0.1-0.8,0.2c-0.1,0.1-0.2,0.2-0.2,0.3c0,0.1,0.1,0.2,0.2,0.3c0.1,0.1,0.5,0.2,1,0.3
			c0.5,0.1,0.9,0.2,1.2,0.3c0.3,0.1,0.5,0.3,0.6,0.5c0.1,0.2,0.2,0.5,0.2,0.8C148.2,76.5,148.1,76.7,147.9,77z"/>
		<polygon class="st3" points="68.8,34.3 70.3,40.4 74.4,40.8 75.9,48.5 81.2,47.1 81.2,40.4 85.1,39.4 84.9,32.5 		"/>
		<path class="st3" d="M99.5,32.3l-2.1,15h5.5l0.5-3.7l3.4,4.1l4.9-1.3l-4.1-6.1c0,0,6.3-1.7,2.3-6.7
			C108.2,31.4,99.5,32.3,99.5,32.3z"/>
		<polygon class="st3" points="112.2,32.5 112,38.5 115.9,40 115.5,47.7 121.3,47.9 122.5,41.2 126.5,41 128.3,34.5 		"/>
		<polygon class="st3" points="129.9,33.2 126.7,47.4 131.6,47.3 132.4,45 135.5,45 136.5,46.9 141.9,46.5 135.5,32.4 		"/>
		<polygon class="st0" points="132.6,39.2 132.1,42.6 134.3,42.5 		"/>
		<path class="st3" d="M152.5,32.7c0,0-1.2,3.4-1.2,3.3c0,0-3.3-0.9-3.6,0.9c-0.3,1.8,2.6,0.7,2.7,0.7c7-3,8.5,9.1-0.3,10.1
			c-7.1,0.9-8.6-2.6-8.6-2.6l2.9-2.2c0,0,5.3,1.4,5.3-0.6c0-1.3-9.6,1.2-8.3-6.3C142.7,28.9,152.5,32.7,152.5,32.7z"/>
		<polygon class="st3" points="84.2,53.7 85.2,60 89.4,60 91.3,67.9 96.4,66.5 96.4,59.9 100.3,59 100.4,51.8 		"/>
		<polygon class="st3" points="115.7,52.9 113.1,67.2 118.6,68.1 120.8,62.8 123,68 127.2,69.1 129.2,55.1 124.2,54.1 123.6,57.4 
			120.6,53.7 		"/>
		<polygon class="st3" points="120.1,49.4 119,52.1 125.3,52.9 126.9,51.3 		"/>
		<path class="st3" d="M91.2,32.1c-6.1,0.3-5.4,8.7-5.4,8.7s0.6,7,6.6,6.3c5.9-0.6,5.4-8.2,5.4-8.2S96.8,31.9,91.2,32.1z"/>
		<path class="st0" d="M92.5,38.4c0.1,1-0.2,1.8-0.7,1.8c-0.5,0-0.9-0.7-1-1.7c-0.1-1,0.2-1.8,0.7-1.8C92,36.7,92.4,37.4,92.5,38.4z
			"/>
		<path class="st3" d="M136.1,52.9c-6.1,0.3-5.4,8.7-5.4,8.7s0.6,7,6.6,6.3c5.9-0.6,5.4-8.2,5.4-8.2S141.7,52.6,136.1,52.9z"/>
		<path class="st0" d="M137.4,59.2c0.1,1-0.2,1.8-0.7,1.8c-0.5,0-0.9-0.7-1-1.7c-0.1-1,0.2-1.8,0.7-1.8
			C136.9,57.5,137.4,58.2,137.4,59.2z"/>
		<path class="st3" d="M107.1,51.8c-6.1,0.3-5.4,8.7-5.4,8.7s0.6,7,6.6,6.3c5.9-0.6,5.4-8.2,5.4-8.2S112.7,51.6,107.1,51.8z"/>
		<path class="st0" d="M108.5,58.1c0.1,1-0.2,1.8-0.7,1.8c-0.5,0-0.9-0.7-1-1.7c-0.1-1,0.2-1.8,0.7-1.8
			C108,56.4,108.4,57.2,108.5,58.1z"/>
		<path class="st0" d="M103.7,37.7c0.2,0.5,1,0.7,1.7,0.4c0.7-0.3,1.2-1,0.9-1.6c-0.2-0.5-1-0.7-1.7-0.4
			C103.9,36.5,103.5,37.2,103.7,37.7z"/>
		<polygon class="st3" points="145.4,64.4 145.3,67.8 146.3,67.7 146.6,66.9 146.8,67.6 147.7,67.8 148,67.2 148.2,67.9 149.3,67.8 
			149.5,64.5 148.1,64.5 147.3,66 146.8,64.4 		"/>
		<path class="st3" d="M150.1,64.5l-0.1,3.3l1.1,0l0.5-1l0.6,1.1l1,0l-0.2-1.6c0,0,0.8-1.5-0.3-1.9
			C151.7,64.1,150.1,64.5,150.1,64.5"/>
		<path class="st3" d="M154.9,67.5c0,0.3-0.3,0.6-0.6,0.6c-0.3,0-0.6-0.3-0.6-0.6c0-0.3,0.3-0.6,0.6-0.6
			C154.7,66.9,154.9,67.2,154.9,67.5z"/>
		<path class="st0" d="M151.8,65.7c0,0.1-0.1,0.2-0.3,0.2c-0.1,0-0.3-0.1-0.3-0.2c0-0.1,0.1-0.2,0.3-0.2
			C151.7,65.5,151.8,65.6,151.8,65.7z"/>
		<path class="st4" d="M167.8,22.6H57.2c-1.9,0-3.4,1.6-3.4,3.6v57.7c0,2,1.5,3.6,3.4,3.6h110.6c1.9,0,3.4-1.6,3.4-3.6V26.1
			C171.2,24.2,169.7,22.6,167.8,22.6z M165.2,81.1c-4.9,0-100.5,0-105.4,0c0-4.8,0-47.5,0-52.2c4.9,0,100.5,0,105.4,0
			C165.2,33.6,165.2,76.4,165.2,81.1z"/>
	</g>
</g>
</svg>
