<?xml version="1.0" encoding="utf-8"?>
<!-- Generator: Adobe Illustrator 24.0.1, SVG Export Plug-In . SVG Version: 6.00 Build 0)  -->
<svg version="1.1" id="Capa_1" xmlns="http://www.w3.org/2000/svg" xmlns:xlink="http://www.w3.org/1999/xlink" x="0px" y="0px"
	 viewBox="0 0 225 110" style="enable-background:new 0 0 225 110;" xml:space="preserve">
<style type="text/css">
	.st0{fill:#00A7E1;}
	.st1{fill:#6F2277;}
</style>
<g>
	<g>
		<path class="st0" d="M29.2,74.3c0.4-0.1,1.1-0.2,1.7-0.2c0.8,0,1.5,0.2,1.9,0.6c0.4,0.3,0.6,0.8,0.6,1.4c0,0.9-0.4,1.6-0.9,2
			C31.9,78.7,31,79,30.1,79c-0.3,0-0.6,0-0.8-0.1l-0.6,3.2h-1L29.2,74.3z M29.4,78.1c0.3,0.1,0.5,0.1,0.8,0.1c1.3,0,2.2-0.8,2.2-1.9
			c0-0.9-0.7-1.3-1.6-1.3c-0.4,0-0.7,0-0.9,0.1L29.4,78.1z"/>
		<path class="st0" d="M43.5,74.3c0.5-0.1,1.1-0.2,1.7-0.2c0.8,0,1.5,0.2,1.9,0.6c0.4,0.3,0.6,0.8,0.6,1.3c0,1.1-0.9,2-1.9,2.3l0,0
			c0.6,0.2,0.8,0.8,0.9,1.6c0.1,1.1,0.1,1.9,0.2,2.2h-1c0-0.2-0.1-1-0.2-1.9c-0.1-1.1-0.5-1.5-1.2-1.5h-0.9L43,82.1h-1L43.5,74.3z
			 M43.8,77.9h0.9c1.2,0,2-0.8,2-1.7c0-0.9-0.6-1.2-1.5-1.2c-0.4,0-0.6,0-0.8,0.1L43.8,77.9z"/>
		<path class="st0" d="M59.9,82.2c-2,0-3-1.5-3-3.2c0-1.4,0.5-2.8,1.4-3.8c0.7-0.7,1.7-1.1,2.7-1.1c2.1,0,3,1.5,3,3.2
			c0,1.3-0.5,2.8-1.4,3.7C61.9,81.8,61,82.2,59.9,82.2L59.9,82.2z M60,81.4c1.7,0,3-2.1,3-4c0-1.1-0.4-2.5-2.1-2.5c-1.8,0-3,2.2-3,4
			C57.9,80.2,58.5,81.4,60,81.4L60,81.4z"/>
		<path class="st0" d="M79.5,82.1l0.6-4.3c0.1-0.7,0.3-1.9,0.4-2.7h0c-0.4,0.8-0.8,1.7-1.2,2.5L76.9,82h-0.7l-0.6-4.2
			c-0.1-0.9-0.2-1.8-0.2-2.6h0c-0.2,0.7-0.4,1.9-0.6,2.7l-1.1,4.3h-0.9l2-7.9H76l0.6,4.5c0.1,0.7,0.2,1.4,0.2,2h0
			c0.2-0.6,0.6-1.3,0.9-2l2.4-4.5h1.3l-1,7.9H79.5z"/>
		<path class="st0" d="M93.6,82.2c-2,0-3-1.5-3-3.2c0-1.4,0.5-2.8,1.4-3.8c0.7-0.7,1.7-1.1,2.7-1.1c2.1,0,3,1.5,3,3.2
			c0,1.3-0.5,2.8-1.4,3.7C95.7,81.8,94.7,82.2,93.6,82.2L93.6,82.2z M93.7,81.4c1.7,0,3-2.1,3-4c0-1.1-0.4-2.5-2.1-2.5
			c-1.8,0-3,2.2-3,4C91.6,80.2,92.2,81.4,93.7,81.4L93.7,81.4z"/>
		<path class="st0" d="M119.7,74.3c0.6-0.1,1.3-0.2,1.9-0.2c1.3,0,2.3,0.4,2.9,1c0.4,0.4,0.7,1.1,0.7,2.1c0,1.4-0.6,2.9-1.6,3.7
			c-0.9,0.8-2.1,1.1-3.6,1.1c-0.7,0-1.4,0-1.9-0.1L119.7,74.3z M119.3,81.3c0.4,0,0.7,0.1,1,0.1c1.3,0,2.2-0.4,2.8-1
			c0.7-0.7,1.1-1.8,1.1-3c0-1.4-0.7-2.4-2.6-2.4c-0.4,0-0.8,0-1.1,0.1L119.3,81.3z"/>
		<path class="st0" d="M138.7,78.4h-2.9l-0.5,2.9h3.2l-0.2,0.8h-4.2l1.5-7.9h4l-0.2,0.8h-3l-0.5,2.5h2.9L138.7,78.4z"/>
		<path class="st0" d="M148.2,80.9c0.4,0.3,1,0.5,1.7,0.5c0.9,0,1.7-0.5,1.7-1.5c0-0.6-0.3-1-1.2-1.5c-1-0.5-1.6-1.2-1.6-2
			c0-1.4,1.2-2.3,2.7-2.3c0.8,0,1.3,0.2,1.6,0.4l-0.4,0.8c-0.2-0.2-0.7-0.4-1.4-0.4c-1,0-1.6,0.6-1.6,1.3c0,0.6,0.4,1,1.2,1.5
			c1,0.5,1.5,1.1,1.5,2.1c0,1.4-1.1,2.4-2.8,2.4c-0.8,0-1.6-0.3-1.9-0.5L148.2,80.9z"/>
		<path class="st0" d="M164.4,74.2l-1.5,7.9h-1l1.5-7.9H164.4z"/>
		<path class="st0" d="M178.8,81.7c-0.5,0.2-1.3,0.4-2.2,0.4c-1.1,0-2-0.3-2.6-1c-0.6-0.7-0.8-1.5-0.8-2.3c0-1.3,0.5-2.7,1.5-3.6
			c0.9-0.7,2-1.2,3.2-1.2c1,0,1.6,0.2,1.9,0.4l-0.3,0.8c-0.4-0.2-0.9-0.3-1.6-0.3c-0.9,0-1.8,0.3-2.4,1c-0.7,0.7-1.2,1.8-1.2,2.9
			c0,1.5,0.8,2.5,2.5,2.5c0.5,0,0.9-0.1,1.2-0.2l0.5-2.3h-1.6L177,78h2.5L178.8,81.7z"/>
		<path class="st0" d="M188.7,82.1l1.5-7.9h1.1l1.8,4.5c0.4,0.9,0.5,1.5,0.7,2.2l0,0c0-0.7,0.1-1.4,0.3-2.5l0.8-4.2h0.9l-1.5,7.9h-1
			l-1.8-4.5c-0.4-1-0.5-1.5-0.7-2.3l0,0c-0.1,0.7-0.2,1.5-0.4,2.6l-0.8,4.1H188.7z"/>
	</g>
	<g>
		<g>
			<path class="st0" d="M94.2,64.6l6.6-35h4.1L102,45h0.1c2-2.9,4.9-4.7,8.5-4.7c2.7,0,5.9,1.6,5.9,6.4c0,1.2-0.1,2.8-0.4,4l-2.7,14
				h-4.1l2.7-13.8c0.1-0.8,0.3-2,0.3-3.3c0-2.2-1-3.9-3.7-3.9c-3.2,0-7.1,3.7-8.1,9l-2.2,12H94.2z"/>
			<path class="st0" d="M127.2,65.1c-6,0-9.3-4.4-9.3-9.8c0-7.9,5.5-15.1,13.2-15.1c6.4,0,9.4,4.9,9.4,9.9
				C140.4,57.5,135.2,65.1,127.2,65.1L127.2,65.1z M127.7,61.9c4.8,0,8.5-6.2,8.5-11.8c0-2.8-1.3-6.6-5.6-6.6
				c-5.1,0-8.5,6.3-8.5,11.7C122,59.1,124.2,61.9,127.7,61.9L127.7,61.9z"/>
			<path class="st0" d="M163.6,40.8l-3.2,16.9c-0.5,2.7-0.8,5-1,6.9h-3.7l0.6-4.5h-0.1c-2.2,3.1-5.3,5-8.4,5c-3.1,0-6.3-1.5-6.3-6.9
				c0-1.1,0.1-2.5,0.4-4l2.6-13.4h4L146,54.1c-0.2,1.3-0.4,2.5-0.4,3.5c0,2.5,1,4.1,3.8,4.1c3,0,6.8-3.5,7.8-8.7l2.3-12.2H163.6z"/>
			<path class="st0" d="M163.5,60.5c1.1,0.7,3.2,1.5,5.1,1.5c2.8,0,4.5-1.8,4.5-3.9c0-1.9-0.8-3.1-3.3-4.4c-2.8-1.5-4.3-3.6-4.3-6.1
				c0-4.2,3.6-7.4,8.7-7.4c2.1,0,4,0.6,4.9,1.2l-1.1,3.1c-0.8-0.5-2.3-1.1-4.1-1.1c-2.5,0-4.3,1.6-4.3,3.6c0,1.7,1.1,2.8,3.3,4
				c2.7,1.5,4.4,3.6,4.4,6.3c0,5-4,7.8-9.1,7.8c-2.6,0-4.8-0.8-5.9-1.6L163.5,60.5z"/>
			<path class="st0" d="M195.8,63.3c-1.8,1-4.7,1.9-7.9,1.9c-6.3,0-9.1-4.3-9.1-9.6c0-7.2,5.3-15.3,13-15.3c4.5,0,7,2.7,7,6.2
				c0,6.3-7,7.9-15.9,7.7c-0.2,1,0,3.3,0.5,4.5c0.9,2.2,2.9,3.2,5.3,3.2c2.8,0,4.9-0.8,6.4-1.6L195.8,63.3z M195,46.4
				c0-1.9-1.5-3-3.6-3c-3.9,0-6.8,3.8-7.8,7.5C189.9,51.1,195,50.2,195,46.4L195,46.4z"/>
		</g>
		<g>
			<path class="st1" d="M27.4,64.6l-1.3-34.7h7.5v15.4c0,4.2-0.1,8.1-0.2,11.3h0.1c1.2-3.4,2.5-6.9,4.1-11.2l6.2-15.5H52l-0.1,15.5
				c-0.1,4.2-0.2,7.6-0.4,11h0.1c1.2-3.6,2.5-7.3,3.9-11.1l6-15.4h7.8L54,64.6h-8.1l-0.2-14.2c-0.1-4.1,0.1-7.6,0.3-11.5h-0.1
				c-1.2,3.7-2.5,7.5-4.2,11.7l-6,14.1H27.4z"/>
			<path class="st1" d="M64.3,64.6l4.8-25.2h7.4l-4.7,25.2H64.3z M73.7,36.1c-2.2,0-3.8-1.5-3.8-3.9c0-2.7,2.1-4.5,4.5-4.5
				c2.3,0,4,1.5,4,3.9C78.4,34.5,76.2,36.1,73.7,36.1L73.7,36.1z"/>
			<path class="st1" d="M90.1,32.6l-1.3,6.8h5.4l-1.1,5.7h-5.4L86,53.6c-0.2,1-0.4,2.3-0.4,3.2c0,1.2,0.5,2.1,2.2,2.1
				c0.6,0,1.4,0,2-0.1L89,64.6c-1,0.4-2.8,0.6-4.4,0.6c-4.5,0-6.6-2.3-6.6-5.5c0-1.3,0.2-2.7,0.6-4.6l1.9-10h-3.2l1-5.7h3.2l0.9-4.7
				L90.1,32.6z"/>
		</g>
	</g>
</g>
</svg>
