<?xml version="1.0" encoding="utf-8"?>
<!-- Generator: Adobe Illustrator 24.3.0, SVG Export Plug-In . SVG Version: 6.00 Build 0)  -->
<svg version="1.1" id="Capa_1" xmlns="http://www.w3.org/2000/svg" xmlns:xlink="http://www.w3.org/1999/xlink" x="0px" y="0px"
	 viewBox="0 0 225 110" style="enable-background:new 0 0 225 110;" xml:space="preserve">
<style type="text/css">
	.st0{fill-rule:evenodd;clip-rule:evenodd;fill:#ECABC9;}
	.st1{fill-rule:evenodd;clip-rule:evenodd;fill:#9B338A;}
	.st2{fill:#ECABC9;}
	.st3{fill:#9B338A;}
	.st4{fill:#512149;}
	.st5{fill:#D9C6D8;}
	.st6{fill:#8C3380;}
	.st7{fill:#0B8039;}
	.st8{fill:#A0C791;}
	.st9{fill:#64A93A;}
</style>
<g>
	<polygon class="st0" points="129.4,61.1 160,59.1 162.2,100.5 123.8,103 122.1,69.1 123.4,67.8 125.2,101.4 160.7,99.1 158.7,60.6 
		127.8,62.8 	"/>
	<polygon class="st0" points="125.7,71.3 125.8,65.1 127.8,63 127.8,71.3 	"/>
	<polygon class="st0" points="133.3,63.2 131.5,63.1 131.5,66.7 130.4,63.1 128.6,63.2 128.6,71.3 130.3,71.3 130.4,67.6 
		131.4,71.3 133.3,71.3 	"/>
	<polygon class="st0" points="139.3,90.3 137.4,90.3 137.4,94 136.2,90.3 134.3,90.3 134.3,98.9 136.1,98.9 136.2,95 137.2,99 
		139.3,99 	"/>
	<polygon class="st0" points="133.6,63.2 133.6,64.8 134.9,64.8 135,71.3 137,71.3 136.9,64.8 138.2,64.8 138.2,63.2 	"/>
	<polygon class="st0" points="138.7,63.1 138.7,71.3 142.3,71.3 142.3,69.7 140.7,69.7 140.7,67.8 142,67.8 142,66.3 140.8,66.3 
		140.8,64.8 142.2,64.8 142.2,63.1 	"/>
	<polygon class="st0" points="142.9,63.2 142.9,71.3 144.6,71.3 144.6,67.6 145.7,71.3 147.5,71.3 147.5,63.2 145.8,63.2 
		145.8,66.8 144.6,63.1 	"/>
	<path class="st0" d="M150.8,65.6h1.9c0-0.7,0.2-1.5-0.5-2.1c-0.8-0.7-2-0.7-3-0.3c-0.7,0.3-1.1,1-1.1,1.8c0,0.5,0.1,1.1,0.4,1.5
		c0.4,0.7,1.4,1.3,2.2,1.8c0.4,0.3,0.3,1,0.2,1.5c0,0.3-0.7,0.2-0.7-0.1l0-1.4h-1.8c0,0.6-0.1,1.8,0.3,2.2c0.7,0.8,1.7,1.1,2.8,0.8
		c0.4-0.1,0.9-0.3,1.1-0.6c0.6-1.2,0.8-2.7-0.3-3.8c-0.7-0.6-1-0.5-1.7-1.3c-0.3-0.3-0.4-0.7-0.3-1c0.1-0.4,0.6-0.5,0.6,0.1
		L150.8,65.6z"/>
	<path class="st0" d="M128.3,92.9h2.1c0-0.7,0.2-1.6-0.5-2.2c-0.9-0.7-2.1-0.8-3.3-0.4c-0.8,0.3-1.2,1.1-1.2,2
		c0,0.6,0.1,1.1,0.4,1.6c0.4,0.8,1.5,1.4,2.3,1.9c0.4,0.3,0.3,1.1,0.2,1.6c0,0.3-0.8,0.2-0.8-0.1l0-1.5h-2c0,0.6-0.1,2,0.3,2.4
		c0.7,0.9,1.8,1.1,3,0.9c0.4-0.1,1-0.3,1.2-0.7c0.7-1.3,0.8-2.9-0.4-4c-0.7-0.7-1.1-0.5-1.9-1.3c-0.3-0.3-0.4-0.8-0.3-1.1
		c0.1-0.4,0.7-0.6,0.7,0.1L128.3,92.9z"/>
	<path class="st0" d="M156,92.9h2.1c0-0.7,0.2-1.6-0.5-2.2c-0.9-0.7-2.1-0.8-3.3-0.4c-0.8,0.3-1.2,1.1-1.2,2c0,0.6,0.1,1.1,0.4,1.6
		c0.4,0.8,1.5,1.4,2.3,1.9c0.5,0.3,0.3,1.1,0.3,1.6c0,0.3-0.8,0.2-0.8-0.1v-1.5h-2c0,0.6-0.2,2,0.3,2.4c0.8,0.9,1.8,1.1,3,0.9
		c0.4-0.1,1-0.3,1.2-0.7c0.7-1.3,0.8-2.9-0.3-4c-0.7-0.7-1.1-0.5-1.9-1.4c-0.3-0.3-0.4-0.8-0.3-1.1c0.1-0.4,0.7-0.6,0.7,0.1
		L156,92.9z"/>
	<path class="st1" d="M125.7,72.3h4.3l0.1,13.5c-0.1,1.4,1.2,1.5,1.1-0.1v-1v-1v-6l0.1-5.3l4.3,0l0,12.7c0,1.9-0.5,2.9-1.6,3.7
		c-1.3,1-2.7,1.2-4.4,0.9c-2-0.4-3.9-1.3-3.9-4.6l-0.1-3.3V72.3z"/>
	<polygon class="st1" points="136.4,72.3 137.5,79.5 138.1,82.9 138.9,89.3 145.5,89.3 147.8,72.4 145.7,72.4 143.2,72.4 
		142.2,84.1 141,72.3 	"/>
	<polygon class="st0" points="131.3,90.3 133.4,90.3 133.4,98.9 131.3,98.9 	"/>
	<path class="st0" d="M144.9,93.5h2l0-1.9c0-2.1-5.1-2.1-4.9,0.8c0,1.8,0.1,3.5,0.1,5.3c0.2,1.2,2.5,2.1,3.5,0.5l0,0.7h1.5l0-4.6
		l-2.4,0l0,1.1h0.4l0,2c0,0.3-0.7,0.3-0.7-0.1l0-5.4c-0.1-0.5,0.7-0.7,0.7,0V93.5z"/>
	<g>
		<path class="st2" d="M155.3,69.8h0.9v1.5h2.1l-1.1-8.1l-3,0l-1,8.2h2.2V69.8z M155.7,65.1l0.4,3.3h-0.9L155.7,65.1z"/>
		<path class="st2" d="M148.6,90.3l-1.1,8.6l2.3,0v-1.6h0.9l0,1.7h2.2l-1.2-8.6H148.6z M149.8,95.9l0.4-3.6l0.4,3.6H149.8z"/>
		<path class="st3" d="M149.5,72.3l-2.3,17l4.5,0l0.2-3h1.8l0.2,3l4.4,0l-2.5-17L149.5,72.3z M151.9,83.2l0.9-7.4l0.7,7.4H151.9z"/>
	</g>
	<path class="st4" d="M142.9,33.5c-1.8,1.5-3.8,1.1-5.1-1.3l-4.8-9.3c-1.3-2.5-0.8-5,1-6.7L142.9,33.5z M140.9,5.5l-5.7,5.4
		c0,0,0,0,0,0l-8,7.5c-3,2.8-3.8,7.8-2,11.3l4.7,9c1.7,3.3,5.4,4.1,8.4,2c-16.1,20.6-52.6,29.2-31.2,63.5
		c-6.2-27,34.3-44.5,40.2-70.8l5.4-4.3L145.2,14c-0.3-0.7-0.6-1.4-1-2.1c0,0.1,0,0.1,0.1,0.2L140.9,5.5z M77.2,69.5
		c-0.1-0.3-0.2-0.5-0.3-0.7c-0.6-1-1.5-1.3-2.2-0.7l-9.2,8.7l1.1,1.8l5-4.7l1.6,15.5l0.1,0.4c0.1,0.2,0.2,0.5,0.3,0.7
		c0.5,0.9,1.4,1.2,2,0.7l9.7-7.8l-1.1-1.9L78.7,86L77.3,70L77.2,69.5z M102.5,61.9l-6.1-11c1.3-1.2,2.8-0.8,3.9,1.3l6.1,11.1
		C105.1,64.4,103.6,64,102.5,61.9z M103.7,68.7l5.9-4.8c0,0,0,0,0,0l4.2-3.4l-7.5-13.7c-1.7-3.1-5-3.9-7.3-1.7l-3.9,3.6l-4.3-7.7
		l-5.4,5.4l11.3,20.2C98.4,69.6,101.5,70.4,103.7,68.7z M98.5,72.8L88.6,55l-5.1,4.8l8.6,15.3c-1.1,0.9-2.5,0.5-3.6-1.4l-6.9-12.1
		l-4.7,4.5l6.7,11.8c1.5,2.6,4.3,3.5,6.2,2L98.5,72.8z M118.7,48.3l-6.5-12c1.5-1.4,3.2-1,4.4,1.3l6.5,12.1
		C121.5,50.9,119.9,50.5,118.7,48.3z M119.8,55.7l7-5.6c0,0,0,0,0,0l4.9-4l-7.9-15c-1.8-3.4-5.5-4.1-8.3-1.5l-4.5,4.3l-4.5-8.4
		l-6.3,6.4l12,22C113.8,56.9,117.2,57.8,119.8,55.7z"/>
	<path class="st5" d="M74.5,69.7c-0.1-0.3-0.2-0.5-0.3-0.7c-0.6-1-1.5-1.3-2.2-0.7L62.8,77l1.1,1.8l5-4.7l1.6,15.5l0.1,0.4
		c0.1,0.2,0.1,0.5,0.3,0.7c0.5,0.9,1.4,1.2,2,0.7l9.7-7.8l-1.1-1.9L76,86.3l-1.4-16.1L74.5,69.7z M140.1,33.7
		c-1.8,1.5-3.8,1.1-5.1-1.3l-4.8-9.3c-1.3-2.5-0.8-5,0.9-6.7L140.1,33.7z M132.5,11.2C132.5,11.2,132.5,11.2,132.5,11.2l-8,7.5
		c-3,2.8-3.8,7.8-2,11.3l4.7,9c1.8,3.4,5.7,4.2,8.7,1.7l5.5-4.4v0l8.7-7L138.2,5.8L132.5,11.2z M103.7,63.6c-1.3,1.1-2.8,0.6-4-1.4
		l-6.1-11c1.3-1.2,2.8-0.8,3.9,1.3L103.7,63.6z M96.3,45.4L92.4,49l-4.3-7.7l-5.4,5.4L94.1,67c1.6,2.8,4.6,3.7,6.9,2l5.9-4.8
		c0,0,0,0,0,0l4.2-3.4l-7.5-13.7C101.9,44,98.6,43.2,96.3,45.4z M89.3,75.4c-1.1,0.9-2.5,0.5-3.6-1.4l-6.9-12.1l-4.7,4.5l6.7,11.8
		c1.5,2.6,4.3,3.5,6.2,2l8.7-7l-10-17.8l-5.1,4.8L89.3,75.4z M120.4,49.9c-1.6,1.3-3.3,0.8-4.4-1.4l-6.5-12c1.5-1.4,3.2-1,4.4,1.3
		L120.4,49.9z M112.7,29.9l-4.5,4.3l-4.5-8.4l-6.3,6.4l12,22c1.7,3.1,5.1,4,7.7,1.9l7-5.6c0,0,0,0,0,0l4.9-4l-7.9-15
		C119.2,28,115.4,27.3,112.7,29.9z"/>
	<path class="st6" d="M75.9,69.7c-0.1-0.3-0.2-0.5-0.3-0.7c-0.6-1-1.5-1.3-2.2-0.7L64.3,77l1.1,1.8l5-4.7l1.6,15.5l0.1,0.4
		c0.1,0.2,0.1,0.5,0.3,0.7c0.5,0.9,1.4,1.2,2,0.7l9.7-7.8L83,81.8l-5.5,4.5L76,70.2L75.9,69.7z M141.6,33.7
		c-1.8,1.5-3.8,1.1-5.1-1.3l-4.8-9.3c-1.3-2.5-0.8-5,0.9-6.7L141.6,33.7z M133.9,11.2C133.9,11.2,133.9,11.2,133.9,11.2l-8,7.5
		c-3,2.8-3.8,7.8-2,11.3l4.7,9c1.8,3.4,5.7,4.2,8.7,1.7l5.5-4.4v0l8.7-7L139.6,5.8L133.9,11.2z M105.1,63.6c-1.3,1.1-2.8,0.6-4-1.4
		l-6.1-11c1.3-1.2,2.8-0.8,3.9,1.3L105.1,63.6z M97.7,45.4L93.9,49l-4.3-7.7l-5.4,5.4L95.5,67c1.6,2.8,4.6,3.7,6.9,2l5.9-4.8
		c0,0,0,0,0,0l4.2-3.4L105,47.1C103.3,44,100,43.2,97.7,45.4z M90.8,75.4c-1.1,0.9-2.5,0.5-3.6-1.4l-6.9-12.1l-4.7,4.5l6.7,11.8
		c1.5,2.6,4.3,3.5,6.2,2l8.7-7l-10-17.8l-5.1,4.8L90.8,75.4z M121.8,49.9c-1.6,1.3-3.3,0.8-4.5-1.4l-6.5-12c1.5-1.4,3.2-1,4.4,1.3
		L121.8,49.9z M114.2,29.9l-4.5,4.3l-4.5-8.4l-6.3,6.4l12,22c1.7,3.1,5.1,4,7.7,1.9l7-5.6c0,0,0,0,0,0l4.9-4l-7.9-15
		C120.6,28,116.9,27.3,114.2,29.9z"/>
	<path class="st7" d="M106,104.5c-7.7-33.8,57.4-52.7,36.9-92.3C155.1,58.6,76.8,57.7,106,104.5z"/>
	<path class="st8" d="M104.5,104.5c-7.7-33.8,57.4-52.7,36.9-92.3C153.6,58.6,75.3,57.7,104.5,104.5z"/>
	<path class="st9" d="M105.2,104.5c-7.7-33.8,57.4-52.7,36.9-92.3C154.3,58.6,76.1,57.7,105.2,104.5z"/>
</g>
</svg>
