<?xml version="1.0" encoding="utf-8"?>
<!-- Generator: Adobe Illustrator 24.0.1, SVG Export Plug-In . SVG Version: 6.00 Build 0)  -->
<svg version="1.1" id="Layer_1" xmlns="http://www.w3.org/2000/svg" xmlns:xlink="http://www.w3.org/1999/xlink" x="0px" y="0px"
	 viewBox="0 0 217.9 234" style="enable-background:new 0 0 217.9 234;" xml:space="preserve">
<style type="text/css">
	.st0{fill:#DD0031;}
	.st1{fill:#C3002F;}
	.st2{fill:#FFFFFF;}
</style>
<g>
	<polygon class="st0" points="108.9,0 108.9,0 108.9,0 0,38.8 16.6,182.9 108.9,234 108.9,234 108.9,234 201.2,182.9 217.9,38.8 	
		"/>
	<polygon class="st1" points="108.9,0 108.9,26 108.9,25.9 108.9,144.4 108.9,144.4 108.9,234 108.9,234 201.2,182.9 217.9,38.8 	
		"/>
	<path class="st2" d="M108.9,25.9L40.8,178.5l0,0h25.4l0,0l13.7-34.2h57.8l13.7,34.2l0,0h25.4l0,0L108.9,25.9L108.9,25.9L108.9,25.9
		L108.9,25.9L108.9,25.9z M128.8,123.3H89l19.9-47.9L128.8,123.3z"/>
</g>
</svg>
