<?xml version="1.0" encoding="utf-8"?>
<!-- Generator: Adobe Illustrator 24.3.0, SVG Export Plug-In . SVG Version: 6.00 Build 0)  -->
<svg version="1.1" id="Capa_1" xmlns="http://www.w3.org/2000/svg" xmlns:xlink="http://www.w3.org/1999/xlink" x="0px" y="0px"
	 viewBox="0 0 246.2 234" style="enable-background:new 0 0 246.2 234;" xml:space="preserve">
<style type="text/css">
	.st0{fill:#7BC0CA;}
	.st1{fill:url(#SVGID_1_);}
	.st2{fill:url(#SVGID_2_);}
	.st3{fill:url(#SVGID_3_);}
	.st4{fill:url(#SVGID_4_);}
</style>
<g>
	<path class="st0" d="M216.8,168.9c-4.7-4.5-9.7-8.7-14.8-12.7c-7.4-5.8-15.1-11.1-23.1-16c-9.8-5.9-20.1-10.6-30.5-15.5
		c0-0.3-3.6-1.7-4-1.9c-1.3-0.6-2.6-1.2-4-1.8c-2.9-1.3-5.7-2.5-8.6-3.8c-5.7-2.4-11.5-4.8-17.2-7c-7.6-2.9-15.7-5.1-22.9-9.2
		c-5.3-3-10-7-12.9-12.5c-3.4-6.4-3.7-13.7-2.5-20.7c-0.8,3.8-1.2,7.7-1,11.5c0.6,8.8,6.2,16,13.4,20.8c5.4,3.6,11.5,6,17.6,8.1
		c21.8,7.8,43.2,17.4,63.7,28.3c9.9,5.3,19.5,10.8,28.5,17.5c4.8,3.6,9.3,7.5,13.9,11.5l-0.1-0.2l0.1,0.2c2.9,2.6,5.8,5.2,8.8,7.7
		c0.3,0.2,0.6,0.5,0.9,0.7l0,0l0,0C220.4,172.3,218.6,170.6,216.8,168.9z"/>
	<radialGradient id="SVGID_1_" cx="82.7445" cy="83.0389" r="164.9581" fx="81.3071" fy="83.041" gradientUnits="userSpaceOnUse">
		<stop  offset="0" style="stop-color:#9ACCD3"/>
		<stop  offset="0.1772" style="stop-color:#95C8CF"/>
		<stop  offset="0.3801" style="stop-color:#87BEC4"/>
		<stop  offset="0.5958" style="stop-color:#70ADB2"/>
		<stop  offset="0.8187" style="stop-color:#519598"/>
		<stop  offset="1" style="stop-color:#317D7F"/>
	</radialGradient>
	<path class="st1" d="M77.6,62.7c-0.5,1.7-0.9,3.5-1.2,5.2c-1.2,7-0.9,14.4,2.5,20.7c2.9,5.4,7.6,9.5,12.9,12.5
		c7.2,4,15.2,6.2,22.9,9.2c5.8,2.2,11.5,4.6,17.2,7c2.9,1.2,5.8,2.5,8.6,3.8c1.3,0.6,2.7,1.2,4,1.8c0.4,0.2,4,1.6,4,1.9
		c10.4,4.8,20.7,9.6,30.5,15.5c8,4.8,15.7,10.2,23.1,16c5.1,4,10.1,8.3,14.8,12.7c1.8,1.7,3.6,3.4,5.2,5.2l0,0L153.7,3.4
		c-19.2-5-42.4-3.4-54.1-2.1c-3.9,9.9-7.7,19.8-11.4,29.9C84.5,41.6,80.5,52,77.6,62.7z"/>
	
		<radialGradient id="SVGID_2_" cx="227.2029" cy="196.5621" r="11.2341" fx="217.7694" fy="197.0038" gradientTransform="matrix(0.9414 -0.3372 1.1096 3.0979 -204.7963 -335.758)" gradientUnits="userSpaceOnUse">
		<stop  offset="0" style="stop-color:#236D74"/>
		<stop  offset="0.4725" style="stop-color:#16888C"/>
		<stop  offset="1" style="stop-color:#05ABAC"/>
	</radialGradient>
	<path class="st2" d="M222,174.1C222,174.1,222,174.1,222,174.1c-3.2-2.7-6.4-5.6-9.6-8.4l23.8,61.7l5.6-2.9
		c0.2-0.1,0.3-0.3,0.2-0.6L222,174.1z"/>
	<path class="st0" d="M212.4,165.7l22.2,61.9c0.7,0,1,0.1,1,0.1l0.5-0.3L212.4,165.7C212.4,165.7,212.4,165.7,212.4,165.7z"/>
	
		<radialGradient id="SVGID_3_" cx="140.1493" cy="153.0815" r="169.4289" fx="119.9432" fy="150.0043" gradientTransform="matrix(-3.160435e-02 0.9995 -0.6757 -2.136647e-02 248.0194 16.273)" gradientUnits="userSpaceOnUse">
		<stop  offset="0.2614" style="stop-color:#236D74"/>
		<stop  offset="0.5552" style="stop-color:#16888C"/>
		<stop  offset="0.8833" style="stop-color:#05ABAC"/>
	</radialGradient>
	<path class="st3" d="M212.4,165.7c-4.5-4-9.1-7.9-13.9-11.5c-9-6.7-18.6-12.2-28.5-17.5c-20.4-10.9-41.8-20.5-63.7-28.3
		c-6.1-2.2-12.2-4.5-17.6-8.1C81.6,95.4,76,88.3,75.4,79.5c-0.3-3.9,0.2-7.7,1-11.5c0.1-0.7,0.1-0.7,0,0c0.4-1.8,0.8-3.5,1.2-5.2
		c2.9-10.7,6.9-21.1,10.6-31.5c3.6-10,7.4-20,11.4-29.9c-1.1,0.1-2,0.2-2.9,0.3l-9.1,22.2c0,0-4.9,13.2-5.9,16.1
		c0,0.1-0.1,0.2-0.1,0.2c0,0,0,0,0,0.1c-9.7,27.5-15.2,52.5-18.7,77c-9.3,64.9-2.3,116.7-2.3,116.7c0,0,0,0,0,0
		c3.3,0.2,6.9-0.1,10.1-1.1c5.6-1.7,8.3-6.4,9.6-11.9c1.2-5.2,1.5-10.7,2.3-16c0.9-5.4,1.9-10.7,3.1-16c2.2-10.1,4.7-20.1,8.3-29.8
		c2.6-7.1,5.6-14.3,10.2-20.4c3-4,6.2-7.8,11.3-8.9c7.6-1.6,15,2.9,20.3,8c5.1,4.9,9,10.9,12.5,17.1c3.8,6.8,7,14,9.9,21.3
		c2.7,6.9,5,13.9,7.2,21c1.6,5.3,3,10.6,4.4,16c0.5,2.1,1,4.2,1.5,6.4c0.3,1.6,1.6,3.5,3.4,3.6c0.2,0,52.1,3.8,60.2,4.3L212.4,165.7
		z"/>
	<radialGradient id="SVGID_4_" cx="35.0065" cy="112.7946" r="119.3106" fx="-9.575" fy="113.2999" gradientUnits="userSpaceOnUse">
		<stop  offset="0" style="stop-color:#05ABAC"/>
		<stop  offset="1" style="stop-color:#236D74"/>
	</radialGradient>
	<path class="st4" d="M92,2.4L5.1,220.2c-1.6,3.6-1,3.9,0.5,4.4c1.3,0.3,26.4,5.2,34,6.5s21,2.9,21,2.9
		c-8.3-59.7-0.6-113.8,7.8-149.5c6.2-26.7,12.8-43.1,13.2-44.2c0-0.1,0.1-0.2,0.1-0.3c1-2.9,5.9-16.1,5.9-16.1l9.1-22.2
		C93.7,2.1,92,2.4,92,2.4z"/>
	<g>
		<path class="st0" d="M60.6,233.9c0,0-7-51.7,2.3-116.7c0.1-0.8,0.2-1.6,0.3-2.3c3.5-23.7,8.9-48,18.3-74.6
			c-0.4,1-7,17.5-13.2,44.2C60,120.2,52.3,174.2,60.6,233.9z"/>
		<path class="st0" d="M81.6,40.3C81.6,40.2,81.6,40.2,81.6,40.3c0-0.1,0.1-0.2,0.1-0.3C81.7,40.1,81.6,40.2,81.6,40.3z"/>
	</g>
</g>
</svg>
