<?xml version="1.0" encoding="utf-8"?>
<!-- Generator: Adobe Illustrator 24.0.1, SVG Export Plug-In . SVG Version: 6.00 Build 0)  -->
<svg version="1.1" id="Capa_1" xmlns="http://www.w3.org/2000/svg" xmlns:xlink="http://www.w3.org/1999/xlink" x="0px" y="0px"
	 viewBox="0 0 234.05 234" style="enable-background:new 0 0 234.05 234;" xml:space="preserve">
<style type="text/css">
	.st0{fill:#66BA7F;}
</style>
<g transform="translate(45.511111, 52.622222)">
	<g>
		<path class="st0" d="M35.48,40.96c-1.8,2.77-3.54,5.56-5.22,8.35c-1.84-5.05-3.45-10.03-4.82-14.88
			c4.88-0.7,10.07-1.25,15.53-1.63C39.12,35.45,37.29,38.17,35.48,40.96L35.48,40.96L35.48,40.96z M170.4,50.74
			c-5.41-5.19-13.13-9.94-22.97-14.13c-19.52-8.32-45.68-13.7-73.64-15.17c-3.37-0.18-6.66-0.3-9.85-0.36
			c21.35-25.48,41.97-39.04,53.98-39.5c2.54-0.1,4.68,0.41,6.35,1.49c5.62,3.65,7.18,14.98,4.17,30.3c-0.59,3.02,1.38,5.96,4.4,6.55
			c3.03,0.59,5.96-1.38,6.55-4.4c5.17-26.34-2.06-37.28-9.04-41.81c-3.64-2.37-7.97-3.47-12.86-3.29
			c-18.47,0.7-44.35,20.4-67.97,50.76c-9.35,0.32-18.36,1.13-26.79,2.39c-0.93-4.3-1.64-8.46-2.13-12.46
			c-2.12-17.46,0.48-29.85,6.95-33.15c1.04-0.53,2.17-0.83,3.47-0.93c5.78-0.43,13.93,3.45,22.95,10.93
			c2.37,1.97,5.89,1.64,7.86-0.73c1.97-2.37,1.64-5.89-0.73-7.86C49.53-30.23,39.13-34.77,30.19-34.1
			c-2.76,0.21-5.36,0.92-7.71,2.12c-6.01,3.06-10.11,8.93-12.2,17.44C8.49-7.25,8.24,1.83,9.53,12.46c0.51,4.2,1.26,8.58,2.22,13.08
			c-6.59,1.39-12.7,3.08-18.18,5.06c-23.96,8.66-29.49,20.06-29.91,28.11c-0.4,7.69,3.53,19.13,24.56,29.97
			c2.74,1.41,6.11,0.34,7.52-2.4c1.41-2.74,0.34-6.11-2.4-7.52c-12.1-6.24-18.85-13.33-18.53-19.47
			c0.45-8.64,14.93-17.78,39.6-22.94c2.29,8.25,5.22,16.82,8.74,25.51C14.27,78.51,7.8,94.91,4.45,109.51
			c-2.4,10.43-3.1,19.48-2.08,26.9c1.19,8.67,4.66,14.94,10.31,18.61c2.88,1.87,6.77,3.34,11.88,3.34c7.4,0,17.37-3.08,30.54-12.48
			c2.51-1.79,3.09-5.28,1.3-7.78c-1.79-2.51-5.28-3.09-7.78-1.3c-12.98,9.26-24.14,12.57-29.85,8.87
			c-6.09-3.96-7.37-16.54-3.43-33.66c2.61-11.35,7.27-23.93,13.58-36.9c1.37,2.94,2.8,5.87,4.29,8.8
			c12.71,24.97,28.27,46.69,43.82,61.17c7.83,7.29,15.31,12.42,22.25,15.26c4.21,1.72,8.16,2.58,11.83,2.58
			c3.4,0,6.55-0.74,9.44-2.21c5.8-2.96,9.83-8.53,11.98-16.57c1.84-6.88,2.26-15.47,1.23-25.52c-2.02-19.77-9.49-43.87-21.03-67.88
			c-1.34-2.78-4.67-3.95-7.45-2.61c-2.78,1.34-3.95,4.67-2.61,7.45c11,22.87,18.1,45.66,19.99,64.18
			c1.66,16.28-1.02,27.88-7.18,31.01c-6.46,3.3-17.99-1.88-30.84-13.85c-14.61-13.61-29.34-34.23-41.48-58.07
			c-2.77-5.45-5.33-10.91-7.65-16.33c2.89-5.16,6.01-10.34,9.34-15.48c3.4-5.25,6.85-10.19,10.3-14.83
			c0.92-0.01,1.84-0.02,2.77-0.02c4.79-0.02,9.93,0.12,15.29,0.4c26.69,1.4,51.5,6.48,69.85,14.29
			c16.14,6.88,25.55,15.31,25.17,22.56c-0.32,6.16-7.81,12.53-20.53,17.47c-2.87,1.12-4.3,4.35-3.18,7.22
			c0.86,2.21,2.97,3.56,5.2,3.56c0.67,0,1.35-0.12,2.02-0.38c22.11-8.59,27.24-19.58,27.64-27.29
			C179.73,63.28,176.71,56.8,170.4,50.74L170.4,50.74L170.4,50.74z"/>
		<path class="st0" d="M60,65.86c0,6.74,5.46,12.21,12.2,12.21c6.74,0,12.2-5.46,12.2-12.21c0-6.74-5.46-12.21-12.2-12.21
			C65.46,53.65,60,59.12,60,65.86"/>
	</g>
</g>
</svg>
