<?xml version="1.0" encoding="utf-8"?>
<!-- Generator: Adobe Illustrator 24.0.1, SVG Export Plug-In . SVG Version: 6.00 Build 0)  -->
<svg version="1.1" id="Capa_1" xmlns="http://www.w3.org/2000/svg" xmlns:xlink="http://www.w3.org/1999/xlink" x="0px" y="0px"
	 viewBox="0 0 234.05 234" style="enable-background:new 0 0 234.05 234;" xml:space="preserve">
<style type="text/css">
	.st0{fill:#563D7C;}
	.st1{enable-background:new    ;}
	.st2{fill:#FFFFFF;}
</style>
<g id="solid" inkscape:version="0.48.1 r9760" sodipodi:docname="twitter_bootstrap_logo.svg" xmlns:cc="http://creativecommons.org/ns#" xmlns:dc="http://purl.org/dc/elements/1.1/" xmlns:inkscape="http://www.inkscape.org/namespaces/inkscape" xmlns:rdf="http://www.w3.org/1999/02/22-rdf-syntax-ns#" xmlns:sodipodi="http://sodipodi.sourceforge.net/DTD/sodipodi-0.dtd" xmlns:svg="http://www.w3.org/2000/svg">
	<path id="bg" class="st0" d="M234.03,195c0,21.45-17.55,39-39,39h-156c-21.45,0-39-17.55-39-39V39c0-21.45,17.55-39,39-39h156
		c21.45,0,39,17.55,39,39V195z"/>
	<g id="B" class="st1">
		<path class="st2" d="M63.61,50.85h66.34c12.24,0,22.06,2.79,29.44,8.41s11.09,14.07,11.09,25.43c0,6.88-1.68,12.77-5.05,17.66
			c-3.36,4.89-8.18,8.72-14.45,11.39v0.38c8.41,1.8,14.8,5.77,19.12,11.93c4.32,6.19,6.5,13.92,6.5,23.25
			c0,5.35-0.96,10.36-2.87,14.99c-1.91,4.66-4.89,8.68-8.99,12.04c-4.09,3.36-9.29,6.04-15.68,8.03s-13.96,2.98-22.75,2.98H63.61
			L63.61,50.85L63.61,50.85z M87.51,108.01h39c5.74,0,10.51-1.61,14.34-4.89c3.82-3.29,5.74-7.95,5.74-14.07
			c0-6.88-1.72-11.74-5.16-14.53s-8.41-4.21-14.91-4.21h-39V108.01L87.51,108.01z M87.51,167.85h42.25c7.26,0,12.92-1.87,16.9-5.66
			c4.01-3.75,6.04-9.1,6.04-15.98c0-6.77-1.99-11.93-6.04-15.6c-4.05-3.67-9.64-5.43-16.9-5.43H87.51V167.85z"/>
	</g>
</g>
</svg>
