<?xml version="1.0" encoding="utf-8"?>
<!-- Generator: Adobe Illustrator 24.0.1, SVG Export Plug-In . SVG Version: 6.00 Build 0)  -->
<svg version="1.1" id="Layer_1" xmlns="http://www.w3.org/2000/svg" xmlns:xlink="http://www.w3.org/1999/xlink" x="0px" y="0px"
	 viewBox="0 0 240 67.4" style="enable-background:new 0 0 240 67.4;" xml:space="preserve">
<style type="text/css">
	.st0{fill:#FF5800;}
</style>
<g>
	<g>
		<path class="st0" d="M12.5,56.4v8.9c0,1.4-0.6,2.1-1.8,2.1H9.5c-1.2,0-1.8-0.7-1.8-2.1v-8.8h1.5v8.9c0,0.5,0.2,0.7,0.6,0.7h0.6
			c0.4,0,0.6-0.2,0.6-0.7v-8.9L12.5,56.4L12.5,56.4z"/>
		<path class="st0" d="M18.4,61.7v-5.3h1.5v10.9h-1.5v-2.2l-1.6-5v7.2h-1.5V56.4h1.5L18.4,61.7z"/>
		<path class="st0" d="M22.8,67.4V56.5h1.5v10.9H22.8z"/>
		<path class="st0" d="M31.9,56.4l-1.8,10.9h-1.7l-1.8-10.9h1.5l1.2,8.3l1.2-8.3H31.9z"/>
		<path class="st0" d="M34.1,67.4V56.5h3.6v1.3h-2.2v3.3h1.9v1.3h-1.9V66h2.2v1.3L34.1,67.4z"/>
		<path class="st0" d="M40.3,56.4h2.9c1.1,0,1.7,0.6,1.7,1.9V61c0,1-0.3,1.6-0.9,1.8l1,4.6h-1.4l-1-4.4h-0.9v4.4h-1.5L40.3,56.4
			L40.3,56.4z M41.8,61.7h1c0.4,0,0.7-0.3,0.7-0.8v-2.4c0-0.5-0.2-0.8-0.7-0.8h-1V61.7z"/>
		<path class="st0" d="M50.4,59.4v-1c0-0.4-0.2-0.7-0.6-0.7h-0.2c-0.4,0-0.6,0.2-0.6,0.7v1.8c0,0.2,0,0.3,0.1,0.4
			c0.1,0.1,0.2,0.2,0.4,0.3l1.4,0.7c0.3,0.2,0.5,0.3,0.6,0.4c0.1,0.1,0.2,0.2,0.3,0.4c0.1,0.1,0.1,0.4,0.1,0.8v2.3
			c0,1.2-0.6,1.8-1.8,1.8h-0.9c-1.2,0-1.8-0.7-1.8-2v-0.5h1.4v0.6c0,0.4,0.2,0.6,0.7,0.6h0.3c0.4,0,0.6-0.2,0.6-0.6v-1.9
			c0-0.2,0-0.3-0.1-0.4c-0.1-0.1-0.2-0.2-0.4-0.3L48.5,62c-0.3-0.2-0.5-0.3-0.7-0.4c-0.1-0.1-0.2-0.2-0.3-0.4s-0.1-0.4-0.1-0.7v-2.2
			c0-1.3,0.6-1.9,1.8-1.9h0.9c1.2,0,1.8,0.6,1.8,1.9v1.1L50.4,59.4z"/>
		<path class="st0" d="M54.6,67.4V56.5h1.5v10.9H54.6z"/>
		<path class="st0" d="M58.9,67.4V56.5h2.5c1.4,0,2.1,0.7,2.1,2.1v7.3c0,1.1-0.6,1.6-1.7,1.6L58.9,67.4L58.9,67.4z M60.4,66h1.1
			c0.4,0,0.6-0.2,0.6-0.5v-7c0-0.5-0.2-0.8-0.7-0.8h-1L60.4,66L60.4,66z"/>
		<path class="st0" d="M67.8,67.4h-1.5v-9.1c0-1.3,0.6-1.9,1.8-1.9h1.1c1.2,0,1.8,0.6,1.8,1.9v9.1h-1.5v-4h-1.7
			C67.8,63.4,67.8,67.4,67.8,67.4z M69.4,62v-3.6c0-0.4-0.2-0.6-0.6-0.6h-0.4c-0.4,0-0.6,0.2-0.6,0.6V62H69.4z"/>
		<path class="st0" d="M73.7,67.4V56.5h2.5c1.4,0,2.1,0.7,2.1,2.1v7.3c0,1.1-0.6,1.6-1.8,1.6L73.7,67.4L73.7,67.4z M75.2,66h1.1
			c0.4,0,0.6-0.2,0.6-0.5v-7c0-0.5-0.2-0.8-0.6-0.8h-1L75.2,66L75.2,66z"/>
		<path class="st0" d="M85.1,67.4V56.5h2.5c1.4,0,2.1,0.7,2.1,2.1v7.3c0,1.1-0.6,1.6-1.8,1.6L85.1,67.4L85.1,67.4z M86.6,66h1.1
			c0.4,0,0.6-0.2,0.6-0.5v-7c0-0.5-0.2-0.8-0.6-0.8h-1L86.6,66L86.6,66z"/>
		<path class="st0" d="M92.5,67.4V56.5h3.6v1.3H94v3.3h1.9v1.3H94V66h2.2v1.3L92.5,67.4z"/>
		<path class="st0" d="M105.6,62.9l1.4-6.4h1.6v10.9h-1.5l0.1-7.2l-1.1,5.2H105l-1.1-5.2l0.1,7.2h-1.5V56.5h1.6L105.6,62.9z"/>
		<path class="st0" d="M111.5,67.4V56.5h3.6v1.3H113v3.3h1.9v1.3H113V66h2.2v1.3L111.5,67.4z"/>
		<path class="st0" d="M117.7,67.4V56.5h2.5c1.4,0,2.1,0.7,2.1,2.1v7.3c0,1.1-0.6,1.6-1.8,1.6L117.7,67.4L117.7,67.4z M119.2,66h1.1
			c0.4,0,0.6-0.2,0.6-0.5v-7c0-0.5-0.2-0.8-0.7-0.8h-1V66L119.2,66z"/>
		<path class="st0" d="M125.1,67.4V56.5h1.5v10.9H125.1z"/>
		<path class="st0" d="M131.2,67.4c-1.2,0-1.8-0.6-1.8-1.9v-7.2c0-1.3,0.6-1.9,1.7-1.9h1.4c1.2,0,1.7,0.6,1.7,1.9v7.2
			c0,1.2-0.6,1.9-1.8,1.9H131.2z M131.5,66h0.7c0.4,0,0.6-0.2,0.6-0.6v-7c0-0.4-0.2-0.6-0.7-0.6h-0.7c-0.4,0-0.6,0.2-0.6,0.6v7
			C130.9,65.8,131.1,66,131.5,66z"/>
		<path class="st0" d="M139.9,59.4v-1c0-0.4-0.2-0.7-0.6-0.7H139c-0.4,0-0.6,0.2-0.6,0.7v1.8c0,0.2,0,0.3,0.1,0.4
			c0.1,0.1,0.2,0.2,0.4,0.3l1.4,0.7c0.3,0.2,0.5,0.3,0.6,0.4c0.1,0.1,0.2,0.2,0.3,0.4c0.1,0.1,0.1,0.4,0.1,0.8v2.3
			c0,1.2-0.6,1.8-1.8,1.8h-0.9c-1.2,0-1.8-0.7-1.8-2v-0.5h1.5v0.6c0,0.4,0.2,0.6,0.7,0.6h0.3c0.4,0,0.6-0.2,0.6-0.6v-1.9
			c0-0.2,0-0.3-0.1-0.4c-0.1-0.1-0.2-0.2-0.4-0.3l-1.4-0.7c-0.3-0.2-0.5-0.3-0.7-0.4c-0.1-0.1-0.2-0.2-0.3-0.4s-0.1-0.4-0.1-0.7
			v-2.2c0-1.3,0.6-1.9,1.8-1.9h0.9c1.2,0,1.8,0.6,1.8,1.9v1.1L139.9,59.4z"/>
		<path class="st0" d="M149.5,67.4H148v-9.1c0-1.3,0.6-1.9,1.8-1.9h1.1c1.2,0,1.7,0.6,1.7,1.9v9.1h-1.5v-4h-1.7L149.5,67.4
			L149.5,67.4z M151.1,62v-3.6c0-0.4-0.2-0.6-0.6-0.6h-0.4c-0.4,0-0.6,0.2-0.6,0.6V62H151.1z"/>
		<path class="st0" d="M160.2,56.4v8.9c0,1.4-0.6,2.1-1.8,2.1h-1.2c-1.2,0-1.8-0.7-1.8-2.1v-8.8h1.5v8.9c0,0.5,0.2,0.7,0.6,0.7h0.6
			c0.4,0,0.6-0.2,0.6-0.7v-8.9L160.2,56.4L160.2,56.4z"/>
		<path class="st0" d="M163.1,67.4V56.5h2.5c1.4,0,2.1,0.7,2.1,2.1v7.3c0,1.1-0.6,1.6-1.7,1.6L163.1,67.4L163.1,67.4z M164.5,66h1.1
			c0.4,0,0.6-0.2,0.6-0.5v-7c0-0.5-0.2-0.8-0.7-0.8h-1L164.5,66L164.5,66z"/>
		<path class="st0" d="M170.5,67.4V56.5h1.5v10.9H170.5z"/>
		<path class="st0" d="M176.5,67.4c-1.2,0-1.8-0.6-1.8-1.9v-7.2c0-1.3,0.6-1.9,1.8-1.9h1.4c1.2,0,1.8,0.6,1.8,1.9v7.2
			c0,1.2-0.6,1.9-1.8,1.9H176.5z M176.9,66h0.8c0.4,0,0.6-0.2,0.6-0.6v-7c0-0.4-0.2-0.6-0.7-0.6h-0.7c-0.4,0-0.6,0.2-0.6,0.6v7
			C176.2,65.8,176.4,66,176.9,66z"/>
		<path class="st0" d="M187.2,56.4l-1.8,10.9h-1.7l-1.8-10.9h1.5l1.2,8.3l1.2-8.3H187.2z"/>
		<path class="st0" d="M189.6,67.4V56.5h1.5v10.9H189.6z"/>
		<path class="st0" d="M196.7,59.4v-1c0-0.4-0.2-0.7-0.6-0.7h-0.2c-0.4,0-0.6,0.2-0.6,0.7v1.8c0,0.2,0.1,0.3,0.1,0.4
			c0.1,0.1,0.2,0.2,0.4,0.3l1.4,0.7c0.3,0.2,0.5,0.3,0.7,0.4c0.1,0.1,0.2,0.2,0.3,0.4c0.1,0.1,0.1,0.4,0.1,0.8v2.3
			c0,1.2-0.6,1.8-1.8,1.8h-0.9c-1.2,0-1.7-0.7-1.7-2v-0.5h1.5v0.6c0,0.4,0.2,0.6,0.7,0.6h0.3c0.4,0,0.6-0.2,0.6-0.6v-1.9
			c0-0.2,0-0.3-0.1-0.4c-0.1-0.1-0.2-0.2-0.4-0.3l-1.4-0.8c-0.3-0.2-0.5-0.3-0.7-0.4c-0.1-0.1-0.2-0.2-0.3-0.4s-0.1-0.4-0.1-0.7
			v-2.2c0-1.3,0.6-1.9,1.7-1.9h0.9c1.2,0,1.8,0.6,1.8,1.9v1.1L196.7,59.4z"/>
		<path class="st0" d="M205.7,56.4v8.9c0,1.4-0.6,2.1-1.8,2.1h-1.2c-1.2,0-1.8-0.7-1.8-2.1v-8.8h1.5v8.9c0,0.5,0.2,0.7,0.6,0.7h0.6
			c0.4,0,0.6-0.2,0.6-0.7v-8.9L205.7,56.4L205.7,56.4z"/>
		<path class="st0" d="M210,67.4h-1.5v-9.1c0-1.3,0.6-1.9,1.7-1.9h1.1c1.2,0,1.7,0.6,1.7,1.9v9.1h-1.5v-4H210V67.4L210,67.4z
			 M211.6,62v-3.6c0-0.4-0.2-0.6-0.6-0.6h-0.4c-0.4,0-0.6,0.2-0.6,0.6V62H211.6z"/>
		<path class="st0" d="M219.4,67.4h-3.5V56.5h1.5v9.6h2V67.4z"/>
		<path class="st0" d="M221.8,67.4V56.5h3.6v1.3h-2.2v3.3h1.9v1.3h-1.9V66h2.2v1.3L221.8,67.4z"/>
		<path class="st0" d="M230.8,59.4v-1c0-0.4-0.2-0.7-0.6-0.7H230c-0.4,0-0.6,0.2-0.6,0.7v1.8c0,0.2,0,0.3,0.1,0.4
			c0.1,0.1,0.2,0.2,0.4,0.3l1.4,0.7c0.3,0.2,0.5,0.3,0.6,0.4c0.1,0.1,0.2,0.2,0.3,0.4c0.1,0.1,0.1,0.4,0.1,0.8v2.3
			c0,1.2-0.6,1.8-1.8,1.8h-0.9c-1.2,0-1.7-0.7-1.7-2v-0.5h1.5v0.6c0,0.4,0.2,0.6,0.7,0.6h0.3c0.4,0,0.6-0.2,0.6-0.6v-1.9
			c0-0.2,0-0.3-0.1-0.4c-0.1-0.1-0.2-0.2-0.4-0.3l-1.4-0.8c-0.3-0.2-0.5-0.3-0.7-0.4c-0.1-0.1-0.2-0.2-0.3-0.4s-0.1-0.4-0.1-0.7
			v-2.2c0-1.3,0.6-1.9,1.7-1.9h0.9c1.2,0,1.8,0.6,1.8,1.9v1.1L230.8,59.4z"/>
	</g>
	<g>
		<path class="st0" d="M34.6,13.5c-0.7-1.1-1.5-2-2.5-2.8S30,9.3,28.7,8.8c-1.2-0.4-2.6-0.7-3.9-0.7c-2.5,0-4.6,0.5-6.4,1.5
			c-1.7,1-3.2,2.3-4.2,3.9c-1.1,1.6-1.9,3.5-2.4,5.6c-0.5,2.1-0.7,4.2-0.7,6.4c0,2.1,0.2,4.2,0.7,6.2s1.3,3.8,2.4,5.4
			s2.5,2.9,4.2,3.8c1.7,1,3.9,1.5,6.4,1.5c3.4,0,6-1,7.9-3.1c1.9-2.1,3.1-4.8,3.5-8.2H47c-0.3,3.2-1,6-2.2,8.6
			c-1.2,2.5-2.7,4.7-4.7,6.5c-1.9,1.8-4.2,3.2-6.8,4.1c-2.6,0.9-5.4,1.4-8.5,1.4c-3.9,0-7.4-0.7-10.4-2c-3.1-1.3-5.7-3.2-7.8-5.5
			c-2.1-2.4-3.8-5.1-4.9-8.3C0.6,32.7,0,29.3,0,25.6c0-3.8,0.6-7.3,1.7-10.5s2.8-6,4.9-8.5c2.1-2.4,4.7-4.3,7.8-5.7
			c3.1-1.4,6.6-2,10.4-2c2.8,0,5.4,0.4,7.9,1.2c2.5,0.8,4.7,2,6.6,3.5c2,1.5,3.6,3.4,4.8,5.7c1.3,2.3,2.1,4.9,2.4,7.8H35.8
			C35.6,15.7,35.2,14.6,34.6,13.5z"/>
		<path class="st0" d="M73.9,0l12.2,32.7l-5.9,14.8l-2.8-8.2H58.5l-4,11.2H43.4L62.5,0L73.9,0z M74.5,31l-6.4-18.5H68L61.4,31H74.5z
			"/>
		<path class="st0" d="M112.2,0l18.9,50.5h-11.5l-3.8-11.2H96.9l-4,11.2H81.8L100.9,0C100.9,0,112.2,0,112.2,0z M112.9,31l-6.4-18.5
			h-0.1L99.8,31H112.9z"/>
		<path class="st0" d="M134.2,50.5L115.5,0h11.4l13.6,35.5h0.1L152,0h11.5l-16.8,50.5H134.2z"/>
	</g>
	<path class="st0" d="M226.6,0h-58.1L163,16.7c0.6-0.7,1.3-1.4,2-2.1c1.6-1.5,3.4-2.8,5.4-3.9s4.2-1.9,6.5-2.5
		c1.1-0.3,2.3-0.5,3.5-0.6c0.3,0,0.6-0.1,0.9-0.1h0.8h0.9h0.9c2.4,0.1,4.6,0.4,6.8,0.9c4.3,1,8.2,2.5,12,4.1
		c3.7,1.7,7.3,3.5,10.8,5.3c3.4,1.9,6.9,3.5,10.2,4.9c1.6,0.7,3.3,1.2,4.6,1.4c1.1,0.1,1.8,0.2,2.7,0.3c0.9,0,1.7,0,2.6-0.1
		c2.2-0.1,4.4-0.7,6.4-1.7v-9.2C240,6,234,0,226.6,0z"/>
	<path class="st0" d="M228.4,28.3c-2.1,0-4.1-0.4-6-1c-3.9-1.1-7.6-2.7-11.2-4.4c-3.6-1.6-7.2-3.4-10.9-4.9
		c-3.6-1.6-7.3-3.1-11.1-4.2s-7.7-1.6-11.6-0.9c-3.9,0.6-7.6,2.2-10.8,4.4c-2,1.4-3.9,3-5.6,4.7l-9.4,28.5h74.7
		c7.4,0,13.4-6,13.4-13.4V24.9c-1.7,1.2-3.6,2.1-5.6,2.6C232.4,28,230.4,28.3,228.4,28.3z M181.4,42.2c-5.9,0-10.7-4.8-10.7-10.7
		c0-5.9,4.8-10.7,10.7-10.7s10.7,4.8,10.7,10.7C192.1,37.4,187.3,42.2,181.4,42.2z"/>
</g>
</svg>
