<?xml version="1.0" encoding="utf-8"?>
<!-- Generator: Adobe Illustrator 24.0.1, SVG Export Plug-In . SVG Version: 6.00 Build 0)  -->
<svg version="1.1" id="Layer_1" xmlns="http://www.w3.org/2000/svg" xmlns:xlink="http://www.w3.org/1999/xlink" x="0px" y="0px"
	 viewBox="0 0 349.4 234" style="enable-background:new 0 0 349.4 234;" xml:space="preserve">
<style type="text/css">
	.st0{fill:#FF6C2C;}
</style>
<g id="Layer_2">
	<g id="Layer_1-2">
		<path class="st0" d="M87.4,57.6h66.1l-10.2,39.2c-1.4,5.2-4.5,9.9-8.8,13.2c-4.3,3.3-9.5,5.1-14.9,5H88.9
			c-6.7-0.1-13.2,2.1-18.5,6.1c-5.4,4.2-9.4,10.1-11.3,16.7c-1.4,4.9-1.5,10-0.4,14.9c1,4.5,2.9,8.7,5.7,12.4
			c2.8,3.7,6.4,6.6,10.5,8.6c4.4,2.2,9.2,3.3,14,3.2h18.7c3.4-0.1,6.6,1.5,8.6,4.2c2.2,2.6,3,6.2,1.9,9.5L106.5,234H86
			c-13.5,0.1-26.8-3-38.8-9.2c-11.5-5.9-21.6-14.2-29.5-24.4c-7.8-10.2-13.3-22-15.9-34.6c-2.8-13.2-2.5-26.9,1-40l1.2-4.4
			C9,103.1,19.9,86.9,34.9,75.3c7.4-5.6,15.6-10,24.4-13C68.4,59.2,77.9,57.6,87.4,57.6z"/>
		<path class="st0" d="M120.8,234l57.6-215.9c1.4-5.2,4.5-9.9,8.8-13.2c4.3-3.3,9.5-5.1,14.9-5h61.1C276.7-0.1,290,3,302,9.2
			c23.3,11.9,40,33.6,45.5,59.1c2.9,13.2,2.5,27-1.2,40l-1.2,4.4c-2.5,9.2-6.4,18-11.7,25.9c-15.9,23.9-42.7,38.2-71.4,38.2h-52.9
			l10.5-39.5c1.5-5.1,4.5-9.6,8.8-12.9c4.3-3.3,9.5-5.1,14.9-5h17c14.1,0,26.3-9.5,29.8-23.1c1.3-4.7,1.5-9.6,0.4-14.4
			c-1-4.5-2.9-8.7-5.7-12.4c-2.8-3.7-6.4-6.7-10.5-8.8c-4.3-2.2-9.1-3.4-14-3.4h-32.8l-42.7,158.8c-1.5,5.1-4.5,9.6-8.8,12.9
			c-4.2,3.3-9.3,5-14.6,5H120.8z"/>
	</g>
</g>
</svg>
