<?xml version="1.0" encoding="utf-8"?>
<!-- Generator: Adobe Illustrator 24.0.1, SVG Export Plug-In . SVG Version: 6.00 Build 0)  -->
<svg version="1.1" id="Capa_1" xmlns="http://www.w3.org/2000/svg" xmlns:xlink="http://www.w3.org/1999/xlink" x="0px" y="0px"
	 viewBox="0 0 206.33 234" style="enable-background:new 0 0 206.33 234;" xml:space="preserve">
<style type="text/css">
	.st0{fill:#2299F8;}
	.st1{fill:#FFFFFD;}
</style>
<g id="形状_1_28_">
	<g>
		<g id="形状_1_9_">
			<g>
				<polygon class="st0" points="0,0 18.78,210.61 103.04,234 187.53,210.58 206.33,0 				"/>
			</g>
		</g>
	</g>
</g>
<g>
	<polygon class="st1" points="165.21,68.15 165.1,68.15 167.67,42.72 167.67,42.72 103.17,42.72 37.41,42.72 40.56,68.15 
		103.17,68.15 103.18,68.15 106.68,68.15 103.17,69.39 43,94.83 42.99,94.83 44.99,120.22 44.99,120.26 103.17,120.26 
		103.17,120.25 103.24,120.25 134.6,120.28 132.58,153.51 103.24,161.77 103.17,161.79 103.17,161.75 102.93,161.81 102.88,161.83 
		74.65,154.63 72.94,133.91 46.7,133.91 50.13,173.92 103.17,189.75 103.17,189.72 103.24,189.74 103.26,189.75 156.44,174.21 
		163.34,94.83 103.17,94.83 103.02,94.83 103.17,94.76 103.17,94.82 	"/>
</g>
</svg>
