<?xml version="1.0" encoding="utf-8"?>
<!-- Generator: Adobe Illustrator 24.0.1, SVG Export Plug-In . SVG Version: 6.00 Build 0)  -->
<svg version="1.1" id="Capa_1" xmlns="http://www.w3.org/2000/svg" xmlns:xlink="http://www.w3.org/1999/xlink" x="0px" y="0px"
	 viewBox="0 0 367.72 234" style="enable-background:new 0 0 367.72 234;" xml:space="preserve">
<style type="text/css">
	.st0{fill:#FFEC00;}
	.st1{fill:#FFFFFF;}
</style>
<g>
	<path id="path3791-1" class="st0" d="M32.62,0h27.08l9.36,38.89L82.43,0h29.85L80.53,92.31H52.07l-9-37.4l-13.21,37.4H0
		C0,92.31,32.62,0,32.62,0z M328.59,41.36c3.99-3.38,7.72-5.82,11.19-7.36c3.85-1.71,8.15-2.57,12.9-2.57
		c6.42,0,10.83,1.9,13.27,5.67c2.42,3.77,2.38,9.59-0.13,17.46l-12.09,38h-28.28l8.78-27.6c1-3.15,1.12-5.37,0.36-6.68
		c-0.77-1.32-2.21-1.97-4.35-1.97c-2.35,0-4.56,0.89-6.57,2.65c-0.64,0.55-1.25,1.25-1.83,2.08l-10.76,31.28h-0.23l-0.08,0.24
		h-21.02l0.07-0.24h-7.47l20.19-58.7h28.74L328.59,41.36L328.59,41.36z M133.94,1.9c8.8,0,15.21,5.68,14.32,12.69
		c-0.9,7.01-8.76,12.69-17.56,12.69c-8.8,0-15.21-5.68-14.32-12.69C117.27,7.58,125.13,1.9,133.94,1.9z M160.95,0h29.85
		l-17.92,52.09l16.47-18.97h31.9l-25.43,29.29l5.7,29.89h-29.85l-4.5-23.61l-8.12,23.61H129.2L160.95,0L160.95,0z M140.61,33.61
		l-20.19,58.7H90.57l20.19-58.7L140.61,33.61L140.61,33.61z M254.22,29.86c-9.95,0-20.46,1.56-28.94,7.11
		c-7.58,4.96-12.89,12.72-15.26,23.96c-2.38,11.23-0.38,20.05,5.1,26.05c5.47,6.01,14.42,9.21,25.91,9.21
		c11.5,0,22.04-2.58,30.17-8.02c8.13-5.44,13.83-13.73,15.65-25.14c1.82-11.41-0.59-19.7-6.32-25.14
		C274.78,32.44,265.71,29.86,254.22,29.86L254.22,29.86z M239.65,72.76c-0.92-2.17-0.83-5.49,0.31-10.06
		c1.14-4.56,2.95-7.88,5.1-10.06c2.16-2.17,4.66-3.21,7.21-3.21s4.33,1.28,5.15,3.68c0.82,2.4,0.7,5.93-0.56,10.42
		c-1.26,4.49-2.94,7.6-4.94,9.58c-2,1.98-4.33,2.84-6.88,2.84C242.49,75.97,240.57,74.94,239.65,72.76L239.65,72.76z"/>
	<g>
		<path class="st1" d="M48.27,107.08H0v27.53c0,0,9.09,0,10.73,0v71.21c-1.65,0-10.73,0-10.73,0v27.54h48.27
			c31.68,0,50.59-23.64,50.59-63.24C98.87,130.66,79.95,107.08,48.27,107.08z M49.25,223.77c0,0-34.23,0-38.69,0v-8.35
			c2.95,0,10.74,0,10.74,0v-90.4c0,0-7.79,0-10.74,0v-8.33c4.46,0,38.69,0,38.69,0c26.04,0,41,19.48,41,53.45
			C90.25,204.22,75.3,223.77,49.25,223.77z"/>
		<path class="st1" d="M49.08,125.33H32.55v89.78h16.54c16.96,0,29.62-15.22,29.62-44.98C78.7,140.06,66.29,125.33,49.08,125.33z
			 M49.08,205.5c0,0-3.47,0-6.94,0v-70.58c3.27,0,6.94,0,6.94,0c18.07,0,20.03,23.1,20.03,35.21
			C69.11,179.61,67.66,205.5,49.08,205.5z"/>
		<g>
			<path class="st1" d="M348.84,119.77c-9.71-10.88-23.49-13.08-25.04-13.29c0-0.01-2.16-0.31-3.59-0.5v25.04l2.38,0.36
				c0.12,0.02,4.36,0.85,8.62,5.93c4.54,5.43,9.2,13.37,9.2,31.15c0,16.6-3.26,24.47-8.16,31.18c-4.1,5.6-9.96,7.45-10.02,7.46
				c0.01,0-0.88,0.25-0.88,0.25l-1.16,0.34v26.24l4.09-0.86c0.53-0.12,13.11-2.82,23.43-12.34c10.55-9.71,17.51-30.38,17.71-52.63
				C365.63,148.31,360.18,132.51,348.84,119.77z"/>
			<path class="st1" d="M308.82,106.58L308.82,106.58c-0.61,0.09-15.06,2.16-24.98,13.32c-11.37,12.72-16.78,28.52-16.6,48.31
				c0.21,22.27,7.17,42.93,17.7,52.65c10.33,9.51,22.91,12.22,23.45,12.33c0,0,2.36,0.49,3.86,0.81v-26.26l-1.82-0.53
				c-0.03-0.01-5.91-1.85-10-7.46c-4.9-6.7-8.16-14.58-8.16-31.18c0-17.76,4.65-25.71,9.2-31.15c4.24-5.07,8.48-5.9,8.65-5.92
				c0.01,0,1.14-0.17,2.13-0.33v-25.05l-2.04,0.29L308.82,106.58z"/>
		</g>
		<path class="st1" d="M155.9,144.81c-8.14,0-15.78,2.19-22.35,6c1.78-6.31,4.47-10.35,7.11-13.51c4.24-5.07,8.47-5.9,8.66-5.93
			c0,0,1.14-0.17,2.13-0.32v-25.06l-2.04,0.3l-1.4,0.18h0.01c-0.61,0.08-15.06,2.17-24.99,13.31
			c-11.36,12.73-16.78,28.53-16.6,48.31c0.21,21.61,6.76,41.7,16.78,51.75c7.16,7.7,17,12.86,28.04,14
			c0.06,0.01,0.13,0.03,0.19,0.04v-0.02v-23.79c-9.51-2.04-16.65-10.5-16.65-20.62c0-11.66,9.44-21.1,21.09-21.1
			c11.65,0,21.1,9.44,21.1,21.1c0,10.46-7.61,19.13-17.59,20.8v23.69c23-1.8,41.12-21.02,41.12-44.49
			C200.53,164.79,180.55,144.81,155.9,144.81z"/>
		<path class="st1" d="M163.01,106.48c0-0.01-2.16-0.31-3.59-0.5v25.04l2.38,0.36c0.12,0.02,4.36,0.85,8.62,5.93
			c1.26,1.51,2.53,3.22,3.71,5.26h26.96c-2.73-8.53-7.07-16.09-13.04-22.8C178.34,108.89,164.56,106.68,163.01,106.48z"/>
		<g>
			<polygon class="st1" points="230.91,107.08 255.79,107.08 255.79,233.37 230.91,233.37 230.91,107.08 			"/>
			<polygon class="st1" points="206.17,107.08 223.02,107.08 223.02,129.39 206.17,129.39 206.17,107.08 			"/>
		</g>
	</g>
</g>
</svg>
