<?xml version="1.0" encoding="utf-8"?>
<!-- Generator: Adobe Illustrator 24.0.1, SVG Export Plug-In . SVG Version: 6.00 Build 0)  -->
<svg version="1.1" id="Capa_1" xmlns="http://www.w3.org/2000/svg" xmlns:xlink="http://www.w3.org/1999/xlink" x="0px" y="0px"
	 viewBox="0 0 436.06 234" style="enable-background:new 0 0 436.06 234;" xml:space="preserve">
<style type="text/css">
	.st0{fill:#FFEC00;}
	.st1{fill:#FFFFFF;}
</style>
<g>
	<path id="path3791-1_1_" class="st0" d="M38.68,0h32.11l11.1,46.12L97.75,0h35.4L95.5,109.47H61.74L51.07,65.12L35.4,109.47H0
		C0,109.47,38.68,0,38.68,0z M389.65,49.04c4.73-4.01,9.15-6.91,13.27-8.73c4.57-2.03,9.67-3.05,15.29-3.05
		c7.61,0,12.84,2.26,15.74,6.72c2.87,4.47,2.82,11.37-0.16,20.71l-14.34,45.06h-33.54l10.42-32.73c1.19-3.73,1.33-6.37,0.43-7.92
		c-0.91-1.57-2.63-2.33-5.16-2.33c-2.79,0-5.4,1.06-7.8,3.14c-0.76,0.66-1.48,1.48-2.17,2.47l-12.76,37.09h-0.28l-0.09,0.29h-24.93
		l0.08-0.29h-8.86l23.94-69.61h34.08L389.65,49.04L389.65,49.04z M158.82,2.25c10.44,0,18.04,6.74,16.98,15.05
		c-1.06,8.31-10.39,15.05-20.83,15.05S136.94,25.62,138,17.31C139.06,8.99,148.39,2.25,158.82,2.25z M190.86,0h35.4l-21.25,61.77
		l19.53-22.49h37.83l-30.16,34.74l6.76,35.45h-35.4l-5.34-27.99l-9.63,27.99h-35.4L190.86,0L190.86,0z M166.74,39.86l-23.94,69.61
		h-35.4l23.94-69.61L166.74,39.86L166.74,39.86z M301.46,35.41c-11.79,0-24.26,1.85-34.32,8.43c-8.99,5.88-15.28,15.09-18.1,28.41
		c-2.82,13.32-0.44,23.78,6.05,30.9c6.49,7.12,17.09,10.92,30.73,10.92c13.63,0,26.14-3.06,35.77-9.51
		c9.64-6.45,16.4-16.28,18.56-29.82c2.16-13.54-0.69-23.36-7.5-29.81C325.84,38.47,315.09,35.41,301.46,35.41L301.46,35.41z
		 M284.18,86.29c-1.09-2.58-0.99-6.51,0.37-11.92c1.36-5.41,3.5-9.35,6.05-11.92c2.56-2.58,5.53-3.8,8.55-3.8s5.13,1.52,6.11,4.37
		c0.98,2.85,0.83,7.03-0.66,12.36c-1.49,5.33-3.48,9.01-5.86,11.36c-2.38,2.35-5.14,3.37-8.16,3.37
		C287.56,90.09,285.27,88.86,284.18,86.29L284.18,86.29z"/>
	<g>
		<g>
			<path class="st1" d="M226.2,194.74c13.34-9.07,23.54-16.16,23.54-36.14c0-23.94-17.19-31.92-28.66-33.21v22.1
				c4.2,1.24,6.36,5.15,6.36,11.75c0,8.74-2.74,10.74-12.96,18.2l-0.31,0.23c-13.03,9.51-23.01,17.64-28.47,29.99h25.64
				C214.78,203.52,219.82,199.11,226.2,194.74"/>
			<path class="st1" d="M191.18,136.13c-5.84,7.18-7.54,15.88-7.54,27.75l0.24,6.16h22.3l0.23-5.32c0-13.9,4.36-16.97,7.93-17.59
				v-21.89C208.29,125.47,198.68,126.9,191.18,136.13"/>
			<path class="st1" d="M183.47,213.85c-1.14,3.95-1.91,8.29-2.24,13.2l-0.44,6.48h68.94v-19.69c0,0-32.09,0-42.42,0H183.47"/>
		</g>
		<path id="path3955_1_" class="st1" d="M93.5,136.03v-9.54h38.48h38.48v9.54v9.54h-38.48H93.5V136.03z M104.95,231.91
			c0-0.79,0.3-4.01,0.65-7.16c2.53-22.37,14.45-48.21,31.32-67.9l3.13-3.66h12.03h12.03l-4.83,5.57
			c-15.02,17.32-23.03,30.97-28.53,48.61c-2.26,7.24-4.82,19.92-4.82,23.85v2.11h-10.49C104.98,233.34,104.94,233.33,104.95,231.91
			L104.95,231.91z M48.02,208.16c3.58-1.86,6.35-5.8,8.37-11.89c1.62-4.87,1.73-5.98,1.76-16.36c0.03-12.08-0.8-16.88-3.76-21.94
			c-3.33-5.7-7.38-7.95-14.3-7.95h-4.47v29.96v29.96l4.93-0.23C43.94,209.55,46.27,209.07,48.02,208.16z M27.35,179.93v-38.29
			l10.02,0.21c9.26,0.2,10.28,0.34,13.52,1.88c7.02,3.35,11.98,10.65,14.41,21.23c1.55,6.75,1.56,22.63,0.02,29.58
			c-2.26,10.19-7.83,18.2-14.94,21.5c-3.31,1.54-4.45,1.7-13.32,1.93l-9.7,0.24L27.35,179.93L27.35,179.93z M50.8,224.15
			c9.47-2.52,16.53-8.7,20.98-18.35c3.25-7.07,4.22-13.18,4.18-26.52c-0.03-10.68-0.23-13.11-1.42-17.49
			c-3.22-11.83-8.82-19.54-17.26-23.76c-6.84-3.42-11.76-4.01-31.83-3.78l-16.22,0.19v3.5v3.5l4.29,0.19l4.29,0.19v38.13v38.13
			h-4.45H8.9v3.5v3.5l19.24-0.01C42.78,225.06,48.2,224.84,50.8,224.15L50.8,224.15z M0,221.61v-11.81h4.45H8.9V179.6v-30.21H4.45H0
			v-11.45v-11.45l24.01,0.01c18.91,0.01,24.85,0.21,27.99,0.95c10.82,2.55,19.98,10.07,25.19,20.67c3.53,7.19,5.22,13.5,6.19,23.11
			c1.9,18.84-2.46,37.51-11.3,48.42c-3.79,4.67-11.12,9.74-17.05,11.78c-4.36,1.5-4.97,1.54-29.73,1.77L0,233.42V221.61L0,221.61z
			 M395.61,222.86v-11.14l2.99-1.4c6.01-2.82,10.73-9.81,12.59-18.64c0.56-2.65,0.94-7.95,0.95-13.1
			c0.01-9.75-1.23-16.11-4.27-21.77c-2.41-4.5-7.25-9.17-10.05-9.7l-2.21-0.41v-10.73v-10.73l2.07,0.36
			c11.8,2.05,20.18,7.64,26.79,17.86c6.42,9.93,8.86,19.22,8.88,33.9c0.02,14.87-2.98,27.77-8.74,37.59
			c-5.32,9.07-15.18,15.81-27.25,18.63l-1.75,0.41L395.61,222.86L395.61,222.86z M383.98,233.03c-4.67-1.28-11.8-4.9-16.17-8.21
			c-8.58-6.49-14.66-19.82-16.7-36.61c-2.61-21.42,2.65-40.3,14.52-52.1c5.78-5.75,12.22-8.98,20.92-10.49l2.07-0.36v10.72v10.72
			l-1.75,0.35c-4.67,0.94-10.38,7.47-12.87,14.73c-1.75,5.09-2.76,14.71-2.24,21.33c1.11,14.23,5.57,23.24,13.38,27.07l3.48,1.7
			v11.06c0,8.45-0.19,11.04-0.8,11C387.38,233.89,385.65,233.49,383.98,233.03L383.98,233.03z M304.66,222.86v-11.14l2.9-1.36
			c6.01-2.83,10.83-9.97,12.71-18.84c1.27-5.97,1.21-19.98-0.1-25.79c-1.11-4.9-3.22-9.6-5.89-13.12c-1.87-2.46-6.73-5.77-8.46-5.77
			c-1.06,0-1.15-0.81-1.15-10.8v-10.8l2.07,0.36c13.89,2.42,22.93,9.53,29.96,23.57c6.01,12,7.53,28.4,4.22,45.36
			c-3.21,16.4-9.84,27.27-20.49,33.6c-3.29,1.95-9.82,4.5-14,5.46l-1.75,0.4V222.86z M291.6,232.47
			c-16.02-5.19-25-15.41-29.47-33.52c-9-36.49,5.8-69.2,33.14-73.3l2.39-0.36v10.77c0,9.62-0.11,10.77-1.06,10.77
			c-4.17,0-11.38,8-13.56,15.05c-3.77,12.2-2.96,28.77,1.88,38.35c2.61,5.17,5.19,7.93,9.28,9.94l3.45,1.69v11.06
			c0,8.44-0.19,11.05-0.8,11.03C296.43,233.93,294.06,233.27,291.6,232.47L291.6,232.47z"/>
	</g>
</g>
</svg>
