<?xml version="1.0" encoding="utf-8"?>
<!-- Generator: Adobe Illustrator 24.0.1, SVG Export Plug-In . SVG Version: 6.00 Build 0)  -->
<svg version="1.1" id="Capa_1" xmlns="http://www.w3.org/2000/svg" xmlns:xlink="http://www.w3.org/1999/xlink" x="0px" y="0px"
	 viewBox="0 0 206.62 234" style="enable-background:new 0 0 206.62 234;" xml:space="preserve">
<style type="text/css">
	.st0{fill:#7286D7;}
</style>
<g>
	<path class="st0" d="M124.97,98.18c-6.73,0-12.04,5.78-12.04,12.98c0,7.2,5.43,12.98,12.04,12.98c6.73,0,12.04-5.78,12.04-12.98
		C137,103.96,131.57,98.18,124.97,98.18z M81.89,98.18c-6.73,0-12.04,5.78-12.04,12.98c0,7.2,5.43,12.98,12.04,12.98
		c6.73,0,12.04-5.78,12.04-12.98C94.05,103.96,88.62,98.18,81.89,98.18z"/>
	<path class="st0" d="M182.31,0H24.19C10.86,0,0,10.86,0,24.19v158.12c0,13.33,10.86,24.19,24.19,24.19h133.82l-6.25-21.59
		l15.1,13.92l14.28,13.1L206.62,234V24.19C206.51,10.86,195.65,0,182.31,0z M136.77,152.81c0,0-4.25-5.07-7.79-9.44
		c15.46-4.37,21.36-13.92,21.36-13.92c-4.84,3.19-9.44,5.43-13.57,6.96c-5.9,2.48-11.56,4.01-17.11,5.07
		c-11.33,2.12-21.71,1.53-30.56-0.12c-6.73-1.3-12.51-3.07-17.35-5.07c-2.71-1.06-5.66-2.36-8.61-4.01
		c-0.35-0.24-0.71-0.35-1.06-0.59c-0.24-0.12-0.35-0.24-0.47-0.24c-2.12-1.18-3.3-2.01-3.3-2.01s5.66,9.32,20.65,13.81
		c-3.54,4.48-7.91,9.68-7.91,9.68c-26.08-0.83-35.99-17.82-35.99-17.82c0-37.64,16.99-68.21,16.99-68.21
		c16.99-12.63,33.04-12.27,33.04-12.27l1.18,1.42c-21.24,6.02-30.92,15.34-30.92,15.34s2.6-1.42,6.96-3.3
		c12.63-5.55,22.66-6.96,26.79-7.43c0.71-0.12,1.3-0.24,2.01-0.24c7.2-0.94,15.34-1.18,23.84-0.24c11.21,1.3,23.25,4.6,35.52,11.21
		c0,0-9.32-8.85-29.38-14.87l1.65-1.89c0,0,16.17-0.35,33.04,12.27c0,0,16.99,30.56,16.99,68.21
		C172.76,135,162.84,151.99,136.77,152.81L136.77,152.81z"/>
</g>
</svg>
