<?xml version="1.0" encoding="utf-8"?>
<!-- Generator: Adobe Illustrator 24.3.0, SVG Export Plug-In . SVG Version: 6.00 Build 0)  -->
<svg version="1.1" id="Capa_1" xmlns="http://www.w3.org/2000/svg" xmlns:xlink="http://www.w3.org/1999/xlink" x="0px" y="0px"
	 viewBox="0 0 234 234" style="enable-background:new 0 0 234 234;" xml:space="preserve">
<style type="text/css">
	.st0{fill:#5865F2;}
	.st1{fill:#FFFFFF;}
</style>
<circle class="st0" cx="117" cy="117" r="117"/>
<g id="图层_2">
	<g id="Discord_Logos">
		<g id="Discord_Logo_-_Large_-_White">
			<path class="st1" d="M169.2,69.5c-9.9-4.5-20.3-7.7-31-9.5c-1.5,2.6-2.8,5.3-4,8.1c-11.4-1.7-23-1.7-34.4,0
				c-1.2-2.8-2.5-5.5-4-8.1c-10.7,1.8-21.2,5-31.1,9.6c-19.6,29.1-25,57.4-22.3,85.3l0,0c11.5,8.5,24.4,15,38.1,19.1
				c3.1-4.1,5.8-8.5,8.2-13.1c-4.5-1.7-8.7-3.7-12.8-6.1c1.1-0.8,2.1-1.6,3.1-2.4c24.1,11.3,52,11.3,76.1,0c1,0.8,2.1,1.6,3.1,2.4
				c-4.1,2.4-8.4,4.5-12.9,6.1c2.3,4.6,5.1,9,8.2,13.1c13.7-4.1,26.6-10.6,38.1-19.1l0,0C194.7,122.5,186.2,94.4,169.2,69.5z
				 M92,137.7c-7.4,0-13.5-6.7-13.5-15s5.9-15.1,13.5-15.1c7.6,0,13.7,6.8,13.6,15.1C105.4,131,99.6,137.7,92,137.7z M142,137.7
				c-7.4,0-13.5-6.7-13.5-15s5.9-15.1,13.5-15.1s13.7,6.8,13.5,15.1S149.5,137.7,142,137.7z"/>
		</g>
	</g>
</g>
</svg>
