<?xml version="1.0" encoding="utf-8"?>
<!-- Generator: Adobe Illustrator 24.0.1, SVG Export Plug-In . SVG Version: 6.00 Build 0)  -->
<svg version="1.1" id="Capa_1" xmlns="http://www.w3.org/2000/svg" xmlns:xlink="http://www.w3.org/1999/xlink" x="0px" y="0px"
	 viewBox="0 0 510.2 234" style="enable-background:new 0 0 510.2 234;" xml:space="preserve">
<style type="text/css">
	.st0{fill-rule:evenodd;clip-rule:evenodd;fill:#E0161E;}
</style>
<g>
	<g>
		<path d="M21.9,170.2c0-1.5,0.1-6.2,0.7-9.2c1.6-7.5,5.7-10.5,15-11.9c5.5-0.8,11.7-1.1,22.5-1.1c10,0,28.3,1.1,39.8,2.2v-18.4
			c-13-1.2-30.2-1.9-42.3-1.9c-17.9,0-27.9,1-36.3,3.7c-12.8,4.1-19.8,14.1-20.6,29.2C0.4,168.7,0,175.1,0,181.5
			c0,6.4,0.4,12.8,0.7,18.6c0.8,15.1,7.8,25.1,20.6,29.2c8.4,2.7,18.4,3.7,36.3,3.7c12.2,0,29.3-0.6,42.3-1.9v-18.4
			c-11.5,1.1-29.7,2.2-39.8,2.2c-10.8,0-17-0.3-22.5-1.1c-9.3-1.4-13.4-4.4-15-11.9c-0.6-3-0.7-7.7-0.7-9.2l0-2.6H98v-18H21.9
			L21.9,170.2"/>
		<path d="M256.9,132.3c6.3-1.5,21.4-2.4,29.8-2.4c14.3,0,27.8,0.6,44.4,2.6v19.2c-16.9-3-29-4-45.9-4c-6.8,0-12.9,0.2-18.5,0.9
			c-7.9,0.9-10.6,4.6-10.6,10.9c0,6.3,2.7,9.9,10.6,10.9c6,0.7,12.5,0.9,20,0.9v0c8.6,0.2,21,1.1,26.5,2.4
			c15.7,3.8,21.7,14.5,21.7,28.5s-6,24.7-21.7,28.5c-6.3,1.5-21.4,2.4-29.8,2.4c-17.8,0-30-0.6-46.7-2.6v-19.2
			c17.3,3.1,29.1,4,46.7,4c7.4,0,14-0.2,20-0.9c7.9-1,10.6-4.6,10.6-11.1c0-6.5-2.7-10.2-10.6-11.1c-6-0.7-12.6-0.9-20-0.9v0
			c-8.6-0.2-21-1-26.5-2.3c-15.7-3.7-21.7-14.4-21.7-28.2C235.2,146.7,241.2,136,256.9,132.3"/>
		<path d="M132.4,200.4c0.7,7.2,3.9,11.4,11.5,13.6c4.7,1.4,13.6,2,23.5,2c9.9,0,18.8-0.6,23.5-2c7.6-2.2,10.8-6.4,11.5-13.6
			c0.7-6.9,0.8-12,0.8-18.9s-0.1-12-0.8-18.9c-0.7-7.2-3.9-11.4-11.5-13.6c-4.7-1.4-13.6-2-23.5-2c-9.9,0-18.8,0.6-23.5,2
			c-7.6,2.2-10.8,6.4-11.5,13.6c-0.7,6.9-0.7,12-0.7,18.9S131.7,193.5,132.4,200.4 M109.8,181.5c0-6.4,0.4-13.8,0.7-19.6
			c0.8-15.1,7.8-25.1,20.6-29.2c8.4-2.7,18.4-3.7,36.3-3.7c17.9,0,27.9,1,36.3,3.7c12.8,4.1,19.8,14.1,20.6,29.2
			c0.3,5.8,0.7,13.2,0.7,19.6c0,6.4-0.4,13.8-0.7,19.6c-0.8,15.1-7.8,25.1-20.6,29.2c-8.4,2.7-18.4,3.7-36.3,3.7
			c-17.9,0-27.9-1-36.3-3.7c-12.8-4.1-19.8-14.1-20.6-29.2C110.2,195.3,109.8,187.9,109.8,181.5z"/>
		<path d="M504.2,129h-30.1l-15.6,39.9c-4.5,11.7-8.6,25.4-11.9,37.1H446c-2.7-11.9-6.4-25-10.4-36.9l-14.3-40h-30.7l-7.1,105h20.9
			l2.5-42.4c0.9-14.7,1.5-32.3,2-46.9h0.3c3.1,13.9,7.3,28.9,11.8,43.1l14.9,44.8h17.5l16.8-45.2c5.2-14.2,10.3-29.1,14.4-42.7h0.4
			c0,15.6,0.6,32.3,1.3,46.3l2,43h21.9L504.2,129"/>
	</g>
	<g>
		<path class="st0" d="M124.9,27.8L82.7,52.7l22.3-36.2c-6.4-3.9-13.6-6-22.4-6c-23.4,0-42.6,18.6-42.5,42.3
			C40,76.4,59.2,95.3,82.7,95.3c15.3,0,28.8-8.1,36.3-20.2l2,6.2c-10.4,13.7-29.9,24.4-55.6,24.4C23,105.7,0,80,0,52.8
			C0,25.5,24.1,0,65.3,0C94.2,0,112.7,10.7,124.9,27.8L124.9,27.8z"/>
		<path class="st0" d="M314.9,103.1h-31.1V41.3c0-4.3-3.5-7.8-7.7-7.8c-4.3,0-7.8,3.5-7.8,7.8l0,61.8h-31V33.5h-20.7l29.8-14.1
			c2.1-0.8,4.1-1.3,6.4-1.3c7.7,0,14.1,5.7,15.3,13.1l24.7-11.7c2-0.8,4.1-1.4,6.5-1.4c8.5,0,15.6,6.9,15.6,15.4L314.9,103.1
			L314.9,103.1z"/>
		<path class="st0" d="M209.1,37.1l18.4,66h-31l-4-14.6c-6.4,9.1-19.3,16.5-35.1,16.5c-14.2,0-32.1-11.1-32.1-27.8
			c0.1-16.7,17.9-27.6,32.2-27.7c10.1,0,19.1,2.7,26.5,8.5l-6.9-24.6h-40.2l36.4-13.5C191.6,13.1,206.1,25.8,209.1,37.1L209.1,37.1z
			 M172.9,93.1c8.8,0,15.9-7.1,15.9-15.9c0-8.8-7.1-15.8-15.9-15.8c-8.8,0-15.9,7.1-15.9,15.8C157,86.1,164.1,93.1,172.9,93.1
			L172.9,93.1z"/>
		<path class="st0" d="M325.2,61.9c0-24.2,19.6-43.8,43.9-43.8c24.2,0,43.9,19.6,43.9,43.8c0,24.2-19.6,43.8-43.9,43.8
			C344.8,105.7,325.2,86.1,325.2,61.9L325.2,61.9z M379.3,99.1c5.2-1.5,8-6.5,6.6-11.6l-15.4-56.4c-1.3-5-6.4-8-11.6-6.5
			c-5,1.4-7.9,6.4-6.5,11.6l15.5,56.4C369.2,97.6,374.3,100.4,379.3,99.1L379.3,99.1z"/>
		<path class="st0" d="M508.5,103.1h-31.1l0-61.8c0-4.3-3.5-7.7-7.7-7.7s-7.8,3.5-7.8,7.7l0,61.8h-31V33.5h-20.6L440,19.4
			c2-0.8,4.1-1.3,6.4-1.3c7.7,0,14.2,5.7,15.3,13.1l24.7-11.7c2-0.8,4.1-1.4,6.5-1.4c8.6,0,15.6,6.9,15.6,15.4L508.5,103.1
			L508.5,103.1z"/>
	</g>
</g>
</svg>
