<?xml version="1.0" encoding="utf-8"?>
<!-- Generator: Adobe Illustrator 24.0.1, SVG Export Plug-In . SVG Version: 6.00 Build 0)  -->
<svg version="1.1" id="Capa_1" xmlns="http://www.w3.org/2000/svg" xmlns:xlink="http://www.w3.org/1999/xlink" x="0px" y="0px"
	 viewBox="0 0 510.19 234" style="enable-background:new 0 0 510.19 234;" xml:space="preserve">
<style type="text/css">
	.st0{fill:#FFFFFF;}
	.st1{fill-rule:evenodd;clip-rule:evenodd;fill:#E0161E;}
</style>
<g>
	<g>
		<path class="st0" d="M21.94,170.24c0-1.49,0.07-6.22,0.7-9.23c1.57-7.46,5.73-10.52,15-11.88c5.49-0.8,11.66-1.11,22.5-1.11
			c10.03,0,28.3,1.11,39.76,2.19v-18.38c-13.04-1.24-30.15-1.88-42.32-1.88c-17.91,0-27.91,1.02-36.31,3.74
			c-12.8,4.14-19.77,14.12-20.59,29.19C0.36,168.67,0,175.1,0,181.49c0,6.4,0.36,12.82,0.68,18.61
			c0.83,15.07,7.79,25.05,20.59,29.19c8.4,2.72,18.4,3.74,36.31,3.74c12.17,0,29.28-0.64,42.32-1.89v-18.38
			c-11.46,1.08-29.73,2.19-39.76,2.19c-10.83,0-17.01-0.3-22.5-1.11c-9.27-1.36-13.43-4.41-15-11.87c-0.63-3.01-0.7-7.74-0.7-9.23
			l-0.01-2.65h76.11v-18.04H21.93L21.94,170.24"/>
		<path class="st0" d="M256.85,132.32c6.29-1.49,21.37-2.37,29.8-2.37c14.28,0,27.8,0.64,44.4,2.58v19.24
			c-16.89-3.01-28.99-4.04-45.86-4.04c-6.8,0-12.9,0.23-18.49,0.89c-7.9,0.93-10.56,4.61-10.56,10.85c0,6.25,2.66,9.92,10.56,10.85
			c5.99,0.7,12.55,0.9,19.95,0.9v0.04c8.63,0.19,20.96,1.05,26.49,2.38c15.67,3.78,21.67,14.46,21.67,28.49
			c0,14.03-6,24.71-21.67,28.49c-6.29,1.52-21.38,2.42-29.81,2.42c-17.8,0-29.99-0.65-46.69-2.56v-19.24
			c17.3,3.08,29.06,4.03,46.69,4.03c7.41,0,13.97-0.2,19.96-0.94c7.89-0.97,10.56-4.6,10.56-11.13c0-6.54-2.67-10.17-10.56-11.14
			c-6-0.74-12.56-0.94-19.96-0.94v-0.03c-8.62-0.18-20.95-1.03-26.48-2.34c-15.68-3.72-21.67-14.42-21.67-28.21
			C235.17,146.74,241.16,136.04,256.85,132.32"/>
		<path class="st0" d="M132.38,200.38c0.72,7.21,3.93,11.35,11.53,13.58c4.7,1.38,13.62,2.01,23.47,2.01
			c9.87,0,18.79-0.63,23.5-2.01c7.6-2.23,10.81-6.37,11.53-13.58c0.69-6.89,0.75-12.02,0.75-18.88c0-6.86-0.06-11.99-0.75-18.88
			c-0.72-7.22-3.93-11.36-11.53-13.58c-4.71-1.38-13.63-2.01-23.5-2.01c-9.86,0-18.77,0.63-23.47,2.01
			c-7.6,2.23-10.82,6.37-11.53,13.58c-0.68,6.89-0.74,12.02-0.74,18.88C131.64,188.36,131.7,193.49,132.38,200.38 M109.83,181.5
			c0-6.4,0.36-13.78,0.68-19.57c0.82-15.08,7.78-25.05,20.59-29.19c8.4-2.72,18.39-3.74,36.3-3.74c17.93,0,27.91,1.01,36.31,3.74
			c12.81,4.14,19.76,14.11,20.59,29.19c0.33,5.79,0.68,13.17,0.68,19.57c0,6.4-0.35,13.77-0.68,19.57
			c-0.83,15.07-7.78,25.05-20.59,29.2c-8.4,2.72-18.38,3.74-36.31,3.74c-17.91,0-27.9-1.02-36.3-3.74
			c-12.81-4.15-19.77-14.12-20.59-29.2C110.18,195.27,109.83,187.9,109.83,181.5z"/>
		<path class="st0" d="M504.16,129h-30.08l-15.62,39.86c-4.45,11.72-8.58,25.42-11.91,37.05h-0.51c-2.74-11.86-6.4-25-10.39-36.91
			l-14.33-40h-30.68l-7.1,105h20.88l2.47-42.41c0.85-14.67,1.45-32.26,2.05-46.86h0.3c3.15,13.95,7.26,28.85,11.81,43.06
			l14.88,44.83h17.51l16.8-45.22c5.2-14.23,10.32-29.12,14.39-42.68h0.42c0,15.61,0.65,32.26,1.25,46.26l1.97,43.01h21.92
			L504.16,129"/>
	</g>
	<g>
		<path class="st1" d="M124.88,27.78L82.65,52.71l22.3-36.19c-6.45-3.94-13.59-6.02-22.36-6.04c-23.44-0.01-42.56,18.62-42.48,42.3
			c-0.09,23.6,19.07,42.53,42.58,42.53c15.3,0,28.75-8.05,36.26-20.19l1.99,6.22c-10.36,13.71-29.86,24.4-55.64,24.38
			C22.97,105.7-0.01,80.01,0,52.78C-0.01,25.46,24.11,0.01,65.31,0C94.2,0,112.67,10.69,124.88,27.78L124.88,27.78z"/>
		<path class="st1" d="M314.93,103.06h-31.07V41.25c0-4.26-3.46-7.75-7.72-7.75c-4.3,0-7.76,3.49-7.76,7.75l0.02,61.81h-30.97V33.5
			h-20.66l29.76-14.13c2.05-0.79,4.07-1.33,6.39-1.33c7.74,0,14.15,5.67,15.3,13.08l24.68-11.67c1.99-0.78,4.14-1.41,6.45-1.41
			c8.54,0,15.58,6.93,15.58,15.44V103.06L314.93,103.06z"/>
		<path class="st1" d="M209.12,37.08l18.43,66.02h-30.98l-4.02-14.59c-6.38,9.12-19.25,16.51-35.09,16.47
			c-14.2,0.03-32.07-11.09-32.12-27.82c0.05-16.68,17.92-27.6,32.17-27.65c10.11,0.05,19.13,2.65,26.51,8.5l-6.92-24.64H136.9
			l36.38-13.47C191.62,13.08,206.08,25.8,209.12,37.08L209.12,37.08z M172.86,93.14c8.75,0,15.86-7.09,15.86-15.86
			c0-8.75-7.11-15.84-15.86-15.84c-8.77,0-15.9,7.09-15.9,15.84C156.96,86.05,164.09,93.14,172.86,93.14L172.86,93.14z"/>
		<path class="st1" d="M325.21,61.86c0-24.19,19.63-43.82,43.85-43.82c24.24,0,43.88,19.63,43.88,43.82
			c0,24.2-19.63,43.81-43.88,43.81C344.84,105.67,325.21,86.06,325.21,61.86L325.21,61.86z M379.34,99.08c5.2-1.5,8-6.48,6.62-11.6
			L370.57,31.1c-1.34-4.99-6.36-7.98-11.65-6.5c-4.96,1.38-7.93,6.41-6.48,11.58l15.46,56.36
			C369.19,97.61,374.29,100.42,379.34,99.08L379.34,99.08z"/>
		<path class="st1" d="M508.48,103.1h-31.11l0.01-61.83c0-4.26-3.46-7.74-7.74-7.74c-4.28,0-7.75,3.48-7.75,7.74l0.01,61.83h-30.96
			V33.53h-20.65l29.75-14.13c2.04-0.8,4.1-1.33,6.39-1.33c7.74,0,14.16,5.66,15.3,13.08l24.68-11.68c1.99-0.77,4.14-1.4,6.45-1.4
			c8.57,0,15.62,6.92,15.62,15.42V103.1L508.48,103.1z"/>
	</g>
</g>
</svg>
