<?xml version="1.0" encoding="utf-8"?>
<!-- Generator: Adobe Illustrator 24.0.1, SVG Export Plug-In . SVG Version: 6.00 Build 0)  -->
<svg version="1.1" id="Capa_1" xmlns="http://www.w3.org/2000/svg" xmlns:xlink="http://www.w3.org/1999/xlink" x="0px" y="0px"
	 viewBox="0 0 234.1 234" style="enable-background:new 0 0 234.1 234;" xml:space="preserve">
<style type="text/css">
	.st0{fill:url(#SVGID_1_);}
	.st1{fill:#FFFFFF;}
</style>
<linearGradient id="SVGID_1_" gradientUnits="userSpaceOnUse" x1="117.05" y1="996.6" x2="117.05" y2="764" gradientTransform="matrix(1 0 0 1 0 -764)">
	<stop  offset="0" style="stop-color:#2561DC"/>
	<stop  offset="1" style="stop-color:#26AAFB"/>
</linearGradient>
<path class="st0" d="M117.1,0C52.5,0,0.1,52.4,0.1,117c0,58.4,42.8,106.8,98.7,115.6h36.4c54.3-8.5,96.2-54.2,98.8-110.2
	c0.1-1.8,0.1-3.6,0.1-5.4C234.1,52.4,181.7,0,117.1,0z"/>
<path class="st1" d="M135.1,232.6v-81.8h27.3l5.2-33.8h-32.4V95.1c0-9.3,4.6-18.3,19.1-18.3h14.8V48c0,0-13.4-2.3-26.2-2.3
	c-26.7,0-44.2,16.2-44.2,45.5V117H69v33.8h29.7v81.8c6,0.9,12.1,1.4,18.3,1.4c6,0,11.9-0.5,17.8-1.3
	C134.9,232.7,135.1,232.6,135.1,232.6z"/>
</svg>
