<?xml version="1.0" encoding="utf-8"?>
<!-- Generator: Adobe Illustrator 24.0.1, SVG Export Plug-In . SVG Version: 6.00 Build 0)  -->
<svg version="1.1" id="Layer_1" xmlns="http://www.w3.org/2000/svg" xmlns:xlink="http://www.w3.org/1999/xlink" x="0px" y="0px"
	 viewBox="0 0 234 234" style="enable-background:new 0 0 234 234;" xml:space="preserve">
<style type="text/css">
	.st0{fill:#BF0000;}
	.st1{fill:#FFFFFF;}
</style>
<path id="path2312" class="st0" d="M0,7.8v10.3c4.3,0,7.8,3.5,7.8,7.8c0,4.3-3.5,7.8-7.8,7.8v10.3c4.3,0,7.8,3.5,7.8,7.8
	c0,4.3-3.5,7.8-7.8,7.8v10.3c4.3,0,7.8,3.5,7.8,7.8c0,4.3-3.5,7.8-7.8,7.8v10.3c4.3,0,7.8,3.5,7.8,7.8c0,4.3-3.5,7.8-7.8,7.8v10.3
	c4.3,0,7.8,3.5,7.8,7.8c0,4.3-3.5,7.8-7.8,7.8v10.3c4.3,0,7.8,3.5,7.8,7.8c0,4.3-3.5,7.8-7.8,7.8v10.3c4.3,0,7.8,3.5,7.8,7.8
	c0,4.3-3.5,7.8-7.8,7.8v10.3c4.3,0,7.8,3.5,7.8,7.8s-3.5,7.8-7.8,7.8v10.3c2.1,0,4.1,0.8,5.5,2.3c1.5,1.5,2.3,3.5,2.3,5.5h10.3
	c0-4.3,3.5-7.8,7.8-7.8c4.3,0,7.8,3.5,7.8,7.8h10.3c0-4.3,3.5-7.8,7.8-7.8c4.3,0,7.8,3.5,7.8,7.8h10.3c0-4.3,3.5-7.8,7.8-7.8
	s7.8,3.5,7.8,7.8h10.3c0-4.3,3.5-7.8,7.8-7.8s7.8,3.5,7.8,7.8h10.3c0-4.3,3.5-7.8,7.8-7.8c4.3,0,7.8,3.5,7.8,7.8h10.3
	c0-4.3,3.5-7.8,7.8-7.8c4.3,0,7.8,3.5,7.8,7.8h10.3c0-4.3,3.5-7.8,7.8-7.8c4.3,0,7.8,3.5,7.8,7.8h10.3c0-4.3,3.5-7.8,7.8-7.8
	c4.3,0,7.8,3.5,7.8,7.8h10.3c0-2.1,0.8-4.1,2.3-5.5c1.5-1.5,3.5-2.3,5.5-2.3v-10.3c-4.3,0-7.8-3.5-7.8-7.8c0-4.3,3.5-7.8,7.8-7.8
	v-10.3c-4.3,0-7.8-3.5-7.8-7.8s3.5-7.8,7.8-7.8v-10.3c-4.3,0-7.8-3.5-7.8-7.8c0-4.3,3.5-7.8,7.8-7.8v-10.3c-4.3,0-7.8-3.5-7.8-7.8
	s3.5-7.8,7.8-7.8v-10.3c-4.3,0-7.8-3.5-7.8-7.8s3.5-7.8,7.8-7.8V85.8c-4.3,0-7.8-3.5-7.8-7.8c0-4.3,3.5-7.8,7.8-7.8V59.8
	c-4.3,0-7.8-3.5-7.8-7.8c0-4.3,3.5-7.8,7.8-7.8V33.8c-4.3,0-7.8-3.5-7.8-7.8c0-4.3,3.5-7.8,7.8-7.8V7.8c-2.1,0-4.1-0.8-5.5-2.3
	c-1.5-1.5-2.3-3.5-2.3-5.5h-10.3c0,4.3-3.5,7.8-7.8,7.8c-4.3,0-7.8-3.5-7.8-7.8h-10.3c0,4.3-3.5,7.8-7.8,7.8c-4.3,0-7.8-3.5-7.8-7.8
	h-10.3c0,4.3-3.5,7.8-7.8,7.8c-4.3,0-7.8-3.5-7.8-7.8h-10.3c0,4.3-3.5,7.8-7.8,7.8c-4.3,0-7.8-3.5-7.8-7.8h-10.3
	c0,4.3-3.5,7.8-7.8,7.8S96.2,4.3,96.2,0H85.8c0,4.3-3.5,7.8-7.8,7.8c-4.3,0-7.8-3.5-7.8-7.8H59.8c0,4.3-3.5,7.8-7.8,7.8
	c-4.3,0-7.8-3.5-7.8-7.8H33.8c0,4.3-3.5,7.8-7.8,7.8c-4.3,0-7.8-3.5-7.8-7.8H7.8c0,2.1-0.8,4.1-2.3,5.5C4.1,7,2.1,7.8,0,7.8z"/>
<path id="path2314" class="st1" d="M199.3,93.6H82.6l6.1-28.5h71.2l6.5-30.7H64.1L31.9,186.3h30.9L76.9,120H151l-64.4,63.8l11.3,20
	c5.2-3.5,13.7-3.9,19.6-3.9c10.4,0,20.7,3.5,31.3,3.5c9.8,0,19.8-0.7,36.1-8.5l5.7-26.8c-11.1,4.6-27.5,8.9-41.8,8.9
	c-5.9,0-11.3-1.3-17-2.2l62.4-60.7L199.3,93.6L199.3,93.6z"/>
</svg>
