<?xml version="1.0" encoding="utf-8"?>
<!-- Generator: Adobe Illustrator 24.0.1, SVG Export Plug-In . SVG Version: 6.00 Build 0)  -->
<svg version="1.1" id="Layer_1" xmlns="http://www.w3.org/2000/svg" xmlns:xlink="http://www.w3.org/1999/xlink" x="0px" y="0px"
	 viewBox="0 0 239.9 234" style="enable-background:new 0 0 239.9 234;" xml:space="preserve">
<style type="text/css">
	.st0{fill-rule:evenodd;clip-rule:evenodd;fill:#24292E;}
</style>
<path class="st0" d="M120,0C53.7,0,0,53.7,0,120c0,53,34.4,98,82,113.8c6,1.1,8.2-2.6,8.2-5.8c0-2.8-0.1-10.4-0.2-20.4
	c-33.4,7.2-40.4-16.1-40.4-16.1C44.2,177.7,36.3,174,36.3,174c-10.9-7.4,0.8-7.3,0.8-7.3c12,0.8,18.4,12.4,18.4,12.4
	c10.7,18.3,28.1,13,34.9,10c1.1-7.8,4.2-13,7.6-16c-26.6-3-54.6-13.3-54.6-59.3c0-13.1,4.7-23.8,12.3-32.2c-1.2-3-5.4-15.2,1.2-31.7
	c0,0,10.1-3.2,33,12.3c9.6-2.7,19.8-4,30-4s20.5,1.4,30,4c22.9-15.5,33-12.3,33-12.3c6.5,16.5,2.4,28.7,1.2,31.7
	c7.7,8.4,12.3,19.1,12.3,32.2c0,46.1-28,56.2-54.8,59.2c4.3,3.7,8.1,11,8.1,22.2c0,16-0.1,29-0.1,32.9c0,3.2,2.2,6.9,8.2,5.8
	c47.6-15.9,82-60.8,82-113.8C239.9,53.7,186.2,0,120,0z"/>
</svg>
