<?xml version="1.0" encoding="utf-8"?>
<!-- Generator: Adobe Illustrator 24.0.1, SVG Export Plug-In . SVG Version: 6.00 Build 0)  -->
<svg version="1.1" id="Capa_1" xmlns="http://www.w3.org/2000/svg" xmlns:xlink="http://www.w3.org/1999/xlink" x="0px" y="0px"
	 viewBox="0 0 206.33 234" style="enable-background:new 0 0 206.33 234;" xml:space="preserve">
<style type="text/css">
	.st0{fill:#F06628;}
	.st1{fill:#FFFFFF;}
</style>
<g id="形状_1_28_">
	<g>
		<g id="形状_1_9_">
			<g>
				<polygon class="st0" points="0,0 18.78,210.61 103.04,234 187.53,210.58 206.33,0 				"/>
			</g>
		</g>
	</g>
</g>
<polygon class="st1" points="103.07,43.05 103.07,43.05 38.39,43.05 39.01,49.98 45.36,121.16 103.07,121.16 103.07,121.16 
	134.88,121.16 131.88,154.66 103.07,162.44 103.07,162.44 103.05,162.45 74.28,154.68 72.44,134.08 46.51,134.08 50.13,174.64 
	103.05,189.32 103.16,189.29 103.16,189.29 156.03,174.63 156.42,170.27 162.49,102.27 163.12,95.33 103.16,95.33 103.07,95.33 
	68.98,95.33 66.62,68.88 103.07,68.88 103.07,68.88 165.47,68.88 165.99,63.08 167.16,49.98 167.78,43.05 "/>
</svg>
