<?xml version="1.0" encoding="utf-8"?>
<!-- Generator: Adobe Illustrator 24.0.1, SVG Export Plug-In . SVG Version: 6.00 Build 0)  -->
<svg version="1.1" id="Layer_1" xmlns="http://www.w3.org/2000/svg" xmlns:xlink="http://www.w3.org/1999/xlink" x="0px" y="0px"
	 viewBox="0 0 242.8 234" style="enable-background:new 0 0 242.8 234;" xml:space="preserve">
<style type="text/css">
	.st0{fill:#78CFF5;}
</style>
<path class="st0" d="M15.4,54.9C-6.1,85.8-3.4,126,13,158.9c0.4,0.8,0.8,1.6,1.2,2.3l0.8,1.5c0.2,0.3,0.3,0.6,0.5,0.9
	c0.3,0.5,0.6,1,0.9,1.5l1.6,2.7l0.9,1.5l1.8,2.8l0.8,1.2c0.9,1.3,1.7,2.6,2.6,3.8l0.5,0.7c0.8,1.1,1.6,2.1,2.4,3.2l0.9,1.2l2.2,2.7
	l0.9,1c1,1.2,2,2.4,3.1,3.5c0.1,0.1,0.2,0.2,0.2,0.2c1,1.1,2.1,2.2,3.1,3.3l1,1l2.5,2.5l1,1c1.1,1.1,2.3,2.1,3.4,3.1l3.8,3.2l1.3,1
	l2.6,2l1.4,1.1l2.9,2.1l1.4,1c0.9,0.6,1.9,1.3,2.8,1.9l1.2,0.8c1.5,0.9,2.9,1.8,4.4,2.7l1.2,0.8l3.3,1.9c0.6,0.3,1.2,0.6,1.8,0.9
	l2.4,1.2l0.6,0.3l1,0.5l3.8,1.7L82,224c1.5,0.6,2.9,1.2,4.4,1.8l1.1,0.4l4.2,1.5l0.5,0.2c1.5,0.5,3.1,1,4.6,1.5l1.1,0.3
	c1.5,0.5,3.2,1.1,4.8,1.4c103.9,19,134.1-62.5,134.1-62.5c-25.4,33-70.4,41.7-113.1,32c-1.6-0.4-3.2-0.9-4.8-1.3l-1.2-0.4
	c-1.5-0.5-3.1-1-4.6-1.5l-0.6-0.2c-1.4-0.5-2.7-1-4-1.5l-1.1-0.5c-1.5-0.6-2.9-1.2-4.4-1.8l-0.9-0.4l-3.7-1.7l-1.1-0.5
	c-1-0.5-1.9-1-2.8-1.5l-1.9-1c-1.2-0.6-2.3-1.3-3.4-1.9l-1.2-0.6c-1.5-0.9-3-1.8-4.4-2.7c-0.4-0.3-0.8-0.5-1.2-0.8l-3.2-2.1
	c-0.3-0.2-0.8-0.5-1-0.7l-3-2.2l-1.3-1l-2.7-2.1l-1.2-1l-3.4-2.8c-0.1-0.1-0.2-0.2-0.4-0.3l-3.5-3.2l-1-1l-2.5-2.5l-1-1
	c-1.1-1.1-2.1-2.2-3-3.3c-0.1-0.1-0.1-0.1-0.2-0.2c-1.1-1.2-2.1-2.4-3.2-3.6l-0.8-1l-2.3-2.8l-0.8-1l-2.6-3.5
	C21.8,114.8,13.3,70.2,32.2,33.6 M82.1,28.9c-15.5,22.4-14.7,52.4-2.6,76c2,4,4.3,7.8,6.9,11.5c2.3,3.3,4.9,7.3,8,10
	c1.1,1.2,2.3,2.4,3.5,3.6l0.9,0.9c1.2,1.1,2.3,2.2,3.6,3.3c0.1,0,0.1,0.1,0.2,0.1c1.4,1.2,2.8,2.3,4.2,3.5l0.9,0.7
	c1.4,1.1,2.9,2.2,4.4,3.2l0.1,0.1c0.7,0.5,1.3,0.9,2,1.3c0.3,0.2,0.6,0.4,0.9,0.6c1.1,0.7,2.1,1.3,3.2,2l0.5,0.3l2.9,1.5
	c0.3,0.2,0.8,0.3,1,0.5l2,1c0.1,0.1,0.2,0.1,0.3,0.1c1.4,0.7,2.8,1.3,4.2,1.9l0.9,0.4c1.1,0.5,2.3,0.9,3.4,1.4l1.5,0.5
	c1,0.4,2.1,0.7,3.1,1.1l1.4,0.5c1.5,0.5,3,1.1,4.5,1.3c80.3,13.3,98.8-48.6,98.8-48.6c-16.7,24.1-49,35.5-83.6,26.6
	c-1.5-0.4-3-0.8-4.5-1.3c-0.5-0.1-0.9-0.3-1.4-0.4l-3.2-1.1l-1.5-0.5c-1.1-0.4-2.3-0.9-3.4-1.4l-0.9-0.4c-1.4-0.6-2.8-1.3-4.2-1.9
	l-2.1-1.1l-1.2-0.6c-0.9-0.5-1.8-1-2.7-1.5l-0.6-0.4c-1.1-0.6-2.2-1.3-3.2-2c-0.3-0.2-0.6-0.4-1-0.6l-2.1-1.4
	c-1.5-1-2.9-2.1-4.3-3.2l-1-0.8C106.7,103.8,94.8,87.5,89.1,69c-6-19.2-4.7-40.7,5.7-58.1 M138.2,9.4c-9.2,13.5-10.1,30.2-3.7,45.1
	c6.7,15.8,20.4,28.2,36.5,34.2l2,0.8l0.9,0.3l2.9,0.8c44.3,8.6,56.3-22.7,59.5-27.3c-10.5,15.2-28.2,18.8-49.9,13.5
	c-1.7-0.4-3.6-1-5.3-1.6c-2.1-0.8-4.2-1.6-6.2-2.6c-3.9-1.9-7.5-4.1-10.9-6.7C144.5,51.1,132.4,22.9,145.1,0"/>
</svg>
