<?xml version="1.0" encoding="utf-8"?>
<!-- Generator: Adobe Illustrator 24.0.1, SVG Export Plug-In . SVG Version: 6.00 Build 0)  -->
<svg version="1.1" id="Capa_1" xmlns="http://www.w3.org/2000/svg" xmlns:xlink="http://www.w3.org/1999/xlink" x="0px" y="0px"
	 viewBox="0 0 234 234" style="enable-background:new 0 0 234 234;" xml:space="preserve">
<style type="text/css">
	.st0{fill:#F7DF1E;}
</style>
<g>
	<rect class="st0" width="234" height="234"/>
	<path d="M157.19,182.81c4.71,7.7,10.85,13.35,21.69,13.35c9.11,0,14.93-4.55,14.93-10.85c0-7.54-5.98-10.21-16.01-14.6l-5.5-2.36
		c-15.87-6.76-26.41-15.23-26.41-33.13c0-16.49,12.57-29.05,32.2-29.05c13.98,0,24.03,4.87,31.27,17.61l-17.12,10.99
		c-3.77-6.76-7.84-9.42-14.15-9.42c-6.44,0-10.52,4.09-10.52,9.42c0,6.6,4.09,9.27,13.52,13.35l5.5,2.35
		c18.68,8.01,29.23,16.18,29.23,34.54c0,19.8-15.55,30.64-36.44,30.64c-20.42,0-33.61-9.73-40.07-22.49L157.19,182.81z
		 M79.51,184.72c3.45,6.13,6.6,11.31,14.15,11.31c7.22,0,11.78-2.83,11.78-13.82v-74.77h21.99v75.07
		c0,22.77-13.35,33.13-32.83,33.13c-17.61,0-27.8-9.11-32.99-20.09L79.51,184.72z"/>
</g>
</svg>
