<?xml version="1.0" encoding="utf-8"?>
<!-- Generator: Adobe Illustrator 24.0.1, SVG Export Plug-In . SVG Version: 6.00 Build 0)  -->
<svg version="1.1" id="Capa_1" xmlns="http://www.w3.org/2000/svg" xmlns:xlink="http://www.w3.org/1999/xlink" x="0px" y="0px"
	 viewBox="0 0 246.2 234" style="enable-background:new 0 0 246.2 234;" xml:space="preserve">
<style type="text/css">
	.st0{fill:#BAD6D9;}
	.st1{fill:url(#SVGID_1_);}
	.st2{fill:url(#SVGID_2_);}
	.st3{fill:url(#SVGID_3_);}
	.st4{fill:url(#SVGID_4_);}
	.st5{fill:url(#SVGID_5_);}
	.st6{fill:url(#SVGID_6_);}
	.st7{fill:url(#SVGID_7_);}
</style>
<polygon class="st0" points="190.41,200.97 190.37,232.27 197.9,232.27 237.72,126.44 246,52.92 246.2,32.76 246.2,11.06 
	229.56,55.22 "/>
<path class="st0" d="M177.22,133.95c0,0,18.85-23.18,68.78-125.74l-45.03,13.32L177.22,133.95z"/>
<polygon class="st0" points="123.56,123.61 118.78,134.86 147.34,189.15 143.28,142.77 "/>
<path class="st0" d="M78.12,147.3c0,0-19.42-21.65-77.43-139.09l47.9,18.68l61.52,154.94L78.12,147.3z"/>
<path class="st0" d="M0,234c0,0,37.57-38.15,49.09-75.91s14.55-50.8,14.55-50.8L49.09,84.32l-34.2,76.58L0,234z"/>
<g>
	
		<linearGradient id="SVGID_1_" gradientUnits="userSpaceOnUse" x1="120.0824" y1="-175.3853" x2="259.987" y2="-202.58" gradientTransform="matrix(1 0 0 1 0 281.0861)">
		<stop  offset="0" style="stop-color:#0F6067"/>
		<stop  offset="0.5" style="stop-color:#05ABAC"/>
		<stop  offset="1" style="stop-color:#58BEC4"/>
	</linearGradient>
	<path class="st1" d="M172.19,6.82h73.86l-98.71,182.33c0,0-16.63-48.3-23.78-65.54"/>
	<g>
		
			<linearGradient id="SVGID_2_" gradientUnits="userSpaceOnUse" x1="218.0221" y1="-46.3992" x2="238.0193" y2="-274.9684" gradientTransform="matrix(1 0 0 1 0 281.0861)">
			<stop  offset="0" style="stop-color:#117C83"/>
			<stop  offset="0.5" style="stop-color:#21B5B5"/>
			<stop  offset="1" style="stop-color:#7ED4D4"/>
		</linearGradient>
		<path class="st2" d="M190.41,232.27h55.64V6.82C246.01,124.64,196.49,232.27,190.41,232.27z"/>
	</g>
	
		<linearGradient id="SVGID_3_" gradientUnits="userSpaceOnUse" x1="102.2812" y1="-271.1526" x2="49.5278" y2="-108.7943" gradientTransform="matrix(1 0 0 1 0 281.0861)">
		<stop  offset="0" style="stop-color:#9ACCD3"/>
		<stop  offset="0.5" style="stop-color:#72AEB3"/>
		<stop  offset="1" style="stop-color:#317D7F"/>
	</linearGradient>
	<path class="st3" d="M147.34,189.15h-45.92L0,6.82C17.99,4.53,53.91,1.45,71.71,0L147.34,189.15z"/>
	
		<linearGradient id="SVGID_4_" gradientUnits="userSpaceOnUse" x1="-12.5817" y1="-85.8086" x2="75.9755" y2="-114.5825" gradientTransform="matrix(1 0 0 1 0 281.0861)">
		<stop  offset="0" style="stop-color:#21626E"/>
		<stop  offset="0.5" style="stop-color:#157C84"/>
		<stop  offset="1" style="stop-color:#03A3A5"/>
	</linearGradient>
	<path class="st4" d="M58.82,117.16C43.59,177.33-0.05,234.05,0,234c50.55,0,61.43-7.33,61.43-11.21c0-2.15,0-69.28,0-101.05
		C60.54,120.25,59.7,118.71,58.82,117.16z"/>
	
		<linearGradient id="SVGID_5_" gradientUnits="userSpaceOnUse" x1="56.6565" y1="-213.5089" x2="-56.6565" y2="-107.8428" gradientTransform="matrix(1 0 0 1 0 281.0861)">
		<stop  offset="0" style="stop-color:#0B7C81"/>
		<stop  offset="0.5" style="stop-color:#068D90"/>
		<stop  offset="1" style="stop-color:#16B1B1"/>
	</linearGradient>
	<path class="st5" d="M0,6.82V234c27.66-45.69,43.77-75.59,58.02-118.19C22.89,53.68,0,6.82,0,6.82z"/>
	
		<linearGradient id="SVGID_6_" gradientUnits="userSpaceOnUse" x1="161.4663" y1="-84.5622" x2="219.3619" y2="-131.4452" gradientTransform="matrix(1 0 0 1 0 281.0861)">
		<stop  offset="0" style="stop-color:#0A8A8F"/>
		<stop  offset="0.5" style="stop-color:#0F7C82"/>
		<stop  offset="1" style="stop-color:#1A5964"/>
	</linearGradient>
	<polyline class="st6" points="186.58,223.35 190.41,232.27 190.41,113.89 186.58,120.29 	"/>
	
		<linearGradient id="SVGID_7_" gradientUnits="userSpaceOnUse" x1="249.104" y1="-142.2208" x2="187.5354" y2="-180.6932" gradientTransform="matrix(1 0 0 1 0 281.0861)">
		<stop  offset="0" style="stop-color:#256A77"/>
		<stop  offset="0.5" style="stop-color:#0D9499"/>
		<stop  offset="1" style="stop-color:#06A0A2"/>
	</linearGradient>
	<path class="st7" d="M190.23,114.13V231.9l0.14,0.37c3.97,0,55.64-127.44,55.64-225.45C246.01,6.82,214.47,72.6,190.23,114.13z"/>
</g>
</svg>
