<?xml version="1.0" encoding="utf-8"?>
<!-- Generator: Adobe Illustrator 24.0.1, SVG Export Plug-In . SVG Version: 6.00 Build 0)  -->
<svg version="1.1" id="Capa_1" xmlns="http://www.w3.org/2000/svg" xmlns:xlink="http://www.w3.org/1999/xlink" x="0px" y="0px"
	 viewBox="0 0 202.72 234" style="enable-background:new 0 0 202.72 234;" xml:space="preserve">
<style type="text/css">
	.st0{fill:#DCEDBE;}
	.st1{fill:#206723;}
	.st2{fill:#8CC429;}
</style>
<polygon class="st0" points="101.36,0 0,58.67 0,175.93 101.36,175.93 202.72,175.93 202.72,58.67 "/>
<g>
	<path class="st1" d="M156.35,148.97v36.85l-25.4,14.55l0,0v0l-17.79-10.19V143.6c0-8.7-5.57-12.51-6.77-13.23l-10.54-6.04v55.93
		l-17.42-9.98v-39.94v-6.56c-0.06-3.93-1.21-6.9-2.64-9.08c-1.33-2.02-2.9-3.38-4.11-4.22l-10.3-5.9v18.37v17.3v20.26l-17.55-10.05
		L0,175.93L101.36,234l101.36-58.07L156.35,148.97z"/>
	<path class="st0" d="M146.19,110.5c-2.11-2.66-6.52-6.48-11.45-9.85c-1.24-0.85-2.52-1.67-3.8-2.44c-1.94-1.16-3.89-2.2-5.75-3.03
		c-6.05-2.68-10.34-2.11-12.05-1.68c-0.54,0.13-0.83,0.26-0.83,0.26c-1.78-3.94-7.24-8.73-10.97-11.68V58.67V0L0,58.67v117.26
		l43.82-25.48l0,0v-17.45V94.53v-16.9l17.55,10.05l13.64,7.81c0.9,0.68,2.1,1.61,3.41,2.72c3.28,2.77,7.24,6.57,8.77,9.94
		c0,0,0,0.01,0.01,0.01c0,0,3.22-1.37,8.65-0.03c0.84,0.21,1.74,0.48,2.69,0.83c0.5,0.19,1.01,0.39,1.54,0.63
		c0.42,0.19,0.86,0.42,1.29,0.63c3.37,1.63,6.95,3.85,10.19,6.2c0.55,0.4,1.08,0.8,1.61,1.2c3.43,2.63,6.32,5.28,7.9,7.28
		c1.02,1.29,2.31,3.21,3.61,5.63c1.81,3.38,3.66,7.77,4.88,13.09c0.86,3.74,1.4,7.92,1.4,12.49v44.24v0l0,0l25.4-14.55v-36.85v-7.8
		C156.35,125.44,149.63,114.85,146.19,110.5z"/>
	<g>
		<path class="st2" d="M101.36,0v58.67v23.41c3.72,2.95,9.18,7.74,10.97,11.68c0,0,0.29-0.12,0.83-0.26c1.71-0.43,6-1,12.05,1.68
			c1.86,0.82,3.81,1.87,5.75,3.03c1.28,0.77,2.55,1.59,3.8,2.44c4.93,3.37,9.34,7.19,11.45,9.85c3.45,4.35,10.16,14.94,10.16,30.67
			v7.8l46.37,26.96V58.67L101.36,0z"/>
		<path class="st2" d="M124.67,130.55c-1.3-2.43-2.59-4.35-3.61-5.63c-1.59-2-4.47-4.66-7.9-7.28c-0.52-0.4-1.06-0.8-1.61-1.2
			c-3.24-2.36-6.81-4.57-10.19-6.2c-0.43-0.21-0.87-0.44-1.29-0.63c-0.53-0.23-1.04-0.44-1.54-0.63c-0.95-0.35-1.84-0.63-2.69-0.83
			c-5.43-1.33-8.65,0.03-8.65,0.03c0,0,0-0.01-0.01-0.01c-1.53-3.37-5.49-7.18-8.77-9.94c-1.31-1.1-2.51-2.04-3.41-2.72l-13.64-7.81
			L43.82,77.63v16.9v38.48v17.45l0,0l17.55,10.05v-20.26v-17.3v-18.37l10.3,5.9c1.21,0.84,2.79,2.2,4.11,4.22
			c1.44,2.19,2.58,5.15,2.64,9.08v6.56v39.94l17.42,9.98v-55.93l10.54,6.04c1.2,0.72,6.77,4.53,6.77,13.23v46.58l17.79,10.19v-44.24
			c0-4.57-0.55-8.75-1.4-12.49C128.33,138.32,126.48,133.93,124.67,130.55z"/>
	</g>
</g>
</svg>
