<?xml version="1.0" encoding="utf-8"?>
<!-- Generator: Adobe Illustrator 24.0.1, SVG Export Plug-In . SVG Version: 6.00 Build 0)  -->
<svg version="1.1" id="Layer_1" xmlns="http://www.w3.org/2000/svg" xmlns:xlink="http://www.w3.org/1999/xlink" x="0px" y="0px"
	 viewBox="0 0 235.2 234" style="enable-background:new 0 0 235.2 234;" xml:space="preserve">
<style type="text/css">
	.st0{fill:#387EB8;}
	.st1{fill:#FFE052;}
</style>
<g>
	<path class="st0" d="M116.8,0c-59.7,0-56,25.9-56,25.9l0.1,26.8h57v8.1H38.2c0,0-38.2-4.3-38.2,55.9c0,60.3,33.4,58.1,33.4,58.1
		h19.9v-28c0,0-1.1-33.4,32.8-33.4h56.5c0,0,31.8,0.5,31.8-30.7V31.2C174.3,31.2,179.2,0,116.8,0L116.8,0L116.8,0z M85.3,18
		c5.7,0,10.3,4.6,10.3,10.3S91,38.5,85.3,38.5c-5.7,0-10.3-4.6-10.3-10.3C75.1,22.6,79.7,18,85.3,18L85.3,18L85.3,18z"/>
	<path class="st1" d="M118.5,234c59.7,0,56-25.9,56-25.9l-0.1-26.8h-57v-8.1H197c0,0,38.2,4.3,38.2-55.9c0-60.3-33.4-58.1-33.4-58.1
		H182v28c0,0,1.1,33.4-32.8,33.4H92.6c0,0-31.8-0.5-31.8,30.7v51.6C60.9,202.8,56.1,234,118.5,234L118.5,234L118.5,234z M149.9,216
		c-5.7,0-10.3-4.6-10.3-10.3c0-5.7,4.6-10.3,10.3-10.3c5.7,0,10.3,4.6,10.3,10.3C160.1,211.4,155.6,216,149.9,216L149.9,216
		L149.9,216z"/>
</g>
</svg>
