<?xml version="1.0" encoding="utf-8"?>
<!-- Generator: Adobe Illustrator 24.0.1, SVG Export Plug-In . SVG Version: 6.00 Build 0)  -->
<svg version="1.1" id="Layer_1" xmlns="http://www.w3.org/2000/svg" xmlns:xlink="http://www.w3.org/1999/xlink" x="0px" y="0px"
	 viewBox="0 0 262.5 234" style="enable-background:new 0 0 262.5 234;" xml:space="preserve">
<style type="text/css">
	.st0{fill:#61DAFB;}
</style>
<g>
	<g>
		<circle class="st0" cx="131.3" cy="116.9" r="23.4"/>
	</g>
	<g>
		<g>
			<path class="st0" d="M131.3,170.6C57.7,170.6,0,147,0,116.9s57.7-53.6,131.3-53.6c73.6,0,131.3,23.6,131.3,53.6
				S204.8,170.6,131.3,170.6z M131.3,74.7C60.6,74.7,11.4,97,11.4,116.9s49.2,42.2,119.8,42.2c70.6,0,119.8-22.3,119.8-42.2
				S201.9,74.7,131.3,74.7z"/>
		</g>
		<g>
			<path class="st0" d="M183.6,234c-11.6,0-25.7-6.4-41-18.8c-20.2-16.4-40.8-41.8-57.9-71.4C67.7,114.1,56,83.7,51.9,57.9
				c-4.4-27.6,0.5-47,13.7-54.6c26.1-15,75.3,23.1,112.1,86.8l0,0c36.8,63.7,45.2,125.4,19.2,140.5C193,232.9,188.5,234,183.6,234z
				 M78.8,11.3c-2.9,0-5.4,0.6-7.5,1.8c-8.8,5.1-11.7,20.7-8.2,42.9c3.9,24.4,15.1,53.5,31.5,81.9c16.4,28.5,36,52.7,55.2,68.3
				c17.5,14.2,32.5,19.4,41.3,14.4c17.3-10,12-63.7-23.3-124.9l0,0C136.8,42.2,99.3,11.3,78.8,11.3z"/>
		</g>
		<g>
			<path class="st0" d="M78.9,234c-4.9,0-9.3-1.1-13.2-3.4c-26-15-17.6-76.7,19.2-140.5c36.8-63.7,86-101.9,112.1-86.8
				c13.3,7.7,18.2,27.1,13.8,54.6c-4.1,25.7-15.8,56.2-32.9,85.8l0,0c-17.1,29.6-37.7,55-57.9,71.4C104.5,227.6,90.5,234,78.9,234z
				 M183.7,11.3c-20.4,0-58,30.8-89,84.5C59.4,157,54,210.7,71.3,220.7c8.8,5,23.8-0.2,41.3-14.4c19.2-15.6,38.8-39.8,55.2-68.3
				c16.4-28.4,27.6-57.6,31.5-81.9c3.6-22.2,0.6-37.9-8.2-42.9C189.1,11.9,186.5,11.3,183.7,11.3z"/>
		</g>
	</g>
</g>
</svg>
