<?xml version="1.0" encoding="utf-8"?>
<!-- Generator: Adobe Illustrator 24.0.1, SVG Export Plug-In . SVG Version: 6.00 Build 0)  -->
<svg version="1.1" id="Capa_1" xmlns="http://www.w3.org/2000/svg" xmlns:xlink="http://www.w3.org/1999/xlink" x="0px" y="0px"
	 viewBox="0 0 284.03 234" style="enable-background:new 0 0 284.03 234;" xml:space="preserve">
<style type="text/css">
	.st0{fill:#E74016;}
</style>
<path class="st0" d="M203.64,138.26l-28.54-9.21v-6.59l-33.2-19.22l-24.33,14.21l86.07,27.52v32.29l-61.74,35.59l-61.74-35.59
	v-32.29l28.54,9.1v6.71l33.2,19.22l24.9-14.44l-86.64-27.29v-32.29l61.74-35.59l61.74,35.59V138.26L203.64,138.26z M277.43,136.44
	H233.2V63.22c0-7.05-5.69-12.73-12.73-12.73h-73.22V6.25c0-3.41-2.5-6.25-5.57-6.25s-5.57,2.73-5.57,6.25v44.23H62.65
	c-7.05,0-12.73,5.69-12.73,12.73v73.45H6.25c-3.41,0-6.25,2.5-6.25,5.57c0,3.07,2.73,5.57,6.25,5.57h43.89v73.45
	c0,7.05,5.69,12.73,12.73,12.73h157.93c7.05,0,12.73-5.69,12.73-12.73v-73.45h44.23c3.41,0,6.25-2.5,6.25-5.57
	C283.8,139.06,280.85,136.44,277.43,136.44L277.43,136.44z"/>
</svg>
