<?xml version="1.0" encoding="utf-8"?>
<!-- Generator: Adobe Illustrator 24.0.1, SVG Export Plug-In . SVG Version: 6.00 Build 0)  -->
<svg version="1.1" id="Capa_1" xmlns="http://www.w3.org/2000/svg" xmlns:xlink="http://www.w3.org/1999/xlink" x="0px" y="0px"
	 viewBox="0 0 243.52 234" style="enable-background:new 0 0 243.52 234;" xml:space="preserve">
<style type="text/css">
	.st0{fill:#DC1922;}
</style>
<path class="st0" d="M104.14,0.42c8.21-1.96,16.41,3.12,18.38,11.33c1.96,8.21-3.12,16.41-11.33,18.38
	C102.98,32.09,94.78,27,92.81,18.8C90.85,10.48,95.93,2.27,104.14,0.42L104.14,0.42z"/>
<path class="st0" d="M219.48,185.92c13.29,0,24.04,10.75,24.04,24.04c0,13.29-10.75,24.04-24.04,24.04
	c-13.29,0-24.04-10.75-24.04-24.04C195.44,196.67,206.19,185.92,219.48,185.92L219.48,185.92z"/>
<path class="st0" d="M10.87,199.44c5.89,0,10.63,4.74,10.63,10.63s-4.74,10.63-10.63,10.63s-10.63-4.74-10.63-10.63
	S5.09,199.44,10.87,199.44L10.87,199.44z"/>
<path class="st0" d="M169.79,136.92l-29.01-9.36v-6.7l-33.75-19.53l-24.73,14.33l87.49,27.97v32.82l-62.76,36.18l-62.76-36.18
	v-32.82l29.01,9.25v6.82l33.75,19.53l25.31-14.68L44.27,136.8v-32.82l62.76-36.18l62.76,36.18V136.92L169.79,136.92z M107.03,46.65
	c-51.78,0-93.62,41.95-93.62,93.62c0,51.78,41.95,93.62,93.62,93.62c51.78,0,93.62-41.95,93.62-93.62S158.57,46.65,107.03,46.65
	L107.03,46.65z"/>
</svg>
