<?xml version="1.0" encoding="utf-8"?>
<!-- Generator: Adobe Illustrator 24.0.1, SVG Export Plug-In . SVG Version: 6.00 Build 0)  -->
<svg version="1.1" id="Layer_1" xmlns="http://www.w3.org/2000/svg" xmlns:xlink="http://www.w3.org/1999/xlink" x="0px" y="0px"
	 viewBox="0 0 198.4 234" style="enable-background:new 0 0 198.4 234;" xml:space="preserve">
<style type="text/css">
	.st0{fill:#CF649A;}
</style>
<path class="st0" d="M100,7.2C37,28.9-3.7,72.8,0.3,99s43.3,47.2,61,61l0,0c-23,11.8-51.8,29.5-51.2,52.5
	c1.3,31.5,35.4,21.6,49.8,12.5s28.9-34.8,19.7-61.6c20.3-5.2,38,1.3,43.3,5.2c20.3,14.4,9.8,30.8,2.6,33.4c-7.2,2.6-2.6,3.9,2,2.6
	c4.6-1.3,14.4-7.9,14.4-19c0-28.2-30.2-41.3-67.6-31.5c-21.6-23-51.2-33.4-49.8-58.4c0.7-9.2,3.9-32.8,62.3-62.3s99.7-17.7,94.4,9.2
	c-7.9,40.7-78.7,68.2-103.6,44.6c-1.3-2.6-5.9-4.6-3.3,2.6c13.1,32.8,119.4,17.7,124-51.8C199.6,1.3,146.5-8.5,100,7.2z M43.5,217.1
	c-16.4,5.2-15.7-5.2-15.1-9.2c2-11.1,11.1-24.9,38.7-38.7C75,194.1,57.3,213.2,43.5,217.1z"/>
</svg>
