<?xml version="1.0" encoding="utf-8"?>
<!-- Generator: Adobe Illustrator 24.0.1, SVG Export Plug-In . SVG Version: 6.00 Build 0)  -->
<svg version="1.1" id="Capa_1" xmlns="http://www.w3.org/2000/svg" xmlns:xlink="http://www.w3.org/1999/xlink" x="0px" y="0px"
	 viewBox="0 0 234.05 234" style="enable-background:new 0 0 234.05 234;" xml:space="preserve">
<style type="text/css">
	.st0{fill:#F89820;}
</style>
<g>
	<path class="st0" d="M187.87,110.04l-58.34-18.3l58.53-18.3c8.87-1.6,7.08-8.07,7.08-8.07l-0.37-44.05
		c2.46-9.92-7.76-4.56-7.76-4.56L42.97,62.48c0,0-5.67,1.36-4,11.03l-0.31,42.45c0,0-0.49,5.36,9.67,7.52l142.75,45.96
		c0,0,4.81,1.91,4.25-4l0.06-47.31C195.39,118.11,196.75,113.25,187.87,110.04z"/>
	<path class="st0" d="M90.02,146.89L45.13,160.5c0,0-7.33,0.25-6.47,13.99c0.86,13.74-0.06,41.4-0.06,41.4s0.62,5.11,7.64,2.16
		l128.18-41.03c0,0,5.11-1.29,0.8-2.71C170.91,172.95,90.02,146.89,90.02,146.89z"/>
</g>
</svg>
