<?xml version="1.0" encoding="utf-8"?>
<!-- Generator: Adobe Illustrator 24.3.0, SVG Export Plug-In . SVG Version: 6.00 Build 0)  -->
<svg version="1.1" id="Capa_1" xmlns="http://www.w3.org/2000/svg" xmlns:xlink="http://www.w3.org/1999/xlink" x="0px" y="0px"
	 viewBox="0 0 194.9 234" style="enable-background:new 0 0 194.9 234;" xml:space="preserve">
<style type="text/css">
	.st0{fill:#25F4EE;}
	.st1{fill:#FE2C55;}
</style>
<g>
	<path class="st0" d="M70.7,195.2c17.4,0,31.6-13.9,32.2-31.1L103,10h28.1c-0.6-3.2-0.9-6.4-0.9-9.8H91.8l-0.1,154.1
		c-0.6,17.2-14.8,31.1-32.2,31.1c-5.4,0-10.5-1.4-15-3.7C50.4,189.9,59.9,195.2,70.7,195.2z"/>
	<path class="st1" d="M59.5,120.8c-17.8,0-32.3,14.5-32.3,32.3c0,12.4,7.1,23.2,17.3,28.6c-3.8-5.3-6.1-11.8-6.1-18.9
		c0-17.8,14.5-32.3,32.3-32.3c3.3,0,6.5,0.6,9.5,1.5V92.8c-3.1-0.4-6.3-0.7-9.5-0.7c-0.6,0-1.1,0.1-1.7,0.1v30.1
		C66,121.4,62.8,120.8,59.5,120.8z"/>
	<path class="st1" d="M183.7,62.3v29.9c-19.9,0-38.4-6.4-53.4-17.2v78.2c0,39-31.7,70.8-70.7,70.8c-15,0-29.1-4.8-40.5-12.8
		c12.9,13.9,31.3,22.6,51.7,22.6c39,0,70.7-31.7,70.7-70.8V84.8c15,10.8,33.5,17.2,53.4,17.2V63.5C191,63.5,187.3,63.1,183.7,62.3z"
		/>
	<path d="M130.2,153.2V75c15,10.8,33.5,17.2,53.4,17.2V62.3c-11.5-2.4-21.6-8.7-29.1-17.2c-12-7.8-20.7-20.4-23.5-35.1H103
		l-0.1,154.1c-0.6,17.2-14.8,31.1-32.2,31.1c-10.8,0-20.3-5.3-26.2-13.5c-10.3-5.5-17.3-16.2-17.3-28.6c0-17.8,14.5-32.3,32.3-32.3
		c3.3,0,6.5,0.6,9.5,1.5V92.3c-38.2,0.8-69,32.2-69,70.7c0,18.6,7.2,35.5,19,48.2c11.5,8,25.5,12.8,40.5,12.8
		C98.5,224,130.2,192.2,130.2,153.2z"/>
</g>
</svg>
