<?xml version="1.0" encoding="utf-8"?>
<!-- Generator: Adobe Illustrator 24.3.0, SVG Export Plug-In . SVG Version: 6.00 Build 0)  -->
<svg version="1.1" id="Capa_1" xmlns="http://www.w3.org/2000/svg" xmlns:xlink="http://www.w3.org/1999/xlink" x="0px" y="0px"
	 viewBox="0 0 194.9 234" style="enable-background:new 0 0 194.9 234;" xml:space="preserve">
<style type="text/css">
	.st0{fill:#25F4EE;}
	.st1{fill:#FE2C55;}
</style>
<g>
	<path class="st0" d="M74.5,184.3c14.9,0,27.2-11.9,27.7-26.7l0-132.5h24.2c-0.5-2.7-0.8-5.5-0.8-8.4h-33l0,132.5
		c-0.5,14.8-12.8,26.7-27.7,26.7c-4.6,0-9-1.2-12.9-3.2C57,179.7,65.2,184.3,74.5,184.3z"/>
	<path class="st1" d="M64.8,120.3c-15.3,0-27.8,12.5-27.8,27.8c0,10.7,6.1,20,14.9,24.6c-3.3-4.6-5.3-10.1-5.3-16.2
		c0-15.3,12.4-27.8,27.8-27.8c2.9,0,5.6,0.5,8.2,1.3V96.2c-2.7-0.4-5.4-0.6-8.2-0.6c-0.5,0-0.9,0-1.4,0v25.9
		C70.4,120.8,67.7,120.3,64.8,120.3z"/>
	<path class="st1" d="M171.6,70v25.7c-17.1,0-33-5.5-46-14.8v67.2c0,33.5-27.3,60.9-60.8,60.9c-12.9,0-25-4.1-34.8-11
		c11.1,11.9,26.9,19.4,44.5,19.4c33.5,0,60.8-27.3,60.8-60.9V89.3c12.9,9.3,28.8,14.8,46,14.8V71C177.9,71,174.7,70.7,171.6,70z"/>
	<path d="M125.6,148.1V80.9c12.9,9.3,28.8,14.8,46,14.8V70c-9.9-2.1-18.6-7.5-25-14.8c-10.4-6.7-17.8-17.5-20.2-30.1h-24.2l0,132.5
		c-0.5,14.8-12.8,26.7-27.7,26.7c-9.3,0-17.4-4.6-22.5-11.6C43.1,168,37,158.8,37,148.1c0-15.3,12.4-27.8,27.8-27.8
		c2.9,0,5.6,0.5,8.2,1.3V95.7c-32.8,0.7-59.3,27.7-59.3,60.8c0,16,6.2,30.5,16.3,41.4c9.9,6.9,21.9,11,34.8,11
		C98.3,209,125.6,181.6,125.6,148.1z"/>
</g>
</svg>
