<?xml version="1.0" encoding="utf-8"?>
<!-- Generator: Adobe Illustrator 24.0.1, SVG Export Plug-In . SVG Version: 6.00 Build 0)  -->
<svg version="1.1" id="Layer_1" xmlns="http://www.w3.org/2000/svg" xmlns:xlink="http://www.w3.org/1999/xlink" x="0px" y="0px"
	 viewBox="0 0 203.5 234" style="enable-background:new 0 0 203.5 234;" xml:space="preserve">
<style type="text/css">
	.st0{fill-rule:evenodd;clip-rule:evenodd;fill:#FF5800;}
</style>
<g>
	<g>
		<g>
			<g>
				<path class="st0" d="M95.3,29.2v-2h1.9v-3.1h-1.9v-2h-3v2h-1.9v3.1h1.9v2H95.3z M90.8,26.8v-2.1h1.9v-2h2.1v2h1.9v2.1h-1.9v2
					h-2.1v-2H90.8z"/>
			</g>
		</g>
		<g>
			<g>
				<path class="st0" d="M72.2,22.2v2h-1.9v3.1h1.9v2h3v-2h1.9v-3.1h-1.9v-2H72.2z M76.7,24.6v2.1h-2v2h-2.1v-2h-1.9v-2.1h1.9v-2
					h2.1v2H76.7z"/>
			</g>
		</g>
		<g>
			<g>
				<path class="st0" d="M92.2,9.5h3v-2h1.9V4.4h-1.9v-2h-3v2h-1.9v3.1h1.9V9.5z M90.8,7.1V4.9h1.9v-2h2.1v2h1.9v2.2h-1.9v2h-2.1v-2
					C92.7,7.1,90.8,7.1,90.8,7.1z"/>
			</g>
		</g>
		<g>
			<g>
				<path class="st0" d="M72.2,9.5h3v-2h1.9V4.4h-1.9v-2h-3v2h-1.9v3.1h1.9V9.5z M70.7,7.1V4.9h1.9v-2h2.1v2h2v2.2h-2v2h-2.1v-2
					C72.6,7.1,70.7,7.1,70.7,7.1z"/>
			</g>
		</g>
		<g>
			<g>
				<path class="st0" d="M88.5,30.6v-4.2h-1.8v-6.7H93v1.6h6.3V11H93v1.5h-6.3V6.1h1.8V0h-9.8v6.1h1.8v6.4h-6.3V11h-6.3v10.2h6.3
					v-1.6h6.3v6.7h-1.8v4.2C2.3,31.3,0,49.7,0,49.7v20.1c0,6.7,2.3,6.6,4.8,7.9c1.3,0.7,21.5,7.2,21.5,7.2v0.9L17.6,90
					c-5.2,3-4.9,7-4.9,7v20.5c0,3.1,0.4,3.5,2.6,5.2c2.1,1.7,5.9,4.7,5.9,4.7L2,140.1l13.2,4.4v14.6l12.1-8v56.3
					c0,3,0.5,9.6,4.7,14.3c3,3.4,7.4,5.1,12.9,5.1h23.2c7.2,0,15.5,7.2,15.5,7.2s7.8-7.2,15.4-7.2h23.2c5.5,0,9.9-1.7,12.9-5.1
					c4.2-4.7,4.7-11.3,4.7-14.3v-56.3l12,8v-14.6l13.3-4.4l-19.2-12.7c0,0,3.8-3.1,5.9-4.7c2.2-1.7,2.6-2.1,2.6-5.2V97
					c0,0,0.3-4.1-4.9-6.9l-8.7-4.2V85c0,0,20.2-6.5,21.5-7.2c2.5-1.3,4.8-1.2,4.8-7.9V49.8C167.1,49.8,164.8,31.3,88.5,30.6z
					 M80,27.4h1.7v-9h-9.1v1.2h-3.4v-6.9h3.6v1.4h8.9V5H80V1.6h7.1V5h-1.7v9.2h8.9v-1.4h3.6v6.9h-3.4v-1.2h-9.1v9h1.7v3.2
					c-1.2,0-2.4,0-3.6,0l0,0c-1.2,0-2.4,0-3.5,0V27.4z M27.3,106.5l-9.9,5.2c0,0,2-2.7,2.3-2.9c0.4-0.2-2.7,0.2-3.1,0.2
					c-0.4,0,2.7-2.9,3-3.1s-2.8-0.3-3.1-0.2c-0.3,0.1,3-3,3.1-3.3c0.2-0.3-3.1,0-3.1,0l3.1-3.1l-3.1-0.1l3.2-2.9l-3.3-0.2l3.1-3
					l-2-0.3l28.4-14.3c0,0-1.5,2.5-2,3.2c0,0,2.7-0.6,3-0.8c0.4-0.2-2.9,3.2-3.1,3.5c-0.2,0.4,3.1-0.3,3.1-0.3s-3,3-3.1,3.3
					s2.9-0.1,3.1-0.3c0.3-0.2-3,3-3.3,3.4c-0.3,0.5,3.7,0,3.7,0s-3.4,3.6-3.7,3.7c-0.3,0.1,3,0.1,3,0.1l-3,2.6l1.4,0.4l-0.9,0.4
					H27.3V106.5z M137.7,207.3c0,2.6-0.4,8.8-4.2,12.9c-2.6,2.9-6.4,4.4-11.3,4.4H99c-5.5,0-12.7,3.5-15.4,6.8
					c-2.7-3.3-9.9-6.8-15.5-6.8H44.9c-4.9,0-8.7-1.5-11.3-4.4c-3.7-4.2-4.2-10.3-4.2-12.9c0-0.8,0-107.4,0-107.4h17.1
					c0.6,2.2,2.7,7.1,10.8,10c0,0,4,0.6,6.2,0.8c2.8,0.3,4.8,1.7,6.4,3.1c1.4,1.2,4.1,3.8,4.6,4.2c0.2,0.2,0.5,0.4,0.9,0.7h-28
					c0,75,0,73.8,0,76.2c0,1.9,0.7,6.1,3.6,9.1c2,2.1,5.7,3.9,8.4,3.9h14.7c4.6,0,9.5,5.2,9.5,5.2s4.8-5.2,10.1-5.2h13.9
					c4.1,0,7.4-2.2,9.4-4.4c2.7-3,3.2-7.1,3.2-9.5c0-0.5,0-75.4,0-75.4H91.6c0.4-0.3,0.7-0.5,0.9-0.7c0.5-0.4,3.2-3,4.6-4.2
					c1.6-1.4,3.6-2.9,6.4-3.1c2.2-0.2,6.2-0.8,6.2-0.8c8.1-2.9,10.3-7.8,10.8-10h17.1C137.7,99.9,137.7,206.5,137.7,207.3z
					 M78.2,91.2l-4.4,14.9L82,92.3l1.6,19h0.1l1.6-19l8.1,13.8L89,91.2l14.4,9l-8.1-8.9l22.6,9c-1.7,3.2-4.1,5-7.1,6.6
					c-2.6,1.4-9.5,2.1-9.5,2.1s-3.8,0.4-7.6,4.6c-2.6,3-6.3,5.2-10,5.1c-3.7,0-7.5-2.2-10.1-5.1c-3.7-4.2-7.6-4.6-7.6-4.6
					s-6.9-0.7-9.4-2.1c-3-1.6-5.4-3.4-7.1-6.6l22.6-9l-8.1,8.9L78.2,91.2z M74.1,80.6c-0.2-0.3,0.2-0.6,0.2-0.6
					c2.3,2.1,8.5,3.1,8.5,3.1v1.6c0,0-1.1,0.2-2.8-0.3L79.1,86c0,0,0.7,1.1,4.5,1.2l0,0l0,0c3.8,0,4.5-1.2,4.5-1.2l-0.9-1.6
					c-1.7,0.5-2.8,0.3-2.8,0.3v-1.6c0,0,6.2-1,8.5-3.1c0,0,0.4,0.2,0.2,0.6c-0.2,0.3-3.2,3.6-3.2,4s0,2.9,0,3.3s-2.4,2.8-6.3,2.8
					s-6.3-2.4-6.3-2.8s0-2.9,0-3.3C77.2,84.2,74.4,81.1,74.1,80.6z M83.5,67.1L83.5,67.1C83.5,67.1,83.6,67.1,83.5,67.1
					c8.2,0,11.3,3.5,11.3,3.5v5.1C91.1,79.5,83.7,79,83.5,79c-0.2,0-7.6,0.5-11.3-3.3v-5.1C72.2,70.5,75.4,67.1,83.5,67.1z
					 M73.5,66.8c0,0,1.6-6,9-6.7v3.1C82.5,63.2,78.5,62.9,73.5,66.8z M84.6,63.2v-3.1c7.4,0.7,9,6.7,9,6.7
					C88.6,62.9,84.6,63.2,84.6,63.2z M117.5,121.4c0,0,0,70.3,0,70.8c0,3.1,0,7.2-2.5,10c-1.8,2.1-4.3,3-9,3H93.9
					c-6.2,0-10.3,4.8-10.3,4.8s-3.8-4.8-10.3-4.8H60.6c-3.3,0-6.2-0.9-8-2.9c-2.5-2.8-2.6-6.6-2.6-8.4c0-0.5,0-72.6,0-72.6
					L117.5,121.4L117.5,121.4z M149.6,92.8l-2,0.3l3.1,3l-3.3,0.2l3.2,2.9l-3.1,0.1l3,3.1c0,0-3.3-0.3-3.1,0s3.5,3.3,3.1,3.3
					c-0.4-0.1-3.4,0-3.1,0.2c0.3,0.2,3.4,3.1,3,3.1s-3.5-0.4-3.1-0.2c0.4,0.2,2.3,2.9,2.3,2.9l-9.9-5.2v-8.8H123l-0.9-0.4l1.4-0.4
					l-3-2.6c0,0,3.2,0,3-0.1c-0.3-0.1-3.7-3.7-3.7-3.7s3.9,0.5,3.7,0c-0.3-0.4-3.6-3.6-3.3-3.4s3.2,0.5,3.1,0.3
					c-0.1-0.3-3.1-3.3-3.1-3.3s3.3,0.7,3.1,0.3c-0.2-0.3-3.5-3.7-3.1-3.5s3,0.8,3,0.8c-0.5-0.7-2-3.2-2-3.2L149.6,92.8z M121.5,67.8
					c-1.5,0.6-5.3,1.7-5.3,6.9v17.7c0,0,0.1,3,1.8,5.4h-0.1L92.1,87.7c0,0-0.7-1.9,0.3-2.7c0,0,3.1-2.6,4.4-7c0,0,2.8-0.8,2.8-3.9
					c0-3-2.3-3.8-2.3-3.8s-2.5-12.7-13.7-12.8l0,0l0,0c-11.2,0.1-13.7,12.8-13.7,12.8S67.5,71,67.5,74s2.8,3.9,2.8,3.9
					c1.2,4.4,4.4,7,4.4,7c1.1,0.8,0.3,2.7,0.3,2.7L49.2,97.7h-0.1c1.7-2.5,1.8-5.4,1.8-5.4V74.6c0-5.2-3.8-6.3-5.3-6.9
					C43.7,67.1,22.8,60,22.8,60c27.4-6.5,59.7-5.9,60.7-5.9l0,0c1,0,33.3-0.6,60.6,5.9C144.2,60,123.4,67.1,121.5,67.8z M162.8,50.4
					c-0.5-0.1-2,0.6-1.5,0.9c0.5,0.3,1.7,2,1.5,1.9s-1.9,0.4-1.5,0.7s2,2.2,1.6,2.1c-0.3-0.1-2.1,0.3-1.7,0.6c0.3,0.4,2,2.3,1.6,2.3
					c-0.3,0-2.6,0-1.9,0.4c0.7,0.4,2.3,3,1.9,2.9c-0.3-0.1-2.8-0.4-2,0.3s1.3,2.8,1.3,2.8c-19.6-14.9-77.7-14-78.6-14l0,0
					c-0.9,0-59.2-1-78.8,14c0,0,0.5-2.1,1.3-2.8s-1.6-0.4-2-0.3c-0.3,0.1,1.2-2.5,1.9-2.9C6.7,59,4.5,59,4.1,59
					c-0.3,0,1.3-1.9,1.7-2.3C6.2,56.4,4.4,56,4,56.1c-0.3,0.1,1.2-1.9,1.7-2.1c0.4-0.3-1.2-0.8-1.5-0.7s0.9-1.7,1.5-1.9
					c0.5-0.3-0.9-1-1.5-0.9c-0.5,0.1,0.6-1.5,1-1.7S4,47.7,3.8,47.6c0,0,11.4-14.4,79.7-14.4l0,0c68.1,0,79.6,14.4,79.6,14.4
					c-0.2,0.2-1.8,1-1.4,1.2C162.2,48.9,163.3,50.5,162.8,50.4z"/>
			</g>
		</g>
		<g>
			<polygon class="st0" points="76.1,73.2 74.8,70.1 73.5,73.2 74.8,76.3 			"/>
		</g>
		<g>
			<polygon class="st0" points="80.6,73.2 79,69.3 77.3,73.2 79,77.1 			"/>
		</g>
		<g>
			<polygon class="st0" points="93.9,73.2 92.6,70.1 91.3,73.2 92.6,76.3 			"/>
		</g>
		<g>
			<polygon class="st0" points="90.1,73.2 88.5,69.3 86.8,73.2 88.5,77.1 			"/>
		</g>
		<g>
			<polygon class="st0" points="85.4,73.2 83.6,68.7 81.7,73.2 83.6,77.7 			"/>
		</g>
		<g>
			<g>
				<path class="st0" d="M64.6,146.4c0,0,1,3.8,4.1,5.9c0,0,0.3,4.5,5.3,5.9c3.3,1,7.4-0.7,7.4-0.7v36.4c0,0-2.2,4.5-5.4,4.5
					c0,0,0.5,2.1,5.4,2.1c0,0,0.7,4,2.3,4c0,0,2.3-0.8,2.3-4c0,0,4.4-0.2,5.3-2c0,0-5.1-1.4-5.1-4.6v-17.6l0,0l-0.1-3.2l0.1,0.1
					v-3.8l0,0v-3.2l0,0v-8.7c0,0,2.5,1.4,3.1,1.3c0.6-0.1,7.5,0.2,8.8-6.4c0,0,4.5-2.9,4.5-7.5c0-3.1-2.9-5.5-2.9-5.5
					s1.4-5.2-1.7-8.4c-3.1-3.2-6.6-2.5-6.6-2.5s-2.4-4.6-8-4.6s-7.4,4.5-7.4,4.5s-5.8-0.2-8.1,4.2c-2.3,4.5-0.8,6.6-0.8,6.6
					S64.2,141.7,64.6,146.4z M69.7,148.9c0,0,1.7,0.6,3,0.6s3-0.6,3-0.6s-0.5,1.7-2.9,1.7C70.3,150.6,69.7,148.9,69.7,148.9z
					 M76.1,155.9c-2.4,0-3.1-1.7-3.1-1.7s1.7,0.6,3,0.6s3-0.6,3-0.6S78.5,155.9,76.1,155.9z M92.1,155.9c-2.4,0-3.1-1.7-3.1-1.7
					s1.7,0.6,3,0.6c1.3,0,3-0.6,3-0.6S94.5,155.9,92.1,155.9z M94.9,150.6c-2.4,0-3.1-1.7-3.1-1.7s1.7,0.6,3,0.6s3-0.6,3-0.6
					S97.3,150.6,94.9,150.6z M94.8,139.8c1.3,0,3-0.6,3-0.6s-0.5,1.7-2.9,1.7s-3.1-1.7-3.1-1.7S93.5,139.8,94.8,139.8z M89.7,143.6
					c1.3,0,3-0.5,3-0.5s-0.5,1.7-2.9,1.7s-3.1-1.7-3.1-1.7S88.3,143.6,89.7,143.6z M83.5,139.8c1.3,0,3-0.6,3-0.6s-0.5,1.7-2.9,1.7
					s-3.1-1.7-3.1-1.7S82.2,139.8,83.5,139.8z M77.7,143.6c1.3,0,3-0.5,3-0.5s-0.5,1.7-2.9,1.7s-3.1-1.7-3.1-1.7
					S76.4,143.6,77.7,143.6z M72.2,139.8c1.3,0,3-0.6,3-0.6s-0.5,1.7-2.9,1.7s-3.1-1.7-3.1-1.7S70.8,139.8,72.2,139.8z"/>
			</g>
		</g>
		<g>
			<g>
				<path class="st0" d="M54.1,176.1l1.8-4.4l-0.6-2.6l1.5-0.7l1.6,1.5L55,183.3l0.5,3.7l-0.2,2l1,1.2l0.4,1.6l-1.1,1.2v5.1h5.6
					l-3-2.4v-2.1l3-1.5l0.9-7.2L71,183l2.9-5.8l2.3-1.8l2.2-0.9l0.5-3l2.5-2.4v-3.2c0,0-4.8,5.2-6.5,6.4s-3.1-0.1-3.1-0.1
					s-0.1-1.4,0-1.7s2-0.6,2-0.6l0.4-1.3l-0.3-1c0,0-0.6-0.4-1.1-0.3c-0.2,1.3-1.4,0.7-1.4-0.4c0-1.1,1.6-0.9,1.8-1
					c0.3-0.1-0.2-1.9-0.2-1.9l-1.1-0.9l-2.1,0.3c-2-1.2-6.6,1.5-6.6,1.5s0.3,1.4-0.3,2.2c-0.5,0.8-0.8,4-0.9,4.4s1.1,3.3,1.1,3.3
					c0.1,0.4,0.1,2.7,0.1,2.7c-3.5,1.1-4.9,3.6-5.1,3.9c-0.3,0.3-0.5,0.3-0.5,0.3l3-12.4l-3.6-4.2l-4.9,3.6l0.1,3.6L54.1,176.1z
					 M69,164.8l1.7,0.3l-1.8,0.8L69,164.8z M68.1,169.6v3.4l-1.2-1.7L68.1,169.6z M66.1,166v3.4l-1.2-1.7L66.1,166z M66.1,173.2v3.4
					l-1.2-1.7L66.1,173.2z M64.6,169.6v3.4l-1.2-1.7L64.6,169.6z"/>
			</g>
		</g>
		<g>
			<polygon class="st0" points="64.9,193.9 68,192.6 67.7,188.8 63.6,186.3 62.2,198.4 68.1,198.4 64.9,196 			"/>
		</g>
		<g>
			<polygon class="st0" points="78.5,179.3 81.3,176.2 81.4,173 78.3,176.4 75.9,177.4 73.7,181.6 76,181 			"/>
		</g>
		<g>
			<g>
				<path class="st0" d="M88.8,171.7l0.5,3l2.2,0.9l2.3,1.8l2.9,5.8l9,1.9l0.9,7.2l3,1.5v2.1l-3,2.4h5.6v-5.1l-1.1-1.2l0.4-1.6
					l0.9-1.2l-0.2-2l0.5-3.7l-3.4-13.4l1.6-1.5l1.5,0.7l-0.6,2.6l1.8,4.4l1.7-3.5l0.1-3.6l-4.9-3.6l-3.5,4.2l3,12.4
					c0,0-0.3,0-0.5-0.3c-0.3-0.3-1.6-2.8-5.1-3.9c0,0,0-2.3,0.1-2.7c0,0,1.2-2.8,1.1-3.3c-0.1-0.4-0.3-3.6-0.9-4.4
					c-0.5-0.8-0.3-2.2-0.3-2.2s-4.6-2.7-6.6-1.5l-2.1-0.3l-1.1,0.9c0,0-0.4,1.8-0.2,1.9c0.3,0.1,1.8-0.2,1.8,1
					c0,1.1-1.1,1.7-1.4,0.4c-0.5-0.2-1.1,0.3-1.1,0.3l-0.3,1l0.4,1.3c0,0,1.9,0.4,2,0.6c0.1,0.3,0,1.7,0,1.7s-1.3,1.2-3,0.1
					c-1.7-1.1-6.3-6.1-6.5-6.3v3.2L88.8,171.7z M102.9,169.6l1.2,1.7l-1.2,1.7V169.6z M101.4,166l1.2,1.7l-1.2,1.7V166z
					 M101.4,173.2l1.2,1.7l-1.2,1.7V173.2z M99.4,169.6l1.2,1.7l-1.2,1.7V169.6z M98.6,164.8l0.1,1.1l-1.8-0.8L98.6,164.8z"/>
			</g>
		</g>
		<g>
			<polygon class="st0" points="86.2,169.3 86.3,169.3 86.3,166.2 86.2,166.1 			"/>
		</g>
		<g>
			<polygon class="st0" points="99.9,188.8 99.5,192.6 102.7,193.9 102.7,196 99.4,198.4 105.4,198.4 104,186.3 			"/>
		</g>
		<g>
			<polygon class="st0" points="89,179.3 91.5,181 93.8,181.6 91.6,177.4 89.3,176.4 86.3,173.2 86.3,176.3 			"/>
		</g>
		<g>
			<polygon class="st0" points="86.2,176.2 86.3,176.3 86.3,173.2 86.2,173 			"/>
		</g>
		<g>
			<g>
				<path class="st0" d="M125.6,181.2h-0.3v2h0.3c0-0.4,0.1-0.8,0.5-0.8c0.2,0,0.6,0.2,1.4,0.4v2.2c-0.3,0.1-1.1,0.5-1.4,0.5
					c-0.3,0-0.4-0.2-0.4-0.8h-0.3v3.2h0.3c0-0.5,0.3-0.6,1.5-1.1l5.5-2.2v-0.3l-5.7-2.2C126.1,181.9,125.7,181.7,125.6,181.2z
					 M127.8,183l2.5,0.9l-2.5,1V183z"/>
			</g>
		</g>
		<g>
			<path class="st0" d="M125.7,176.3c0.6,0,0.8-0.5,0.8-0.7c0-0.3-0.2-0.7-0.8-0.7c-0.2,0-1.3,0.2-1.3,1.7c0,1,0.4,2.2,2.3,2.2h4.5
				c0.9,0,0.9,0.3,0.9,0.9h0.3v-3.5h-0.3c0,0.6,0,1-0.7,1h-5.8c-0.3,0-0.9,0-0.9-0.6c0-0.3,0.1-0.4,0.3-0.4
				C125.3,176.1,125.3,176.3,125.7,176.3z"/>
		</g>
		<g>
			<g>
				<path class="st0" d="M125.6,166.2h-0.3v2h0.3c0-0.3,0.1-0.8,0.5-0.8c0.2,0,0.6,0.2,1.4,0.4v2.3c-0.3,0.1-1.1,0.4-1.4,0.4
					c-0.3,0-0.4-0.2-0.4-0.8h-0.3v3.2h0.3c0-0.5,0.3-0.6,1.5-1.1l5.5-2.2v-0.3l-5.7-2.2C126.1,166.9,125.7,166.7,125.6,166.2z
					 M127.8,168l2.5,0.9l-2.5,1V168z"/>
			</g>
		</g>
		<g>
			<g>
				<path class="st0" d="M127.3,164.3c1.2,0,1.7-1,1.8-1.9l0,0c0.2,0.4,0.4,1.6,1.6,1.6c1.6,0,1.7-2,1.7-2.6v-3.1h-0.3
					c0,0.5-0.1,0.9-0.7,0.9h-5c-0.6,0-0.7-0.3-0.8-0.9h-0.3v3.2C125.4,163.6,126.4,164.3,127.3,164.3z M131.6,160.8
					c0.2,0,0.5,0,0.5,0.5c0,0.8-0.6,1-1.3,1c-1.1,0-1.5-0.2-1.5-1.6h2.3V160.8z M126.4,160.8h2.6v0.3c0,0.6-0.2,1.5-1.7,1.5
					c-0.6,0-1.6-0.1-1.6-1.2C125.7,161,125.9,160.8,126.4,160.8z"/>
			</g>
		</g>
		<g>
			<g>
				<path class="st0" d="M125.6,149.5h-0.3v2h0.3c0-0.4,0.1-0.8,0.5-0.8c0.2,0,0.6,0.2,1.4,0.4v2.2c-0.3,0.1-1.1,0.5-1.4,0.5
					c-0.3,0-0.4-0.2-0.4-0.8h-0.3v3.2h0.3c0-0.5,0.3-0.6,1.5-1.1l5.5-2.2v-0.3l-5.7-2.2C126.1,150.1,125.7,150,125.6,149.5z
					 M127.8,151.3l2.5,0.9l-2.5,1V151.3z"/>
			</g>
		</g>
		<g>
			<g>
				<path class="st0" d="M125.4,145.7v2.1h0.3c0-0.1,0-0.3,0.2-0.4l3-2c0.2,0.6,0.5,1.6,1.8,1.6c1.8,0,1.8-2.1,1.8-2.8V141h-0.3
					c0,0.6-0.1,0.9-0.9,0.9h-4.6c-0.9,0-0.9-0.2-1-0.9h-0.3v3.4h0.3c0.1-0.7,0.1-0.9,1-0.9h2v0.3L125.4,145.7z M131.6,143.3
					c0.3,0.1,0.4,0.1,0.4,0.6c0,0.8-0.5,1.2-1.5,1.2c-1.3,0-1.6-0.5-1.6-1.8H131.6z"/>
			</g>
		</g>
		<g>
			<path class="st0" d="M125.6,133.9h-0.3v3.6h0.3c0.1-0.8,0.1-1,1-1h5.5c-0.1,0.7-0.1,1.7-1.8,1.9v0.3h2.1v-6h-2.1v0.3
				c1.7,0.2,1.7,1.2,1.8,1.9h-5.5C125.7,134.8,125.7,134.6,125.6,133.9z"/>
		</g>
		<g>
			<path class="st0" d="M35.1,138.1l3.5-1.8h1.5c0.9,0,0.9,0.2,1,0.9h0.3v-3.5h-0.3c-0.1,0.7-0.1,0.9-1,0.9h-1.9l-3.2-1.9
				c-0.3-0.2-0.4-0.5-0.4-0.7h-0.3v2.2h0.2c0-0.5,0.1-0.8,0.5-0.8c0.3,0,0.8,0.3,1,0.4l1.9,1.1l-2.4,1.2c-0.2,0.1-0.4,0.3-0.6,0.3
				c-0.3,0-0.4-0.1-0.4-0.8h-0.3v3.3h0.3C34.6,138.4,35,138.1,35.1,138.1z"/>
		</g>
		<g>
			<g>
				<path class="st0" d="M41.1,151.1h0.3v-2h-0.3c0,0.3-0.1,0.8-0.4,0.8c-0.2,0-0.6-0.2-1.3-0.4v-2.2c0.3-0.1,1.1-0.4,1.4-0.4
					s0.4,0.2,0.4,0.8h0.3v-3.2h-0.3c0,0.5-0.3,0.6-1.5,1.1l-5.5,2.2v0.3l5.7,2.2C40.6,150.4,41,150.5,41.1,151.1z M38.9,149.3
					l-2.5-0.9l2.5-1V149.3z"/>
			</g>
		</g>
		<g>
			<path class="st0" d="M36.2,157.9c0.5,0,1.4,0,2.2-1.7l0.3-0.7c0.3-0.7,0.6-1.1,1.3-1.1c0.1,0,1.2,0,1.2,1.2
				c0,1.3-1.2,1.8-2.2,2.1v0.3h2.5v-0.3c-0.2-0.1-0.4-0.1-0.4-0.3c0-0.3,0.4-0.7,0.4-1.7c0-1.8-1.2-2.5-2.2-2.5
				c-1.1,0-1.7,0.8-1.9,1.1l-0.8,1.5c-0.4,0.8-0.7,1-1.2,1c-0.7,0-1-0.5-1-1.1c0-1.2,1.2-1.8,1.9-2v-0.3h-2.2v0.3
				c0.2,0,0.4,0.1,0.4,0.3c0,0.3-0.4,0.8-0.4,1.6C34.1,157.5,35.5,157.9,36.2,157.9z"/>
		</g>
		<g>
			<path class="st0" d="M41.5,161.2v-0.3h-6.1c-0.5,0-0.7-0.1-0.8-0.8h-0.3v2.1h0.2c0.1-0.8,0.4-0.9,1-0.9h3.1l0,0l-4.4,3.5v2.1h0.3
				c0-0.1,0-0.3,0.8-0.8h4.9c0.7,0,0.8,0.3,0.8,0.9h0.3v-2.3H41c-0.1,0.8-0.3,0.9-1,0.9h-4.2l0,0L41.5,161.2z"/>
		</g>
		<g>
			<path class="st0" d="M41.3,169.4l-2.2-0.4v0.3c1.6,0.6,1.8,1.6,1.8,2.6c0,0.7-0.1,0.8-0.6,0.8h-2.5c0-1,0.3-1.5,1.6-1.6v-0.3
				h-3.5v0.3c1.3,0.1,1.6,0.7,1.5,1.6H35c-0.4,0-0.5-0.2-0.5-0.7c0-1.4,0.3-2.1,1.7-2.3v-0.2h-2.1v5.7h0.4c0-0.5,0.1-0.9,0.7-0.9h5
				c0.6,0,0.7,0.3,0.7,0.9h0.3v-5.8H41.3z"/>
		</g>
		<g>
			<path class="st0" d="M40.3,178.1h-5c-0.7,0-0.7-0.5-0.7-0.9h-0.3v3.5h0.2c0-0.5,0.1-0.9,0.7-0.9h5c0.6,0,0.7,0.4,0.7,0.9h0.3
				v-3.5h-0.3C41,177.7,41,178.1,40.3,178.1z"/>
		</g>
		<g>
			<g>
				<path class="st0" d="M40.9,187.8c0.1,0.1,0.1,0.1,0.2,0.6h0.3v-3.3h-0.3c-0.1,0.7-0.1,0.9-1,0.9h-1.9c0-1.3,0-1.8-0.4-2.5
					c-0.5-0.8-1.2-0.9-1.6-0.9c-1.7,0-1.9,1.8-1.9,2.6v3.2h0.2c0.1-0.5,0.1-0.9,0.9-0.9H40C40.7,187.5,40.8,187.7,40.9,187.8z
					 M35,185.9c-0.2,0-0.4-0.1-0.4-0.5c0-0.8,0.4-1.2,1.6-1.2c1.3,0,1.6,0.4,1.6,1.7H35z"/>
			</g>
		</g>
		<g>
			<polygon class="st0" points="121,211.7 118.3,214.5 121.3,217.6 124,214.8 126.7,217.6 129.8,214.5 127.1,211.7 129.8,209 
				126.7,205.9 124,208.6 121.3,205.9 118.3,209 			"/>
		</g>
		<g>
			<polygon class="st0" points="44.7,205.9 42,208.6 39.3,205.9 36.2,209 38.9,211.7 36.2,214.5 39.3,217.6 42,214.8 44.7,217.6 
				47.7,214.5 45,211.7 47.7,209 			"/>
		</g>
		<g>
			<polygon class="st0" points="124.6,116.7 127.3,113.9 130,116.7 133,113.6 130.3,110.8 133,108.1 130,105 127.3,107.8 124.6,105 
				121.5,108.1 124.2,110.8 121.5,113.6 			"/>
		</g>
		<g>
			<polygon class="st0" points="37.4,116.7 40.1,113.9 42.8,116.7 45.8,113.6 43.1,110.8 45.8,108.1 42.8,105 40.1,107.8 37.4,105 
				34.4,108.1 37.1,110.8 34.4,113.6 			"/>
		</g>
		<g>
			<g>
				<path class="st0" d="M159.4,55.1l0.1-8.5l-0.2-0.1l-4.4,7.6c-0.6,1-0.9,1.5-1.4,1.5l-0.1,0.4l1.9,0.6l0.1-0.4
					c-0.3-0.1-0.7-0.3-0.6-0.9c0.1-0.2,0.4-0.8,1-1.8l2.1,0.6c0,0.5,0,1.7-0.1,2.1c-0.1,0.5-0.3,0.5-0.9,0.4l-0.1,0.4l3,0.9l0.1-0.4
					C159.4,57.4,159.4,56.9,159.4,55.1z M157.9,53.5l-1.8-0.5l1.9-3.4L157.9,53.5z"/>
			</g>
		</g>
		<g>
			<g>
				<path class="st0" d="M152,50.1c0.6-0.1,1.7-0.3,2.2-2.2c0.7-2.6-1.3-3.3-2-3.5l-3.1-0.9l-0.1,0.4c0.5,0.2,0.8,0.3,0.5,1.7
					l-1.7,6.9c-0.3,1.3-0.5,1.3-1.2,1.2l-0.1,0.3l3.2,0.9l0.1-0.4c-0.6-0.3-0.8-0.4-0.5-1.7l0.8-3.1l0.3,0.1l0.7,5.5l1.9,0.5
					l0.1-0.4c-0.1,0-0.3-0.1-0.3-0.4L152,50.1z M150.2,49.3l1-4c0.2-0.5,0.2-0.6,0.8-0.5c0.8,0.2,1,1,0.6,2.6
					C152,49.5,151.5,49.7,150.2,49.3z"/>
			</g>
		</g>
		<g>
			<g>
				<path class="st0" d="M145.8,51.3l-0.3-8.7l-0.3-0.1l-4,8c-0.6,1.1-0.8,1.6-1.4,1.6l-0.1,0.4l2,0.5l0.1-0.4
					c-0.3-0.1-0.8-0.3-0.6-0.9c0.1-0.2,0.4-0.9,0.9-1.9l2.2,0.5c0,0.6,0.1,1.8,0,2.2c-0.1,0.5-0.3,0.5-0.9,0.4l-0.1,0.4l3.1,0.8
					l0.1-0.4C145.9,53.7,145.9,53.1,145.8,51.3z M142.4,49.3l1.8-3.6l0.1,4L142.4,49.3z"/>
			</g>
		</g>
		<g>
			<path class="st0" d="M141,43.3c0.1-1.3,0.4-1.3,1.1-1.3v-0.4l-3.7-0.3v0.4c0.6,0.1,1,0.1,1,1.1l-0.7,8.1c0,0.4-0.1,1.3-0.8,1.2
				c-0.3,0-0.4-0.2-0.4-0.5c0-0.4,0.3-0.4,0.4-0.9c0.1-0.8-0.4-1.1-0.6-1.1c-0.3,0-0.8,0.3-0.8,1.1c0,0.2,0,1.9,1.6,2
				c1.1,0.1,2.3-0.4,2.6-3L141,43.3z"/>
		</g>
		<g>
			<g>
				<path class="st0" d="M135.3,49l-0.8-8.7l-0.3-0.1l-3.5,8.3c-0.5,1.1-0.7,1.6-1.2,1.7l-0.1,0.4l2,0.3l0.1-0.4
					c-0.3-0.1-0.8-0.2-0.7-0.8c0-0.3,0.3-0.9,0.8-2l2.2,0.4c0.1,0.5,0.2,1.8,0.1,2.2c-0.1,0.5-0.3,0.5-0.9,0.5l-0.1,0.4l3.1,0.6
					l0.1-0.4C135.5,51.3,135.4,50.8,135.3,49z M131.7,47.2l1.5-3.7l0.4,4L131.7,47.2z"/>
			</g>
		</g>
		<g>
			<path class="st0" d="M129.6,46.9c-0.7,1.8-1.4,3-2.8,2.8c-0.7-0.1-0.9-0.2-0.8-1l0.9-7.7c0.2-1.4,0.5-1.4,1.2-1.4l0.1-0.4
				l-3.4-0.5v0.4c0.4,0.1,0.8,0.2,0.7,1.3l-0.9,7.9c-0.1,1-0.4,1-1,1l-0.1,0.4l5.6,0.8l0.8-3.6H129.6z"/>
		</g>
		<g>
			<g>
				<path class="st0" d="M122.4,47.1l-1-8.8h-0.3l-3.4,8.5c-0.5,1.2-0.7,1.7-1.2,1.7l-0.1,0.4l2,0.3l0.1-0.4
					c-0.3-0.1-0.8-0.2-0.7-0.8c0-0.3,0.3-0.9,0.7-2l2.2,0.4c0.1,0.5,0.2,1.8,0.2,2.2c-0.1,0.5-0.3,0.5-0.9,0.5l-0.1,0.4l3.2,0.5
					v-0.4C122.7,49.5,122.6,48.9,122.4,47.1z M119,45.4l1.5-3.7l0.5,4.1L119,45.4z"/>
			</g>
		</g>
		<g>
			<g>
				<path class="st0" d="M117.6,43.3c0.2-2.5-0.4-5.4-3.2-5.7l-3-0.3l-0.1,0.4c0.4,0.1,0.8,0.2,0.7,1.1l-0.7,8
					c-0.1,0.6-0.3,1.1-0.9,1v0.4l3.1,0.3C116.1,48.7,117.4,46.3,117.6,43.3z M115.9,43.3c-0.3,3.8-1.3,4.8-2.4,4.7
					c-0.5,0-0.5-0.3-0.5-1l0.7-8.1c0-0.4,0-0.8,0.7-0.7C116.1,38.4,116,41.8,115.9,43.3z"/>
			</g>
		</g>
		<g>
			<g>
				<path class="st0" d="M109,45.5l-1.5-8.6h-0.3l-2.8,8.5c-0.4,1.2-0.6,1.7-1.1,1.8v0.4l2,0.2v-0.4c-0.3-0.1-0.8-0.2-0.8-0.8
					c0-0.3,0.2-0.9,0.6-2l2.2,0.2c0.1,0.5,0.3,1.7,0.3,2.2s-0.2,0.5-0.8,0.6V48l3.2,0.3v-0.4C109.5,47.8,109.3,47.2,109,45.5z
					 M105.3,44l1.2-3.8l0.7,4L105.3,44z"/>
			</g>
		</g>
		<g>
			<path class="st0" d="M103.8,38.4c0-1.1,0.3-1.2,0.8-1.3v-0.4l-2.2-0.1V37c0.8,0.1,0.9,0.7,0.9,1.6l-0.2,4.9c0,1-0.2,3.5-1.9,3.4
				c-1.4-0.1-1.3-2.3-1.3-3.2l0.2-5.3c0.1-1.4,0.4-1.4,1-1.4v-0.4l-3.3-0.1v0.4c0.5,0.1,0.8,0.2,0.7,1.5l-0.2,5.3
				c-0.1,1.7,0.2,2.3,0.6,2.9c0.6,0.9,1.5,1.1,2,1.1c0.6,0,1.4-0.2,2-1.1c0.4-0.7,0.6-2.1,0.7-3.1L103.8,38.4z"/>
		</g>
		<g>
			<path class="st0" d="M94.5,43c0.7,0.1,1,0.1,0.9,1.2l-0.1,1.7c0,0.7-0.2,1.2-1.1,1.1c-1.8-0.1-1.7-4-1.7-5.2c0.1-2.7,0.6-5.1,2-5
				c1.1,0.1,1.8,2,2.1,3.3h0.2l0.2-3.7h-0.3c-0.1,0.4-0.2,0.7-0.5,0.7c-0.2,0-1-0.8-1.8-0.9c-2.1-0.1-3.6,2.4-3.7,5.5
				c-0.1,2.8,0.9,5.6,3.3,5.7c0.8,0,2.2-0.3,2.7-0.9l0.1-2c0-1.3,0.3-1.3,0.9-1.4v-0.4l-3.4-0.2L94.5,43z"/>
		</g>
		<g>
			<path class="st0" d="M86,46.8c-0.6,0-0.8-0.2-0.8-0.9V42c1,0,1.5,0.5,1.6,2.5h0.3V39h-0.3c-0.2,2-0.7,2.4-1.6,2.4v-3.8
				c0-0.7,0.2-0.8,0.7-0.8c1.3,0,2,0.4,2.2,2.8h0.2v-3.3l-5.7-0.1v0.4c0.4,0,0.9,0.1,0.8,1.2l-0.1,7.9c0,1-0.3,1.1-0.9,1.2v0.4
				l5.7,0.1l0.4-3.4h-0.3C87.9,46.4,86.9,46.8,86,46.8z"/>
		</g>
		<g>
			<g>
				<path class="st0" d="M78.8,36.4h-3v0.4c0.4,0.1,0.8,0.1,0.8,1.1l0.1,8.1c0,0.6-0.2,1.1-0.8,1.1v0.4H79c2.5-0.2,3.5-2.7,3.5-5.7
					C82.5,39.2,81.5,36.3,78.8,36.4z M78.9,46.8c-0.5,0-0.5-0.3-0.6-0.9l-0.1-8.2c0-0.4,0-0.8,0.6-0.8c1.7,0,1.9,3.4,2,4.9
					C80.8,45.8,80,46.8,78.9,46.8z"/>
			</g>
		</g>
		<g>
			<g>
				<path class="st0" d="M69.9,36.8l-3,0.1v0.4c0.4,0,0.8,0.1,0.9,1l0.3,7.9c0,0.6-0.1,1.1-0.8,1.1v0.4l3.1-0.2
					c2.5-0.2,3.4-2.8,3.3-5.8C73.6,39.4,72.6,36.7,69.9,36.8z M70.3,47.1c-0.5,0-0.6-0.3-0.6-0.9l-0.4-8.1c0-0.4-0.1-0.8,0.6-0.8
					c1.7-0.1,2,3.3,2.1,4.8C72.2,46,71.4,47.1,70.3,47.1z"/>
			</g>
		</g>
		<g>
			<g>
				<path class="st0" d="M65.9,45.3l-2.7-8.1h-0.3L61.3,46c-0.2,1.2-0.3,1.8-0.8,1.9v0.4l2-0.2v-0.4c-0.3,0-0.8,0-0.8-0.6
					c0-0.2,0.1-0.9,0.3-2.1l2.2-0.2c0.2,0.5,0.6,1.6,0.6,2.1s-0.1,0.5-0.7,0.7V48l3.2-0.2v-0.4C66.6,47.5,66.5,47,65.9,45.3z
					 M62,44.5l0.6-3.9l1.3,3.8L62,44.5z"/>
			</g>
		</g>
		<g>
			<g>
				<path class="st0" d="M56.7,37.9l-3,0.2v0.4c0.4,0,0.8,0,0.9,1l0.4,8c0,0.6-0.1,1.1-0.8,1.1V49l3.1-0.2c2.5-0.3,3.4-2.9,3.2-5.9
					C60.4,40.5,59.4,37.7,56.7,37.9z M57.2,48.3c-0.5,0-0.6-0.3-0.6-0.9l-0.4-8.1c0-0.4-0.1-0.8,0.6-0.8c1.7-0.1,2.1,3.3,2.2,4.8
					C59.1,47.1,58.3,48.2,57.2,48.3z"/>
			</g>
		</g>
		<g>
			<path class="st0" d="M53,47.5l-0.6-7.9c-0.1-1.1,0.4-1.2,0.8-1.2V38l-3.4,0.3v0.4c0.5,0,0.9,0,1,1.1l0.6,7.9
				c0.1,1-0.3,1.1-0.8,1.2v0.4L54,49v-0.4C53.5,48.6,53.1,48.6,53,47.5z"/>
		</g>
		<g>
			<path class="st0" d="M48.9,43.3l-1.6-0.9c-0.9-0.5-1.1-0.8-1.2-1.7c-0.1-1,0.3-1.5,0.8-1.6c1.1-0.2,2,1.5,2.3,2.6h0.3L49,38.4
				h-0.3c0,0.3,0,0.5-0.3,0.6c-0.3,0-0.8-0.4-1.6-0.3C45,39,44.9,41.1,45.1,42c0.1,0.7,0.3,2,2.1,3.1l0.7,0.4
				c0.7,0.4,1.2,0.7,1.3,1.7c0,0.2,0.2,1.7-1,1.9s-2-1.5-2.4-3h-0.3l0.5,3.8h0.3c0-0.3,0-0.5,0.2-0.6c0.3,0,0.8,0.4,1.7,0.3
				c1.8-0.3,2.2-2.2,2-3.6C50.1,44.3,49.3,43.5,48.9,43.3z"/>
		</g>
		<g>
			<g>
				<path class="st0" d="M45.3,49.4l-2.5-4.3c0.5-0.3,1.4-1,1.2-3c-0.3-2.7-2.4-2.5-3.1-2.4l-3.1,0.5l0.1,0.4c0.6,0,0.9,0,1,1.4
					l0.9,7.1c0.2,1.3,0,1.4-0.7,1.6l0.1,0.4l3.3-0.5v-0.4c-0.7-0.1-0.9-0.1-1-1.4l-0.4-3.2h0.3l2.6,4.7l2-0.3l-0.1-0.4
					C45.6,49.7,45.4,49.7,45.3,49.4z M40.8,45.2l-0.5-4.1c0-0.5,0-0.7,0.5-0.8c0.8-0.1,1.2,0.5,1.5,2.2C42.5,44.5,42.1,45,40.8,45.2
					z"/>
			</g>
		</g>
		<g>
			<path class="st0" d="M38.2,47.7c-0.2,2.5-1.1,3.1-2,3.3c-0.6,0.1-0.8,0-1-0.7l-0.7-3.8c0.9-0.2,1.5,0.2,2,2.1h0.3l-1-5.3h-0.2
				c0.2,2-0.2,2.5-1.1,2.6l-0.7-3.6c-0.1-0.7,0-0.8,0.6-0.9c1.3-0.3,2.1,0,2.7,2.2h0.2l-0.6-3.1l-5.6,1.1l0.1,0.4
				c0.4,0,0.9-0.1,1,0.9l1.4,7.5c0.2,1-0.1,1.1-0.6,1.3l0.1,0.4l5.6-1.1l-0.2-3.3H38.2z"/>
		</g>
		<g>
			<path class="st0" d="M28.9,42.1l0.1,0.4c0.6-0.1,0.8-0.1,1,0.5c0.1,0.3,0,0.7,0,1.1l-0.1,5.2l-2.4-4.5c-0.2-0.3-0.5-0.9-0.6-1.2
				C26.8,43,27,43,27.6,42.8l-0.1-0.4l-3.2,0.7l0.1,0.4c0.4,0,0.6,0,1,0.9l4.4,8.5l0.2-0.1l0.3-9.3c0-0.9,0.1-1.2,0.6-1.4l-0.1-0.4
				L28.9,42.1z"/>
		</g>
		<g>
			<path class="st0" d="M25.3,52.2l-1.8-7.4c-0.3-1,0.2-1.2,0.6-1.3L24,43.1L20.8,44l0.1,0.4c0.4-0.1,0.9-0.2,1.1,0.9l1.8,7.4
				c0.2,1-0.1,1.1-0.6,1.3l0.1,0.4l3.3-0.9l-0.1-0.4C25.9,53.1,25.5,53.2,25.3,52.2z"/>
		</g>
		<g>
			<path class="st0" d="M20.5,44.3L20.4,44l-2,0.5l0.1,0.4c0.8-0.1,1,0.3,1.3,1.2l1.2,4.5l0,0l-4.9-5.5l-2,0.5l0.1,0.4
				c0.1,0,0.3,0,1.1,0.9l1.8,7c0.2,1,0,1.2-0.5,1.4l0.1,0.4l2.1-0.6l-0.1-0.4c-0.7,0.1-1-0.2-1.3-1.2l-1.6-6l0,0l6.3,6.9l0.2-0.1
				L20,45.5C19.9,45,19.9,44.6,20.5,44.3z"/>
		</g>
		<g>
			<path class="st0" d="M13.3,47.7c-0.3-1-0.1-1.2,0.3-1.5l-0.1-0.4l-2,0.7l0.1,0.4c0.8-0.2,1.1,0.3,1.4,1.2l1.4,4.5
				c0.3,0.9,1,3.2-0.7,3.7c-1.3,0.4-2-1.6-2.3-2.4L9.8,49c-0.4-1.3-0.1-1.4,0.5-1.6L10.2,47l-3.1,1l0.1,0.4c0.6-0.1,0.8-0.1,1.2,1.1
				l1.6,4.9c0.5,1.6,0.9,2,1.5,2.4c0.9,0.6,1.8,0.4,2.2,0.3c0.6-0.2,1.3-0.7,1.5-1.7c0.2-0.8-0.1-2.1-0.4-3L13.3,47.7z"/>
		</g>
	</g>
</g>
</svg>
