<?xml version="1.0" encoding="utf-8"?>
<!-- Generator: Adobe Illustrator 24.0.1, SVG Export Plug-In . SVG Version: 6.00 Build 0)  -->
<svg version="1.1" id="Layer_1" xmlns="http://www.w3.org/2000/svg" xmlns:xlink="http://www.w3.org/1999/xlink" x="0px" y="0px"
	 viewBox="0 0 240 234" style="enable-background:new 0 0 240 234;" xml:space="preserve">
<style type="text/css">
	.st0{fill-rule:evenodd;clip-rule:evenodd;fill:#FF5800;}
</style>
<g>
	<g>
		<g>
			<g>
				<path class="st0" d="M131.8,29.2v-2h1.9v-3.1h-1.9v-2h-3v2h-1.9v3.1h1.9v2H131.8z M127.3,26.8v-2.1h1.9v-2h2.1v2h1.9v2.1h-1.9v2
					h-2.1v-2H127.3z"/>
			</g>
		</g>
		<g>
			<g>
				<path class="st0" d="M108.7,22.2v2h-1.9v3.1h1.9v2h3v-2h1.9v-3.1h-1.9v-2H108.7z M113.2,24.6v2.1h-2v2h-2.1v-2h-1.9v-2.1h1.9v-2
					h2.1v2H113.2z"/>
			</g>
		</g>
		<g>
			<g>
				<path class="st0" d="M128.7,9.5h3v-2h1.9V4.4h-1.9v-2h-3v2h-1.9v3.1h1.9V9.5z M127.3,7.1V4.9h1.9v-2h2.1v2h1.9v2.2h-1.9v2h-2.1
					v-2H127.3z"/>
			</g>
		</g>
		<g>
			<g>
				<path class="st0" d="M108.7,9.5h3v-2h1.9V4.4h-1.9v-2h-3v2h-1.9v3.1h1.9V9.5z M107.2,7.1V4.9h1.9v-2h2.1v2h2v2.2h-2v2h-2.1v-2
					H107.2z"/>
			</g>
		</g>
		<g>
			<g>
				<path class="st0" d="M125,30.6v-4.2h-1.8v-6.7h6.3v1.6h6.3V11h-6.3v1.5h-6.3V6.1h1.8V0h-9.8v6.1h1.8v6.4h-6.3V11h-6.3v10.2h6.3
					v-1.6h6.3v6.7h-1.8v4.2c-76.4,0.8-78.7,19.2-78.7,19.2v20.1c0,6.7,2.3,6.6,4.8,7.9c1.3,0.7,21.5,7.2,21.5,7.2v0.9l-8.7,4.2
					C48.9,93,49.2,97,49.2,97v20.5c0,3.1,0.4,3.5,2.6,5.2c2.1,1.7,5.9,4.7,5.9,4.7l-19.2,12.7l13.2,4.4v14.6l12.1-8l0,56.3
					c0,3,0.5,9.6,4.7,14.3c3,3.4,7.4,5.1,12.9,5.1h23.2c7.2,0,15.5,7.2,15.5,7.2s7.8-7.2,15.4-7.2h23.2c5.5,0,9.9-1.7,12.9-5.1
					c4.2-4.7,4.7-11.3,4.7-14.3l0-56.3l12,8v-14.6l13.3-4.4l-19.2-12.7c0,0,3.8-3.1,5.9-4.7c2.2-1.7,2.6-2.1,2.6-5.2V97
					c0,0,0.3-4.1-4.9-6.9l-8.7-4.2V85c0,0,20.2-6.5,21.5-7.2c2.5-1.3,4.8-1.2,4.8-7.9V49.8C203.6,49.8,201.3,31.3,125,30.6z
					 M116.5,27.4h1.7v-9h-9.1v1.2h-3.4v-6.9h3.6v1.4h8.9V5h-1.7V1.6h7.1V5h-1.7v9.2h8.9v-1.4h3.6v6.9H131v-1.2h-9.1v9h1.7v3.2
					c-1.2,0-2.4,0-3.6,0h0c-1.2,0-2.4,0-3.5,0V27.4z M63.8,106.5l-9.9,5.2c0,0,2-2.7,2.3-2.9c0.4-0.2-2.7,0.2-3.1,0.2
					c-0.4,0,2.7-2.9,3-3.1c0.3-0.2-2.8-0.3-3.1-0.2c-0.3,0.1,3-3,3.1-3.3c0.2-0.3-3.1,0-3.1,0l3.1-3.1l-3.1-0.1l3.2-2.9l-3.3-0.2
					l3.1-3l-2-0.3l28.4-14.3c0,0-1.5,2.5-2,3.2c0,0,2.7-0.6,3-0.8c0.4-0.2-2.9,3.2-3.1,3.5c-0.2,0.4,3.1-0.3,3.1-0.3s-3,3-3.1,3.3
					c-0.1,0.3,2.9-0.1,3.1-0.3c0.3-0.2-3,3-3.3,3.4c-0.3,0.5,3.7,0,3.7,0s-3.4,3.6-3.7,3.7c-0.3,0.1,3,0.1,3,0.1l-3,2.6l1.4,0.4
					l-0.9,0.4H63.8L63.8,106.5z M174.2,207.3c0,2.6-0.4,8.8-4.2,12.9c-2.6,2.9-6.4,4.4-11.3,4.4h-23.2c-5.5,0-12.7,3.5-15.4,6.8
					c-2.7-3.3-9.9-6.8-15.5-6.8H81.4c-4.9,0-8.7-1.5-11.3-4.4c-3.7-4.2-4.2-10.3-4.2-12.9c0-0.8,0-107.4,0-107.4h17.1
					c0.6,2.2,2.7,7.1,10.8,10c0,0,4,0.6,6.2,0.8c2.8,0.3,4.8,1.7,6.4,3.1c1.4,1.2,4.1,3.8,4.6,4.2c0.2,0.2,0.5,0.4,0.9,0.7H83.9
					c0,75,0,73.8,0,76.2c0,1.9,0.7,6.1,3.6,9.1c2,2.1,5.7,3.9,8.4,3.9h14.7c4.6,0,9.5,5.2,9.5,5.2s4.8-5.2,10.1-5.2h13.9
					c4.1,0,7.4-2.2,9.4-4.4c2.7-3,3.2-7.1,3.2-9.5c0-0.5,0-75.4,0-75.4h-28.6c0.4-0.3,0.7-0.5,0.9-0.7c0.5-0.4,3.2-3,4.6-4.2
					c1.6-1.4,3.6-2.9,6.4-3.1c2.2-0.2,6.2-0.8,6.2-0.8c8.1-2.9,10.3-7.8,10.8-10h17.1C174.2,99.9,174.2,206.5,174.2,207.3z
					 M114.7,91.2l-4.4,14.9l8.2-13.8l1.6,19h0.1l1.6-19l8.1,13.8l-4.4-14.9l14.4,9l-8.1-8.9l22.6,9c-1.7,3.2-4.1,5-7.1,6.6
					c-2.6,1.4-9.5,2.1-9.5,2.1s-3.8,0.4-7.6,4.6c-2.6,3-6.3,5.2-10,5.1c-3.7,0-7.5-2.2-10.1-5.1c-3.7-4.2-7.6-4.6-7.6-4.6
					s-6.9-0.7-9.4-2.1c-3-1.6-5.4-3.4-7.1-6.6l22.6-9l-8.1,8.9L114.7,91.2z M110.6,80.6c-0.2-0.3,0.2-0.6,0.2-0.6
					c2.3,2.1,8.5,3.1,8.5,3.1v1.6c0,0-1.1,0.2-2.8-0.3l-0.9,1.6c0,0,0.7,1.1,4.5,1.2h0c0,0,0,0,0,0c3.8,0,4.5-1.2,4.5-1.2l-0.9-1.6
					c-1.7,0.5-2.8,0.3-2.8,0.3v-1.6c0,0,6.2-1,8.5-3.1c0,0,0.4,0.2,0.2,0.6c-0.2,0.3-3.2,3.6-3.2,4c0,0.4,0,2.9,0,3.3
					c0,0.4-2.4,2.8-6.3,2.8c-3.9,0-6.3-2.4-6.3-2.8c0-0.4,0-2.9,0-3.3C113.7,84.2,110.9,81.1,110.6,80.6z M120,67.1
					C120,67.1,120,67.1,120,67.1C120,67.1,120.1,67.1,120,67.1c8.2,0,11.3,3.5,11.3,3.5v5.1c-3.7,3.8-11.1,3.3-11.3,3.3
					c-0.2,0-7.6,0.5-11.3-3.3v-5.1C108.7,70.5,111.9,67.1,120,67.1z M110,66.8c0,0,1.6-6,9-6.7v3.1C119,63.2,115,62.9,110,66.8z
					 M121.1,63.2v-3.1c7.4,0.7,9,6.7,9,6.7C125.1,62.9,121.1,63.2,121.1,63.2z M154,121.4c0,0,0,70.3,0,70.8c0,3.1,0,7.2-2.5,10
					c-1.8,2.1-4.3,3-9,3h-12.1c-6.2,0-10.3,4.8-10.3,4.8s-3.8-4.8-10.3-4.8H97.1c-3.3,0-6.2-0.9-8-2.9c-2.5-2.8-2.6-6.6-2.6-8.4
					c0-0.5,0-72.6,0-72.6H154z M186.1,92.8l-2,0.3l3.1,3l-3.3,0.2l3.2,2.9l-3.1,0.1l3,3.1c0,0-3.3-0.3-3.1,0
					c0.2,0.3,3.5,3.3,3.1,3.3c-0.4-0.1-3.4,0-3.1,0.2c0.3,0.2,3.4,3.1,3,3.1c-0.4,0-3.5-0.4-3.1-0.2c0.4,0.2,2.3,2.9,2.3,2.9
					l-9.9-5.2l0-8.8h-16.7l-0.9-0.4l1.4-0.4l-3-2.6c0,0,3.2,0,3-0.1c-0.3-0.1-3.7-3.7-3.7-3.7s3.9,0.5,3.7,0
					c-0.3-0.4-3.6-3.6-3.3-3.4c0.3,0.2,3.2,0.5,3.1,0.3c-0.1-0.3-3.1-3.3-3.1-3.3s3.3,0.7,3.1,0.3c-0.2-0.3-3.5-3.7-3.1-3.5
					c0.4,0.2,3,0.8,3,0.8c-0.5-0.7-2-3.2-2-3.2L186.1,92.8z M158,67.8c-1.5,0.6-5.3,1.7-5.3,6.9v17.7c0,0,0.1,3,1.8,5.4h-0.1
					l-25.8-10.1c0,0-0.7-1.9,0.3-2.7c0,0,3.1-2.6,4.4-7c0,0,2.8-0.8,2.8-3.9c0-3-2.3-3.8-2.3-3.8s-2.5-12.7-13.7-12.8c0,0,0,0,0,0
					c0,0,0,0,0,0c-11.2,0.1-13.7,12.8-13.7,12.8S104,71,104,74c0,3,2.8,3.9,2.8,3.9c1.2,4.4,4.4,7,4.4,7c1.1,0.8,0.3,2.7,0.3,2.7
					L85.7,97.7h-0.1c1.7-2.5,1.8-5.4,1.8-5.4V74.6c0-5.2-3.8-6.3-5.3-6.9C80.2,67.1,59.3,60,59.3,60c27.4-6.5,59.7-5.9,60.7-5.9h0
					c1,0,33.3-0.6,60.6,5.9C180.7,60,159.9,67.1,158,67.8z M199.3,50.4c-0.5-0.1-2,0.6-1.5,0.9c0.5,0.3,1.7,2,1.5,1.9
					c-0.2-0.1-1.9,0.4-1.5,0.7c0.4,0.3,2,2.2,1.6,2.1c-0.3-0.1-2.1,0.3-1.7,0.6c0.3,0.4,2,2.3,1.6,2.3c-0.3,0-2.6,0-1.9,0.4
					c0.7,0.4,2.3,3,1.9,2.9c-0.3-0.1-2.8-0.4-2,0.3c0.8,0.7,1.3,2.8,1.3,2.8c-19.6-14.9-77.7-14-78.6-14h0c-0.9,0-59.2-1-78.8,14
					c0,0,0.5-2.1,1.3-2.8c0.8-0.7-1.6-0.4-2-0.3c-0.3,0.1,1.2-2.5,1.9-2.9C43.2,59,41,59,40.6,59c-0.3,0,1.3-1.9,1.7-2.3
					c0.4-0.3-1.4-0.7-1.8-0.6c-0.3,0.1,1.2-1.9,1.7-2.1c0.4-0.3-1.2-0.8-1.5-0.7c-0.3,0.1,0.9-1.7,1.5-1.9c0.5-0.3-0.9-1-1.5-0.9
					c-0.5,0.1,0.6-1.5,1-1.7c0.4-0.2-1.2-1.1-1.4-1.2c0,0,11.4-14.4,79.7-14.4c0,0,0,0,0,0c68.1,0,79.6,14.4,79.6,14.4
					c-0.2,0.2-1.8,1-1.4,1.2C198.7,48.9,199.8,50.5,199.3,50.4z"/>
			</g>
		</g>
		<g>
			<polygon class="st0" points="112.6,73.2 111.3,70.1 110,73.2 111.3,76.3 			"/>
		</g>
		<g>
			<polygon class="st0" points="117.1,73.2 115.5,69.3 113.8,73.2 115.5,77.1 			"/>
		</g>
		<g>
			<polygon class="st0" points="130.4,73.2 129.1,70.1 127.8,73.2 129.1,76.3 			"/>
		</g>
		<g>
			<polygon class="st0" points="126.6,73.2 125,69.3 123.3,73.2 125,77.1 			"/>
		</g>
		<g>
			<polygon class="st0" points="121.9,73.2 120.1,68.7 118.2,73.2 120.1,77.7 			"/>
		</g>
		<g>
			<g>
				<path class="st0" d="M101.1,146.4c0,0,1,3.8,4.1,5.9c0,0,0.3,4.5,5.3,5.9c3.3,1,7.4-0.7,7.4-0.7v36.4c0,0-2.2,4.5-5.4,4.5
					c0,0,0.5,2.1,5.4,2.1c0,0,0.7,4,2.3,4c0,0,2.3-0.8,2.3-4c0,0,4.4-0.2,5.3-2c0,0-5.1-1.4-5.1-4.6v-17.6l0,0l-0.1-3.2l0.1,0.1
					v-3.8l0,0v-3.2c0,0,0,0,0,0v-8.7c0,0,2.5,1.4,3.1,1.3c0.6-0.1,7.5,0.2,8.8-6.4c0,0,4.5-2.9,4.5-7.5c0-3.1-2.9-5.5-2.9-5.5
					s1.4-5.2-1.7-8.4c-3.1-3.2-6.6-2.5-6.6-2.5s-2.4-4.6-8-4.6c-5.6,0-7.4,4.5-7.4,4.5s-5.8-0.2-8.1,4.2c-2.3,4.5-0.8,6.6-0.8,6.6
					S100.7,141.7,101.1,146.4z M106.2,148.9c0,0,1.7,0.6,3,0.6c1.3,0,3-0.6,3-0.6s-0.5,1.7-2.9,1.7
					C106.8,150.6,106.2,148.9,106.2,148.9z M112.6,155.9c-2.4,0-3.1-1.7-3.1-1.7s1.7,0.6,3,0.6c1.3,0,3-0.6,3-0.6
					S115,155.9,112.6,155.9z M128.6,155.9c-2.4,0-3.1-1.7-3.1-1.7s1.7,0.6,3,0.6c1.3,0,3-0.6,3-0.6S131,155.9,128.6,155.9z
					 M131.4,150.6c-2.4,0-3.1-1.7-3.1-1.7s1.7,0.6,3,0.6c1.3,0,3-0.6,3-0.6S133.8,150.6,131.4,150.6z M131.3,139.8
					c1.3,0,3-0.6,3-0.6s-0.5,1.7-2.9,1.7c-2.4,0-3.1-1.7-3.1-1.7S130,139.8,131.3,139.8z M126.2,143.6c1.3,0,3-0.5,3-0.5
					s-0.5,1.7-2.9,1.7c-2.4,0-3.1-1.7-3.1-1.7S124.8,143.6,126.2,143.6z M120,139.8c1.3,0,3-0.6,3-0.6s-0.5,1.7-2.9,1.7
					c-2.4,0-3.1-1.7-3.1-1.7S118.7,139.8,120,139.8z M114.2,143.6c1.3,0,3-0.5,3-0.5s-0.5,1.7-2.9,1.7c-2.4,0-3.1-1.7-3.1-1.7
					S112.9,143.6,114.2,143.6z M108.7,139.8c1.3,0,3-0.6,3-0.6s-0.5,1.7-2.9,1.7c-2.4,0-3.1-1.7-3.1-1.7S107.3,139.8,108.7,139.8z"
					/>
			</g>
		</g>
		<g>
			<g>
				<path class="st0" d="M90.6,176.1l1.8-4.4l-0.6-2.6l1.5-0.7l1.6,1.5l-3.4,13.4L92,187l-0.2,2l1,1.2l0.4,1.6l-1.1,1.2v5.1h5.6
					l-3-2.4v-2.1l3-1.5l0.9-7.2l8.9-1.9l2.9-5.8l2.3-1.8l2.2-0.9l0.5-3l2.5-2.4v-3.2c0,0-4.8,5.2-6.5,6.4c-1.7,1.2-3.1-0.1-3.1-0.1
					s-0.1-1.4,0-1.7c0.1-0.3,2-0.6,2-0.6l0.4-1.3l-0.3-1c0,0-0.6-0.4-1.1-0.3c-0.2,1.3-1.4,0.7-1.4-0.4c0-1.1,1.6-0.9,1.8-1
					c0.3-0.1-0.2-1.9-0.2-1.9l-1.1-0.9l-2.1,0.3c-2-1.2-6.6,1.5-6.6,1.5s0.3,1.4-0.3,2.2c-0.5,0.8-0.8,4-0.9,4.4
					c-0.1,0.4,1.1,3.3,1.1,3.3c0.1,0.4,0.1,2.7,0.1,2.7c-3.5,1.1-4.9,3.6-5.1,3.9c-0.3,0.3-0.5,0.3-0.5,0.3l3-12.4l-3.6-4.2
					l-4.9,3.6l0.1,3.6L90.6,176.1z M105.5,164.8l1.7,0.3l-1.8,0.8L105.5,164.8z M104.6,169.6v3.4l-1.2-1.7L104.6,169.6z M102.6,166
					v3.4l-1.2-1.7L102.6,166z M102.6,173.2v3.4l-1.2-1.7L102.6,173.2z M101.1,169.6v3.4l-1.2-1.7L101.1,169.6z"/>
			</g>
		</g>
		<g>
			<polygon class="st0" points="101.4,193.9 104.5,192.6 104.2,188.8 100.1,186.3 98.7,198.4 104.6,198.4 101.4,196 			"/>
		</g>
		<g>
			<polygon class="st0" points="115,179.3 117.8,176.2 117.9,173 114.8,176.4 112.4,177.4 110.2,181.6 112.5,181 			"/>
		</g>
		<g>
			<g>
				<path class="st0" d="M125.3,171.7l0.5,3l2.2,0.9l2.3,1.8l2.9,5.8l9,1.9l0.9,7.2l3,1.5v2.1l-3,2.4h5.6v-5.1l-1.1-1.2l0.4-1.6
					l0.9-1.2l-0.2-2l0.5-3.7l-3.4-13.4l1.6-1.5l1.5,0.7l-0.6,2.6l1.8,4.4l1.7-3.5l0.1-3.6l-4.9-3.6l-3.5,4.2l3,12.4
					c0,0-0.3,0-0.5-0.3c-0.3-0.3-1.6-2.8-5.1-3.9c0,0,0-2.3,0.1-2.7c0,0,1.2-2.8,1.1-3.3c-0.1-0.4-0.3-3.6-0.9-4.4
					c-0.5-0.8-0.3-2.2-0.3-2.2s-4.6-2.7-6.6-1.5l-2.1-0.3l-1.1,0.9c0,0-0.4,1.8-0.2,1.9c0.3,0.1,1.8-0.2,1.8,1
					c0,1.1-1.1,1.7-1.4,0.4c-0.5-0.2-1.1,0.3-1.1,0.3l-0.3,1l0.4,1.3c0,0,1.9,0.4,2,0.6c0.1,0.3,0,1.7,0,1.7s-1.3,1.2-3,0.1
					c-1.7-1.1-6.3-6.1-6.5-6.3v3.2L125.3,171.7z M139.4,169.6l1.2,1.7l-1.2,1.7V169.6z M137.9,166l1.2,1.7l-1.2,1.7V166z
					 M137.9,173.2l1.2,1.7l-1.2,1.7V173.2z M135.9,169.6l1.2,1.7l-1.2,1.7V169.6z M135.1,164.8l0.1,1.1l-1.8-0.8L135.1,164.8z"/>
			</g>
		</g>
		<g>
			<polygon class="st0" points="122.7,169.3 122.8,169.3 122.8,166.2 122.7,166.1 			"/>
		</g>
		<g>
			<polygon class="st0" points="136.4,188.8 136,192.6 139.2,193.9 139.2,196 135.9,198.4 141.9,198.4 140.5,186.3 			"/>
		</g>
		<g>
			<polygon class="st0" points="125.5,179.3 128,181 130.3,181.6 128.1,177.4 125.8,176.4 122.8,173.2 122.8,176.3 			"/>
		</g>
		<g>
			<polygon class="st0" points="122.7,176.2 122.8,176.3 122.8,173.2 122.7,173 			"/>
		</g>
		<g>
			<g>
				<path class="st0" d="M162.1,181.2h-0.3v2h0.3c0-0.4,0.1-0.8,0.5-0.8c0.2,0,0.6,0.2,1.4,0.4v2.2c-0.3,0.1-1.1,0.5-1.4,0.5
					c-0.3,0-0.4-0.2-0.4-0.8h-0.3v3.2h0.3c0-0.5,0.3-0.6,1.5-1.1l5.5-2.2v-0.3l-5.7-2.2C162.6,181.9,162.2,181.7,162.1,181.2z
					 M164.3,183l2.5,0.9l-2.5,1V183z"/>
			</g>
		</g>
		<g>
			<path class="st0" d="M162.2,176.3c0.6,0,0.8-0.5,0.8-0.7c0-0.3-0.2-0.7-0.8-0.7c-0.2,0-1.3,0.2-1.3,1.7c0,1,0.4,2.2,2.3,2.2h4.5
				c0.9,0,0.9,0.3,0.9,0.9h0.3v-3.5h-0.3c0,0.6,0,1-0.7,1h-5.8c-0.3,0-0.9,0-0.9-0.6c0-0.3,0.1-0.4,0.3-0.4
				C161.8,176.1,161.8,176.3,162.2,176.3z"/>
		</g>
		<g>
			<g>
				<path class="st0" d="M162.1,166.2h-0.3v2h0.3c0-0.3,0.1-0.8,0.5-0.8c0.2,0,0.6,0.2,1.4,0.4v2.3c-0.3,0.1-1.1,0.4-1.4,0.4
					c-0.3,0-0.4-0.2-0.4-0.8h-0.3v3.2h0.3c0-0.5,0.3-0.6,1.5-1.1l5.5-2.2v-0.3l-5.7-2.2C162.6,166.9,162.2,166.7,162.1,166.2z
					 M164.3,168l2.5,0.9l-2.5,1V168z"/>
			</g>
		</g>
		<g>
			<g>
				<path class="st0" d="M163.8,164.3c1.2,0,1.7-1,1.8-1.9h0c0.2,0.4,0.4,1.6,1.6,1.6c1.6,0,1.7-2,1.7-2.6v-3.1h-0.3
					c0,0.5-0.1,0.9-0.7,0.9h-5c-0.6,0-0.7-0.3-0.8-0.9h-0.3v3.2C161.9,163.6,162.9,164.3,163.8,164.3z M168.1,160.8
					c0.2,0,0.5,0,0.5,0.5c0,0.8-0.6,1-1.3,1c-1.1,0-1.5-0.2-1.5-1.6H168.1z M162.9,160.8h2.6v0.3c0,0.6-0.2,1.5-1.7,1.5
					c-0.6,0-1.6-0.1-1.6-1.2C162.2,161,162.4,160.8,162.9,160.8z"/>
			</g>
		</g>
		<g>
			<g>
				<path class="st0" d="M162.1,149.5h-0.3v2h0.3c0-0.4,0.1-0.8,0.5-0.8c0.2,0,0.6,0.2,1.4,0.4v2.2c-0.3,0.1-1.1,0.5-1.4,0.5
					c-0.3,0-0.4-0.2-0.4-0.8h-0.3v3.2h0.3c0-0.5,0.3-0.6,1.5-1.1l5.5-2.2v-0.3l-5.7-2.2C162.6,150.1,162.2,150,162.1,149.5z
					 M164.3,151.3l2.5,0.9l-2.5,1V151.3z"/>
			</g>
		</g>
		<g>
			<g>
				<path class="st0" d="M161.9,145.7v2.1h0.3c0-0.1,0-0.3,0.2-0.4l3-2c0.2,0.6,0.5,1.6,1.8,1.6c1.8,0,1.8-2.1,1.8-2.8v-3.2h-0.3
					c0,0.6-0.1,0.9-0.9,0.9h-4.6c-0.9,0-0.9-0.2-1-0.9h-0.3v3.4h0.3c0.1-0.7,0.1-0.9,1-0.9h2v0.3L161.9,145.7z M168.1,143.3
					c0.3,0.1,0.4,0.1,0.4,0.6c0,0.8-0.5,1.2-1.5,1.2c-1.3,0-1.6-0.5-1.6-1.8H168.1z"/>
			</g>
		</g>
		<g>
			<path class="st0" d="M162.1,133.9h-0.3v3.6h0.3c0.1-0.8,0.1-1,1-1h5.5c-0.1,0.7-0.1,1.7-1.8,1.9v0.3l2.1,0v-6l-2.1,0v0.3
				c1.7,0.2,1.7,1.2,1.8,1.9h-5.5C162.2,134.8,162.2,134.6,162.1,133.9z"/>
		</g>
		<g>
			<path class="st0" d="M71.6,138.1l3.5-1.8h1.5c0.9,0,0.9,0.2,1,0.9h0.3v-3.5h-0.3c-0.1,0.7-0.1,0.9-1,0.9h-1.9l-3.2-1.9
				c-0.3-0.2-0.4-0.5-0.4-0.7h-0.3v2.2H71c0-0.5,0.1-0.8,0.5-0.8c0.3,0,0.8,0.3,1,0.4l1.9,1.1l-2.4,1.2c-0.2,0.1-0.4,0.3-0.6,0.3
				c-0.3,0-0.4-0.1-0.4-0.8h-0.3v3.3H71C71.1,138.4,71.5,138.1,71.6,138.1z"/>
		</g>
		<g>
			<g>
				<path class="st0" d="M77.6,151.1h0.3v-2h-0.3c0,0.3-0.1,0.8-0.4,0.8c-0.2,0-0.6-0.2-1.3-0.4v-2.2c0.3-0.1,1.1-0.4,1.4-0.4
					c0.3,0,0.4,0.2,0.4,0.8h0.3v-3.2h-0.3c0,0.5-0.3,0.6-1.5,1.1l-5.5,2.2v0.3l5.7,2.2C77.1,150.4,77.5,150.5,77.6,151.1z
					 M75.4,149.3l-2.5-0.9l2.5-1V149.3z"/>
			</g>
		</g>
		<g>
			<path class="st0" d="M72.7,157.9c0.5,0,1.4,0,2.2-1.7l0.3-0.7c0.3-0.7,0.6-1.1,1.3-1.1c0.1,0,1.2,0,1.2,1.2
				c0,1.3-1.2,1.8-2.2,2.1v0.3H78v-0.3c-0.2-0.1-0.4-0.1-0.4-0.3c0-0.3,0.4-0.7,0.4-1.7c0-1.8-1.2-2.5-2.2-2.5
				c-1.1,0-1.7,0.8-1.9,1.1l-0.8,1.5c-0.4,0.8-0.7,1-1.2,1c-0.7,0-1-0.5-1-1.1c0-1.2,1.2-1.8,1.9-2v-0.3h-2.2v0.3
				c0.2,0,0.4,0.1,0.4,0.3c0,0.3-0.4,0.8-0.4,1.6C70.6,157.5,72,157.9,72.7,157.9z"/>
		</g>
		<g>
			<path class="st0" d="M78,161.2v-0.3h-6.1c-0.5,0-0.7-0.1-0.8-0.8h-0.3v2.1H71c0.1-0.8,0.4-0.9,1-0.9h3.1v0l-4.4,3.5v2.1H71
				c0-0.1,0-0.3,0.8-0.8h4.9c0.7,0,0.8,0.3,0.8,0.9h0.3v-2.3h-0.3c-0.1,0.8-0.3,0.9-1,0.9h-4.2v0L78,161.2z"/>
		</g>
		<g>
			<path class="st0" d="M77.8,169.4l-2.2-0.4v0.3c1.6,0.6,1.8,1.6,1.8,2.6c0,0.7-0.1,0.8-0.6,0.8h-2.5c0-1,0.3-1.5,1.6-1.6v-0.3
				h-3.5v0.3c1.3,0.1,1.6,0.7,1.5,1.6h-2.4c-0.4,0-0.5-0.2-0.5-0.7c0-1.4,0.3-2.1,1.7-2.3v-0.2h-2.1v5.7H71c0-0.5,0.1-0.9,0.7-0.9h5
				c0.6,0,0.7,0.3,0.7,0.9h0.3V169.4z"/>
		</g>
		<g>
			<path class="st0" d="M76.8,178.1h-5c-0.7,0-0.7-0.5-0.7-0.9h-0.3v3.5H71c0-0.5,0.1-0.9,0.7-0.9h5c0.6,0,0.7,0.4,0.7,0.9h0.3v-3.5
				h-0.3C77.5,177.7,77.5,178.1,76.8,178.1z"/>
		</g>
		<g>
			<g>
				<path class="st0" d="M77.4,187.8c0.1,0.1,0.1,0.1,0.2,0.6h0.3v-3.3h-0.3c-0.1,0.7-0.1,0.9-1,0.9h-1.9c0-1.3,0-1.8-0.4-2.5
					c-0.5-0.8-1.2-0.9-1.6-0.9c-1.7,0-1.9,1.8-1.9,2.6v3.2H71c0.1-0.5,0.1-0.9,0.9-0.9h4.6C77.2,187.5,77.3,187.7,77.4,187.8z
					 M71.5,185.9c-0.2,0-0.4-0.1-0.4-0.5c0-0.8,0.4-1.2,1.6-1.2c1.3,0,1.6,0.4,1.6,1.7H71.5z"/>
			</g>
		</g>
		<g>
			<polygon class="st0" points="157.5,211.7 154.8,214.5 157.8,217.6 160.5,214.8 163.2,217.6 166.3,214.5 163.6,211.7 166.3,209 
				163.2,205.9 160.5,208.6 157.8,205.9 154.8,209 			"/>
		</g>
		<g>
			<polygon class="st0" points="81.2,205.9 78.5,208.6 75.8,205.9 72.7,209 75.4,211.7 72.7,214.5 75.8,217.6 78.5,214.8 
				81.2,217.6 84.2,214.5 81.5,211.7 84.2,209 			"/>
		</g>
		<g>
			<polygon class="st0" points="161.1,116.7 163.8,113.9 166.5,116.7 169.5,113.6 166.8,110.8 169.5,108.1 166.5,105 163.8,107.8 
				161.1,105 158,108.1 160.7,110.8 158,113.6 			"/>
		</g>
		<g>
			<polygon class="st0" points="73.9,116.7 76.6,113.9 79.3,116.7 82.3,113.6 79.6,110.8 82.3,108.1 79.3,105 76.6,107.8 73.9,105 
				70.9,108.1 73.6,110.8 70.9,113.6 			"/>
		</g>
		<g>
			<g>
				<path class="st0" d="M195.9,55.1l0.1-8.5l-0.2-0.1l-4.4,7.6c-0.6,1-0.9,1.5-1.4,1.5l-0.1,0.4l1.9,0.6l0.1-0.4
					c-0.3-0.1-0.7-0.3-0.6-0.9c0.1-0.2,0.4-0.8,1-1.8l2.1,0.6c0,0.5,0,1.7-0.1,2.1c-0.1,0.5-0.3,0.5-0.9,0.4l-0.1,0.4l3,0.9l0.1-0.4
					C195.9,57.4,195.9,56.9,195.9,55.1z M194.4,53.5l-1.8-0.5l1.9-3.4L194.4,53.5z"/>
			</g>
		</g>
		<g>
			<g>
				<path class="st0" d="M188.5,50.1c0.6-0.1,1.7-0.3,2.2-2.2c0.7-2.6-1.3-3.3-2-3.5l-3.1-0.9l-0.1,0.4c0.5,0.2,0.8,0.3,0.5,1.7
					l-1.7,6.9c-0.3,1.3-0.5,1.3-1.2,1.2L183,54l3.2,0.9l0.1-0.4c-0.6-0.3-0.8-0.4-0.5-1.7l0.8-3.1l0.3,0.1l0.7,5.5l1.9,0.5l0.1-0.4
					c-0.1,0-0.3-0.1-0.3-0.4L188.5,50.1z M186.7,49.3l1-4c0.2-0.5,0.2-0.6,0.8-0.5c0.8,0.2,1,1,0.6,2.6
					C188.5,49.5,188,49.7,186.7,49.3z"/>
			</g>
		</g>
		<g>
			<g>
				<path class="st0" d="M182.3,51.3l-0.3-8.7l-0.3-0.1l-4,8c-0.6,1.1-0.8,1.6-1.4,1.6l-0.1,0.4l2,0.5l0.1-0.4
					c-0.3-0.1-0.8-0.3-0.6-0.9c0.1-0.2,0.4-0.9,0.9-1.9l2.2,0.5c0,0.6,0.1,1.8,0,2.2c-0.1,0.5-0.3,0.5-0.9,0.4l-0.1,0.4l3.1,0.8
					l0.1-0.4C182.4,53.7,182.4,53.1,182.3,51.3z M178.9,49.3l1.8-3.6l0.1,4L178.9,49.3z"/>
			</g>
		</g>
		<g>
			<path class="st0" d="M177.5,43.3c0.1-1.3,0.4-1.3,1.1-1.3l0-0.4l-3.7-0.3l0,0.4c0.6,0.1,1,0.1,1,1.1l-0.7,8.1
				c0,0.4-0.1,1.3-0.8,1.2c-0.3,0-0.4-0.2-0.4-0.5c0-0.4,0.3-0.4,0.4-0.9c0.1-0.8-0.4-1.1-0.6-1.1c-0.3,0-0.8,0.3-0.8,1.1
				c0,0.2,0,1.9,1.6,2c1.1,0.1,2.3-0.4,2.6-3L177.5,43.3z"/>
		</g>
		<g>
			<g>
				<path class="st0" d="M171.8,49l-0.8-8.7l-0.3-0.1l-3.5,8.3c-0.5,1.1-0.7,1.6-1.2,1.7l-0.1,0.4l2,0.3l0.1-0.4
					c-0.3-0.1-0.8-0.2-0.7-0.8c0-0.3,0.3-0.9,0.8-2l2.2,0.4c0.1,0.5,0.2,1.8,0.1,2.2c-0.1,0.5-0.3,0.5-0.9,0.5l-0.1,0.4l3.1,0.6
					l0.1-0.4C172,51.3,171.9,50.8,171.8,49z M168.2,47.2l1.5-3.7l0.4,4L168.2,47.2z"/>
			</g>
		</g>
		<g>
			<path class="st0" d="M166.1,46.9c-0.7,1.8-1.4,3-2.8,2.8c-0.7-0.1-0.9-0.2-0.8-1l0.9-7.7c0.2-1.4,0.5-1.4,1.2-1.4l0.1-0.4
				l-3.4-0.5l0,0.4c0.4,0.1,0.8,0.2,0.7,1.3l-0.9,7.9c-0.1,1-0.4,1-1,1l-0.1,0.4l5.6,0.8l0.8-3.6L166.1,46.9z"/>
		</g>
		<g>
			<g>
				<path class="st0" d="M158.9,47.1l-1-8.8l-0.3,0l-3.4,8.5c-0.5,1.2-0.7,1.7-1.2,1.7l-0.1,0.4l2,0.3l0.1-0.4
					c-0.3-0.1-0.8-0.2-0.7-0.8c0-0.3,0.3-0.9,0.7-2l2.2,0.4c0.1,0.5,0.2,1.8,0.2,2.2c-0.1,0.5-0.3,0.5-0.9,0.5l-0.1,0.4l3.2,0.5
					l0-0.4C159.2,49.5,159.1,48.9,158.9,47.1z M155.5,45.4l1.5-3.7l0.5,4.1L155.5,45.4z"/>
			</g>
		</g>
		<g>
			<g>
				<path class="st0" d="M154.1,43.3c0.2-2.5-0.4-5.4-3.2-5.7l-3-0.3l-0.1,0.4c0.4,0.1,0.8,0.2,0.7,1.1l-0.7,8
					c-0.1,0.6-0.3,1.1-0.9,1l0,0.4l3.1,0.3C152.6,48.7,153.9,46.3,154.1,43.3z M152.4,43.3c-0.3,3.8-1.3,4.8-2.4,4.7
					c-0.5,0-0.5-0.3-0.5-1l0.7-8.1c0-0.4,0-0.8,0.7-0.7C152.6,38.4,152.5,41.8,152.4,43.3z"/>
			</g>
		</g>
		<g>
			<g>
				<path class="st0" d="M145.5,45.5l-1.5-8.6l-0.3,0l-2.8,8.5c-0.4,1.2-0.6,1.7-1.1,1.8l0,0.4l2,0.2l0-0.4
					c-0.3-0.1-0.8-0.2-0.8-0.8c0-0.3,0.2-0.9,0.6-2l2.2,0.2c0.1,0.5,0.3,1.7,0.3,2.2c0,0.5-0.2,0.5-0.8,0.6l0,0.4l3.2,0.3l0-0.4
					C146,47.8,145.8,47.2,145.5,45.5z M141.8,44l1.2-3.8l0.7,4L141.8,44z"/>
			</g>
		</g>
		<g>
			<path class="st0" d="M140.3,38.4c0-1.1,0.3-1.2,0.8-1.3l0-0.4l-2.2-0.1l0,0.4c0.8,0.1,0.9,0.7,0.9,1.6l-0.2,4.9
				c0,1-0.2,3.5-1.9,3.4c-1.4-0.1-1.3-2.3-1.3-3.2l0.2-5.3c0.1-1.4,0.4-1.4,1-1.4l0-0.4l-3.3-0.1l0,0.4c0.5,0.1,0.8,0.2,0.7,1.5
				l-0.2,5.3c-0.1,1.7,0.2,2.3,0.6,2.9c0.6,0.9,1.5,1.1,2,1.1c0.6,0,1.4-0.2,2-1.1c0.4-0.7,0.6-2.1,0.7-3.1L140.3,38.4z"/>
		</g>
		<g>
			<path class="st0" d="M131,43c0.7,0.1,1,0.1,0.9,1.2l-0.1,1.7c0,0.7-0.2,1.2-1.1,1.1c-1.8-0.1-1.7-4-1.7-5.2c0.1-2.7,0.6-5.1,2-5
				c1.1,0.1,1.8,2,2.1,3.3l0.2,0l0.2-3.7l-0.3,0c-0.1,0.4-0.2,0.7-0.5,0.7c-0.2,0-1-0.8-1.8-0.9c-2.1-0.1-3.6,2.4-3.7,5.5
				c-0.1,2.8,0.9,5.6,3.3,5.7c0.8,0,2.2-0.3,2.7-0.9l0.1-2c0-1.3,0.3-1.3,0.9-1.4l0-0.4l-3.4-0.2L131,43z"/>
		</g>
		<g>
			<path class="st0" d="M122.5,46.8c-0.6,0-0.8-0.2-0.8-0.9l0-3.9c1,0,1.5,0.5,1.6,2.5l0.3,0l0-5.5h-0.3c-0.2,2-0.7,2.4-1.6,2.4
				l0-3.8c0-0.7,0.2-0.8,0.7-0.8c1.3,0,2,0.4,2.2,2.8h0.2l0-3.3l-5.7-0.1v0.4c0.4,0,0.9,0.1,0.8,1.2l-0.1,7.9c0,1-0.3,1.1-0.9,1.2
				v0.4l5.7,0.1l0.4-3.4h-0.3C124.4,46.4,123.4,46.8,122.5,46.8z"/>
		</g>
		<g>
			<g>
				<path class="st0" d="M115.3,36.4l-3,0v0.4c0.4,0.1,0.8,0.1,0.8,1.1l0.1,8.1c0,0.6-0.2,1.1-0.8,1.1v0.4l3.1,0
					c2.5-0.2,3.5-2.7,3.5-5.7C119,39.2,118,36.3,115.3,36.4z M115.4,46.8c-0.5,0-0.5-0.3-0.6-0.9l-0.1-8.2c0-0.4,0-0.8,0.6-0.8
					c1.7,0,1.9,3.4,2,4.9C117.3,45.8,116.5,46.8,115.4,46.8z"/>
			</g>
		</g>
		<g>
			<g>
				<path class="st0" d="M106.4,36.8l-3,0.1l0,0.4c0.4,0,0.8,0.1,0.9,1l0.3,7.9c0,0.6-0.1,1.1-0.8,1.1l0,0.4l3.1-0.2
					c2.5-0.2,3.4-2.8,3.3-5.8C110.1,39.4,109.1,36.7,106.4,36.8z M106.8,47.1c-0.5,0-0.6-0.3-0.6-0.9l-0.4-8.1
					c0-0.4-0.1-0.8,0.6-0.8c1.7-0.1,2,3.3,2.1,4.8C108.7,46,107.9,47.1,106.8,47.1z"/>
			</g>
		</g>
		<g>
			<g>
				<path class="st0" d="M102.4,45.3l-2.7-8.1l-0.3,0L97.8,46c-0.2,1.2-0.3,1.8-0.8,1.9l0,0.4l2-0.2l0-0.4c-0.3,0-0.8,0-0.8-0.6
					c0-0.2,0.1-0.9,0.3-2.1l2.2-0.2c0.2,0.5,0.6,1.6,0.6,2.1c0,0.5-0.1,0.5-0.7,0.7l0,0.4l3.2-0.2l0-0.4
					C103.1,47.5,103,47,102.4,45.3z M98.5,44.5l0.6-3.9l1.3,3.8L98.5,44.5z"/>
			</g>
		</g>
		<g>
			<g>
				<path class="st0" d="M93.2,37.9l-3,0.2l0,0.4c0.4,0,0.8,0,0.9,1l0.4,8c0,0.6-0.1,1.1-0.8,1.1l0,0.4l3.1-0.2
					c2.5-0.3,3.4-2.9,3.2-5.9C96.9,40.5,95.9,37.7,93.2,37.9z M93.7,48.3c-0.5,0-0.6-0.3-0.6-0.9l-0.4-8.1c0-0.4-0.1-0.8,0.6-0.8
					c1.7-0.1,2.1,3.3,2.2,4.8C95.6,47.1,94.8,48.2,93.7,48.3z"/>
			</g>
		</g>
		<g>
			<path class="st0" d="M89.5,47.5l-0.6-7.9c-0.1-1.1,0.4-1.2,0.8-1.2l0-0.4l-3.4,0.3l0,0.4c0.5,0,0.9,0,1,1.1l0.6,7.9
				c0.1,1-0.3,1.1-0.8,1.2l0,0.4l3.4-0.3l0-0.4C90,48.6,89.6,48.6,89.5,47.5z"/>
		</g>
		<g>
			<path class="st0" d="M85.4,43.3l-1.6-0.9c-0.9-0.5-1.1-0.8-1.2-1.7c-0.1-1,0.3-1.5,0.8-1.6c1.1-0.2,2,1.5,2.3,2.6l0.3,0l-0.5-3.3
				l-0.3,0c0,0.3,0,0.5-0.3,0.6c-0.3,0-0.8-0.4-1.6-0.3c-1.8,0.3-1.9,2.4-1.7,3.3c0.1,0.7,0.3,2,2.1,3.1l0.7,0.4
				c0.7,0.4,1.2,0.7,1.3,1.7c0,0.2,0.2,1.7-1,1.9c-1.2,0.2-2-1.5-2.4-3l-0.3,0l0.5,3.8l0.3,0c0-0.3,0-0.5,0.2-0.6
				c0.3,0,0.8,0.4,1.7,0.3c1.8-0.3,2.2-2.2,2-3.6C86.6,44.3,85.8,43.5,85.4,43.3z"/>
		</g>
		<g>
			<g>
				<path class="st0" d="M81.8,49.4l-2.5-4.3c0.5-0.3,1.4-1,1.2-3c-0.3-2.7-2.4-2.5-3.1-2.4l-3.1,0.5l0.1,0.4c0.6,0,0.9,0,1,1.4
					l0.9,7.1c0.2,1.3,0,1.4-0.7,1.6l0.1,0.4l3.3-0.5l0-0.4c-0.7-0.1-0.9-0.1-1-1.4l-0.4-3.2l0.3,0l2.6,4.7l2-0.3l-0.1-0.4
					C82.1,49.7,81.9,49.7,81.8,49.4z M77.3,45.2l-0.5-4.1c0-0.5,0-0.7,0.5-0.8c0.8-0.1,1.2,0.5,1.5,2.2C79,44.5,78.6,45,77.3,45.2z"
					/>
			</g>
		</g>
		<g>
			<path class="st0" d="M74.7,47.7c-0.2,2.5-1.1,3.1-2,3.3c-0.6,0.1-0.8,0-1-0.7L71,46.5c0.9-0.2,1.5,0.2,2,2.1l0.3,0l-1-5.3l-0.2,0
				c0.2,2-0.2,2.5-1.1,2.6l-0.7-3.6c-0.1-0.7,0-0.8,0.6-0.9c1.3-0.3,2.1,0,2.7,2.2l0.2,0l-0.6-3.1l-5.6,1.1l0.1,0.4
				c0.4,0,0.9-0.1,1,0.9l1.4,7.5c0.2,1-0.1,1.1-0.6,1.3l0.1,0.4l5.6-1.1L75,47.7L74.7,47.7z"/>
		</g>
		<g>
			<path class="st0" d="M65.4,42.1l0.1,0.4c0.6-0.1,0.8-0.1,1,0.5c0.1,0.3,0,0.7,0,1.1l-0.1,5.2L64,44.8c-0.2-0.3-0.5-0.9-0.6-1.2
				c-0.1-0.6,0.1-0.6,0.7-0.8l-0.1-0.4l-3.2,0.7l0.1,0.4c0.4,0,0.6,0,1,0.9l4.4,8.5l0.2-0.1l0.3-9.3c0-0.9,0.1-1.2,0.6-1.4l-0.1-0.4
				L65.4,42.1z"/>
		</g>
		<g>
			<path class="st0" d="M61.8,52.2L60,44.8c-0.3-1,0.2-1.2,0.6-1.3l-0.1-0.4L57.3,44l0.1,0.4c0.4-0.1,0.9-0.2,1.1,0.9l1.8,7.4
				c0.2,1-0.1,1.1-0.6,1.3l0.1,0.4l3.3-0.9l-0.1-0.4C62.4,53.1,62,53.2,61.8,52.2z"/>
		</g>
		<g>
			<path class="st0" d="M57,44.3L56.9,44l-2,0.5l0.1,0.4c0.8-0.1,1,0.3,1.3,1.2l1.2,4.5h0l-4.9-5.5l-2,0.5l0.1,0.4
				c0.1,0,0.3,0,1.1,0.9l1.8,7c0.2,1,0,1.2-0.5,1.4l0.1,0.4l2.1-0.6l-0.1-0.4c-0.7,0.1-1-0.2-1.3-1.2l-1.6-6l0,0l6.3,6.9l0.2-0.1
				l-2.3-8.8C56.4,45,56.4,44.6,57,44.3z"/>
		</g>
		<g>
			<path class="st0" d="M49.8,47.7c-0.3-1-0.1-1.2,0.3-1.5l-0.1-0.4L48,46.5l0.1,0.4c0.8-0.2,1.1,0.3,1.4,1.2l1.4,4.5
				c0.3,0.9,1,3.2-0.7,3.7c-1.3,0.4-2-1.6-2.3-2.4l-1.6-4.9c-0.4-1.3-0.1-1.4,0.5-1.6l-0.1-0.4l-3.1,1l0.1,0.4
				c0.6-0.1,0.8-0.1,1.2,1.1l1.6,4.9c0.5,1.6,0.9,2,1.5,2.4c0.9,0.6,1.8,0.4,2.2,0.3c0.6-0.2,1.3-0.7,1.5-1.7c0.2-0.8-0.1-2.1-0.4-3
				L49.8,47.7z"/>
		</g>
	</g>
</g>
</svg>
