<?xml version="1.0" encoding="utf-8"?>
<!-- Generator: Adobe Illustrator 24.0.1, SVG Export Plug-In . SVG Version: 6.00 Build 0)  -->
<svg version="1.1" id="Layer_1" xmlns="http://www.w3.org/2000/svg" xmlns:xlink="http://www.w3.org/1999/xlink" x="0px" y="0px"
	 viewBox="0 0 240 90.8" style="enable-background:new 0 0 240 90.8;" xml:space="preserve">
<style type="text/css">
	.st0{fill:#FF5800;}
</style>
<g>
	<path class="st0" d="M67.9,9.1c0-2.5-1-4.8-2.7-6.4C63.6,1,61.4,0,58.9,0H27.2c-2.5,0-4.8,1-6.4,2.7c-1.6,1.6-2.7,3.9-2.7,6.4v31.7
		H9.1c-2.5,0-4.8,1-6.4,2.7C1,45,0,47.3,0,49.8v9.1c0,2.5,1,4.8,2.7,6.4c1.6,1.6,3.9,2.7,6.4,2.7h9.1c2.5,0,4.8-1,6.4-2.7
		c1.6-1.6,2.7-3.9,2.7-6.4v-9.1h31.7c2.5,0,4.8-1,6.4-2.7c1.6-1.6,2.7-3.9,2.7-6.4V9.1z M18.1,58.9H9.1v-9.1h9.1V58.9z M58.9,40.8
		H27.2V9.1h31.7V40.8z"/>
	<path class="st0" d="M234,49.8h-7.6c-2.5,0-4.8-1-6.4-2.7c-1.6-1.6-2.7-3.9-2.7-6.4V0h9.1v13.6H240v9.1h-13.6v18.1H240v3.1
		L234,49.8z"/>
	<path class="st0" d="M108.7,43.8v6h9.1V13.6h-9.1v27.2H90.6V13.6h-9.1v27.2c0,2.5,1,4.8,2.7,6.4c1.6,1.6,3.9,2.7,6.4,2.7h12.1
		L108.7,43.8z"/>
	<path class="st0" d="M197.8,49.8h-12.1c-2.5,0-4.8-1-6.4-2.7c-1.6-1.6-2.7-3.9-2.7-6.4V22.6c0-2.5,1-4.8,2.7-6.4
		c1.6-1.6,3.9-2.7,6.4-2.7h18.1c2.5,0,4.8,1,6.4,2.7c1.6,1.6,2.7,3.9,2.7,6.4v27.2h-9.1v-6L197.8,49.8z M203.8,22.6h-18.1v18.1h18.1
		V22.6z"/>
	<rect x="163" y="13.6" class="st0" width="9.1" height="36.2"/>
	<rect x="163" y="0" class="st0" width="9.1" height="9.1"/>
	<path class="st0" d="M137.3,13.6h12.1c2.5,0,4.8,1,6.4,2.7c1.6,1.6,2.7,3.9,2.7,6.4v27.2h-9.1V22.6h-18.1v27.2h-9.1V13.6h9.1v6
		L137.3,13.6z"/>
	<path class="st0" d="M84.7,73.4c-1.8,0-3.2-1.4-3.2-3.2v-7h1.3v7c0,1.1,0.9,1.9,1.9,1.9h0.9c1.1,0,1.9-0.9,1.9-1.9v-1.5v-5.5h1.3v7
		c0,1.8-1.4,3.2-3.2,3.2H84.7z"/>
	<rect x="99" y="63.2" class="st0" width="1.3" height="10.2"/>
	<rect x="132.8" y="63.2" class="st0" width="1.3" height="10.2"/>
	<rect x="153.7" y="80.6" class="st0" width="1.3" height="10.2"/>
	<polygon class="st0" points="151.1,63.2 149.6,63.2 147.1,67.5 144.6,63.2 143.1,63.2 146.5,68.9 146.5,73.4 147.7,73.4 
		147.7,68.9 	"/>
	<path class="st0" d="M164.4,66.4c0-1.8-1.4-3.2-3.2-3.2h-0.9c-1.8,0-3.2,1.4-3.2,3.2v3.8c0,1.8,1.4,3.2,3.2,3.2h0.9
		c1.8,0,3.2-1.4,3.2-3.2V66.4z M161.2,72.1h-0.9c-1.1,0-1.9-0.9-1.9-1.9v-3.8c0-1.1,0.9-1.9,1.9-1.9h0.9c1.1,0,1.9,0.9,1.9,1.9v3.8
		C163.1,71.3,162.2,72.1,161.2,72.1"/>
	<path class="st0" d="M129.4,83.8c0-1.8-1.4-3.2-3.2-3.2h-0.9c-1.8,0-3.2,1.4-3.2,3.2v3.8c0,1.8,1.4,3.2,3.2,3.2h0.9
		c1.8,0,3.2-1.4,3.2-3.2V83.8z M126.2,89.5h-0.9c-1.1,0-1.9-0.9-1.9-1.9v-3.8c0-1.1,0.9-1.9,1.9-1.9h0.9c1.1,0,1.9,0.9,1.9,1.9v3.8
		C128.1,88.7,127.3,89.5,126.2,89.5"/>
	<path class="st0" d="M144.3,83.8c0-1.8-1.4-3.2-3.2-3.2h-0.9c-1.8,0-3.2,1.4-3.2,3.2v3.8c0,1.8,1.4,3.2,3.2,3.2h0.9
		c1.8,0,3.2-1.4,3.2-3.2V83.8z M141.1,89.5h-0.9c-1.1,0-1.9-0.9-1.9-1.9v-3.8c0-1.1,0.9-1.9,1.9-1.9h0.9c1.1,0,1.9,0.9,1.9,1.9v3.8
		C143,88.7,142.2,89.5,141.1,89.5"/>
	<path class="st0" d="M97.7,63.2h-1.3v9c0,0-2.6-5.5-3.9-8.3c-0.2-0.4-0.6-0.7-1.1-0.7c-0.7,0-1.3,0.6-1.3,1.3v9h1.3v-9
		c0,0,2.6,5.5,3.9,8.3c0.2,0.4,0.6,0.7,1.2,0.7c0.7,0,1.3-0.6,1.3-1.3V63.2z"/>
	<path class="st0" d="M120.9,80.6h-1.3v9c0,0-2.6-5.5-3.9-8.3c-0.2-0.4-0.6-0.7-1.2-0.7c-0.7,0-1.3,0.6-1.3,1.3v9h1.3v-9
		c0,0,2.6,5.5,3.9,8.3c0.2,0.4,0.6,0.7,1.2,0.7c0.7,0,1.3-0.6,1.3-1.3V80.6z"/>
	<path class="st0" d="M216.5,63.2h-1.3v9c0,0-2.6-5.5-3.9-8.3c-0.2-0.4-0.6-0.7-1.2-0.7c-0.7,0-1.3,0.6-1.3,1.3v9h1.3v-9
		c0,0,2.6,5.5,3.9,8.3c0.2,0.4,0.6,0.7,1.2,0.7c0.7,0,1.3-0.6,1.3-1.3V63.2z"/>
	<path class="st0" d="M116,63.2v1.3h-5v3.1h4.2v1.3H111v3.3h5v1.3h-5c-0.7,0-1.3-0.6-1.3-1.3v-7.6c0-0.7,0.6-1.3,1.3-1.3H116z"/>
	<path class="st0" d="M96.3,80.6v1.3h-5v3.1h4.2v1.3h-4.2v3.3h5v1.3h-5c-0.7,0-1.3-0.6-1.3-1.3v-7.6c0-0.7,0.6-1.3,1.3-1.3H96.3z"/>
	<path class="st0" d="M231.3,63.2v1.3h-5v3.1h4.2v1.3h-4.2v3.3h5v1.3h-5c-0.7,0-1.3-0.6-1.3-1.3v-7.6c0-0.7,0.6-1.3,1.3-1.3H231.3z"
		/>
	<path class="st0" d="M162.5,80.6v1.3h-5v3.1h4.2v1.3h-4.2v3.3h5v1.3h-5c-0.7,0-1.3-0.6-1.3-1.3v-7.6c0-0.7,0.6-1.3,1.3-1.3H162.5z"
		/>
	<path class="st0" d="M165.6,73.4v-8.9c0-0.7,0.6-1.3,1.3-1.3h5v1.3h-5v3.1h4.2v1.3h-4.2v4.6H165.6z"/>
	<path class="st0" d="M131.9,80.6h-1.3v8.9c0,0.7,0.6,1.3,1.3,1.3h4.6v-1.3h-4.6V80.6z"/>
	<path class="st0" d="M118.5,67.5v-3.1h2.7c0.8,0,1.5,0.7,1.5,1.5c0,0.8-0.7,1.5-1.5,1.5H118.5z M124.3,73.4l-2.5-4.6
		c1.3-0.3,2.2-1.4,2.2-2.7c0-1.5-1.3-2.8-2.8-2.8h-2.7c-0.7,0-1.3,0.6-1.3,1.3v8.9h1.3v-4.6h1.9l2.5,4.6H124.3z"/>
	<path class="st0" d="M127.7,64.5c-0.8,0-1.4,0.6-1.4,1.4c0,0.7,0.5,1.2,1.1,1.4c0.7,0.2,1.4,0.3,2.1,0.5c1.3,0.3,2.2,1.4,2.2,2.8
		c0,1.6-1.3,2.9-2.9,2.9h-3.6v-1.3h3.6c0.9,0,1.6-0.7,1.6-1.6c0-0.8-0.5-1.4-1.2-1.6c-0.7-0.2-1.4-0.3-2.1-0.5
		c-1.2-0.3-2.1-1.3-2.1-2.6c0-1.5,1.2-2.7,2.7-2.7h3.3v1.3H127.7z"/>
	<path class="st0" d="M166.2,81.9c-0.8,0-1.4,0.6-1.4,1.4c0,0.7,0.5,1.2,1.1,1.4c0.7,0.2,1.4,0.3,2.1,0.5c1.3,0.3,2.2,1.4,2.2,2.8
		c0,1.6-1.3,2.9-2.9,2.9h-3.6v-1.3h3.6c0.9,0,1.6-0.7,1.6-1.6c0-0.8-0.5-1.4-1.2-1.6c-0.7-0.2-1.4-0.3-2.1-0.5
		c-1.2-0.3-2.1-1.3-2.1-2.6c0-1.5,1.2-2.7,2.7-2.7h3.3v1.3H166.2z"/>
	<polygon class="st0" points="142.6,63.2 135.2,63.2 135.2,64.5 138.3,64.5 138.3,73.4 139.5,73.4 139.5,64.5 142.6,64.5 	"/>
	<polygon class="st0" points="88.9,80.6 81.5,80.6 81.5,81.9 84.6,81.9 84.6,90.8 85.8,90.8 85.8,81.9 88.9,81.9 	"/>
	<path class="st0" d="M197.9,72.6c-0.2,0.5-0.6,0.9-1.2,0.9c-0.6,0-1.1-0.4-1.2-0.9c-0.9-3.1-2.8-9.3-2.8-9.3h1.3l2.7,9l2.7-9h1.3
		C200.8,63.2,198.9,69.4,197.9,72.6"/>
	<path class="st0" d="M106.2,72.6c-0.2,0.5-0.6,0.9-1.2,0.9c-0.6,0-1.1-0.4-1.2-0.9c-0.9-3.1-2.8-9.3-2.8-9.3h1.3l2.7,9l2.7-9h1.3
		C109.1,63.2,107.2,69.4,106.2,72.6"/>
	<path class="st0" d="M206.6,73.4h1.3c0,0-1.9-6.2-2.8-9.3c-0.2-0.5-0.6-0.9-1.2-0.9c-0.6,0-1.1,0.4-1.2,0.9
		c-0.9,3.1-2.8,9.3-2.8,9.3h1.3l0.9-2.8h3.7L206.6,73.4z M202.4,69.3l1.5-4.9l1.5,4.9H202.4z"/>
	<path class="st0" d="M183,73.4h1.3c0,0-1.9-6.2-2.8-9.3c-0.2-0.5-0.6-0.9-1.2-0.9c-0.6,0-1.1,0.4-1.2,0.9c-0.9,3.1-2.8,9.3-2.8,9.3
		h1.3l0.8-2.8h3.7L183,73.4z M178.8,69.3l1.5-4.9l1.5,4.9H178.8z"/>
	<path class="st0" d="M185.1,64.5c0-0.7,0.6-1.3,1.3-1.3h2.7c1.8,0,3.2,1.4,3.2,3.2v3.8c0,1.8-1.4,3.2-3.2,3.2h-2.7
		c-0.7,0-1.3-0.6-1.3-1.3V64.5z M189.1,72.1c1.1,0,1.9-0.9,1.9-1.9v-3.8c0-1.1-0.9-1.9-1.9-1.9h-2.7v7.6H189.1z"/>
	<path class="st0" d="M232.4,64.5c0-0.7,0.6-1.3,1.3-1.3h2.7c1.8,0,3.2,1.4,3.2,3.2v3.8c0,1.8-1.4,3.2-3.2,3.2h-2.7
		c-0.7,0-1.3-0.6-1.3-1.3V64.5z M236.4,72.1c1.1,0,1.9-0.9,1.9-1.9v-3.8c0-1.1-0.9-1.9-1.9-1.9h-2.7v7.6H236.4z"/>
	<path class="st0" d="M223.9,73.4H221c-1.8,0-3.2-1.4-3.2-3.2v-3.8c0-1.8,1.4-3.2,3.2-3.2h2.9v1.3H221c-1.1,0-1.9,0.9-1.9,1.9v3.8
		c0,1.1,0.9,1.9,1.9,1.9h2.9V73.4z"/>
	<path class="st0" d="M103.4,90.8h-2.9c-1.8,0-3.2-1.4-3.2-3.2v-3.8c0-1.8,1.4-3.2,3.2-3.2h2.9v1.3h-2.9c-1.1,0-1.9,0.9-1.9,1.9v3.8
		c0,1.1,0.9,1.9,1.9,1.9h2.9V90.8z"/>
	<path class="st0" d="M148.8,84.9v1.3h2.4v3.3h-2.4c-1.1,0-1.9-0.9-1.9-1.9v-3.8c0-1.1,0.9-1.9,1.9-1.9h3.2v-1.3h-3.2
		c-1.8,0-3.2,1.4-3.2,3.2v3.8c0,1.8,1.4,3.2,3.2,3.2h2.4c0.7,0,1.3-0.6,1.3-1.3v-3.3c0-0.7-0.6-1.3-1.3-1.3H148.8z"/>
	<polygon class="st0" points="104.6,80.6 104.6,90.8 105.8,90.8 105.8,86.2 110.7,86.2 110.7,90.8 111.9,90.8 111.9,80.6 
		110.7,80.6 110.7,84.9 105.8,84.9 105.8,80.6 	"/>
</g>
</svg>
