<?xml version="1.0" encoding="utf-8"?>
<!-- Generator: Adobe Illustrator 24.0.1, SVG Export Plug-In . SVG Version: 6.00 Build 0)  -->
<svg version="1.1" id="Capa_1" xmlns="http://www.w3.org/2000/svg" xmlns:xlink="http://www.w3.org/1999/xlink" x="0px" y="0px"
	 viewBox="0 0 234 234" style="enable-background:new 0 0 234 234;" xml:space="preserve">
<g>
	<path id="XMLID_17_" d="M119.4,36.1c16.5,0,29.9-4.1,30-9.2c0.1-5.1-13.1-9.2-29.6-9.2c-16.5,0-29.9,4.1-30.1,9.2
		C89.7,31.9,103,36.1,119.4,36.1 M117,215.9c-57.6,0-104.2-46.7-104.2-104.2c0-33.6,16-63.5,40.8-82.5
		c-41.7,47.1,4.9,148.4,31.8,151.2c33.5,2.1,46.1-103.7,85.5-117.3c29.5-11.1,51.8,33.1,38.4,82.9
		C195.4,188.3,160.5,215.1,117,215.9 M68.8,25.5c7.9-8.9,21.3-15.9,39.3-17.6c2.9-0.2,5.9-0.4,8.8-0.4c29.4,0,56,12.3,74.9,31.9
		c-2.6-0.9-6.4-2.1-13.5-2.1c-57.7,0-77.3,114-94.6,113.6C72.4,151.3,33.3,65.6,68.8,25.5 M117,0C52.4,0,0,52.4,0,117
		s52.4,117,117,117c64.6,0,117-52.4,117-117S181.6,0,117,0"/>
</g>
</svg>
