<?xml version="1.0" encoding="utf-8"?>
<!-- Generator: Adobe Illustrator 24.3.0, SVG Export Plug-In . SVG Version: 6.00 Build 0)  -->
<svg version="1.1" id="Capa_1" xmlns="http://www.w3.org/2000/svg" xmlns:xlink="http://www.w3.org/1999/xlink" x="0px" y="0px"
	 viewBox="0 0 234 234" style="enable-background:new 0 0 234 234;" xml:space="preserve">
<style type="text/css">
	.st0{fill:#2857AF;}
	.st1{fill:#FFFFFF;}
</style>
<path class="st0" d="M234,0H0v234h234V0z"/>
<g>
	<path class="st1" d="M95.5,142.1c1.6,2.2,3.4,3.5,5,3.4c1.9-0.1,3.9-1.9,5.5-4.8c5-9.3,8.2-18.3,11.3-27c4.4-12.3,8.9-25,17.9-37
		c9.6-12.5,24.7-17.4,30.2-18.7c0.9-0.2,1.1-1.3,0.4-1.9C152.3,45.4,135.4,39,117,39c-9.1,0-17.7,1.6-25.8,4.4
		c-9.9,3.5-16.7,12.9-17,23.4C73.9,87.3,77.1,116.4,95.5,142.1z"/>
	<path class="st1" d="M168,76.1c-8.3,1.1-14.4,7-18,11.8c-7.3,9.8-11,20-15.3,32c-3.4,9.4-6.8,19.1-12.5,29.6
		c-4.7,8.7-12.2,17.5-20.6,18.1c-0.5,0-0.9,0-1.4,0c-7.6,0-14.9-7.6-20-14.8c-18.8-26.4-24.1-55.3-24.7-77.6c0-2-2.6-2.7-3.8-1.1
		c-11.1,16.2-16.3,38.8-10.5,61.6c7.3,29.2,30.9,51.1,58,57.1c50.7,11.4,95.6-27.2,95.6-76.1c0-9.8-1.9-19.2-5.2-27.9
		c-2.4-6.3-7.8-11.2-14.4-12.7C173,75.9,170.4,75.8,168,76.1z"/>
</g>
</svg>
