<?xml version="1.0" encoding="utf-8"?>
<!-- Generator: Adobe Illustrator 24.0.1, SVG Export Plug-In . SVG Version: 6.00 Build 0)  -->
<svg version="1.1" id="Capa_1" xmlns="http://www.w3.org/2000/svg" xmlns:xlink="http://www.w3.org/1999/xlink" x="0px" y="0px"
	 viewBox="0 0 234 234" style="enable-background:new 0 0 234 234;" xml:space="preserve">
<style type="text/css">
	.st0{fill:#FFFFFF;}
</style>
<g>
	<path id="XMLID_17_" class="st0" d="M119.45,36.07c16.46,0,29.92-4.14,30.03-9.2c0.14-5.08-13.15-9.2-29.63-9.2
		c-16.48-0.03-29.9,4.08-30.06,9.17C89.68,31.9,102.98,36.07,119.45,36.07 M117,215.9c-57.56,0-104.2-46.66-104.2-104.2
		c0-33.63,16.01-63.47,40.75-82.53c-41.67,47.07,4.91,148.45,31.78,151.18c33.47,2.06,46.14-103.71,85.46-117.26
		c29.5-11.07,51.83,33.1,38.35,82.89C195.45,188.32,160.52,215.15,117,215.9 M68.85,25.53c7.91-8.9,21.31-15.86,39.3-17.59
		c2.92-0.24,5.86-0.45,8.84-0.45c29.45,0,56,12.26,74.95,31.91c-2.65-0.88-6.35-2.08-13.46-2.08c-57.7,0-77.28,113.96-94.58,113.57
		C72.45,151.28,33.27,65.57,68.85,25.53 M117,0C52.38,0,0,52.38,0,117s52.38,117,117,117c64.61,0,117-52.38,117-117S181.62,0,117,0"
		/>
</g>
</svg>
