<?xml version="1.0" encoding="utf-8"?>
<!-- Generator: Adobe Illustrator 24.3.0, SVG Export Plug-In . SVG Version: 6.00 Build 0)  -->
<svg version="1.1" id="Capa_1" xmlns="http://www.w3.org/2000/svg" xmlns:xlink="http://www.w3.org/1999/xlink" x="0px" y="0px"
	 viewBox="0 0 214.8 234" style="enable-background:new 0 0 214.8 234;" xml:space="preserve">
<style type="text/css">
	.st0{fill-rule:evenodd;clip-rule:evenodd;fill:#FFFFFF;filter:url(#Adobe_OpacityMaskFilter);}
	.st1{mask:url(#mask0_2_);}
	.st2{fill:#0065A9;}
	.st3{fill:#007ACC;}
	.st4{fill:#1F9CF0;}
	.st5{opacity:0.25;}
	.st6{fill-rule:evenodd;clip-rule:evenodd;fill:url(#SVGID_1_);}
</style>
<defs>
	<filter id="Adobe_OpacityMaskFilter" filterUnits="userSpaceOnUse" x="0" y="20.3" width="195.5" height="194.3">
		<feColorMatrix  type="matrix" values="1 0 0 0 0  0 1 0 0 0  0 0 1 0 0  0 0 0 1 0"/>
	</filter>
</defs>
<mask maskUnits="userSpaceOnUse" x="0" y="20.3" width="195.5" height="194.3" id="mask0_2_">
	<path class="st0" d="M138.6,213.8c3.1,1.2,6.6,1.1,9.7-0.4l40.2-19.4c4.2-2,6.9-6.3,6.9-11V51.9c0-4.7-2.7-9-6.9-11l-40.2-19.4
		c-4.1-2-8.8-1.5-12.4,1.1c-0.5,0.4-1,0.8-1.5,1.2l-77,70.2L23.9,68.7c-3.1-2.4-7.5-2.2-10.4,0.5L2.8,78.9c-3.5,3.2-3.6,8.8,0,12
		l29.1,26.5L2.8,144c-3.5,3.2-3.5,8.8,0,12l10.8,9.8c2.9,2.6,7.3,2.8,10.4,0.5l33.5-25.5l77,70.2
		C135.7,212.3,137.1,213.2,138.6,213.8z M146.7,73.2l-58.4,44.3l58.4,44.3V73.2z"/>
</mask>
<g class="st1">
	<path class="st2" d="M188.6,40.9l-40.3-19.4c-4.7-2.2-10.2-1.3-13.9,2.4L2.7,144c-3.5,3.2-3.5,8.8,0,12l10.8,9.8
		c2.9,2.6,7.3,2.8,10.4,0.5L182.5,45.9c5.3-4,13-0.2,13,6.4v-0.5C195.5,47.2,192.8,43,188.6,40.9z"/>
	<g>
		<path class="st3" d="M188.6,194.1l-40.3,19.4c-4.7,2.2-10.2,1.3-13.9-2.4L2.7,91c-3.5-3.2-3.5-8.8,0-12l10.8-9.8
			c2.9-2.6,7.3-2.8,10.4-0.5l158.7,120.4c5.3,4,13,0.2,13-6.4v0.5C195.5,187.8,192.8,192,188.6,194.1z"/>
	</g>
	<g>
		<path class="st4" d="M148.3,213.5c-4.7,2.2-10.2,1.3-13.9-2.4c4.5,4.5,12.2,1.3,12.2-5.1V29c0-6.4-7.7-9.6-12.2-5.1
			c3.7-3.7,9.2-4.6,13.9-2.4l40.2,19.4c4.2,2,6.9,6.3,6.9,11v131.2c0,4.7-2.7,9-6.9,11L148.3,213.5z"/>
	</g>
	<g class="st5">
		
			<linearGradient id="SVGID_1_" gradientUnits="userSpaceOnUse" x1="97.673" y1="215.6696" x2="97.673" y2="21.3307" gradientTransform="matrix(1 0 0 -1 0 236)">
			<stop  offset="0" style="stop-color:#FFFFFF"/>
			<stop  offset="1" style="stop-color:#FFFFFF;stop-opacity:0"/>
		</linearGradient>
		<path class="st6" d="M138.5,213.8c3.1,1.2,6.6,1.1,9.7-0.4l40.2-19.4c4.2-2,6.9-6.3,6.9-11V51.9c0-4.7-2.7-9-6.9-11l-40.2-19.4
			c-4.1-2-8.8-1.5-12.4,1.1c-0.5,0.4-1,0.8-1.5,1.2l-77,70.2L23.8,68.7c-3.1-2.4-7.5-2.2-10.4,0.5L2.7,78.9c-3.5,3.2-3.6,8.8,0,12
			l29.1,26.5L2.7,144c-3.5,3.2-3.5,8.8,0,12l10.8,9.8c2.9,2.6,7.3,2.8,10.4,0.5l33.5-25.5l77,70.2
			C135.6,212.3,137,213.2,138.5,213.8z M146.5,73.2l-58.4,44.3l58.4,44.3V73.2z"/>
	</g>
</g>
</svg>
