<?xml version="1.0" encoding="utf-8"?>
<!-- Generator: Adobe Illustrator 24.0.1, SVG Export Plug-In . SVG Version: 6.00 Build 0)  -->
<svg version="1.1" id="Layer_1" xmlns="http://www.w3.org/2000/svg" xmlns:xlink="http://www.w3.org/1999/xlink" x="0px" y="0px"
	 viewBox="0 0 234 234" style="enable-background:new 0 0 234 234;" xml:space="preserve">
<style type="text/css">
	.st0{fill:#00749A;}
</style>
<g>
	<path class="st0" d="M16.6,117c0,39.7,23.1,74.1,56.6,90.3L25.3,76.1C19.8,88.6,16.6,102.4,16.6,117L16.6,117L16.6,117z
		 M184.8,111.9c0-12.4-4.5-21-8.3-27.7c-5.1-8.3-9.9-15.3-9.9-23.5c0-9.2,7-17.8,16.9-17.8c0.4,0,0.9,0.1,1.3,0.1
		c-17.9-16.4-41.6-26.3-67.8-26.3c-35.1,0-65.9,18-83.9,45.2c2.4,0.1,4.6,0.1,6.5,0.1c10.5,0,26.7-1.3,26.7-1.3
		c5.4-0.3,6,7.6,0.6,8.3c0,0-5.4,0.6-11.5,1l36.6,108.7l22-65.9L98.4,69.9c-5.4-0.3-10.5-1-10.5-1c-5.4-0.3-4.8-8.6,0.6-8.3
		c0,0,16.6,1.3,26.4,1.3c10.5,0,26.7-1.3,26.7-1.3c5.4-0.3,6.1,7.6,0.6,8.3c0,0-5.4,0.6-11.5,1l36.3,107.9l10-33.5
		C181.5,130.5,184.8,120.5,184.8,111.9L184.8,111.9L184.8,111.9z M118.8,125.8l-30.1,87.5c9,2.6,18.5,4.1,28.4,4.1
		c11.7,0,22.9-2,33.3-5.7c-0.3-0.4-0.5-0.9-0.7-1.4L118.8,125.8L118.8,125.8z M205.1,68.8c0.4,3.2,0.7,6.6,0.7,10.3
		c0,10.2-1.9,21.6-7.6,36l-30.7,88.6c29.8-17.4,49.9-49.7,49.9-86.8C217.4,99.5,212.9,83.1,205.1,68.8L205.1,68.8L205.1,68.8z
		 M117,0C52.5,0,0,52.5,0,117c0,64.5,52.5,117,117,117c64.5,0,117-52.5,117-117C234,52.5,181.5,0,117,0L117,0L117,0z M117,228.6
		C55.4,228.6,5.4,178.6,5.4,117C5.4,55.4,55.4,5.4,117,5.4c61.6,0,111.6,50.1,111.6,111.6C228.6,178.6,178.6,228.6,117,228.6
		L117,228.6L117,228.6z"/>
</g>
</svg>
