<?xml version="1.0" encoding="utf-8"?>
<!-- Generator: Adobe Illustrator 24.0.1, SVG Export Plug-In . SVG Version: 6.00 Build 0)  -->
<svg version="1.1" id="Capa_1" xmlns="http://www.w3.org/2000/svg" xmlns:xlink="http://www.w3.org/1999/xlink" x="0px" y="0px"
	 viewBox="0 0 332.13 234" style="enable-background:new 0 0 332.13 234;" xml:space="preserve">
<style type="text/css">
	.st0{fill:#FF0000;}
	.st1{fill:#FFFFFF;}
</style>
<g id="XMLID_184_">
	<path id="XMLID_182_" class="st0" d="M325.19,36.54c-3.82-14.38-15.07-25.71-29.36-29.55C269.92,0,166.06,0,166.06,0
		S62.2,0,36.3,6.99C22.01,10.83,10.76,22.16,6.94,36.54C0,62.61,0,117,0,117s0,54.39,6.94,80.46c3.82,14.38,15.07,25.71,29.36,29.55
		C62.2,234,166.06,234,166.06,234s103.86,0,129.76-6.99c14.29-3.84,25.54-15.17,29.36-29.55c6.94-26.07,6.94-80.46,6.94-80.46
		S332.13,62.61,325.19,36.54z"/>
	<polygon id="XMLID_1355_" class="st1" points="132.1,166.38 218.9,117 132.1,67.62 	"/>
</g>
</svg>
