<?xml version="1.0" encoding="utf-8"?>
<!-- Generator: Adobe Illustrator 24.0.1, SVG Export Plug-In . SVG Version: 6.00 Build 0)  -->
<svg version="1.1" id="Capa_1" xmlns="http://www.w3.org/2000/svg" xmlns:xlink="http://www.w3.org/1999/xlink" x="0px" y="0px"
	 viewBox="0 0 267.95 234" style="enable-background:new 0 0 267.95 234;" xml:space="preserve">
<style type="text/css">
	.st0{fill:#FFFFFF;}
</style>
<g>
	<path class="st0" d="M157.02,0.03c12.37-0.7,21.25,12.65,24.98,21.61c2.12,5.1,3.9,13.41-1.22,15.93c-4,1.97-8.79,2.28-14.45,3.02
		c-13.52,1.76-22.12-1.47-27.01-9.65c-1.4-2.34-2.87-6.48-2-10.58c1.7-8.1,6.71-14.55,12.97-18.19
		C151.45,1.47,154.37,0.18,157.02,0.03"/>
	<path class="st0" d="M119.13,48.78c7.24,0.01,14.82,1.19,21.87,3.06c7.72,2.06,14.98,4.78,21.06,7.2
		c11.66,4.65,20.2,8.05,20.2,8.05s5.89-4.07,8.13-5.58c5.43-3.34,10.49-6.71,17.18-8.17c2.17-0.47,6.2-0.49,8.22-0.13
		c7.93,1.41,12.74,4.86,13.41,11.59c0.91,9.04-10.63,18.61-13.35,21.16c-2.43,2.28-14.07,13.27-28.38,14.42
		c-6.97,0.56-13.55-1.73-18.29-3.72c-1.58-0.67-5.7-2.72-5.7-2.72s-6.36,6.06-12.2,12.17c-5.87,6.14-20.4,23.92-20.4,23.96
		c16.04-1.15,34.46,3.97,46.14,8.48c27.47,10.61,53.98,29.28,71.9,54.54c6.15,8.68,12.01,18.26,16.45,28.54
		c1.22,2.82,3.62,8.8,1.48,11.36c-2.22,2.64-7.32-0.49-10.2-1.89c-5.23-2.54-16.38-11.06-24.43-17.52
		c-3.68-2.96-9.37-8.07-10.36-12.58c-0.63-2.89,1.12-6.67,1.73-9.63c0.97-4.74-1.79-8.39-3.7-10.78
		c-4.49-5.59-12.18-9.09-19.41-11.92c-14.36-5.65-24.43-7.45-48.78-10.53c-24.35-3.08-40.64-1.14-42.45-1.07
		c-1.88,2.23-4.29,5.1-6.17,7.33c-5.18,5.37-24.45,24.4-30.03,28.62c-9.97,7.55-21.11,14.88-32.9,20.57
		c-22.7,10.94-37.18,9.21-38.83,7.4c-1.64-1.81-1.71-6.97,1.75-14.05c3.49-7.14,11.78-16.4,15.61-20.33
		c3.82-3.94,10.92-10.45,20.56-17.77c13.33-10.12,33.6-20.3,43.68-25.25c14.06-6.91,28.14-10.23,31.67-11.19
		c19.33-26.57,39.81-43.43,39.81-43.43s-8.21-5.25-11.68-7.57c-7.55-5.04-14.98-10.43-23.69-14.23c-5.48-2.39-14.54-5.76-22.38-3.78
		c-9.65,2.44-22.35,9.68-27.44,15.93c-1.7,2.08-3.13,5.88-3.7,9.11c-0.45,2.55,0.25,6.27-0.44,8.1c-1.21,3.21-6.45,6.05-10.53,7.84
		c-5.54,2.43-11.24,4.93-17.55,6.53c-2.13,0.54-5.88,1.55-7.04-0.03c-1.54-2.09,0.86-5.23,1.67-6.67
		c3.31-5.88,7.29-10.82,11.49-15.82C55.9,73.12,69.81,61.76,89.35,53.98C94.25,52.03,103.66,48.76,119.13,48.78 M214.59,62.01
		c-3.33,0.31-6.98,0.93-9.99,2.11c-4.44,1.73-8.39,3.82-12.46,6.28c8.98,2.73,19.31,4.28,27.42-0.64c1.97-1.2,3.75-2.81,3.84-4.73
		C223.5,62.86,217.91,61.7,214.59,62.01 M93.1,159.02c0,0-4.5,0.82-6.91,1.31c-2.41,0.5-7.98,2.09-11.71,3.06
		c-10.22,2.65-37,13.04-49.04,25.08c-3.93,3.92-7.02,8.61-9.31,14.18c-0.63,1.53-1.9,5.08-0.62,7.21c1.09,1.81,4.33,2.21,7.1,1.61
		c5.7-1.25,10.84-3.6,15.41-6.12c17.19-9.48,33.7-23.25,43.95-34.32c3.32-3.59,7.57-8.01,8.77-9.35
		C91.95,160.34,93.1,159.02,93.1,159.02"/>
</g>
</svg>
